<svg width="140" height="190" viewBox="0 0 140 190" fill="none" xmlns="http://www.w3.org/2000/svg">
<path d="M21 5H124C132.86 5 140 12.136 140 21V174C140 182.86 132.86 190 124 190H21C12.136 190 5 182.86 5 174V21C5 12.136 12.136 5 21 5Z" fill="black" fill-opacity="0.49804"/>
<path d="M17 1H120C128.86 1 136 8.136 136 17V170C136 178.86 128.86 186 120 186H17C8.136 186 1 178.86 1 170V17C1 8.136 8.136 1 17 1Z" fill="#E7E7E7"/>
<path d="M19 3H122C130.86 3 138 10.136 138 19V172C138 180.86 130.86 188 122 188H19C10.136 188 3 180.86 3 172V19C3 10.136 10.136 3 19 3Z" fill="#C7891F"/>
<path d="M18 2H121C129.86 2 137 9.136 137 18V171C137 179.86 129.86 187 121 187H18C9.136 187 2 179.86 2 171V18C2 9.136 9.136 2 18 2Z" fill="white"/>
<path fill-rule="evenodd" clip-rule="evenodd" d="M20.527 48.67C17.861 48.67 15.697 51.934 15.697 55.956C15.697 59.382 20.089 65.147 19.919 67.885C18.509 68.668 14.152 61.448 11.9 61.448C9.23351 61.448 7.07001 64.711 7.07001 68.733C7.07001 72.756 9.23351 76.019 11.9 76.019C14.212 76.019 18.176 68.805 19.919 69.456L16.99 82.33L24.014 82.288C24.014 82.288 20.937 69.807 20.933 69.512H20.988V69.526C22.695 68.886 26.794 76.158 29.09 76.158C31.757 76.158 33.92 72.895 33.92 68.872C33.92 64.85 31.757 61.587 29.09 61.587C26.848 61.587 22.782 68.687 20.997 67.955C21.022 65.149 25.357 59.378 25.357 55.956C25.357 51.934 23.194 48.67 20.527 48.67V48.67Z" fill="black"/>
<path fill-rule="evenodd" clip-rule="evenodd" d="M117.42 139.96C120.08 139.96 122.25 136.7 122.25 132.67C122.25 129.25 117.86 123.48 118.03 120.74C119.44 119.96 123.79 127.18 126.05 127.18C128.71 127.18 130.88 123.92 130.88 119.9C130.88 115.87 128.71 112.61 126.05 112.61C123.73 112.61 119.77 119.82 118.03 119.17L120.96 106.3L113.93 106.34C113.93 106.34 117.01 118.82 117.01 119.12H116.96V119.1C115.25 119.74 111.15 112.47 108.86 112.47C106.19 112.47 104.03 115.74 104.03 119.76C104.03 123.78 106.19 127.04 108.86 127.04C111.1 127.04 115.16 119.94 116.95 120.68C116.92 123.48 112.59 129.25 112.59 132.67C112.59 136.7 114.75 139.96 117.42 139.96V139.96Z" fill="black"/>
<path fill-rule="evenodd" clip-rule="evenodd" d="M68.839 50.22C67.286 50.22 66.025 52.138 66.025 54.501C66.025 56.515 68.584 59.903 68.484 61.512C67.663 61.971 65.125 57.729 63.813 57.729C62.26 57.729 61 59.646 61 62.01C61 64.374 62.26 66.291 63.813 66.291C65.16 66.291 67.469 62.052 68.484 62.435L66.778 70L70.87 69.975C70.87 69.975 69.077 62.641 69.075 62.468H69.107V62.476C70.102 62.1 72.489 66.373 73.827 66.373C75.38 66.373 76.64 64.455 76.64 62.092C76.64 59.728 75.38 57.81 73.827 57.81C72.52 57.81 70.152 61.983 69.113 61.553C69.127 59.904 71.652 56.513 71.652 54.501C71.652 52.138 70.392 50.22 68.839 50.22V50.22Z" fill="black"/>
<path fill-rule="evenodd" clip-rule="evenodd" d="M68.801 137C70.354 137 71.615 135.08 71.615 132.72C71.615 130.71 69.056 127.32 69.156 125.71C69.977 125.25 72.515 129.49 73.827 129.49C75.38 129.49 76.64 127.57 76.64 125.21C76.64 122.85 75.38 120.93 73.827 120.93C72.48 120.93 70.171 125.17 69.156 124.79L70.862 117.22L66.77 117.24C66.77 117.24 68.563 124.58 68.565 124.75H68.533V124.74C67.538 125.12 65.151 120.85 63.813 120.85C62.26 120.85 61 122.76 61 125.13C61 127.49 62.26 129.41 63.813 129.41C65.12 129.41 67.488 125.24 68.527 125.67C68.513 127.32 65.988 130.71 65.988 132.72C65.988 135.08 67.248 137 68.801 137V137Z" fill="black"/>
<path d="M18.801 36.311H29.715V41.998H11.69V36.311L20.744 26.646C21.553 25.762 22.151 24.898 22.539 24.054C22.926 23.21 23.12 22.333 23.12 21.422C23.12 20.016 22.727 18.884 21.94 18.026C21.165 17.169 20.13 16.74 18.834 16.74C17.837 16.74 16.746 17.002 15.561 17.524C14.376 18.033 13.108 18.797 11.757 19.815V13.224C13.196 12.648 14.62 12.213 16.026 11.918C17.433 11.61 18.812 11.456 20.163 11.456C23.131 11.456 25.435 12.246 27.074 13.827C28.724 15.407 29.549 17.611 29.549 20.438C29.549 22.072 29.2 23.599 28.503 25.019C27.805 26.425 26.337 28.314 24.1 30.685L18.801 36.311" fill="black"/>
<path d="M120.12 152.44H109.21V146.76H127.23V152.44L118.18 162.11C117.37 162.99 116.77 163.86 116.38 164.7C115.99 165.55 115.8 166.42 115.8 167.33C115.8 168.74 116.19 169.87 116.98 170.73C117.76 171.59 118.79 172.02 120.09 172.02C121.08 172.02 122.17 171.75 123.36 171.23C124.54 170.72 125.81 169.96 127.16 168.94V175.53C125.72 176.11 124.3 176.54 122.89 176.84C121.49 177.15 120.11 177.3 118.76 177.3C115.79 177.3 113.49 176.51 111.85 174.93C110.2 173.35 109.37 171.14 109.37 168.32C109.37 166.68 109.72 165.16 110.42 163.74C111.12 162.33 112.58 160.44 114.82 158.07L120.12 152.44" fill="black"/>
</svg>
