<svg width="140" height="190" viewBox="0 0 140 190" fill="none" xmlns="http://www.w3.org/2000/svg">
<path d="M21 5H124C132.86 5 140 12.136 140 21V174C140 182.86 132.86 190 124 190H21C12.136 190 5 182.86 5 174V21C5 12.136 12.136 5 21 5Z" fill="black" fill-opacity="0.49804"/>
<path d="M17 1H120C128.86 1 136 8.136 136 17V170C136 178.86 128.86 186 120 186H17C8.136 186 1 178.86 1 170V17C1 8.136 8.136 1 17 1Z" fill="#E7E7E7"/>
<path d="M19 3H122C130.86 3 138 10.136 138 19V172C138 180.86 130.86 188 122 188H19C10.136 188 3 180.86 3 172V19C3 10.136 10.136 3 19 3Z" fill="#C7891F"/>
<path d="M18 2H121C129.86 2 137 9.136 137 18V171C137 179.86 129.86 187 121 187H18C9.136 187 2 179.86 2 171V18C2 9.136 9.136 2 18 2Z" fill="white"/>
<path d="M18.7982 36.3019H29.7187V41.9989H11.6876V36.3019L20.7441 26.6457C21.5533 25.7549 22.1535 24.897 22.5354 24.0502C22.9263 23.2033 23.1173 22.3235 23.1173 21.4217C23.1173 20.0139 22.7263 18.8811 21.9443 18.0233C21.1623 17.1654 20.1258 16.7365 18.8346 16.7365C17.8344 16.7365 16.7432 17.0005 15.5612 17.5174C14.3791 18.0233 13.1061 18.7931 11.7604 19.8049V13.2171C13.197 12.6452 14.6246 12.2053 16.0249 11.9084C17.4343 11.6004 18.8164 11.4465 20.1621 11.4465C23.1355 11.4465 25.4359 12.2383 27.0727 13.822C28.7275 15.4057 29.5459 17.6054 29.5459 20.4318C29.5459 22.0705 29.2004 23.5993 28.5002 25.018C27.8092 26.4257 26.3361 28.3064 24.0993 30.682L18.7982 36.3019" fill="#FF0000"/>
<path d="M120.119 152.443H109.208V146.757H127.23V152.443L118.173 162.109C117.364 162.992 116.773 163.857 116.382 164.7C115.991 165.545 115.8 166.423 115.8 167.333C115.8 168.74 116.191 169.872 116.982 170.729C117.755 171.586 118.792 172.015 120.083 172.015C121.083 172.015 122.174 171.753 123.356 171.231C124.547 170.723 125.811 169.958 127.166 168.941V175.532C125.72 176.108 124.302 176.543 122.893 176.838C121.492 177.146 120.11 177.3 118.755 177.3C115.791 177.3 113.491 176.509 111.845 174.929C110.199 173.348 109.372 171.144 109.372 168.318C109.372 166.683 109.717 165.157 110.417 163.736C111.117 162.329 112.581 160.441 114.818 158.07L120.119 152.443" fill="#FF0000"/>
<path fill-rule="evenodd" clip-rule="evenodd" d="M20.4099 48.665C16.2839 56.91 13.2749 61.163 7.06995 65.705C12.9419 70.192 17.0829 74.829 20.5299 82.325C23.6089 75.204 27.3769 69.895 33.9199 65.482C27.3379 62.133 23.5269 56.828 20.4099 48.665V48.665Z" fill="#FF0000"/>
<path fill-rule="evenodd" clip-rule="evenodd" d="M68.77 50.22C66.367 55.065 64.615 57.564 61 60.233C64.421 62.87 66.832 65.595 68.84 70C70.634 65.815 72.828 62.696 76.64 60.102C72.806 58.134 70.586 55.017 68.77 50.22V50.22Z" fill="#FF0000"/>
<path fill-rule="evenodd" clip-rule="evenodd" d="M68.13 117C65.727 121.85 63.975 124.34 60.36 127.01C63.781 129.65 66.192 132.38 68.2 136.78C69.994 132.6 72.188 129.48 76 126.88C72.166 124.91 69.946 121.8 68.13 117Z" fill="#FF0000"/>
<path fill-rule="evenodd" clip-rule="evenodd" d="M118.34 106.34C114.21 114.59 111.21 118.84 105 123.38C110.87 127.87 115.01 132.5 118.46 140C121.54 132.88 125.31 127.57 131.85 123.16C125.27 119.81 121.46 114.5 118.34 106.34V106.34Z" fill="#FF0000"/>
</svg>
