<svg width="140" height="190" viewBox="0 0 140 190" fill="none" xmlns="http://www.w3.org/2000/svg">
<path d="M21 5H124C132.86 5 140 12.136 140 21V174C140 182.86 132.86 190 124 190H21C12.136 190 5 182.86 5 174V21C5 12.136 12.136 5 21 5Z" fill="black" fill-opacity="0.49804"/>
<path d="M17 1H120C128.86 1 136 8.136 136 17V170C136 178.86 128.86 186 120 186H17C8.136 186 1 178.86 1 170V17C1 8.136 8.136 1 17 1Z" fill="#E7E7E7"/>
<path d="M19 3H122C130.86 3 138 10.136 138 19V172C138 180.86 130.86 188 122 188H19C10.136 188 3 180.86 3 172V19C3 10.136 10.136 3 19 3Z" fill="#C7891F"/>
<path d="M18 2H121C129.86 2 137 9.136 137 18V171C137 179.86 129.86 187 121 187H18C9.136 187 2 179.86 2 171V18C2 9.136 9.136 2 18 2Z" fill="white"/>
<path d="M18.8 36.311H29.715V41.998H11.69V36.311L20.744 26.646C21.553 25.762 22.151 24.898 22.538 24.054C22.926 23.21 23.12 22.333 23.12 21.422C23.12 20.015 22.727 18.884 21.94 18.026C21.165 17.169 20.129 16.74 18.834 16.74C17.837 16.74 16.746 17.001 15.561 17.524C14.376 18.033 13.108 18.796 11.756 19.815V13.224C13.196 12.648 14.619 12.212 16.026 11.918C17.433 11.61 18.811 11.456 20.163 11.456C23.131 11.456 25.435 12.246 27.074 13.827C28.724 15.407 29.549 17.611 29.549 20.437C29.549 22.072 29.2 23.599 28.502 25.019C27.805 26.425 26.337 28.314 24.1 30.685L18.8 36.311" fill="#FF0000"/>
<path fill-rule="evenodd" clip-rule="evenodd" d="M13.5544 48.8447C12.7503 48.8489 11.8671 49.0461 10.892 49.4868C0.24873 57.6839 14.5959 70.9091 20.6552 82.2625L20.8325 82.3212C27.4901 69.9102 40.1657 56.2527 30.4785 49.4868C22.8079 46.0242 20.7565 57.5454 20.6868 57.9609C20.6235 57.5958 19.0565 48.8069 13.5544 48.8447Z" fill="#FF0000"/>
<path d="M120.07 152.69H109.15V147H127.18V152.69L118.12 162.35C117.31 163.24 116.71 164.1 116.33 164.95C115.94 165.79 115.75 166.67 115.75 167.58C115.75 168.98 116.14 170.12 116.93 170.97C117.7 171.83 118.74 172.26 120.03 172.26C121.03 172.26 122.12 172 123.3 171.48C124.49 170.97 125.76 170.2 127.11 169.19V175.78C125.67 176.35 124.25 176.79 122.84 177.08C121.43 177.39 120.05 177.54 118.7 177.54C115.73 177.54 113.43 176.75 111.79 175.17C110.14 173.59 109.32 171.39 109.32 168.56C109.32 166.93 109.67 165.4 110.36 163.98C111.06 162.57 112.53 160.69 114.77 158.31L120.07 152.69" fill="#FF0000"/>
<path fill-rule="evenodd" clip-rule="evenodd" d="M125.308 139.993C126.112 139.989 126.995 139.791 127.97 139.351C138.613 131.154 124.266 117.928 118.207 106.575L118.03 106.516C111.372 118.927 98.6963 132.585 108.383 139.351C116.054 142.813 118.106 131.292 118.175 130.877C118.238 131.242 119.806 140.031 125.308 139.993Z" fill="#FF0000"/>
<path fill-rule="evenodd" clip-rule="evenodd" d="M64.7624 50.2199C64.2953 50.2224 63.7823 50.3389 63.2159 50.5993C57.0333 55.4416 65.3674 63.2542 68.8872 69.961L68.9902 69.9957C72.8575 62.6641 80.2206 54.5961 74.5934 50.5993C70.1377 48.5538 68.946 55.3597 68.9056 55.6052C68.8688 55.3895 67.9585 50.1976 64.7624 50.2199Z" fill="#FF0000"/>
<path fill-rule="evenodd" clip-rule="evenodd" d="M73.2335 136C73.7006 135.998 74.2137 135.881 74.7801 135.621C80.9626 130.778 72.6285 122.966 69.1088 116.259L69.0058 116.224C65.1385 123.556 57.7754 131.624 63.4026 135.621C67.8583 137.666 69.0499 130.86 69.0904 130.615C69.1272 130.831 70.0375 136.022 73.2335 136Z" fill="#FF0000"/>
</svg>
