<svg width="140" height="190" viewBox="0 0 140 190" fill="none" xmlns="http://www.w3.org/2000/svg">
<path d="M21 5H124C132.86 5 140 12.136 140 21V174C140 182.86 132.86 190 124 190H21C12.136 190 5 182.86 5 174V21C5 12.136 12.136 5 21 5Z" fill="black" fill-opacity="0.49804"/>
<path d="M17 1H120C128.86 1 136 8.136 136 17V170C136 178.86 128.86 186 120 186H17C8.136 186 1 178.86 1 170V17C1 8.136 8.136 1 17 1Z" fill="#E7E7E7"/>
<path d="M19 3H122C130.86 3 138 10.136 138 19V172C138 180.86 130.86 188 122 188H19C10.136 188 3 180.86 3 172V19C3 10.136 10.136 3 19 3Z" fill="#C7891F"/>
<path d="M18 2H121C129.86 2 137 9.136 137 18V171C137 179.86 129.86 187 121 187H18C9.136 187 2 179.86 2 171V18C2 9.136 9.136 2 18 2Z" fill="white"/>
<path fill-rule="evenodd" clip-rule="evenodd" d="M68.8982 50.3304C66.0274 54.9276 57.2252 62.7553 62.8007 65.1734C66.1876 66.2868 67.795 64.0074 68.4771 62.4996H68.6135L66.3655 70.1075L71.5733 70.0836C71.5733 70.0836 69.3312 62.772 69.3253 62.4925H69.3786C69.9303 63.7254 72.024 66.2749 74.3254 65.3048C81.0516 62.5809 71.1462 54.8321 68.8982 50.3304V50.3304Z" fill="black"/>
<path fill-rule="evenodd" clip-rule="evenodd" d="M68.7168 137.015C71.5876 132.417 80.3898 124.59 74.8143 122.172C71.4274 121.058 69.82 123.338 69.1379 124.845H69.0015L71.2495 117.238L66.0417 117.261C66.0417 117.261 68.2838 124.573 68.2897 124.853H68.2363C67.6847 123.62 65.5909 121.07 63.2896 122.04C56.5634 124.764 66.4688 132.513 68.7168 137.015V137.015Z" fill="black"/>
<path fill-rule="evenodd" clip-rule="evenodd" d="M20.64 48.6647C15.71 56.4885 0.599964 69.8114 10.18 73.9277C15.99 75.8196 18.75 71.9437 19.92 69.3785H20.16L16.3 82.3247L25.24 82.2846C25.24 82.2846 21.39 69.8395 21.38 69.3665H21.47C22.42 71.4627 26.01 75.8035 29.96 74.1482C41.5 69.5148 24.5 56.3282 20.64 48.6647V48.6647Z" fill="black"/>
<path d="M18.7999 36.311H29.7149V41.998H11.6899V36.311L20.7439 26.646C21.5529 25.762 22.1509 24.898 22.5379 24.054C22.9259 23.21 23.1199 22.333 23.1199 21.422C23.1199 20.016 22.7269 18.884 21.9399 18.026C21.1649 17.169 20.1299 16.74 18.8339 16.74C17.8369 16.74 16.7459 17.001 15.5609 17.524C14.3759 18.033 13.1079 18.797 11.7559 19.815V13.224C13.1959 12.648 14.6189 12.213 16.0259 11.918C17.4329 11.61 18.8119 11.456 20.1629 11.456C23.1309 11.456 25.4349 12.246 27.0739 13.827C28.7239 15.407 29.5489 17.611 29.5489 20.437C29.5489 22.072 29.1999 23.599 28.5029 25.019C27.8049 26.425 26.3369 28.314 24.0999 30.685L18.7999 36.311" fill="black"/>
<path fill-rule="evenodd" clip-rule="evenodd" d="M118.52 139.999C123.45 132.175 138.56 118.852 128.98 114.736C123.17 112.844 120.41 116.72 119.24 119.285H119L122.86 106.339L113.92 106.379C113.92 106.379 117.77 118.824 117.78 119.301H117.69C116.74 117.201 113.15 112.86 109.2 114.515C97.6601 119.149 114.66 132.339 118.52 139.999V139.999Z" fill="black"/>
<path d="M120.12 152.44H109.2V146.76H127.23V152.44L118.18 162.11C117.37 162.99 116.77 163.86 116.38 164.7C115.99 165.55 115.8 166.42 115.8 167.33C115.8 168.74 116.19 169.87 116.98 170.73C117.76 171.59 118.79 172.02 120.09 172.02C121.08 172.02 122.17 171.75 123.36 171.23C124.54 170.72 125.81 169.96 127.16 168.94V175.53C125.72 176.11 124.3 176.54 122.89 176.84C121.49 177.15 120.11 177.3 118.76 177.3C115.79 177.3 113.49 176.51 111.85 174.93C110.2 173.35 109.37 171.14 109.37 168.32C109.37 166.68 109.72 165.16 110.42 163.74C111.12 162.33 112.58 160.44 114.82 158.07L120.12 152.44" fill="black"/>
</svg>
