<svg width="140" height="190" viewBox="0 0 140 190" fill="none" xmlns="http://www.w3.org/2000/svg">
<path d="M21 5H124C132.86 5 140 12.136 140 21V174C140 182.86 132.86 190 124 190H21C12.136 190 5 182.86 5 174V21C5 12.136 12.136 5 21 5Z" fill="black" fill-opacity="0.49804"/>
<path d="M17 1H120C128.86 1 136 8.136 136 17V170C136 178.86 128.86 186 120 186H17C8.136 186 1 178.86 1 170V17C1 8.136 8.136 1 17 1Z" fill="#E7E7E7"/>
<path d="M19 3H122C130.86 3 138 10.136 138 19V172C138 180.86 130.86 188 122 188H19C10.136 188 3 180.86 3 172V19C3 10.136 10.136 3 19 3Z" fill="#C7891F"/>
<path d="M18 2H121C129.86 2 137 9.136 137 18V171C137 179.86 129.86 187 121 187H18C9.136 187 2 179.86 2 171V18C2 9.136 9.136 2 18 2Z" fill="white"/>
<path fill-rule="evenodd" clip-rule="evenodd" d="M69.839 45C68.286 45 67.025 46.918 67.025 49.281C67.025 51.295 69.584 54.683 69.484 56.292C68.663 56.751 66.125 52.509 64.813 52.509C63.26 52.509 62 54.426 62 56.79C62 59.154 63.26 61.071 64.813 61.071C66.16 61.071 68.469 56.832 69.484 57.215L67.778 64.78L71.87 64.755C71.87 64.755 70.077 57.421 70.075 57.248H70.107V57.256C71.102 56.88 73.489 61.153 74.827 61.153C76.38 61.153 77.64 59.235 77.64 56.872C77.64 54.508 76.38 52.59 74.827 52.59C73.52 52.59 71.152 56.763 70.113 56.333C70.127 54.684 72.652 51.293 72.652 49.281C72.652 46.918 71.392 45 69.839 45V45Z" fill="black"/>
<path fill-rule="evenodd" clip-rule="evenodd" d="M70.199 86.22C68.646 86.22 67.385 88.138 67.385 90.501C67.385 92.515 69.944 95.903 69.844 97.512C69.023 97.971 66.485 93.729 65.173 93.729C63.62 93.729 62.36 95.646 62.36 98.01C62.36 100.37 63.62 102.29 65.173 102.29C66.52 102.29 68.829 98.052 69.844 98.435L68.138 106L72.23 105.98C72.23 105.98 70.437 98.641 70.435 98.468H70.467V98.476C71.462 98.1 73.849 102.37 75.187 102.37C76.74 102.37 78 100.46 78 98.092C78 95.728 76.74 93.81 75.187 93.81C73.88 93.81 71.512 97.983 70.473 97.553C70.487 95.904 73.012 92.513 73.012 90.501C73.012 88.138 71.752 86.22 70.199 86.22V86.22Z" fill="black"/>
<path fill-rule="evenodd" clip-rule="evenodd" d="M69.161 143C70.714 143 71.975 141.08 71.975 138.72C71.975 136.71 69.416 133.32 69.516 131.71C70.337 131.25 72.875 135.49 74.187 135.49C75.74 135.49 77 133.57 77 131.21C77 128.85 75.74 126.93 74.187 126.93C72.84 126.93 70.531 131.17 69.516 130.79L71.222 123.22L67.13 123.24C67.13 123.24 68.923 130.58 68.925 130.75H68.893V130.74C67.898 131.12 65.511 126.85 64.173 126.85C62.62 126.85 61.36 128.76 61.36 131.13C61.36 133.49 62.62 135.41 64.173 135.41C65.48 135.41 67.848 131.24 68.887 131.67C68.873 133.32 66.348 136.71 66.348 138.72C66.348 141.08 67.608 143 69.161 143V143Z" fill="black"/>
<path fill-rule="evenodd" clip-rule="evenodd" d="M20.527 48.665C17.861 48.665 15.697 51.929 15.697 55.951C15.697 59.377 20.089 65.142 19.919 67.88C18.509 68.663 14.152 61.443 11.9 61.443C9.23351 61.443 7.07001 64.706 7.07001 68.728C7.07001 72.751 9.23351 76.014 11.9 76.014C14.212 76.014 18.176 68.8 19.919 69.451L16.99 82.325L24.014 82.283C24.014 82.283 20.937 69.802 20.933 69.507H20.988V69.521C22.695 68.881 26.794 76.153 29.09 76.153C31.757 76.153 33.92 72.89 33.92 68.867C33.92 64.845 31.757 61.582 29.09 61.582C26.848 61.582 22.782 68.682 20.997 67.95C21.022 65.144 25.357 59.373 25.357 55.951C25.357 51.929 23.194 48.665 20.527 48.665V48.665Z" fill="black"/>
<path fill-rule="evenodd" clip-rule="evenodd" d="M117.42 139.96C120.08 139.96 122.25 136.7 122.25 132.68C122.25 129.25 117.86 123.49 118.03 120.75C119.44 119.96 123.79 127.18 126.05 127.18C128.71 127.18 130.88 123.92 130.88 119.9C130.88 115.88 128.71 112.61 126.05 112.61C123.73 112.61 119.77 119.83 118.03 119.18L120.96 106.3L113.93 106.34C113.93 106.34 117.01 118.83 117.01 119.12H116.96V119.11C115.25 119.75 111.15 112.47 108.86 112.47C106.19 112.47 104.03 115.74 104.03 119.76C104.03 123.78 106.19 127.05 108.86 127.05C111.1 127.05 115.16 119.95 116.95 120.68C116.92 123.48 112.59 129.25 112.59 132.68C112.59 136.7 114.75 139.96 117.42 139.96V139.96Z" fill="black"/>
<path d="M24.608 26.063C26.28 26.585 27.548 27.496 28.412 28.795C29.287 30.081 29.724 31.722 29.724 33.718C29.724 36.692 28.783 38.956 26.9 40.51C25.017 42.05 22.271 42.821 18.66 42.821C17.386 42.821 16.107 42.693 14.822 42.439C13.549 42.198 12.286 41.829 11.035 41.334V35.366C12.231 36.089 13.416 36.639 14.59 37.014C15.775 37.375 16.938 37.556 18.079 37.556C19.773 37.556 21.069 37.201 21.966 36.491C22.874 35.781 23.328 34.763 23.328 33.437C23.328 32.071 22.863 31.039 21.933 30.343C21.014 29.633 19.651 29.278 17.846 29.278H15.288V24.294H17.979C19.585 24.294 20.781 23.993 21.567 23.39C22.354 22.774 22.747 21.843 22.747 20.597C22.747 19.445 22.365 18.554 21.601 17.925C20.836 17.295 19.756 16.98 18.361 16.98C17.331 16.98 16.29 17.121 15.238 17.402C14.186 17.684 13.139 18.099 12.098 18.648V12.982C13.36 12.553 14.612 12.232 15.852 12.017C17.093 11.803 18.311 11.696 19.507 11.696C22.73 11.696 25.139 12.339 26.734 13.625C28.34 14.897 29.143 16.82 29.143 19.392C29.143 21.146 28.761 22.587 27.997 23.712C27.232 24.824 26.103 25.607 24.608 26.063" fill="black"/>
<path d="M114.07 162.93C112.4 162.41 111.13 161.5 110.27 160.2C109.39 158.91 108.96 157.27 108.96 155.28C108.96 152.3 109.9 150.04 111.78 148.49C113.66 146.95 116.41 146.18 120.02 146.18C121.29 146.18 122.57 146.3 123.86 146.56C125.13 146.8 126.39 147.17 127.65 147.66V153.63C126.45 152.91 125.26 152.36 124.09 151.98C122.91 151.62 121.74 151.44 120.6 151.44C118.91 151.44 117.61 151.79 116.71 152.5C115.81 153.21 115.35 154.23 115.35 155.56C115.35 156.93 115.82 157.96 116.75 158.65C117.67 159.36 119.03 159.72 120.83 159.72H123.39V164.7H120.7C119.1 164.7 117.9 165 117.11 165.61C116.33 166.22 115.93 167.15 115.93 168.4C115.93 169.55 116.32 170.44 117.08 171.07C117.84 171.7 118.92 172.02 120.32 172.02C121.35 172.02 122.39 171.87 123.44 171.59C124.49 171.31 125.54 170.9 126.58 170.35V176.01C125.32 176.44 124.07 176.76 122.83 176.98C121.59 177.19 120.37 177.3 119.17 177.3C115.95 177.3 113.54 176.66 111.95 175.37C110.34 174.1 109.54 172.18 109.54 169.6C109.54 167.85 109.92 166.41 110.68 165.28C111.45 164.17 112.58 163.39 114.07 162.93" fill="black"/>
</svg>
