<svg width="140" height="190" viewBox="0 0 140 190" fill="none" xmlns="http://www.w3.org/2000/svg">
<path d="M21 5H124C132.86 5 140 12.136 140 21V174C140 182.86 132.86 190 124 190H21C12.136 190 5 182.86 5 174V21C5 12.136 12.136 5 21 5Z" fill="black" fill-opacity="0.49804"/>
<path d="M17 1H120C128.86 1 136 8.136 136 17V170C136 178.86 128.86 186 120 186H17C8.136 186 1 178.86 1 170V17C1 8.136 8.136 1 17 1Z" fill="#E7E7E7"/>
<path d="M19 3H122C130.86 3 138 10.136 138 19V172C138 180.86 130.86 188 122 188H19C10.136 188 3 180.86 3 172V19C3 10.136 10.136 3 19 3Z" fill="#C7891F"/>
<path d="M18 2H121C129.86 2 137 9.136 137 18V171C137 179.86 129.86 187 121 187H18C9.136 187 2 179.86 2 171V18C2 9.136 9.136 2 18 2Z" fill="white"/>
<path d="M24.6078 26.0631C26.28 26.5855 27.5484 27.4972 28.4122 28.7961C29.2869 30.0828 29.7243 31.7237 29.7243 33.7199C29.7243 36.6937 28.7832 38.9571 26.9001 40.5111C25.017 42.052 22.2709 42.8218 18.6602 42.8218C17.3863 42.8218 16.1069 42.6942 14.8221 42.4402C13.5482 42.1993 12.2861 41.8309 11.0341 41.3349V35.3674C12.2307 36.0899 13.4155 36.6398 14.5893 37.0149C15.775 37.3767 16.938 37.5571 18.0782 37.5571C19.7731 37.5571 21.0689 37.2018 21.9663 36.4925C22.8738 35.782 23.3284 34.7647 23.3284 33.4383C23.3284 32.0713 22.8629 31.0397 21.9327 30.3435C21.0134 29.633 19.6513 29.2789 17.8455 29.2789H15.2877V24.2957H17.9791C19.5849 24.2957 20.7806 23.9932 21.5672 23.3905C22.3537 22.7747 22.7465 21.8442 22.7465 20.5982C22.7465 19.4456 22.3646 18.5547 21.6008 17.9256C20.8361 17.2955 19.7568 16.9809 18.361 16.9809C17.3308 16.9809 16.2897 17.1217 15.2377 17.4032C14.1856 17.6837 13.139 18.0994 12.0979 18.6482V12.982C13.36 12.5531 14.6121 12.232 15.8523 12.0175C17.0926 11.8031 18.311 11.6964 19.5076 11.6964C22.7301 11.6964 25.1388 12.3387 26.7337 13.6254C28.3395 14.8979 29.1433 16.8203 29.1433 19.3917C29.1433 21.147 28.7605 22.5877 27.9967 23.7128C27.232 24.8247 26.1026 25.6077 24.6078 26.0631" fill="#FF0000"/>
<path d="M114.069 162.935C112.396 162.418 111.132 161.506 110.268 160.208C109.395 158.921 108.959 157.282 108.959 155.281C108.959 152.311 109.896 150.046 111.778 148.495C113.66 146.944 116.406 146.174 120.016 146.174C121.289 146.174 122.571 146.306 123.853 146.559C125.135 146.801 126.39 147.175 127.645 147.67V153.631C126.444 152.916 125.262 152.366 124.089 151.981C122.907 151.629 121.743 151.442 120.598 151.442C118.906 151.442 117.606 151.794 116.715 152.509C115.806 153.224 115.351 154.236 115.351 155.567C115.351 156.93 115.815 157.964 116.742 158.657C117.67 159.372 119.025 159.724 120.834 159.724H123.389V164.706H120.698C119.097 164.706 117.897 165.003 117.115 165.608C116.324 166.224 115.933 167.159 115.933 168.401C115.933 169.556 116.315 170.447 117.079 171.074C117.843 171.701 118.925 172.02 120.316 172.02C121.352 172.02 122.389 171.877 123.444 171.602C124.499 171.316 125.544 170.898 126.581 170.348V176.023C125.317 176.452 124.071 176.771 122.825 176.98C121.589 177.2 120.37 177.31 119.17 177.31C115.951 177.31 113.542 176.661 111.941 175.374C110.341 174.098 109.541 172.185 109.541 169.611C109.541 167.851 109.923 166.411 110.687 165.289C111.45 164.178 112.578 163.397 114.069 162.935" fill="#FF0000"/>
<path fill-rule="evenodd" clip-rule="evenodd" d="M20.4099 48.665C16.2839 56.91 13.2749 61.163 7.06995 65.705C12.9419 70.192 17.0829 74.829 20.5299 82.325C23.6089 75.204 27.3769 69.895 33.9199 65.482C27.3379 62.133 23.5269 56.828 20.4099 48.665V48.665Z" fill="#FF0000"/>
<path fill-rule="evenodd" clip-rule="evenodd" d="M69.77 45.22C67.367 50.065 65.615 52.564 62 55.233C65.421 57.87 67.832 60.595 69.84 65C71.634 60.815 73.828 57.696 77.64 55.102C73.806 53.134 71.586 50.017 69.77 45.22V45.22Z" fill="#FF0000"/>
<path fill-rule="evenodd" clip-rule="evenodd" d="M70.13 86.22C67.727 91.065 65.975 93.564 62.36 96.233C65.781 98.87 68.192 101.6 70.2 106C71.994 101.82 74.188 98.696 78 96.102C74.166 94.134 71.946 91.017 70.13 86.22Z" fill="#FF0000"/>
<path fill-rule="evenodd" clip-rule="evenodd" d="M69.13 123.22C66.727 128.07 64.975 130.56 61.36 133.23C64.781 135.87 67.192 138.6 69.2 143C70.994 138.82 73.188 135.7 77 133.1C73.166 131.13 70.946 128.02 69.13 123.22Z" fill="#FF0000"/>
<path fill-rule="evenodd" clip-rule="evenodd" d="M118.34 106.34C114.21 114.59 111.21 118.84 105 123.38C110.87 127.87 115.01 132.5 118.46 140C121.54 132.88 125.31 127.57 131.85 123.16C125.27 119.81 121.46 114.5 118.34 106.34V106.34Z" fill="#FF0000"/>
</svg>
