<svg width="140" height="190" viewBox="0 0 140 190" fill="none" xmlns="http://www.w3.org/2000/svg">
<path d="M21 5H124C132.86 5 140 12.136 140 21V174C140 182.86 132.86 190 124 190H21C12.136 190 5 182.86 5 174V21C5 12.136 12.136 5 21 5Z" fill="black" fill-opacity="0.49804"/>
<path d="M17 1H120C128.86 1 136 8.136 136 17V170C136 178.86 128.86 186 120 186H17C8.136 186 1 178.86 1 170V17C1 8.136 8.136 1 17 1Z" fill="#E7E7E7"/>
<path d="M19 3H122C130.86 3 138 10.136 138 19V172C138 180.86 130.86 188 122 188H19C10.136 188 3 180.86 3 172V19C3 10.136 10.136 3 19 3Z" fill="#C7891F"/>
<path d="M18 2H121C129.86 2 137 9.136 137 18V171C137 179.86 129.86 187 121 187H18C9.136 187 2 179.86 2 171V18C2 9.136 9.136 2 18 2Z" fill="white"/>
<path d="M24.848 25.822C26.52 26.345 27.788 27.256 28.652 28.555C29.527 29.841 29.964 31.482 29.964 33.478C29.964 36.452 29.023 38.716 27.14 40.27C25.257 41.81 22.511 42.581 18.9 42.581C17.626 42.581 16.347 42.453 15.062 42.199C13.789 41.958 12.526 41.589 11.275 41.094V35.126C12.471 35.849 13.656 36.398 14.83 36.773C16.015 37.135 17.178 37.316 18.319 37.316C20.013 37.316 21.309 36.961 22.206 36.251C23.114 35.541 23.568 34.523 23.568 33.197C23.568 31.83 23.103 30.799 22.173 30.102C21.254 29.392 19.891 29.037 18.086 29.037H15.528V24.054H18.219C19.825 24.054 21.021 23.753 21.807 23.15C22.594 22.534 22.987 21.603 22.987 20.357C22.987 19.205 22.605 18.314 21.841 17.685C21.076 17.055 19.997 16.74 18.601 16.74C17.571 16.74 16.53 16.881 15.478 17.162C14.426 17.443 13.379 17.859 12.338 18.408V12.742C13.6 12.313 14.852 11.991 16.092 11.777C17.333 11.563 18.551 11.456 19.747 11.456C22.97 11.456 25.379 12.099 26.974 13.385C28.58 14.657 29.383 16.579 29.383 19.151C29.383 20.906 29.001 22.346 28.237 23.472C27.472 24.583 26.343 25.367 24.848 25.822" fill="#FF0000"/>
<path fill-rule="evenodd" clip-rule="evenodd" d="M13.5544 48.8447C12.7503 48.8489 11.8671 49.0461 10.892 49.4868C0.24873 57.6839 14.5959 70.9091 20.6552 82.2625L20.8325 82.3212C27.4901 69.9102 40.1657 56.2527 30.4785 49.4868C22.8079 46.0242 20.7565 57.5454 20.6868 57.9609C20.6235 57.5958 19.0565 48.8069 13.5544 48.8447Z" fill="#FF0000"/>
<path d="M114.02 163.18C112.35 162.66 111.08 161.74 110.21 160.44C109.34 159.16 108.9 157.52 108.9 155.52C108.9 152.55 109.84 150.28 111.73 148.73C113.61 147.19 116.35 146.42 119.97 146.42C121.24 146.42 122.52 146.55 123.8 146.8C125.08 147.04 126.34 147.41 127.59 147.91V153.87C126.39 153.15 125.21 152.6 124.04 152.23C122.85 151.86 121.69 151.68 120.55 151.68C118.85 151.68 117.56 152.04 116.66 152.75C115.75 153.46 115.3 154.48 115.3 155.8C115.3 157.17 115.76 158.2 116.69 158.9C117.61 159.61 118.97 159.96 120.78 159.96H123.34V164.95H120.65C119.04 164.95 117.84 165.25 117.06 165.85C116.27 166.47 115.88 167.4 115.88 168.64C115.88 169.79 116.26 170.69 117.02 171.32C117.79 171.94 118.87 172.26 120.26 172.26C121.29 172.26 122.34 172.12 123.39 171.84C124.44 171.56 125.49 171.14 126.53 170.59V176.26C125.27 176.69 124.01 177.01 122.77 177.22C121.53 177.44 120.31 177.54 119.12 177.54C115.9 177.54 113.49 176.9 111.89 175.62C110.29 174.34 109.48 172.42 109.48 169.85C109.48 168.09 109.86 166.65 110.63 165.53C111.39 164.42 112.52 163.63 114.02 163.18" fill="#FF0000"/>
<path fill-rule="evenodd" clip-rule="evenodd" d="M125.308 139.993C126.112 139.989 126.995 139.791 127.97 139.351C138.613 131.154 124.266 117.928 118.207 106.575L118.03 106.516C111.372 118.927 98.6963 132.585 108.383 139.351C116.054 142.813 118.106 131.292 118.175 130.877C118.238 131.242 119.806 140.031 125.308 139.993Z" fill="#FF0000"/>
<path fill-rule="evenodd" clip-rule="evenodd" d="M65.7665 45.2219C65.2994 45.2244 64.7863 45.3409 64.2199 45.6013C58.0374 50.4436 66.3715 58.2562 69.8912 64.963L69.9942 64.9977C73.8615 57.6661 81.2246 49.5981 75.5974 45.6013C71.1417 43.5558 69.9501 50.3617 69.9096 50.6072C69.8728 50.3915 68.9625 45.1996 65.7665 45.2219Z" fill="#FF0000"/>
<path fill-rule="evenodd" clip-rule="evenodd" d="M66.1264 87.0019C65.6594 87.0044 65.1463 87.1209 64.5799 87.3813C58.3974 92.2236 66.7315 100.036 70.2512 106.743L70.3542 106.778C74.2215 99.4461 81.5846 91.3781 75.9574 87.3813C71.5017 85.3358 70.31 92.1417 70.2696 92.3872C70.2328 92.1715 69.3225 86.9796 66.1264 87.0019Z" fill="#FF0000"/>
<path fill-rule="evenodd" clip-rule="evenodd" d="M73.2335 142.78C73.7006 142.778 74.2137 142.661 74.7801 142.401C80.9626 137.558 72.6285 129.746 69.1088 123.039L69.0058 123.004C65.1385 130.336 57.7754 138.404 63.4026 142.401C67.8583 144.446 69.0499 137.64 69.0904 137.395C69.1272 137.611 70.0375 142.802 73.2335 142.78Z" fill="#FF0000"/>
</svg>
