<svg width="140" height="190" viewBox="0 0 140 190" fill="none" xmlns="http://www.w3.org/2000/svg">
<path d="M21 5H124C132.86 5 140 12.136 140 21V174C140 182.86 132.86 190 124 190H21C12.136 190 5 182.86 5 174V21C5 12.136 12.136 5 21 5Z" fill="black" fill-opacity="0.49804"/>
<path d="M17 1H120C128.86 1 136 8.136 136 17V170C136 178.86 128.86 186 120 186H17C8.136 186 1 178.86 1 170V17C1 8.136 8.136 1 17 1Z" fill="#E7E7E7"/>
<path d="M19 3H122C130.86 3 138 10.136 138 19V172C138 180.86 130.86 188 122 188H19C10.136 188 3 180.86 3 172V19C3 10.136 10.136 3 19 3Z" fill="#C7891F"/>
<path d="M18 2H121C129.86 2 137 9.136 137 18V171C137 179.86 129.86 187 121 187H18C9.136 187 2 179.86 2 171V18C2 9.136 9.136 2 18 2Z" fill="white"/>
<path fill-rule="evenodd" clip-rule="evenodd" d="M69.9111 45.0014C67.0403 49.5986 58.2381 57.4263 63.8137 59.8444C67.2005 60.9578 68.8079 58.6784 69.49 57.1706H69.6264L67.3784 64.7785L72.5862 64.7546C72.5862 64.7546 70.3441 57.443 70.3382 57.1635H70.3916C70.9432 58.3964 73.037 60.9459 75.3384 59.9758C82.0646 57.2519 72.1591 49.5031 69.9111 45.0014V45.0014Z" fill="black"/>
<path fill-rule="evenodd" clip-rule="evenodd" d="M69.0868 142.775C71.9576 138.177 80.7598 130.35 75.1843 127.932C71.7974 126.818 70.19 129.098 69.5079 130.605H69.3715L71.6195 122.998L66.4117 123.021C66.4117 123.021 68.6538 130.333 68.6597 130.613H68.6063C68.0547 129.38 65.9609 126.83 63.6596 127.8C56.9333 130.524 66.8388 138.273 69.0868 142.775V142.775Z" fill="black"/>
<path fill-rule="evenodd" clip-rule="evenodd" d="M70.2702 86.2244C67.3994 90.8216 58.5972 98.6493 64.1727 101.067C67.5595 102.181 69.1669 99.9014 69.849 98.3936H69.9855L67.7374 106.001L72.9452 105.978C72.9452 105.978 70.7031 98.666 70.6972 98.3865H70.7506C71.3022 99.6194 73.396 102.169 75.6974 101.199C82.4236 98.4749 72.5182 90.7261 70.2702 86.2244V86.2244Z" fill="black"/>
<path fill-rule="evenodd" clip-rule="evenodd" d="M20.64 48.6652C15.71 56.489 0.599962 69.8119 10.18 73.9282C15.99 75.8201 18.75 71.9442 19.92 69.3791H20.16L16.2999 82.3252L25.2399 82.2851C25.2399 82.2851 21.39 69.84 21.38 69.367H21.47C22.42 71.4633 26.0099 75.804 29.9599 74.1527C41.4999 69.5153 24.5 56.3287 20.64 48.6652V48.6652Z" fill="black"/>
<path d="M24.608 26.063C26.28 26.585 27.548 27.496 28.412 28.795C29.287 30.081 29.724 31.722 29.724 33.718C29.724 36.692 28.783 38.956 26.9 40.51C25.017 42.05 22.271 42.821 18.66 42.821C17.386 42.821 16.107 42.693 14.822 42.439C13.549 42.198 12.286 41.829 11.035 41.334V35.366C12.231 36.089 13.416 36.639 14.59 37.014C15.775 37.375 16.938 37.556 18.079 37.556C19.773 37.556 21.069 37.201 21.966 36.491C22.874 35.781 23.328 34.763 23.328 33.437C23.328 32.071 22.863 31.039 21.933 30.343C21.014 29.633 19.651 29.278 17.846 29.278H15.288V24.294H17.979C19.585 24.294 20.781 23.993 21.567 23.39C22.354 22.774 22.747 21.843 22.747 20.597C22.747 19.445 22.365 18.554 21.601 17.925C20.836 17.295 19.756 16.98 18.361 16.98C17.331 16.98 16.29 17.121 15.238 17.402C14.186 17.684 13.139 18.099 12.098 18.648V12.982C13.36 12.553 14.612 12.232 15.852 12.017C17.093 11.803 18.311 11.696 19.507 11.696C22.73 11.696 25.139 12.339 26.734 13.625C28.34 14.897 29.143 16.82 29.143 19.392C29.143 21.146 28.761 22.587 27.997 23.712C27.232 24.824 26.103 25.607 24.608 26.063" fill="black"/>
<path fill-rule="evenodd" clip-rule="evenodd" d="M118.04 140.004C122.97 132.18 138.08 118.857 128.5 114.741C122.69 112.849 119.93 116.725 118.76 119.29H118.52L122.38 106.344L113.44 106.384C113.44 106.384 117.29 118.829 117.3 119.302H117.21C116.26 117.206 112.67 112.865 108.72 114.516C97.18 119.154 114.18 132.34 118.04 140.004V140.004Z" fill="black"/>
<path d="M114.07 162.93C112.4 162.41 111.13 161.5 110.27 160.2C109.39 158.91 108.96 157.27 108.96 155.28C108.96 152.3 109.9 150.04 111.78 148.49C113.66 146.95 116.41 146.18 120.02 146.18C121.29 146.18 122.57 146.3 123.86 146.56C125.13 146.8 126.39 147.17 127.65 147.66V153.63C126.45 152.91 125.26 152.36 124.09 151.98C122.91 151.62 121.74 151.44 120.6 151.44C118.91 151.44 117.61 151.79 116.71 152.5C115.81 153.21 115.35 154.23 115.35 155.56C115.35 156.93 115.82 157.96 116.75 158.65C117.67 159.36 119.03 159.72 120.83 159.72H123.39V164.7H120.7C119.1 164.7 117.9 165 117.11 165.61C116.33 166.22 115.93 167.15 115.93 168.4C115.93 169.55 116.32 170.44 117.08 171.07C117.84 171.7 118.92 172.02 120.32 172.02C121.35 172.02 122.39 171.87 123.44 171.59C124.49 171.31 125.54 170.9 126.58 170.35V176.01C125.32 176.44 124.07 176.76 122.83 176.98C121.59 177.19 120.37 177.3 119.17 177.3C115.95 177.3 113.54 176.66 111.95 175.37C110.34 174.1 109.54 172.18 109.54 169.6C109.54 167.85 109.92 166.41 110.68 165.28C111.45 164.17 112.58 163.39 114.07 162.93" fill="black"/>
</svg>
