<svg width="140" height="190" viewBox="0 0 140 190" fill="none" xmlns="http://www.w3.org/2000/svg">
<path d="M21 5H124C132.86 5 140 12.136 140 21V174C140 182.86 132.86 190 124 190H21C12.136 190 5 182.86 5 174V21C5 12.136 12.136 5 21 5Z" fill="black" fill-opacity="0.49804"/>
<path d="M17 1H120C128.86 1 136 8.136 136 17V170C136 178.86 128.86 186 120 186H17C8.136 186 1 178.86 1 170V17C1 8.136 8.136 1 17 1Z" fill="#E7E7E7"/>
<path d="M19 3H122C130.86 3 138 10.136 138 19V172C138 180.86 130.86 188 122 188H19C10.136 188 3 180.86 3 172V19C3 10.136 10.136 3 19 3Z" fill="#C7891F"/>
<path d="M18 2H121C129.86 2 137 9.136 137 18V171C137 179.86 129.86 187 121 187H18C9.136 187 2 179.86 2 171V18C2 9.136 9.136 2 18 2Z" fill="white"/>
<path fill-rule="evenodd" clip-rule="evenodd" d="M87.199 45C85.646 45 84.385 46.918 84.385 49.281C84.385 51.295 86.944 54.683 86.844 56.292C86.023 56.751 83.485 52.509 82.173 52.509C80.62 52.509 79.36 54.426 79.36 56.79C79.36 59.154 80.62 61.071 82.173 61.071C83.52 61.071 85.829 56.832 86.844 57.215L85.138 64.78L89.23 64.755C89.23 64.755 87.437 57.421 87.435 57.248H87.467V57.256C88.462 56.88 90.849 61.153 92.187 61.153C93.74 61.153 95 59.235 95 56.872C95 54.508 93.74 52.59 92.187 52.59C90.88 52.59 88.512 56.763 87.473 56.333C87.487 54.684 90.012 51.293 90.012 49.281C90.012 46.918 88.752 45 87.199 45V45Z" fill="black"/>
<path fill-rule="evenodd" clip-rule="evenodd" d="M53.161 142C54.714 142 55.975 140.08 55.975 137.72C55.975 135.71 53.416 132.32 53.516 130.71C54.337 130.25 56.875 134.49 58.187 134.49C59.74 134.49 61 132.57 61 130.21C61 127.85 59.74 125.93 58.187 125.93C56.84 125.93 54.531 130.17 53.516 129.79L55.222 122.22L51.13 122.24C51.13 122.24 52.923 129.58 52.925 129.75H52.893V129.74C51.898 130.12 49.511 125.85 48.173 125.85C46.62 125.85 45.36 127.76 45.36 130.13C45.36 132.49 46.62 134.41 48.173 134.41C49.48 134.41 51.848 130.24 52.887 130.67C52.873 132.32 50.348 135.71 50.348 137.72C50.348 140.08 51.608 142 53.161 142V142Z" fill="black"/>
<path fill-rule="evenodd" clip-rule="evenodd" d="M20.5269 48.665C17.8609 48.665 15.6969 51.929 15.6969 55.951C15.6969 59.377 20.0889 65.142 19.9189 67.88C18.5089 68.663 14.1519 61.443 11.8999 61.443C9.23345 61.443 7.06995 64.706 7.06995 68.728C7.06995 72.751 9.23345 76.014 11.8999 76.014C14.2119 76.014 18.1759 68.8 19.9189 69.451L16.9899 82.325L24.0139 82.283C24.0139 82.283 20.9369 69.802 20.9329 69.507H20.9879V69.521C22.6949 68.881 26.7939 76.153 29.0899 76.153C31.7569 76.153 33.9199 72.89 33.9199 68.867C33.9199 64.845 31.7569 61.582 29.0899 61.582C26.8479 61.582 22.7819 68.682 20.9969 67.95C21.0219 65.144 25.3569 59.373 25.3569 55.951C25.3569 51.929 23.1939 48.665 20.5269 48.665V48.665Z" fill="black"/>
<path d="M21.285 18.608L14.274 31.166H21.285V18.608ZM20.221 12.238H27.332V31.166H30.87V36.773H27.332V42.238H21.285V36.773H10.287V30.142L20.221 12.238" fill="black"/>
<path fill-rule="evenodd" clip-rule="evenodd" d="M117.42 139.96C120.08 139.96 122.25 136.7 122.25 132.68C122.25 129.25 117.86 123.49 118.03 120.75C119.44 119.96 123.79 127.18 126.05 127.18C128.71 127.18 130.88 123.92 130.88 119.9C130.88 115.88 128.71 112.61 126.05 112.61C123.73 112.61 119.77 119.83 118.03 119.18L120.96 106.3L113.93 106.34C113.93 106.34 117.01 118.83 117.01 119.12H116.96V119.11C115.25 119.75 111.15 112.47 108.86 112.47C106.19 112.47 104.03 115.74 104.03 119.76C104.03 123.78 106.19 127.05 108.86 127.05C111.1 127.05 115.16 119.95 116.95 120.68C116.92 123.48 112.59 129.25 112.59 132.68C112.59 136.7 114.75 139.96 117.42 139.96V139.96Z" fill="black"/>
<path d="M117.4 170.53L124.41 157.97H117.4V170.53ZM118.46 176.9H111.35V157.97H107.81V152.37H111.35V146.9H117.4V152.37H128.39V159L118.46 176.9Z" fill="black"/>
<path fill-rule="evenodd" clip-rule="evenodd" d="M51.199 45C49.646 45 48.385 46.918 48.385 49.281C48.385 51.295 50.944 54.683 50.844 56.292C50.023 56.751 47.485 52.509 46.173 52.509C44.62 52.509 43.36 54.426 43.36 56.79C43.36 59.154 44.62 61.071 46.173 61.071C47.52 61.071 49.829 56.832 50.844 57.215L49.138 64.78L53.23 64.755C53.23 64.755 51.437 57.421 51.435 57.248H51.467V57.256C52.462 56.88 54.849 61.153 56.187 61.153C57.74 61.153 59 59.235 59 56.872C59 54.508 57.74 52.59 56.187 52.59C54.88 52.59 52.512 56.763 51.473 56.333C51.487 54.684 54.012 51.293 54.012 49.281C54.012 46.918 52.752 45 51.199 45V45Z" fill="black"/>
<path fill-rule="evenodd" clip-rule="evenodd" d="M87.801 141.78C89.354 141.78 90.615 139.86 90.615 137.5C90.615 135.49 88.056 132.1 88.156 130.49C88.977 130.03 91.515 134.27 92.827 134.27C94.38 134.27 95.64 132.35 95.64 129.99C95.64 127.63 94.38 125.71 92.827 125.71C91.48 125.71 89.171 129.95 88.156 129.57L89.862 122L85.77 122.02C85.77 122.02 87.563 129.36 87.565 129.53H87.533V129.52C86.538 129.9 84.151 125.63 82.813 125.63C81.26 125.63 80 127.54 80 129.91C80 132.27 81.26 134.19 82.813 134.19C84.12 134.19 86.488 130.02 87.527 130.45C87.513 132.1 84.988 135.49 84.988 137.5C84.988 139.86 86.248 141.78 87.801 141.78V141.78Z" fill="black"/>
</svg>
