<svg width="140" height="190" viewBox="0 0 140 190" fill="none" xmlns="http://www.w3.org/2000/svg">
<path d="M21 5H124C132.86 5 140 12.136 140 21V174C140 182.86 132.86 190 124 190H21C12.136 190 5 182.86 5 174V21C5 12.136 12.136 5 21 5Z" fill="black" fill-opacity="0.49804"/>
<path d="M17 1H120C128.86 1 136 8.136 136 17V170C136 178.86 128.86 186 120 186H17C8.136 186 1 178.86 1 170V17C1 8.136 8.136 1 17 1Z" fill="#E7E7E7"/>
<path d="M19 3H122C130.86 3 138 10.136 138 19V172C138 180.86 130.86 188 122 188H19C10.136 188 3 180.86 3 172V19C3 10.136 10.136 3 19 3Z" fill="#C7891F"/>
<path d="M18 2H121C129.86 2 137 9.136 137 18V171C137 179.86 129.86 187 121 187H18C9.136 187 2 179.86 2 171V18C2 9.136 9.136 2 18 2Z" fill="white"/>
<path d="M21.285 18.608L14.274 31.166H21.285V18.608ZM20.221 12.238H27.332V31.166H30.87V36.773H27.332V42.238H21.285V36.773H10.287V30.142L20.221 12.238" fill="#FF0000"/>
<path d="M117.4 170.53L124.41 157.97H117.4V170.53ZM118.46 176.9H111.35V157.97H107.81V152.37H111.35V146.9H117.4V152.37H128.39V159L118.46 176.9Z" fill="#FF0000"/>
<path fill-rule="evenodd" clip-rule="evenodd" d="M20.4099 48.665C16.2839 56.91 13.2749 61.163 7.06995 65.705C12.9419 70.192 17.0829 74.829 20.5299 82.325C23.6089 75.204 27.3769 69.895 33.9199 65.482C27.3379 62.133 23.5269 56.828 20.4099 48.665V48.665Z" fill="#FF0000"/>
<path fill-rule="evenodd" clip-rule="evenodd" d="M51.13 45C48.727 49.845 46.975 52.344 43.36 55.013C46.781 57.65 49.192 60.375 51.2 64.78C52.994 60.595 55.188 57.476 59 54.882C55.166 52.914 52.946 49.797 51.13 45V45Z" fill="#FF0000"/>
<path fill-rule="evenodd" clip-rule="evenodd" d="M87.13 45C84.727 49.845 82.975 52.344 79.36 55.013C82.781 57.65 85.192 60.375 87.2 64.78C88.994 60.595 91.188 57.476 95 54.882C91.166 52.914 88.946 49.797 87.13 45V45Z" fill="#FF0000"/>
<path fill-rule="evenodd" clip-rule="evenodd" d="M53.13 122.22C50.727 127.07 48.975 129.56 45.36 132.23C48.781 134.87 51.192 137.6 53.2 142C54.994 137.82 57.188 134.7 61 132.1C57.166 130.13 54.946 127.02 53.13 122.22Z" fill="#FF0000"/>
<path fill-rule="evenodd" clip-rule="evenodd" d="M88.13 122.22C85.727 127.07 83.975 129.56 80.36 132.23C83.781 134.87 86.192 137.6 88.2 142C89.994 137.82 92.188 134.7 96 132.1C92.166 130.13 89.946 127.02 88.13 122.22Z" fill="#FF0000"/>
<path fill-rule="evenodd" clip-rule="evenodd" d="M118.34 106.34C114.21 114.59 111.21 118.84 105 123.38C110.87 127.87 115.01 132.5 118.46 140C121.54 132.88 125.31 127.57 131.85 123.16C125.27 119.81 121.46 114.5 118.34 106.34V106.34Z" fill="#FF0000"/>
</svg>
