<svg width="140" height="190" viewBox="0 0 140 190" fill="none" xmlns="http://www.w3.org/2000/svg">
<path d="M21 5H124C132.86 5 140 12.136 140 21V174C140 182.86 132.86 190 124 190H21C12.136 190 5 182.86 5 174V21C5 12.136 12.136 5 21 5Z" fill="black" fill-opacity="0.49804"/>
<path d="M17 1H120C128.86 1 136 8.136 136 17V170C136 178.86 128.86 186 120 186H17C8.136 186 1 178.86 1 170V17C1 8.136 8.136 1 17 1Z" fill="#E7E7E7"/>
<path d="M19 3H122C130.86 3 138 10.136 138 19V172C138 180.86 130.86 188 122 188H19C10.136 188 3 180.86 3 172V19C3 10.136 10.136 3 19 3Z" fill="#C7891F"/>
<path d="M18 2H121C129.86 2 137 9.136 137 18V171C137 179.86 129.86 187 121 187H18C9.136 187 2 179.86 2 171V18C2 9.136 9.136 2 18 2Z" fill="white"/>
<path d="M21.525 18.368L14.514 30.926H21.525V18.368ZM20.462 11.998H27.572V30.926H31.111V36.532H27.572V41.998H21.525V36.532H10.527V29.901L20.462 11.998Z" fill="#FF0000"/>
<path fill-rule="evenodd" clip-rule="evenodd" d="M13.5544 48.8447C12.7503 48.8489 11.8671 49.0461 10.892 49.4868C0.24873 57.6839 14.5959 70.9091 20.6552 82.2625L20.8325 82.3212C27.4901 69.9102 40.1657 56.2527 30.4785 49.4868C22.8079 46.0242 20.7565 57.5454 20.6868 57.9609C20.6235 57.5958 19.0565 48.8069 13.5544 48.8447Z" fill="#FF0000"/>
<path d="M117.34 170.63L124.35 158.07H117.34V170.63ZM118.4 177H111.29V158.07H107.75V152.47H111.29V147H117.34V152.47H128.34V159.1L118.4 177Z" fill="#FF0000"/>
<path fill-rule="evenodd" clip-rule="evenodd" d="M125.308 139.993C126.112 139.989 126.995 139.791 127.97 139.351C138.613 131.154 124.266 117.928 118.207 106.575L118.03 106.516C111.372 118.927 98.6963 132.585 108.383 139.351C116.054 142.813 118.106 131.292 118.175 130.877C118.238 131.242 119.806 140.031 125.308 139.993Z" fill="#FF0000"/>
<path fill-rule="evenodd" clip-rule="evenodd" d="M47.1264 45.2219C46.6594 45.2244 46.1463 45.3409 45.5799 45.6013C39.3974 50.4436 47.7315 58.2562 51.2512 64.963L51.3542 64.9977C55.2215 57.6661 62.5846 49.5981 56.9574 45.6013C52.5017 43.5558 51.31 50.3617 51.2696 50.6072C51.2328 50.3915 50.3225 45.1996 47.1264 45.2219Z" fill="#FF0000"/>
<path fill-rule="evenodd" clip-rule="evenodd" d="M83.1264 45.2219C82.6594 45.2244 82.1463 45.3409 81.5799 45.6013C75.3974 50.4436 83.7315 58.2562 87.2512 64.963L87.3542 64.9977C91.2215 57.6661 98.5846 49.5981 92.9574 45.6013C88.5017 43.5558 87.31 50.3617 87.2696 50.6072C87.2328 50.3915 86.3225 45.1996 83.1264 45.2219Z" fill="#FF0000"/>
<path fill-rule="evenodd" clip-rule="evenodd" d="M57.2335 142C57.7006 141.998 58.2137 141.881 58.7801 141.621C64.9626 136.778 56.6285 128.966 53.1088 122.259L53.0058 122.224C49.1385 129.556 41.7754 137.624 47.4026 141.621C51.8583 143.666 53.0499 136.86 53.0904 136.615C53.1272 136.831 54.0375 142.022 57.2335 142Z" fill="#FF0000"/>
<path fill-rule="evenodd" clip-rule="evenodd" d="M92.2376 141.78C92.7047 141.778 93.2177 141.661 93.7841 141.401C99.9667 136.558 91.6326 128.746 88.1128 122.039L88.0098 122.004C84.1425 129.336 76.7794 137.404 82.4066 141.401C86.8623 143.446 88.054 136.64 88.0944 136.395C88.1312 136.611 89.0415 141.802 92.2376 141.78Z" fill="#FF0000"/>
</svg>
