<svg width="140" height="190" viewBox="0 0 140 190" fill="none" xmlns="http://www.w3.org/2000/svg">
<path d="M21 5H124C132.86 5 140 12.136 140 21V174C140 182.86 132.86 190 124 190H21C12.136 190 5 182.86 5 174V21C5 12.136 12.136 5 21 5Z" fill="black" fill-opacity="0.49804"/>
<path d="M17 1H120C128.86 1 136 8.136 136 17V170C136 178.86 128.86 186 120 186H17C8.136 186 1 178.86 1 170V17C1 8.136 8.136 1 17 1Z" fill="#E7E7E7"/>
<path d="M19 3H122C130.86 3 138 10.136 138 19V172C138 180.86 130.86 188 122 188H19C10.136 188 3 180.86 3 172V19C3 10.136 10.136 3 19 3Z" fill="#C7891F"/>
<path d="M18 2H121C129.86 2 137 9.136 137 18V171C137 179.86 129.86 187 121 187H18C9.136 187 2 179.86 2 171V18C2 9.136 9.136 2 18 2Z" fill="white"/>
<path fill-rule="evenodd" clip-rule="evenodd" d="M51.2731 45.0014C48.4023 49.5986 39.6001 57.4263 45.1757 59.8444C48.5625 60.9578 50.1699 58.6784 50.852 57.1706H50.9884L48.7404 64.7785L53.9482 64.7546C53.9482 64.7546 51.7061 57.443 51.7002 57.1635H51.7536C52.3052 58.3964 54.399 60.9459 56.7004 59.9758C63.4266 57.2519 53.5211 49.5031 51.2731 45.0014V45.0014Z" fill="black"/>
<path fill-rule="evenodd" clip-rule="evenodd" d="M53.0868 141.775C55.9576 137.177 64.7598 129.35 59.1843 126.932C55.7975 125.818 54.1901 128.098 53.508 129.605H53.3715L55.6195 121.998L50.4118 122.021C50.4118 122.021 52.6539 129.333 52.6598 129.613H52.6064C52.0548 128.38 49.961 125.83 47.6596 126.8C40.9334 129.524 50.8388 137.273 53.0868 141.775V141.775Z" fill="black"/>
<path fill-rule="evenodd" clip-rule="evenodd" d="M87.2702 45.0014C84.3994 49.5986 75.5972 57.4263 81.1727 59.8444C84.5595 60.9578 86.1669 58.6784 86.849 57.1706H86.9855L84.7374 64.7785L89.9452 64.7546C89.9452 64.7546 87.7031 57.443 87.6972 57.1635H87.7506C88.3022 58.3964 90.396 60.9459 92.6974 59.9758C99.4236 57.2519 89.5182 49.5031 87.2702 45.0014V45.0014Z" fill="black"/>
<path fill-rule="evenodd" clip-rule="evenodd" d="M88.0868 141.775C90.9576 137.177 99.7598 129.35 94.1843 126.932C90.7975 125.818 89.1901 128.098 88.508 129.605H88.3715L90.6195 121.998L85.4118 122.021C85.4118 122.021 87.6539 129.333 87.6598 129.613H87.6064C87.0548 128.38 84.961 125.83 82.6596 126.8C75.9334 129.524 85.8388 137.273 88.0868 141.775V141.775Z" fill="black"/>
<path fill-rule="evenodd" clip-rule="evenodd" d="M20.64 48.6652C15.71 56.489 0.600023 69.8119 10.18 73.9282C15.99 75.8201 18.75 71.9442 19.92 69.3791H20.16L16.3 82.3252L25.24 82.2851C25.24 82.2851 21.39 69.84 21.38 69.367H21.47C22.42 71.4633 26.01 75.804 29.96 74.1527C41.5 69.5153 24.5 56.3287 20.64 48.6652V48.6652Z" fill="black"/>
<path d="M21.285 18.608L14.274 31.166H21.285V18.608ZM20.221 12.238H27.332V31.166H30.87V36.773H27.332V42.238H21.285V36.773H10.287V30.142L20.221 12.238" fill="black"/>
<path fill-rule="evenodd" clip-rule="evenodd" d="M118.04 140.004C122.97 132.18 138.08 118.857 128.5 114.741C122.69 112.849 119.93 116.725 118.76 119.29H118.52L122.38 106.344L113.44 106.384C113.44 106.384 117.29 118.829 117.3 119.302H117.21C116.26 117.206 112.67 112.865 108.72 114.516C97.18 119.154 114.18 132.34 118.04 140.004V140.004Z" fill="black"/>
<path d="M117.4 170.53L124.41 157.97H117.4V170.53ZM118.46 176.9H111.35V157.97H107.81V152.37H111.35V146.9H117.4V152.37H128.39V159L118.46 176.9Z" fill="black"/>
</svg>
