<svg width="140" height="190" viewBox="0 0 140 190" fill="none" xmlns="http://www.w3.org/2000/svg">
<path d="M21 5H124C132.86 5 140 12.136 140 21V174C140 182.86 132.86 190 124 190H21C12.136 190 5 182.86 5 174V21C5 12.136 12.136 5 21 5Z" fill="black" fill-opacity="0.49804"/>
<path d="M17 1H120C128.86 1 136 8.136 136 17V170C136 178.86 128.86 186 120 186H17C8.136 186 1 178.86 1 170V17C1 8.136 8.136 1 17 1Z" fill="#E7E7E7"/>
<path d="M19 3H122C130.86 3 138 10.136 138 19V172C138 180.86 130.86 188 122 188H19C10.136 188 3 180.86 3 172V19C3 10.136 10.136 3 19 3Z" fill="#C7891F"/>
<path d="M18 2H121C129.86 2 137 9.136 137 18V171C137 179.86 129.86 187 121 187H18C9.136 187 2 179.86 2 171V18C2 9.136 9.136 2 18 2Z" fill="white"/>
<path d="M12.3614 12.2281H28.2647V17.9251H17.4624V22.5663C17.9534 22.4013 18.4354 22.2803 18.9264 22.2033C19.4265 22.1043 19.9357 22.0604 20.4722 22.0604C23.491 22.0604 25.846 22.9732 27.5281 24.8099C29.2194 26.6355 30.0559 29.1761 30.0559 32.4535C30.0559 35.6869 29.1376 38.2274 27.3008 40.0641C25.4732 41.9008 22.9272 42.8136 19.672 42.8136C18.2717 42.8136 16.8714 42.6486 15.4893 42.3187C14.1163 41.9887 12.7433 41.4938 11.3884 40.8229V34.7411C12.7342 35.6759 14.0162 36.3798 15.2256 36.8527C16.444 37.3146 17.5897 37.5565 18.6627 37.5565C20.2084 37.5565 21.4269 37.0946 22.318 36.1818C23.2091 35.258 23.6637 34.0152 23.6637 32.4535C23.6637 30.8698 23.2091 29.627 22.318 28.7141C21.4269 27.8013 20.2084 27.3394 18.6627 27.3394C17.7443 27.3394 16.7623 27.4934 15.7166 27.7903C14.68 28.0653 13.5616 28.5052 12.3614 29.1101V12.2281" fill="black"/>
<path d="M126.321 177H110.418V171.313H121.22V166.672C120.729 166.833 120.238 166.952 119.756 167.033C119.256 167.127 118.738 167.173 118.211 167.173C115.183 167.173 112.837 166.256 111.146 164.421C109.463 162.599 108.627 160.053 108.627 156.785C108.627 153.544 109.545 151.004 111.382 149.17C113.21 147.334 115.756 146.417 119.011 146.417C120.411 146.417 121.811 146.584 123.193 146.918C124.566 147.241 125.93 147.736 127.294 148.405V154.494C125.949 153.557 124.666 152.853 123.457 152.384C122.239 151.916 121.093 151.682 120.02 151.682C118.474 151.682 117.256 152.137 116.365 153.048C115.465 153.971 115.019 155.218 115.019 156.785C115.019 158.366 115.465 159.611 116.365 160.523C117.256 161.434 118.474 161.889 120.02 161.889C120.938 161.889 121.92 161.742 122.957 161.447C124.003 161.165 125.121 160.723 126.321 160.12V177" fill="black"/>
<path fill-rule="evenodd" clip-rule="evenodd" d="M21.457 48.002C18.791 48.002 16.627 51.266 16.627 55.288C16.627 58.715 21.019 64.48 20.849 67.218C19.439 68 15.082 60.78 12.83 60.78C10.163 60.78 8 64.044 8 68.066C8 72.088 10.163 75.352 12.83 75.352C15.142 75.352 19.106 68.138 20.849 68.789L17.92 81.662L24.944 81.621C24.944 81.621 21.867 69.14 21.863 68.844H21.918V68.858C23.625 68.219 27.724 75.491 30.02 75.491C32.687 75.491 34.85 72.227 34.85 68.205C34.85 64.183 32.687 60.919 30.02 60.919C27.778 60.919 23.712 68.02 21.927 67.287C21.952 64.482 26.287 58.711 26.287 55.288C26.287 51.266 24.124 48.002 21.457 48.002V48.002Z" fill="black"/>
<path fill-rule="evenodd" clip-rule="evenodd" d="M117.42 139.96C120.08 139.96 122.25 136.7 122.25 132.68C122.25 129.25 117.86 123.49 118.03 120.75C119.44 119.96 123.79 127.18 126.05 127.18C128.71 127.18 130.88 123.92 130.88 119.9C130.88 115.88 128.71 112.61 126.05 112.61C123.73 112.61 119.77 119.83 118.03 119.18L120.96 106.3L113.93 106.34C113.93 106.34 117.01 118.83 117.01 119.12H116.96V119.11C115.25 119.75 111.15 112.47 108.86 112.47C106.19 112.47 104.03 115.74 104.03 119.76C104.03 123.78 106.19 127.05 108.86 127.05C111.1 127.05 115.16 119.95 116.95 120.68C116.92 123.48 112.59 129.25 112.59 132.68C112.59 136.7 114.75 139.96 117.42 139.96V139.96Z" fill="black"/>
<path fill-rule="evenodd" clip-rule="evenodd" d="M51.199 45C49.646 45 48.385 46.918 48.385 49.281C48.385 51.295 50.944 54.683 50.844 56.292C50.023 56.751 47.485 52.509 46.173 52.509C44.62 52.509 43.36 54.426 43.36 56.79C43.36 59.154 44.62 61.071 46.173 61.071C47.52 61.071 49.829 56.832 50.844 57.215L49.138 64.78L53.23 64.755C53.23 64.755 51.437 57.421 51.435 57.248H51.467V57.256C52.462 56.88 54.849 61.153 56.187 61.153C57.74 61.153 59 59.235 59 56.872C59 54.508 57.74 52.59 56.187 52.59C54.88 52.59 52.512 56.763 51.473 56.333C51.487 54.684 54.012 51.293 54.012 49.281C54.012 46.918 52.752 45 51.199 45V45Z" fill="black"/>
<path fill-rule="evenodd" clip-rule="evenodd" d="M70.199 82C68.646 82 67.385 83.918 67.385 86.281C67.385 88.295 69.944 91.683 69.844 93.292C69.023 93.751 66.485 89.509 65.173 89.509C63.62 89.509 62.36 91.426 62.36 93.79C62.36 96.154 63.62 98.071 65.173 98.071C66.52 98.071 68.829 93.832 69.844 94.215L68.138 101.78L72.23 101.76C72.23 101.76 70.437 94.421 70.435 94.248H70.467V94.256C71.462 93.88 73.849 98.153 75.187 98.153C76.74 98.153 78 96.235 78 93.872C78 91.508 76.74 89.59 75.187 89.59C73.88 89.59 71.512 93.763 70.473 93.333C70.487 91.684 73.012 88.293 73.012 86.281C73.012 83.918 71.752 82 70.199 82V82Z" fill="black"/>
<path fill-rule="evenodd" clip-rule="evenodd" d="M87.199 45C85.646 45 84.385 46.918 84.385 49.281C84.385 51.295 86.944 54.683 86.844 56.292C86.023 56.751 83.485 52.509 82.173 52.509C80.62 52.509 79.36 54.426 79.36 56.79C79.36 59.154 80.62 61.071 82.173 61.071C83.52 61.071 85.829 56.832 86.844 57.215L85.138 64.78L89.23 64.755C89.23 64.755 87.437 57.421 87.435 57.248H87.467V57.256C88.462 56.88 90.849 61.153 92.187 61.153C93.74 61.153 95 59.235 95 56.872C95 54.508 93.74 52.59 92.187 52.59C90.88 52.59 88.512 56.763 87.473 56.333C87.487 54.684 90.012 51.293 90.012 49.281C90.012 46.918 88.752 45 87.199 45V45Z" fill="black"/>
<path fill-rule="evenodd" clip-rule="evenodd" d="M88.161 141.78C89.714 141.78 90.975 139.86 90.975 137.5C90.975 135.49 88.416 132.1 88.516 130.49C89.337 130.03 91.875 134.27 93.187 134.27C94.74 134.27 96 132.35 96 129.99C96 127.63 94.74 125.71 93.187 125.71C91.84 125.71 89.531 129.95 88.516 129.57L90.222 122L86.13 122.02C86.13 122.02 87.923 129.36 87.925 129.53H87.893V129.52C86.898 129.9 84.511 125.63 83.173 125.63C81.62 125.63 80.36 127.54 80.36 129.91C80.36 132.27 81.62 134.19 83.173 134.19C84.48 134.19 86.848 130.02 87.887 130.45C87.873 132.1 85.348 135.49 85.348 137.5C85.348 139.86 86.608 141.78 88.161 141.78V141.78Z" fill="black"/>
<path fill-rule="evenodd" clip-rule="evenodd" d="M53.161 141.78C54.714 141.78 55.975 139.86 55.975 137.5C55.975 135.49 53.416 132.1 53.516 130.49C54.337 130.03 56.875 134.27 58.187 134.27C59.74 134.27 61 132.35 61 129.99C61 127.63 59.74 125.71 58.187 125.71C56.84 125.71 54.531 129.95 53.516 129.57L55.222 122L51.13 122.02C51.13 122.02 52.923 129.36 52.925 129.53H52.893V129.52C51.898 129.9 49.511 125.63 48.173 125.63C46.62 125.63 45.36 127.54 45.36 129.91C45.36 132.27 46.62 134.19 48.173 134.19C49.48 134.19 51.848 130.02 52.887 130.45C52.873 132.1 50.348 135.49 50.348 137.5C50.348 139.86 51.608 141.78 53.161 141.78V141.78Z" fill="black"/>
</svg>
