<svg width="140" height="190" viewBox="0 0 140 190" fill="none" xmlns="http://www.w3.org/2000/svg">
<path d="M21 5H124C132.86 5 140 12.136 140 21V174C140 182.86 132.86 190 124 190H21C12.136 190 5 182.86 5 174V21C5 12.136 12.136 5 21 5Z" fill="black" fill-opacity="0.49804"/>
<path d="M17 1H120C128.86 1 136 8.136 136 17V170C136 178.86 128.86 186 120 186H17C8.136 186 1 178.86 1 170V17C1 8.136 8.136 1 17 1Z" fill="#E7E7E7"/>
<path d="M19 3H122C130.86 3 138 10.136 138 19V172C138 180.86 130.86 188 122 188H19C10.136 188 3 180.86 3 172V19C3 10.136 10.136 3 19 3Z" fill="#C7891F"/>
<path d="M18 2H121C129.86 2 137 9.136 137 18V171C137 179.86 129.86 187 121 187H18C9.136 187 2 179.86 2 171V18C2 9.136 9.136 2 18 2Z" fill="white"/>
<path d="M12.3614 12.2281H28.2647V17.9251H17.4624V22.5663C17.9534 22.4013 18.4354 22.2803 18.9264 22.2033C19.4265 22.1043 19.9357 22.0604 20.4722 22.0604C23.491 22.0604 25.846 22.9732 27.5281 24.8099C29.2194 26.6355 30.0559 29.1761 30.0559 32.4535C30.0559 35.6869 29.1376 38.2274 27.3008 40.0641C25.4732 41.9008 22.9272 42.8136 19.672 42.8136C18.2717 42.8136 16.8714 42.6486 15.4893 42.3187C14.1163 41.9887 12.7433 41.4938 11.3884 40.8229V34.7411C12.7342 35.6759 14.0162 36.3798 15.2256 36.8527C16.444 37.3146 17.5897 37.5565 18.6627 37.5565C20.2084 37.5565 21.4269 37.0946 22.318 36.1818C23.2091 35.258 23.6637 34.0152 23.6637 32.4535C23.6637 30.8698 23.2091 29.627 22.318 28.7141C21.4269 27.8013 20.2084 27.3394 18.6627 27.3394C17.7443 27.3394 16.7623 27.4934 15.7166 27.7903C14.68 28.0653 13.5616 28.5052 12.3614 29.1101V12.2281" fill="#FF0000"/>
<path d="M126.321 177H110.418V171.313H121.22V166.672C120.729 166.833 120.238 166.952 119.756 167.033C119.256 167.127 118.738 167.173 118.211 167.173C115.183 167.173 112.837 166.256 111.146 164.421C109.463 162.599 108.627 160.053 108.627 156.785C108.627 153.544 109.545 151.004 111.382 149.17C113.21 147.334 115.756 146.417 119.011 146.417C120.411 146.417 121.811 146.584 123.193 146.918C124.566 147.241 125.93 147.736 127.294 148.405V154.494C125.949 153.557 124.666 152.853 123.457 152.384C122.239 151.916 121.093 151.682 120.02 151.682C118.474 151.682 117.256 152.137 116.365 153.048C115.465 153.971 115.019 155.218 115.019 156.785C115.019 158.366 115.465 159.611 116.365 160.523C117.256 161.434 118.474 161.889 120.02 161.889C120.938 161.889 121.92 161.742 122.957 161.447C124.003 161.165 125.121 160.723 126.321 160.12V177" fill="#FF0000"/>
<path fill-rule="evenodd" clip-rule="evenodd" d="M20.4099 48.665C16.2839 56.91 13.2749 61.163 7.06995 65.705C12.9419 70.192 17.0829 74.829 20.5299 82.325C23.6089 75.204 27.3769 69.895 33.9199 65.482C27.3379 62.133 23.5269 56.828 20.4099 48.665V48.665Z" fill="#FF0000"/>
<path fill-rule="evenodd" clip-rule="evenodd" d="M51.13 45C48.727 49.845 46.975 52.344 43.36 55.013C46.781 57.65 49.192 60.375 51.2 64.78C52.994 60.595 55.188 57.476 59 54.882C55.166 52.914 52.946 49.797 51.13 45V45Z" fill="#FF0000"/>
<path fill-rule="evenodd" clip-rule="evenodd" d="M87.13 45C84.727 49.845 82.975 52.344 79.36 55.013C82.781 57.65 85.192 60.375 87.2 64.78C88.994 60.595 91.188 57.476 95 54.882C91.166 52.914 88.946 49.797 87.13 45V45Z" fill="#FF0000"/>
<path fill-rule="evenodd" clip-rule="evenodd" d="M53.13 122.22C50.727 127.07 48.975 129.56 45.36 132.23C48.781 134.87 51.192 137.6 53.2 142C54.994 137.82 57.188 134.7 61 132.1C57.166 130.13 54.946 127.02 53.13 122.22Z" fill="#FF0000"/>
<path fill-rule="evenodd" clip-rule="evenodd" d="M88.13 122C85.727 126.85 83.975 129.34 80.36 132.01C83.781 134.65 86.192 137.38 88.2 141.78C89.994 137.6 92.188 134.48 96 131.88C92.166 129.91 89.946 126.8 88.13 122Z" fill="#FF0000"/>
<path fill-rule="evenodd" clip-rule="evenodd" d="M118.34 106.34C114.21 114.59 111.21 118.84 105 123.38C110.87 127.87 115.01 132.5 118.46 140C121.54 132.88 125.31 127.57 131.85 123.16C125.27 119.81 121.46 114.5 118.34 106.34V106.34Z" fill="#FF0000"/>
<path fill-rule="evenodd" clip-rule="evenodd" d="M69.77 82.22C67.367 87.065 65.615 89.564 62 92.233C65.421 94.87 67.832 97.595 69.84 102C71.634 97.815 73.828 94.696 77.64 92.102C73.806 90.134 71.586 87.017 69.77 82.22Z" fill="#FF0000"/>
</svg>
