<svg width="140" height="190" viewBox="0 0 140 190" fill="none" xmlns="http://www.w3.org/2000/svg">
<path d="M21 5H124C132.86 5 140 12.136 140 21V174C140 182.86 132.86 190 124 190H21C12.136 190 5 182.86 5 174V21C5 12.136 12.136 5 21 5Z" fill="black" fill-opacity="0.49804"/>
<path d="M17 1H120C128.86 1 136 8.136 136 17V170C136 178.86 128.86 186 120 186H17C8.136 186 1 178.86 1 170V17C1 8.136 8.136 1 17 1Z" fill="#E7E7E7"/>
<path d="M19 3H122C130.86 3 138 10.136 138 19V172C138 180.86 130.86 188 122 188H19C10.136 188 3 180.86 3 172V19C3 10.136 10.136 3 19 3Z" fill="#C7891F"/>
<path d="M18 2H121C129.86 2 137 9.136 137 18V171C137 179.86 129.86 187 121 187H18C9.136 187 2 179.86 2 171V18C2 9.136 9.136 2 18 2Z" fill="white"/>
<path d="M12.604 11.998H28.502V17.685H17.704V22.326C18.191 22.165 18.679 22.045 19.166 21.965C19.664 21.871 20.179 21.824 20.711 21.824C23.734 21.824 26.088 22.741 27.772 24.577C29.455 26.399 30.297 28.944 30.297 32.212C30.297 35.454 29.377 37.992 27.539 39.828C25.711 41.663 23.17 42.581 19.913 42.581C18.507 42.581 17.111 42.413 15.727 42.078C14.354 41.757 12.986 41.261 11.623 40.591V34.503C12.975 35.441 14.254 36.144 15.461 36.613C16.679 37.082 17.826 37.316 18.9 37.316C20.451 37.316 21.669 36.861 22.555 35.95C23.452 35.025 23.901 33.78 23.901 32.212C23.901 30.632 23.452 29.386 22.555 28.475C21.669 27.564 20.451 27.108 18.9 27.108C17.981 27.108 17.001 27.256 15.959 27.551C14.918 27.832 13.8 28.274 12.604 28.877V11.998" fill="#FF0000"/>
<path fill-rule="evenodd" clip-rule="evenodd" d="M13.5543 48.8447C12.7502 48.8489 11.867 49.0461 10.8919 49.4868C0.248669 57.6839 14.5959 70.9091 20.6551 82.2625L20.8324 82.3212C27.49 69.9102 40.1657 56.2527 30.4785 49.4868C22.8078 46.0242 20.7564 57.5454 20.6868 57.9609C20.6235 57.5958 19.0564 48.8069 13.5543 48.8447Z" fill="#FF0000"/>
<path d="M126.26 177H110.36V171.32H121.16V166.67C120.67 166.83 120.19 166.96 119.7 167.04C119.2 167.13 118.69 167.18 118.15 167.18C115.13 167.18 112.78 166.26 111.09 164.42C109.41 162.6 108.57 160.06 108.57 156.79C108.57 153.55 109.49 151.01 111.33 149.17C113.15 147.34 115.7 146.42 118.95 146.42C120.36 146.42 121.75 146.59 123.14 146.92C124.51 147.24 125.88 147.74 127.24 148.41V154.5C125.89 153.56 124.61 152.86 123.4 152.39C122.19 151.92 121.04 151.68 119.97 151.68C118.41 151.68 117.2 152.14 116.31 153.05C115.41 153.97 114.96 155.22 114.96 156.79C114.96 158.37 115.41 159.61 116.31 160.53C117.2 161.44 118.41 161.89 119.97 161.89C120.88 161.89 121.86 161.74 122.91 161.45C123.95 161.17 125.07 160.73 126.26 160.12V177" fill="#FF0000"/>
<path fill-rule="evenodd" clip-rule="evenodd" d="M125.308 139.993C126.112 139.989 126.995 139.791 127.97 139.351C138.613 131.154 124.266 117.928 118.207 106.575L118.03 106.516C111.372 118.927 98.6963 132.585 108.383 139.351C116.054 142.813 118.106 131.292 118.175 130.877C118.238 131.242 119.806 140.031 125.308 139.993Z" fill="#FF0000"/>
<path fill-rule="evenodd" clip-rule="evenodd" d="M47.1264 45.2219C46.6594 45.2244 46.1463 45.3409 45.5799 45.6013C39.3974 50.4436 47.7315 58.2562 51.2512 64.963L51.3542 64.9977C55.2215 57.6661 62.5846 49.5981 56.9574 45.6013C52.5017 43.5558 51.31 50.3617 51.2696 50.6072C51.2328 50.3915 50.3225 45.1996 47.1264 45.2219Z" fill="#FF0000"/>
<path fill-rule="evenodd" clip-rule="evenodd" d="M83.1264 45.2219C82.6594 45.2244 82.1463 45.3409 81.5799 45.6013C75.3974 50.4436 83.7315 58.2562 87.2512 64.963L87.3542 64.9977C91.2215 57.6661 98.5846 49.5981 92.9574 45.6013C88.5017 43.5558 87.31 50.3617 87.2696 50.6072C87.2328 50.3915 86.3225 45.1996 83.1264 45.2219Z" fill="#FF0000"/>
<path fill-rule="evenodd" clip-rule="evenodd" d="M65.7665 82.2219C65.2994 82.2244 64.7863 82.3409 64.2199 82.6013C58.0374 87.4436 66.3715 95.2562 69.8912 101.963L69.9942 101.998C73.8615 94.6661 81.2246 86.5981 75.5974 82.6013C71.1417 80.5558 69.9501 87.3617 69.9096 87.6072C69.8728 87.3915 68.9625 82.1996 65.7665 82.2219Z" fill="#FF0000"/>
<path fill-rule="evenodd" clip-rule="evenodd" d="M57.2335 141.78C57.7006 141.778 58.2137 141.661 58.7801 141.401C64.9626 136.558 56.6285 128.746 53.1088 122.039L53.0058 122.004C49.1385 129.336 41.7754 137.404 47.4026 141.401C51.8583 143.446 53.0499 136.64 53.0904 136.395C53.1272 136.611 54.0375 141.802 57.2335 141.78Z" fill="#FF0000"/>
<path fill-rule="evenodd" clip-rule="evenodd" d="M92.2376 141.78C92.7047 141.778 93.2177 141.661 93.7841 141.401C99.9667 136.558 91.6326 128.746 88.1128 122.039L88.0098 122.004C84.1425 129.336 76.7794 137.404 82.4066 141.401C86.8623 143.446 88.054 136.64 88.0944 136.395C88.1312 136.611 89.0415 141.802 92.2376 141.78Z" fill="#FF0000"/>
</svg>
