<svg width="140" height="190" viewBox="0 0 140 190" fill="none" xmlns="http://www.w3.org/2000/svg">
<path d="M21 5H124C132.86 5 140 12.136 140 21V174C140 182.86 132.86 190 124 190H21C12.136 190 5 182.86 5 174V21C5 12.136 12.136 5 21 5Z" fill="black" fill-opacity="0.49804"/>
<path d="M17 1H120C128.86 1 136 8.136 136 17V170C136 178.86 128.86 186 120 186H17C8.136 186 1 178.86 1 170V17C1 8.136 8.136 1 17 1Z" fill="#E7E7E7"/>
<path d="M19 3H122C130.86 3 138 10.136 138 19V172C138 180.86 130.86 188 122 188H19C10.136 188 3 180.86 3 172V19C3 10.136 10.136 3 19 3Z" fill="#C7891F"/>
<path d="M18 2H121C129.86 2 137 9.136 137 18V171C137 179.86 129.86 187 121 187H18C9.136 187 2 179.86 2 171V18C2 9.136 9.136 2 18 2Z" fill="white"/>
<path fill-rule="evenodd" clip-rule="evenodd" d="M51.2732 45.0014C48.4024 49.5986 39.6002 57.4263 45.1757 59.8444C48.5626 60.9578 50.17 58.6784 50.8521 57.1706H50.9885L48.7405 64.7785L53.9483 64.7546C53.9483 64.7546 51.7062 57.443 51.7003 57.1635H51.7536C52.3053 58.3964 54.399 60.9459 56.7004 59.9758C63.4266 57.2519 53.5212 49.5031 51.2732 45.0014V45.0014Z" fill="black"/>
<path fill-rule="evenodd" clip-rule="evenodd" d="M53.0868 141.775C55.9576 137.177 64.7598 129.35 59.1843 126.932C55.7974 125.818 54.19 128.098 53.5079 129.605H53.3715L55.6195 121.998L50.4117 122.021C50.4117 122.021 52.6538 129.333 52.6597 129.613H52.6063C52.0547 128.38 49.9609 125.83 47.6596 126.8C40.9333 129.524 50.8388 137.273 53.0868 141.775V141.775Z" fill="black"/>
<path fill-rule="evenodd" clip-rule="evenodd" d="M87.2702 45.0014C84.3994 49.5986 75.5972 57.4263 81.1727 59.8444C84.5595 60.9578 86.1669 58.6784 86.849 57.1706H86.9855L84.7374 64.7785L89.9452 64.7546C89.9452 64.7546 87.7031 57.443 87.6972 57.1635H87.7506C88.3022 58.3964 90.396 60.9459 92.6974 59.9758C99.4236 57.2519 89.5182 49.5031 87.2702 45.0014V45.0014Z" fill="black"/>
<path fill-rule="evenodd" clip-rule="evenodd" d="M88.0868 141.775C90.9576 137.177 99.7598 129.35 94.1843 126.932C90.7974 125.818 89.19 128.098 88.5079 129.605H88.3715L90.6195 121.998L85.4117 122.021C85.4117 122.021 87.6538 129.333 87.6597 129.613H87.6063C87.0547 128.38 84.9609 125.83 82.6596 126.8C75.9333 129.524 85.8388 137.273 88.0868 141.775V141.775Z" fill="black"/>
<path fill-rule="evenodd" clip-rule="evenodd" d="M20.64 48.6652C15.71 56.489 0.599962 69.8119 10.18 73.9282C15.99 75.8201 18.75 71.9442 19.92 69.3791H20.16L16.2999 82.3252L25.2399 82.2851C25.2399 82.2851 21.39 69.84 21.38 69.367H21.47C22.42 71.4633 26.0099 75.804 29.9599 74.1527C41.4999 69.5153 24.5 56.3287 20.64 48.6652V48.6652Z" fill="black"/>
<path d="M12.3631 12.238H28.2621V17.925H17.4641V22.566C17.9511 22.406 18.4381 22.285 18.9261 22.205C19.4241 22.111 19.9391 22.064 20.4711 22.064C23.4941 22.064 25.8481 22.982 27.5311 24.817C29.2151 26.639 30.0561 29.184 30.0561 32.452C30.0561 35.694 29.1371 38.233 27.2991 40.068C25.4711 41.903 22.9291 42.821 19.6731 42.821C18.2671 42.821 16.8711 42.653 15.4871 42.318C14.1131 41.997 12.7451 41.501 11.3831 40.832V34.743C12.7341 35.681 14.0141 36.384 15.2211 36.853C16.4391 37.322 17.5851 37.556 18.6601 37.556C20.2101 37.556 21.4291 37.101 22.3151 36.19C23.2121 35.266 23.6601 34.02 23.6601 32.452C23.6601 30.872 23.2121 29.626 22.3151 28.715C21.4291 27.804 20.2101 27.349 18.6601 27.349C17.7401 27.349 16.7601 27.496 15.7191 27.791C14.6781 28.072 13.5591 28.514 12.3631 29.117V12.238" fill="black"/>
<path fill-rule="evenodd" clip-rule="evenodd" d="M118.04 140.004C122.97 132.18 138.08 118.857 128.5 114.741C122.69 112.849 119.93 116.725 118.76 119.29H118.52L122.38 106.344L113.44 106.384C113.44 106.384 117.29 118.829 117.3 119.302H117.21C116.26 117.206 112.67 112.865 108.72 114.516C97.18 119.154 114.18 132.34 118.04 140.004V140.004Z" fill="black"/>
<path d="M126.32 177H110.42V171.31H121.22V166.67C120.73 166.83 120.24 166.95 119.75 167.03C119.26 167.13 118.74 167.17 118.21 167.17C115.19 167.17 112.83 166.26 111.15 164.42C109.47 162.6 108.62 160.05 108.62 156.79C108.62 153.54 109.54 151.01 111.38 149.17C113.21 147.34 115.75 146.42 119.01 146.42C120.41 146.42 121.81 146.59 123.19 146.92C124.57 147.24 125.93 147.74 127.3 148.41V154.5C125.95 153.56 124.67 152.85 123.46 152.39C122.24 151.92 121.09 151.68 120.02 151.68C118.47 151.68 117.25 152.14 116.37 153.05C115.47 153.97 115.02 155.22 115.02 156.79C115.02 158.37 115.47 159.61 116.37 160.52C117.25 161.43 118.47 161.89 120.02 161.89C120.94 161.89 121.92 161.74 122.96 161.45C124 161.17 125.12 160.72 126.32 160.12V177" fill="black"/>
<path fill-rule="evenodd" clip-rule="evenodd" d="M69.9111 82.0014C67.0403 86.5986 58.2381 94.4263 63.8137 96.8444C67.2005 97.9578 68.8079 95.6784 69.49 94.1706H69.6264L67.3784 101.778L72.5862 101.755C72.5862 101.755 70.3441 94.443 70.3382 94.1635H70.3916C70.9432 95.3964 73.037 97.9459 75.3384 96.9758C82.0646 94.2519 72.1591 86.5031 69.9111 82.0014V82.0014Z" fill="black"/>
</svg>
