<svg width="140" height="190" viewBox="0 0 140 190" fill="none" xmlns="http://www.w3.org/2000/svg">
<path d="M21 5H124C132.86 5 140 12.136 140 21V174C140 182.86 132.86 190 124 190H21C12.136 190 5 182.86 5 174V21C5 12.136 12.136 5 21 5Z" fill="black" fill-opacity="0.49804"/>
<path d="M17 1H120C128.86 1 136 8.136 136 17V170C136 178.86 128.86 186 120 186H17C8.136 186 1 178.86 1 170V17C1 8.136 8.136 1 17 1Z" fill="#E7E7E7"/>
<path d="M19 3H122C130.86 3 138 10.136 138 19V172C138 180.86 130.86 188 122 188H19C10.136 188 3 180.86 3 172V19C3 10.136 10.136 3 19 3Z" fill="#C7891F"/>
<path d="M18 2H121C129.86 2 137 9.136 137 18V171C137 179.86 129.86 187 121 187H18C9.136 187 2 179.86 2 171V18C2 9.136 9.136 2 18 2Z" fill="white"/>
<path d="M21.069 27.429C19.95 27.429 19.108 27.871 18.543 28.755C17.99 29.626 17.713 30.939 17.713 32.694C17.713 34.448 17.99 35.768 18.543 36.652C19.108 37.523 19.95 37.958 21.069 37.958C22.198 37.958 23.04 37.523 23.594 36.652C24.159 35.768 24.441 34.448 24.441 32.694C24.441 30.939 24.159 29.626 23.594 28.755C23.04 27.871 22.198 27.429 21.069 27.429V27.429ZM28.977 13.022V18.568C27.924 17.965 26.933 17.523 26.003 17.242C25.072 16.947 24.164 16.8 23.278 16.8C21.373 16.8 19.889 17.443 18.826 18.729C17.763 20.001 17.142 21.897 16.965 24.415C17.696 23.759 18.488 23.27 19.341 22.948C20.194 22.613 21.124 22.446 22.132 22.446C24.668 22.446 26.712 23.343 28.262 25.138C29.824 26.934 30.605 29.284 30.605 32.191C30.605 35.406 29.735 37.985 27.996 39.927C26.258 41.856 23.926 42.821 21.002 42.821C17.779 42.821 15.282 41.508 13.51 38.882C11.749 36.244 10.868 32.506 10.868 27.67C10.868 22.714 11.898 18.822 13.958 15.996C16.029 13.156 18.865 11.736 22.464 11.736C23.605 11.736 24.713 11.843 25.787 12.058C26.861 12.272 27.924 12.593 28.977 13.022" fill="black"/>
<path d="M117.85 161.9C118.97 161.9 119.81 161.46 120.38 160.57C120.93 159.7 121.21 158.39 121.21 156.64C121.21 154.88 120.93 153.56 120.38 152.68C119.81 151.81 118.97 151.37 117.85 151.37C116.72 151.37 115.88 151.81 115.33 152.68C114.76 153.56 114.48 154.88 114.48 156.64C114.48 158.39 114.76 159.7 115.33 160.57C115.88 161.46 116.72 161.9 117.85 161.9ZM109.94 176.31V170.76C111 171.36 111.99 171.81 112.92 172.09C113.85 172.38 114.76 172.53 115.64 172.53C117.55 172.53 119.03 171.89 120.09 170.6C121.16 169.33 121.78 167.43 121.95 164.91C121.22 165.57 120.43 166.06 119.58 166.38C118.73 166.72 117.8 166.88 116.79 166.88C114.25 166.88 112.21 165.99 110.66 164.19C109.1 162.4 108.32 160.05 108.32 157.14C108.32 153.92 109.18 151.35 110.92 149.4C112.66 147.47 114.99 146.51 117.92 146.51C121.14 146.51 123.64 147.82 125.41 150.45C127.17 153.09 128.05 156.82 128.05 161.66C128.05 166.62 127.02 170.51 124.96 173.33C122.89 176.17 120.06 177.59 116.46 177.59C115.32 177.59 114.21 177.49 113.13 177.27C112.06 177.06 111 176.74 109.94 176.31" fill="black"/>
<path fill-rule="evenodd" clip-rule="evenodd" d="M20.5269 48.665C17.8609 48.665 15.6969 51.929 15.6969 55.951C15.6969 59.377 20.0889 65.142 19.9189 67.88C18.5089 68.663 14.1519 61.443 11.8999 61.443C9.23345 61.443 7.06995 64.706 7.06995 68.728C7.06995 72.751 9.23345 76.014 11.8999 76.014C14.2119 76.014 18.1759 68.8 19.9189 69.451L16.9899 82.325L24.0139 82.283C24.0139 82.283 20.9369 69.802 20.9329 69.507H20.9879V69.521C22.6949 68.881 26.7939 76.153 29.0899 76.153C31.7569 76.153 33.9199 72.89 33.9199 68.867C33.9199 64.845 31.7569 61.582 29.0899 61.582C26.8479 61.582 22.7819 68.682 20.9969 67.95C21.0219 65.144 25.3569 59.373 25.3569 55.951C25.3569 51.929 23.1939 48.665 20.5269 48.665V48.665Z" fill="black"/>
<path fill-rule="evenodd" clip-rule="evenodd" d="M117.82 139.96C120.49 139.96 122.65 136.7 122.65 132.68C122.65 129.25 118.26 123.49 118.43 120.75C119.84 119.96 124.2 127.18 126.45 127.18C129.12 127.18 131.28 123.92 131.28 119.9C131.28 115.88 129.12 112.61 126.45 112.61C124.14 112.61 120.17 119.83 118.43 119.18L121.36 106.3L114.34 106.34C114.34 106.34 117.41 118.83 117.42 119.12H117.36V119.11C115.65 119.75 111.56 112.47 109.26 112.47C106.59 112.47 104.43 115.74 104.43 119.76C104.43 123.78 106.59 127.05 109.26 127.05C111.5 127.05 115.57 119.95 117.35 120.68C117.33 123.48 112.99 129.25 112.99 132.68C112.99 136.7 115.16 139.96 117.82 139.96V139.96Z" fill="black"/>
<path fill-rule="evenodd" clip-rule="evenodd" d="M51.199 45C49.646 45 48.385 46.918 48.385 49.281C48.385 51.295 50.944 54.683 50.844 56.292C50.023 56.751 47.485 52.509 46.173 52.509C44.62 52.509 43.36 54.426 43.36 56.79C43.36 59.154 44.62 61.071 46.173 61.071C47.52 61.071 49.829 56.832 50.844 57.215L49.138 64.78L53.23 64.755C53.23 64.755 51.437 57.421 51.435 57.248H51.467V57.256C52.462 56.88 54.849 61.153 56.187 61.153C57.74 61.153 59 59.235 59 56.872C59 54.508 57.74 52.59 56.187 52.59C54.88 52.59 52.512 56.763 51.473 56.333C51.487 54.684 54.012 51.293 54.012 49.281C54.012 46.918 52.752 45 51.199 45V45Z" fill="black"/>
<path fill-rule="evenodd" clip-rule="evenodd" d="M87.199 45C85.646 45 84.385 46.918 84.385 49.281C84.385 51.295 86.944 54.683 86.844 56.292C86.023 56.751 83.485 52.509 82.173 52.509C80.62 52.509 79.36 54.426 79.36 56.79C79.36 59.154 80.62 61.071 82.173 61.071C83.52 61.071 85.829 56.832 86.844 57.215L85.138 64.78L89.23 64.755C89.23 64.755 87.437 57.421 87.435 57.248H87.467V57.256C88.462 56.88 90.849 61.153 92.187 61.153C93.74 61.153 95 59.235 95 56.872C95 54.508 93.74 52.59 92.187 52.59C90.88 52.59 88.512 56.763 87.473 56.333C87.487 54.684 90.012 51.293 90.012 49.281C90.012 46.918 88.752 45 87.199 45V45Z" fill="black"/>
<path fill-rule="evenodd" clip-rule="evenodd" d="M51.199 81C49.646 81 48.385 82.918 48.385 85.281C48.385 87.295 50.944 90.683 50.844 92.292C50.023 92.751 47.485 88.509 46.173 88.509C44.62 88.509 43.36 90.426 43.36 92.79C43.36 95.154 44.62 97.071 46.173 97.071C47.52 97.071 49.829 92.832 50.844 93.215L49.138 100.78L53.23 100.76C53.23 100.76 51.437 93.421 51.435 93.248H51.467V93.256C52.462 92.88 54.849 97.153 56.187 97.153C57.74 97.153 59 95.235 59 92.872C59 90.508 57.74 88.59 56.187 88.59C54.88 88.59 52.512 92.763 51.473 92.333C51.487 90.684 54.012 87.293 54.012 85.281C54.012 82.918 52.752 81 51.199 81V81Z" fill="black"/>
<path fill-rule="evenodd" clip-rule="evenodd" d="M86.801 101C88.354 101 89.615 99.082 89.615 96.719C89.615 94.705 87.056 91.317 87.156 89.708C87.977 89.249 90.515 93.491 91.827 93.491C93.38 93.491 94.64 91.574 94.64 89.21C94.64 86.846 93.38 84.929 91.827 84.929C90.48 84.929 88.171 89.168 87.156 88.785L88.862 81.22L84.77 81.245C84.77 81.245 86.563 88.579 86.565 88.752H86.533V88.744C85.538 89.12 83.151 84.847 81.813 84.847C80.26 84.847 79 86.765 79 89.128C79 91.492 80.26 93.41 81.813 93.41C83.12 93.41 85.488 89.237 86.527 89.668C86.513 91.316 83.988 94.707 83.988 96.719C83.988 99.082 85.248 101 86.801 101V101Z" fill="black"/>
<path fill-rule="evenodd" clip-rule="evenodd" d="M88.161 142C89.714 142 90.975 140.08 90.975 137.72C90.975 135.71 88.416 132.32 88.516 130.71C89.337 130.25 91.875 134.49 93.187 134.49C94.74 134.49 96 132.57 96 130.21C96 127.85 94.74 125.93 93.187 125.93C91.84 125.93 89.531 130.17 88.516 129.79L90.222 122.22L86.13 122.24C86.13 122.24 87.923 129.58 87.925 129.75H87.893V129.74C86.898 130.12 84.511 125.85 83.173 125.85C81.62 125.85 80.36 127.76 80.36 130.13C80.36 132.49 81.62 134.41 83.173 134.41C84.48 134.41 86.848 130.24 87.887 130.67C87.873 132.32 85.348 135.71 85.348 137.72C85.348 140.08 86.608 142 88.161 142V142Z" fill="black"/>
<path fill-rule="evenodd" clip-rule="evenodd" d="M52.801 141.78C54.354 141.78 55.615 139.86 55.615 137.5C55.615 135.49 53.056 132.1 53.156 130.49C53.977 130.03 56.515 134.27 57.827 134.27C59.38 134.27 60.64 132.35 60.64 129.99C60.64 127.63 59.38 125.71 57.827 125.71C56.48 125.71 54.171 129.95 53.156 129.57L54.862 122L50.77 122.02C50.77 122.02 52.563 129.36 52.565 129.53H52.533V129.52C51.538 129.9 49.151 125.63 47.813 125.63C46.26 125.63 45 127.54 45 129.91C45 132.27 46.26 134.19 47.813 134.19C49.12 134.19 51.488 130.02 52.527 130.45C52.513 132.1 49.988 135.49 49.988 137.5C49.988 139.86 51.248 141.78 52.801 141.78V141.78Z" fill="black"/>
</svg>
