<svg width="140" height="190" viewBox="0 0 140 190" fill="none" xmlns="http://www.w3.org/2000/svg">
<path d="M21 5H124C132.86 5 140 12.136 140 21V174C140 182.86 132.86 190 124 190H21C12.136 190 5 182.86 5 174V21C5 12.136 12.136 5 21 5Z" fill="black" fill-opacity="0.49804"/>
<path d="M17 1H120C128.86 1 136 8.136 136 17V170C136 178.86 128.86 186 120 186H17C8.136 186 1 178.86 1 170V17C1 8.136 8.136 1 17 1Z" fill="#E7E7E7"/>
<path d="M19 3H122C130.86 3 138 10.136 138 19V172C138 180.86 130.86 188 122 188H19C10.136 188 3 180.86 3 172V19C3 10.136 10.136 3 19 3Z" fill="#C7891F"/>
<path d="M18 2H121C129.86 2 137 9.136 137 18V171C137 179.86 129.86 187 121 187H18C9.136 187 2 179.86 2 171V18C2 9.136 9.136 2 18 2Z" fill="white"/>
<path d="M21.069 27.429C19.95 27.429 19.108 27.871 18.543 28.755C17.99 29.626 17.713 30.939 17.713 32.694C17.713 34.448 17.99 35.768 18.543 36.652C19.108 37.523 19.95 37.958 21.069 37.958C22.198 37.958 23.04 37.523 23.594 36.652C24.159 35.768 24.441 34.448 24.441 32.694C24.441 30.939 24.159 29.626 23.594 28.755C23.04 27.871 22.198 27.429 21.069 27.429V27.429ZM28.977 13.022V18.568C27.924 17.965 26.933 17.523 26.003 17.242C25.072 16.947 24.164 16.8 23.278 16.8C21.373 16.8 19.889 17.443 18.826 18.729C17.763 20.001 17.142 21.897 16.965 24.415C17.696 23.759 18.488 23.27 19.341 22.948C20.194 22.613 21.124 22.446 22.132 22.446C24.668 22.446 26.712 23.343 28.262 25.138C29.824 26.934 30.605 29.284 30.605 32.191C30.605 35.406 29.735 37.985 27.996 39.927C26.258 41.856 23.926 42.821 21.002 42.821C17.779 42.821 15.282 41.508 13.51 38.882C11.749 36.244 10.868 32.506 10.868 27.67C10.868 22.714 11.898 18.822 13.958 15.996C16.029 13.156 18.865 11.736 22.464 11.736C23.605 11.736 24.713 11.843 25.787 12.058C26.861 12.272 27.924 12.593 28.977 13.022" fill="#FF0000"/>
<path d="M117.61 161.74C118.73 161.74 119.57 161.29 120.14 160.41C120.69 159.54 120.97 158.23 120.97 156.47C120.97 154.72 120.69 153.4 120.14 152.51C119.57 151.64 118.73 151.21 117.61 151.21C116.48 151.21 115.64 151.64 115.09 152.51C114.52 153.4 114.24 154.72 114.24 156.47C114.24 158.23 114.52 159.54 115.09 160.41C115.64 161.29 116.48 161.74 117.61 161.74ZM109.7 176.14V170.6C110.76 171.2 111.75 171.64 112.68 171.92C113.61 172.22 114.52 172.37 115.4 172.37C117.31 172.37 118.79 171.72 119.85 170.44C120.92 169.16 121.54 167.27 121.71 164.75C120.98 165.41 120.19 165.9 119.34 166.22C118.49 166.55 117.56 166.72 116.55 166.72C114.01 166.72 111.97 165.82 110.42 164.03C108.86 162.23 108.08 159.88 108.08 156.97C108.08 153.76 108.94 151.18 110.68 149.24C112.42 147.31 114.75 146.35 117.68 146.35C120.9 146.35 123.4 147.66 125.17 150.28C126.93 152.92 127.81 156.66 127.81 161.5C127.81 166.45 126.78 170.34 124.72 173.17C122.65 176.01 119.82 177.43 116.22 177.43C115.08 177.43 113.97 177.32 112.89 177.11C111.82 176.89 110.76 176.57 109.7 176.14" fill="#FF0000"/>
<path fill-rule="evenodd" clip-rule="evenodd" d="M20.4099 48.665C16.2839 56.91 13.2749 61.163 7.06995 65.705C12.9419 70.192 17.0829 74.829 20.5299 82.325C23.6089 75.204 27.3769 69.895 33.9199 65.482C27.3379 62.133 23.5269 56.828 20.4099 48.665V48.665Z" fill="#FF0000"/>
<path fill-rule="evenodd" clip-rule="evenodd" d="M51.13 45C48.727 49.845 46.975 52.344 43.36 55.013C46.781 57.65 49.192 60.375 51.2 64.78C52.994 60.595 55.188 57.476 59 54.882C55.166 52.914 52.946 49.797 51.13 45V45Z" fill="#FF0000"/>
<path fill-rule="evenodd" clip-rule="evenodd" d="M87.13 45C84.727 49.845 82.975 52.344 79.36 55.013C82.781 57.65 85.192 60.375 87.2 64.78C88.994 60.595 91.188 57.476 95 54.882C91.166 52.914 88.946 49.797 87.13 45V45Z" fill="#FF0000"/>
<path fill-rule="evenodd" clip-rule="evenodd" d="M51.13 81C48.727 85.845 46.975 88.344 43.36 91.013C46.781 93.65 49.192 96.375 51.2 100.78C52.994 96.595 55.188 93.476 59 90.882C55.166 88.914 52.946 85.797 51.13 81Z" fill="#FF0000"/>
<path fill-rule="evenodd" clip-rule="evenodd" d="M86.77 81C84.367 85.845 82.615 88.344 79 91.013C82.421 93.65 84.832 96.375 86.84 100.78C88.634 96.595 90.828 93.476 94.64 90.882C90.806 88.914 88.586 85.797 86.77 81Z" fill="#FF0000"/>
<path fill-rule="evenodd" clip-rule="evenodd" d="M53.13 122.22C50.727 127.07 48.975 129.56 45.36 132.23C48.781 134.87 51.192 137.6 53.2 142C54.994 137.82 57.188 134.7 61 132.1C57.166 130.13 54.946 127.02 53.13 122.22Z" fill="#FF0000"/>
<path fill-rule="evenodd" clip-rule="evenodd" d="M88.13 122.22C85.727 127.07 83.975 129.56 80.36 132.23C83.781 134.87 86.192 137.6 88.2 142C89.994 137.82 92.188 134.7 96 132.1C92.166 130.13 89.946 127.02 88.13 122.22Z" fill="#FF0000"/>
<path fill-rule="evenodd" clip-rule="evenodd" d="M118.34 106.34C114.21 114.59 111.21 118.84 105 123.38C110.87 127.87 115.01 132.5 118.46 140C121.54 132.88 125.31 127.57 131.85 123.16C125.27 119.81 121.46 114.5 118.34 106.34V106.34Z" fill="#FF0000"/>
</svg>
