<svg width="140" height="190" viewBox="0 0 140 190" fill="none" xmlns="http://www.w3.org/2000/svg">
<path d="M21 5H124C132.86 5 140 12.136 140 21V174C140 182.86 132.86 190 124 190H21C12.136 190 5 182.86 5 174V21C5 12.136 12.136 5 21 5Z" fill="black" fill-opacity="0.49804"/>
<path d="M17 1H120C128.86 1 136 8.136 136 17V170C136 178.86 128.86 186 120 186H17C8.136 186 1 178.86 1 170V17C1 8.136 8.136 1 17 1Z" fill="#E7E7E7"/>
<path d="M19 3H122C130.86 3 138 10.136 138 19V172C138 180.86 130.86 188 122 188H19C10.136 188 3 180.86 3 172V19C3 10.136 10.136 3 19 3Z" fill="#C7891F"/>
<path d="M18 2H121C129.86 2 137 9.136 137 18V171C137 179.86 129.86 187 121 187H18C9.136 187 2 179.86 2 171V18C2 9.136 9.136 2 18 2Z" fill="white"/>
<path d="M21.309 27.189C20.19 27.189 19.349 27.631 18.784 28.515C18.23 29.386 17.953 30.699 17.953 32.453C17.953 34.208 18.23 35.528 18.784 36.412C19.349 37.283 20.19 37.718 21.309 37.718C22.439 37.718 23.28 37.283 23.834 36.412C24.399 35.528 24.681 34.208 24.681 32.453C24.681 30.699 24.399 29.386 23.834 28.515C23.28 27.631 22.439 27.189 21.309 27.189V27.189ZM29.217 12.782V18.328C28.165 17.725 27.173 17.283 26.243 17.001C25.313 16.707 24.405 16.559 23.519 16.559C21.614 16.559 20.129 17.202 19.066 18.488C18.003 19.761 17.383 21.656 17.205 24.175C17.936 23.518 18.728 23.029 19.581 22.708C20.434 22.373 21.364 22.206 22.372 22.206C24.908 22.206 26.952 23.103 28.502 24.898C30.064 26.693 30.845 29.044 30.845 31.951C30.845 35.166 29.976 37.745 28.237 39.687C26.498 41.616 24.166 42.581 21.243 42.581C18.02 42.581 15.522 41.268 13.75 38.642C11.989 36.003 11.108 32.266 11.108 27.43C11.108 22.474 12.138 18.582 14.198 15.756C16.27 12.916 19.105 11.496 22.704 11.496C23.845 11.496 24.953 11.603 26.027 11.817C27.101 12.032 28.165 12.353 29.217 12.782Z" fill="#FF0000"/>
<path fill-rule="evenodd" clip-rule="evenodd" d="M13.5543 48.8447C12.7502 48.8489 11.867 49.0461 10.8919 49.4868C0.248669 57.6839 14.5959 70.9091 20.6551 82.2625L20.8324 82.3212C27.49 69.9102 40.1657 56.2527 30.4785 49.4868C22.8078 46.0242 20.7564 57.5454 20.6868 57.9609C20.6235 57.5958 19.0564 48.8069 13.5543 48.8447Z" fill="#FF0000"/>
<path d="M117.56 161.81C118.68 161.81 119.52 161.37 120.08 160.48C120.64 159.61 120.91 158.3 120.91 156.55C120.91 154.79 120.64 153.47 120.08 152.59C119.52 151.72 118.68 151.28 117.56 151.28C116.43 151.28 115.59 151.72 115.03 152.59C114.47 153.47 114.18 154.79 114.18 156.55C114.18 158.3 114.47 159.61 115.03 160.48C115.59 161.37 116.43 161.81 117.56 161.81ZM109.65 176.22V170.67C110.7 171.28 111.69 171.72 112.62 172C113.55 172.29 114.46 172.44 115.35 172.44C117.25 172.44 118.74 171.8 119.8 170.51C120.86 169.24 121.48 167.34 121.66 164.83C120.93 165.48 120.14 165.97 119.28 166.29C118.43 166.63 117.5 166.79 116.49 166.79C113.96 166.79 111.91 165.9 110.36 164.1C108.8 162.31 108.02 159.96 108.02 157.05C108.02 153.83 108.89 151.26 110.63 149.31C112.37 147.38 114.7 146.42 117.62 146.42C120.85 146.42 123.34 147.73 125.12 150.36C126.88 153 127.76 156.73 127.76 161.57C127.76 166.53 126.73 170.42 124.67 173.24C122.6 176.08 119.76 177.5 116.16 177.5C115.02 177.5 113.91 177.4 112.84 177.18C111.76 176.97 110.7 176.65 109.65 176.22" fill="#FF0000"/>
<path fill-rule="evenodd" clip-rule="evenodd" d="M125.312 139.993C126.116 139.989 126.999 139.791 127.974 139.351C138.619 131.154 124.27 117.928 118.21 106.575L118.032 106.516C111.374 118.927 98.6965 132.585 108.385 139.351C116.057 142.813 118.108 131.292 118.178 130.877C118.241 131.242 119.809 140.031 125.312 139.993Z" fill="#FF0000"/>
<path fill-rule="evenodd" clip-rule="evenodd" d="M47.1264 45.0019C46.6594 45.0044 46.1463 45.1209 45.5799 45.3813C39.3974 50.2236 47.7315 58.0362 51.2512 64.743L51.3542 64.7777C55.2215 57.4461 62.5846 49.3781 56.9574 45.3813C52.5017 43.3358 51.31 50.1417 51.2696 50.3872C51.2328 50.1715 50.3225 44.9796 47.1264 45.0019Z" fill="#FF0000"/>
<path fill-rule="evenodd" clip-rule="evenodd" d="M83.1264 45.2219C82.6594 45.2244 82.1463 45.3409 81.5799 45.6013C75.3974 50.4436 83.7315 58.2562 87.2512 64.963L87.3542 64.9977C91.2215 57.6661 98.5846 49.5981 92.9574 45.6013C88.5017 43.5558 87.31 50.3617 87.2696 50.6072C87.2328 50.3915 86.3225 45.1996 83.1264 45.2219Z" fill="#FF0000"/>
<path fill-rule="evenodd" clip-rule="evenodd" d="M47.1264 81.2219C46.6594 81.2244 46.1463 81.3409 45.5799 81.6013C39.3974 86.4436 47.7315 94.2562 51.2512 100.963L51.3542 100.998C55.2215 93.6661 62.5846 85.5981 56.9574 81.6013C52.5017 79.5558 51.31 86.3617 51.2696 86.6072C51.2328 86.3915 50.3225 81.1996 47.1264 81.2219Z" fill="#FF0000"/>
<path fill-rule="evenodd" clip-rule="evenodd" d="M90.8776 101C91.3447 100.998 91.8577 100.881 92.4241 100.621C98.6067 95.7784 90.2726 87.9658 86.7528 81.259L86.6499 81.2243C82.7826 88.5559 75.4194 96.6239 81.0466 100.621C85.5024 102.666 86.694 95.8603 86.7344 95.6148C86.7712 95.8305 87.6815 101.022 90.8776 101Z" fill="#FF0000"/>
<path fill-rule="evenodd" clip-rule="evenodd" d="M57.2335 141.78C57.7006 141.778 58.2137 141.661 58.7801 141.401C64.9626 136.558 56.6285 128.746 53.1088 122.039L53.0058 122.004C49.1385 129.336 41.7754 137.404 47.4026 141.401C51.8583 143.446 53.0499 136.64 53.0904 136.395C53.1272 136.611 54.0375 141.802 57.2335 141.78Z" fill="#FF0000"/>
<path fill-rule="evenodd" clip-rule="evenodd" d="M92.2376 141.78C92.7047 141.778 93.2177 141.661 93.7841 141.401C99.9667 136.558 91.6326 128.746 88.1128 122.039L88.0098 122.004C84.1425 129.336 76.7794 137.404 82.4066 141.401C86.8623 143.446 88.054 136.64 88.0944 136.395C88.1312 136.611 89.0415 141.802 92.2376 141.78Z" fill="#FF0000"/>
</svg>
