<svg width="140" height="190" viewBox="0 0 140 190" fill="none" xmlns="http://www.w3.org/2000/svg">
<path d="M21 5H124C132.86 5 140 12.136 140 21V174C140 182.86 132.86 190 124 190H21C12.136 190 5 182.86 5 174V21C5 12.136 12.136 5 21 5Z" fill="black" fill-opacity="0.49804"/>
<path d="M17 1H120C128.86 1 136 8.136 136 17V170C136 178.86 128.86 186 120 186H17C8.136 186 1 178.86 1 170V17C1 8.136 8.136 1 17 1Z" fill="#E7E7E7"/>
<path d="M19 3H122C130.86 3 138 10.136 138 19V172C138 180.86 130.86 188 122 188H19C10.136 188 3 180.86 3 172V19C3 10.136 10.136 3 19 3Z" fill="#C7891F"/>
<path d="M18 2H121C129.86 2 137 9.136 137 18V171C137 179.86 129.86 187 121 187H18C9.136 187 2 179.86 2 171V18C2 9.136 9.136 2 18 2Z" fill="white"/>
<path fill-rule="evenodd" clip-rule="evenodd" d="M51.2732 45.0014C48.4024 49.5986 39.6002 57.4263 45.1757 59.8444C48.5626 60.9578 50.17 58.6784 50.8521 57.1706H50.9885L48.7405 64.7785L53.9483 64.7546C53.9483 64.7546 51.7062 57.443 51.7003 57.1635H51.7536C52.3053 58.3964 54.399 60.9459 56.7004 59.9758C63.4266 57.2519 53.5212 49.5031 51.2732 45.0014V45.0014Z" fill="black"/>
<path fill-rule="evenodd" clip-rule="evenodd" d="M53.0868 141.775C55.9576 137.177 64.7598 129.35 59.1843 126.932C55.7974 125.818 54.19 128.098 53.5079 129.605H53.3715L55.6195 121.998L50.4117 122.021C50.4117 122.021 52.6538 129.333 52.6597 129.613H52.6063C52.0547 128.38 49.9609 125.83 47.6596 126.8C40.9333 129.524 50.8388 137.273 53.0868 141.775V141.775Z" fill="black"/>
<path fill-rule="evenodd" clip-rule="evenodd" d="M87.2702 45.0014C84.3994 49.5986 75.5972 57.4263 81.1727 59.8444C84.5595 60.9578 86.1669 58.6784 86.849 57.1706H86.9855L84.7374 64.7785L89.9452 64.7546C89.9452 64.7546 87.7031 57.443 87.6972 57.1635H87.7506C88.3022 58.3964 90.396 60.9459 92.6974 59.9758C99.4236 57.2519 89.5182 49.5031 87.2702 45.0014V45.0014Z" fill="black"/>
<path fill-rule="evenodd" clip-rule="evenodd" d="M88.0868 141.775C90.9576 137.177 99.7598 129.35 94.1843 126.932C90.7974 125.818 89.19 128.098 88.5079 129.605H88.3715L90.6195 121.998L85.4117 122.021C85.4117 122.021 87.6538 129.333 87.6597 129.613H87.6063C87.0547 128.38 84.9609 125.83 82.6596 126.8C75.9333 129.524 85.8388 137.273 88.0868 141.775V141.775Z" fill="black"/>
<path fill-rule="evenodd" clip-rule="evenodd" d="M20.644 48.665C15.72 56.49 0.61001 69.814 10.182 73.928C15.993 75.822 18.758 71.945 19.929 69.379H20.164L16.305 82.325L25.242 82.287C25.242 82.287 21.392 69.842 21.383 69.366H21.477C22.423 71.463 26.013 75.805 29.961 74.151C41.507 69.516 24.506 56.327 20.644 48.665V48.665Z" fill="black"/>
<path d="M21.069 27.429C19.95 27.429 19.108 27.871 18.543 28.755C17.99 29.626 17.713 30.939 17.713 32.694C17.713 34.448 17.99 35.768 18.543 36.652C19.108 37.523 19.95 37.958 21.069 37.958C22.198 37.958 23.04 37.523 23.594 36.652C24.159 35.768 24.441 34.448 24.441 32.694C24.441 30.939 24.159 29.626 23.594 28.755C23.04 27.871 22.198 27.429 21.069 27.429V27.429ZM28.977 13.022V18.568C27.924 17.965 26.933 17.523 26.003 17.242C25.072 16.947 24.164 16.8 23.278 16.8C21.373 16.8 19.889 17.443 18.826 18.729C17.763 20.001 17.142 21.897 16.965 24.415C17.696 23.759 18.488 23.27 19.341 22.948C20.194 22.613 21.124 22.446 22.132 22.446C24.668 22.446 26.712 23.343 28.262 25.138C29.824 26.934 30.605 29.284 30.605 32.191C30.605 35.406 29.735 37.985 27.996 39.927C26.258 41.856 23.926 42.821 21.002 42.821C17.779 42.821 15.282 41.508 13.51 38.882C11.749 36.244 10.868 32.506 10.868 27.67C10.868 22.714 11.898 18.822 13.958 15.996C16.029 13.156 18.865 11.736 22.464 11.736C23.605 11.736 24.713 11.843 25.787 12.058C26.861 12.272 27.924 12.593 28.977 13.022" fill="black"/>
<path fill-rule="evenodd" clip-rule="evenodd" d="M118.04 140C122.96 132.18 138.07 118.85 128.5 114.74C122.69 112.84 119.92 116.72 118.75 119.29H118.52L122.38 106.34L113.44 106.38C113.44 106.38 117.29 118.82 117.3 119.3H117.2C116.26 117.2 112.67 112.86 108.72 114.51C97.173 119.15 114.17 132.34 118.04 140V140Z" fill="black"/>
<path d="M117.61 161.74C118.73 161.74 119.57 161.29 120.14 160.41C120.69 159.54 120.97 158.23 120.97 156.47C120.97 154.72 120.69 153.4 120.14 152.51C119.57 151.64 118.73 151.21 117.61 151.21C116.48 151.21 115.64 151.64 115.09 152.51C114.52 153.4 114.24 154.72 114.24 156.47C114.24 158.23 114.52 159.54 115.09 160.41C115.64 161.29 116.48 161.74 117.61 161.74ZM109.7 176.14V170.6C110.76 171.2 111.75 171.64 112.68 171.92C113.61 172.22 114.52 172.37 115.4 172.37C117.31 172.37 118.79 171.72 119.85 170.44C120.92 169.16 121.54 167.27 121.71 164.75C120.98 165.41 120.19 165.9 119.34 166.22C118.49 166.55 117.56 166.72 116.55 166.72C114.01 166.72 111.97 165.82 110.42 164.03C108.86 162.23 108.08 159.88 108.08 156.97C108.08 153.76 108.94 151.18 110.68 149.24C112.42 147.31 114.75 146.35 117.68 146.35C120.9 146.35 123.4 147.66 125.17 150.28C126.93 152.92 127.81 156.66 127.81 161.5C127.81 166.45 126.78 170.34 124.72 173.17C122.65 176.01 119.82 177.43 116.22 177.43C115.08 177.43 113.97 177.32 112.89 177.11C111.82 176.89 110.76 176.57 109.7 176.14" fill="black"/>
<path fill-rule="evenodd" clip-rule="evenodd" d="M51.2732 81.0014C48.4024 85.5986 39.6002 93.4263 45.1757 95.8444C48.5626 96.9578 50.17 94.6784 50.8521 93.1706H50.9885L48.7405 100.778L53.9483 100.755C53.9483 100.755 51.7062 93.443 51.7003 93.1635H51.7536C52.3053 94.3964 54.399 96.9459 56.7004 95.9758C63.4266 93.2519 53.5212 85.5031 51.2732 81.0014V81.0014Z" fill="black"/>
<path fill-rule="evenodd" clip-rule="evenodd" d="M86.7268 100.775C89.5976 96.1774 98.3998 88.3497 92.8243 85.9316C89.4374 84.8182 87.83 87.0977 87.1479 88.6054H87.0115L89.2595 80.9975L84.0517 81.0214C84.0517 81.0214 86.2938 88.333 86.2997 88.6125H86.2464C85.6947 87.3796 83.601 84.8301 81.2996 85.8002C74.5734 88.5241 84.4788 96.2729 86.7268 100.775V100.775Z" fill="black"/>
</svg>
