<svg width="140" height="190" viewBox="0 0 140 190" fill="none" xmlns="http://www.w3.org/2000/svg">
<path d="M21 5H124C132.86 5 140 12.136 140 21V174C140 182.86 132.86 190 124 190H21C12.136 190 5 182.86 5 174V21C5 12.136 12.136 5 21 5Z" fill="black" fill-opacity="0.49804"/>
<path d="M17 1H120C128.86 1 136 8.136 136 17V170C136 178.86 128.86 186 120 186H17C8.136 186 1 178.86 1 170V17C1 8.136 8.136 1 17 1Z" fill="#E7E7E7"/>
<path d="M19 3H122C130.86 3 138 10.136 138 19V172C138 180.86 130.86 188 122 188H19C10.136 188 3 180.86 3 172V19C3 10.136 10.136 3 19 3Z" fill="#C7891F"/>
<path d="M18 2H121C129.86 2 137 9.136 137 18V171C137 179.86 129.86 187 121 187H18C9.136 187 2 179.86 2 171V18C2 9.136 9.136 2 18 2Z" fill="white"/>
<path d="M11.275 11.998H29.965V16.358L20.296 41.998H14.066L23.22 17.685H11.275V11.998" fill="black"/>
<path d="M127.5 177H108.81V172.64L118.47 147H124.7L115.55 171.31H127.5V177Z" fill="black"/>
<path fill-rule="evenodd" clip-rule="evenodd" d="M20.5269 48.665C17.8609 48.665 15.6969 51.929 15.6969 55.951C15.6969 59.377 20.0889 65.142 19.9189 67.88C18.5089 68.663 14.1519 61.443 11.8999 61.443C9.23345 61.443 7.06995 64.706 7.06995 68.728C7.06995 72.751 9.23345 76.014 11.8999 76.014C14.2119 76.014 18.1759 68.8 19.9189 69.451L16.9899 82.325L24.0139 82.283C24.0139 82.283 20.9369 69.802 20.9329 69.507H20.9879V69.521C22.6949 68.881 26.7939 76.153 29.0899 76.153C31.7569 76.153 33.9199 72.89 33.9199 68.867C33.9199 64.845 31.7569 61.582 29.0899 61.582C26.8479 61.582 22.7819 68.682 20.9969 67.95C21.0219 65.144 25.3569 59.373 25.3569 55.951C25.3569 51.929 23.1939 48.665 20.5269 48.665V48.665Z" fill="black"/>
<path fill-rule="evenodd" clip-rule="evenodd" d="M51.199 45C49.646 45 48.385 46.918 48.385 49.281C48.385 51.295 50.944 54.683 50.844 56.292C50.023 56.751 47.485 52.509 46.173 52.509C44.62 52.509 43.36 54.426 43.36 56.79C43.36 59.154 44.62 61.071 46.173 61.071C47.52 61.071 49.829 56.832 50.844 57.215L49.138 64.78L53.23 64.755C53.23 64.755 51.437 57.421 51.435 57.248H51.467V57.256C52.462 56.88 54.849 61.153 56.187 61.153C57.74 61.153 59 59.235 59 56.872C59 54.508 57.74 52.59 56.187 52.59C54.88 52.59 52.512 56.763 51.473 56.333C51.487 54.684 54.012 51.293 54.012 49.281C54.012 46.918 52.752 45 51.199 45V45Z" fill="black"/>
<path fill-rule="evenodd" clip-rule="evenodd" d="M69.839 60.22C68.286 60.22 67.025 62.138 67.025 64.501C67.025 66.515 69.584 69.903 69.484 71.512C68.663 71.971 66.125 67.729 64.813 67.729C63.26 67.729 62 69.646 62 72.01C62 74.374 63.26 76.291 64.813 76.291C66.16 76.291 68.469 72.052 69.484 72.435L67.778 80L71.87 79.975C71.87 79.975 70.077 72.641 70.075 72.468H70.107V72.476C71.102 72.1 73.489 76.373 74.827 76.373C76.38 76.373 77.64 74.455 77.64 72.092C77.64 69.728 76.38 67.81 74.827 67.81C73.52 67.81 71.152 71.983 70.113 71.553C70.127 69.904 72.652 66.513 72.652 64.501C72.652 62.138 71.392 60.22 69.839 60.22V60.22Z" fill="black"/>
<path fill-rule="evenodd" clip-rule="evenodd" d="M87.199 45C85.646 45 84.385 46.918 84.385 49.281C84.385 51.295 86.944 54.683 86.844 56.292C86.023 56.751 83.485 52.509 82.173 52.509C80.62 52.509 79.36 54.426 79.36 56.79C79.36 59.154 80.62 61.071 82.173 61.071C83.52 61.071 85.829 56.832 86.844 57.215L85.138 64.78L89.23 64.755C89.23 64.755 87.437 57.421 87.435 57.248H87.467V57.256C88.462 56.88 90.849 61.153 92.187 61.153C93.74 61.153 95 59.235 95 56.872C95 54.508 93.74 52.59 92.187 52.59C90.88 52.59 88.512 56.763 87.473 56.333C87.487 54.684 90.012 51.293 90.012 49.281C90.012 46.918 88.752 45 87.199 45V45Z" fill="black"/>
<path fill-rule="evenodd" clip-rule="evenodd" d="M70.199 83C68.646 83 67.385 84.918 67.385 87.281C67.385 89.295 69.944 92.683 69.844 94.292C69.023 94.751 66.485 90.509 65.173 90.509C63.62 90.509 62.36 92.426 62.36 94.79C62.36 97.154 63.62 99.071 65.173 99.071C66.52 99.071 68.829 94.832 69.844 95.215L68.138 102.78L72.23 102.76C72.23 102.76 70.437 95.421 70.435 95.248H70.467V95.256C71.462 94.88 73.849 99.153 75.187 99.153C76.74 99.153 78 97.235 78 94.872C78 92.508 76.74 90.59 75.187 90.59C73.88 90.59 71.512 94.763 70.473 94.333C70.487 92.684 73.012 89.293 73.012 87.281C73.012 84.918 71.752 83 70.199 83V83Z" fill="black"/>
<path fill-rule="evenodd" clip-rule="evenodd" d="M70.161 126.78C71.714 126.78 72.975 124.86 72.975 122.5C72.975 120.49 70.416 117.1 70.516 115.49C71.337 115.03 73.875 119.27 75.187 119.27C76.74 119.27 78 117.35 78 114.99C78 112.63 76.74 110.71 75.187 110.71C73.84 110.71 71.531 114.95 70.516 114.57L72.222 107L68.13 107.02C68.13 107.02 69.923 114.36 69.925 114.53H69.893V114.52C68.898 114.9 66.511 110.63 65.173 110.63C63.62 110.63 62.36 112.54 62.36 114.91C62.36 117.27 63.62 119.19 65.173 119.19C66.48 119.19 68.848 115.02 69.887 115.45C69.873 117.1 67.348 120.49 67.348 122.5C67.348 124.86 68.608 126.78 70.161 126.78Z" fill="black"/>
<path fill-rule="evenodd" clip-rule="evenodd" d="M88.161 141.78C89.714 141.78 90.975 139.86 90.975 137.5C90.975 135.49 88.416 132.1 88.516 130.49C89.337 130.03 91.875 134.27 93.187 134.27C94.74 134.27 96 132.35 96 129.99C96 127.63 94.74 125.71 93.187 125.71C91.84 125.71 89.531 129.95 88.516 129.57L90.222 122L86.13 122.02C86.13 122.02 87.923 129.36 87.925 129.53H87.893V129.52C86.898 129.9 84.511 125.63 83.173 125.63C81.62 125.63 80.36 127.54 80.36 129.91C80.36 132.27 81.62 134.19 83.173 134.19C84.48 134.19 86.848 130.02 87.887 130.45C87.873 132.1 85.348 135.49 85.348 137.5C85.348 139.86 86.608 141.78 88.161 141.78V141.78Z" fill="black"/>
<path fill-rule="evenodd" clip-rule="evenodd" d="M52.801 141.78C54.354 141.78 55.615 139.86 55.615 137.5C55.615 135.49 53.056 132.1 53.156 130.49C53.977 130.03 56.515 134.27 57.827 134.27C59.38 134.27 60.64 132.35 60.64 129.99C60.64 127.63 59.38 125.71 57.827 125.71C56.48 125.71 54.171 129.95 53.156 129.57L54.862 122L50.77 122.02C50.77 122.02 52.563 129.36 52.565 129.53H52.533V129.52C51.538 129.9 49.151 125.63 47.813 125.63C46.26 125.63 45 127.54 45 129.91C45 132.27 46.26 134.19 47.813 134.19C49.12 134.19 51.488 130.02 52.527 130.45C52.513 132.1 49.988 135.49 49.988 137.5C49.988 139.86 51.248 141.78 52.801 141.78V141.78Z" fill="black"/>
<path fill-rule="evenodd" clip-rule="evenodd" d="M117.54 139.96C120.21 139.96 122.37 136.7 122.37 132.68C122.37 129.25 117.98 123.49 118.15 120.75C119.56 119.96 123.92 127.18 126.17 127.18C128.84 127.18 131 123.92 131 119.9C131 115.88 128.84 112.61 126.17 112.61C123.86 112.61 119.89 119.83 118.15 119.18L121.08 106.3L114.06 106.34C114.06 106.34 117.13 118.83 117.14 119.12H117.08V119.11C115.37 119.75 111.28 112.47 108.98 112.47C106.31 112.47 104.15 115.74 104.15 119.76C104.15 123.78 106.31 127.05 108.98 127.05C111.22 127.05 115.29 119.95 117.07 120.68C117.05 123.48 112.71 129.25 112.71 132.68C112.71 136.7 114.88 139.96 117.54 139.96V139.96Z" fill="black"/>
</svg>
