<svg width="140" height="190" viewBox="0 0 140 190" fill="none" xmlns="http://www.w3.org/2000/svg">
<path d="M21 5H124C132.86 5 140 12.136 140 21V174C140 182.86 132.86 190 124 190H21C12.136 190 5 182.86 5 174V21C5 12.136 12.136 5 21 5Z" fill="black" fill-opacity="0.49804"/>
<path d="M17 1H120C128.86 1 136 8.136 136 17V170C136 178.86 128.86 186 120 186H17C8.136 186 1 178.86 1 170V17C1 8.136 8.136 1 17 1Z" fill="#E7E7E7"/>
<path d="M19 3H122C130.86 3 138 10.136 138 19V172C138 180.86 130.86 188 122 188H19C10.136 188 3 180.86 3 172V19C3 10.136 10.136 3 19 3Z" fill="#C7891F"/>
<path d="M18 2H121C129.86 2 137 9.136 137 18V171C137 179.86 129.86 187 121 187H18C9.136 187 2 179.86 2 171V18C2 9.136 9.136 2 18 2Z" fill="white"/>
<path d="M11.275 11.998H29.965V16.358L20.296 41.998H14.066L23.22 17.685H11.275V11.998" fill="#FF0000"/>
<path d="M127.5 177H108.81V172.64L118.47 147H124.7L115.55 171.31H127.5V177Z" fill="#FF0000"/>
<path fill-rule="evenodd" clip-rule="evenodd" d="M20.41 48.665C16.284 56.91 13.275 61.163 7.07001 65.705C12.942 70.192 17.083 74.829 20.53 82.325C23.609 75.204 27.377 69.895 33.92 65.482C27.338 62.133 23.527 56.828 20.41 48.665V48.665Z" fill="#FF0000"/>
<path fill-rule="evenodd" clip-rule="evenodd" d="M51.13 45C48.727 49.845 46.975 52.344 43.36 55.013C46.781 57.65 49.192 60.375 51.2 64.78C52.994 60.595 55.188 57.476 59 54.882C55.166 52.914 52.946 49.797 51.13 45V45Z" fill="#FF0000"/>
<path fill-rule="evenodd" clip-rule="evenodd" d="M87.77 45.22C85.367 50.065 83.615 52.564 80 55.233C83.421 57.87 85.832 60.595 87.84 65C89.634 60.815 91.828 57.696 95.64 55.102C91.806 53.134 89.586 50.017 87.77 45.22V45.22Z" fill="#FF0000"/>
<path fill-rule="evenodd" clip-rule="evenodd" d="M70.13 60.22C67.727 65.065 65.975 67.564 62.36 70.233C65.781 72.87 68.192 75.595 70.2 80C71.994 75.815 74.188 72.696 78 70.102C74.166 68.134 71.946 65.017 70.13 60.22V60.22Z" fill="#FF0000"/>
<path fill-rule="evenodd" clip-rule="evenodd" d="M70.13 83.22C67.727 88.065 65.975 90.564 62.36 93.233C65.781 95.87 68.192 98.595 70.2 103C71.994 98.815 74.188 95.696 78 93.102C74.166 91.134 71.946 88.017 70.13 83.22Z" fill="#FF0000"/>
<path fill-rule="evenodd" clip-rule="evenodd" d="M52.77 122.22C50.367 127.07 48.615 129.56 45 132.23C48.421 134.87 50.832 137.6 52.84 142C54.634 137.82 56.828 134.7 60.64 132.1C56.806 130.13 54.586 127.02 52.77 122.22Z" fill="#FF0000"/>
<path fill-rule="evenodd" clip-rule="evenodd" d="M70.13 107.22C67.727 112.07 65.975 114.56 62.36 117.23C65.781 119.87 68.192 122.6 70.2 127C71.994 122.82 74.188 119.7 78 117.1C74.166 115.13 71.946 112.02 70.13 107.22Z" fill="#FF0000"/>
<path fill-rule="evenodd" clip-rule="evenodd" d="M88.13 122.22C85.727 127.07 83.975 129.56 80.36 132.23C83.781 134.87 86.192 137.6 88.2 142C89.994 137.82 92.188 134.7 96 132.1C92.166 130.13 89.946 127.02 88.13 122.22Z" fill="#FF0000"/>
<path fill-rule="evenodd" clip-rule="evenodd" d="M118.34 106.34C114.21 114.59 111.21 118.84 105 123.38C110.87 127.87 115.01 132.5 118.46 140C121.54 132.88 125.31 127.57 131.85 123.16C125.27 119.81 121.46 114.5 118.34 106.34V106.34Z" fill="#FF0000"/>
</svg>
