<svg width="140" height="190" viewBox="0 0 140 190" fill="none" xmlns="http://www.w3.org/2000/svg">
<path d="M21 5H124C132.86 5 140 12.136 140 21V174C140 182.86 132.86 190 124 190H21C12.136 190 5 182.86 5 174V21C5 12.136 12.136 5 21 5Z" fill="black" fill-opacity="0.49804"/>
<path d="M17 1H120C128.86 1 136 8.136 136 17V170C136 178.86 128.86 186 120 186H17C8.136 186 1 178.86 1 170V17C1 8.136 8.136 1 17 1Z" fill="#E7E7E7"/>
<path d="M19 3H122C130.86 3 138 10.136 138 19V172C138 180.86 130.86 188 122 188H19C10.136 188 3 180.86 3 172V19C3 10.136 10.136 3 19 3Z" fill="#C7891F"/>
<path d="M18 2H121C129.86 2 137 9.136 137 18V171C137 179.86 129.86 187 121 187H18C9.136 187 2 179.86 2 171V18C2 9.136 9.136 2 18 2Z" fill="white"/>
<path d="M11.275 11.998H29.964V16.358L20.296 41.998H14.066L23.219 17.685H11.275V11.998" fill="#FF0000"/>
<path fill-rule="evenodd" clip-rule="evenodd" d="M13.5543 48.8447C12.7502 48.8489 11.867 49.0461 10.8919 49.4868C0.248669 57.6839 14.5959 70.9091 20.6551 82.2625L20.8324 82.3212C27.49 69.9102 40.1657 56.2527 30.4785 49.4868C22.8078 46.0242 20.7564 57.5454 20.6868 57.9609C20.6235 57.5958 19.0564 48.8069 13.5543 48.8447Z" fill="#FF0000"/>
<path d="M127.59 177H108.9V172.64L118.57 147H124.8L115.65 171.32H127.59V177Z" fill="#FF0000"/>
<path fill-rule="evenodd" clip-rule="evenodd" d="M125.312 139.993C126.116 139.989 126.999 139.791 127.974 139.351C138.619 131.154 124.27 117.928 118.21 106.575L118.032 106.516C111.374 118.927 98.6965 132.585 108.385 139.351C116.057 142.813 118.108 131.292 118.178 130.877C118.241 131.242 119.809 140.031 125.312 139.993Z" fill="#FF0000"/>
<path fill-rule="evenodd" clip-rule="evenodd" d="M47.1264 45.2219C46.6594 45.2244 46.1463 45.3409 45.5799 45.6013C39.3974 50.4436 47.7315 58.2562 51.2512 64.963L51.3542 64.9977C55.2215 57.6661 62.5846 49.5981 56.9574 45.6013C52.5017 43.5558 51.31 50.3617 51.2696 50.6072C51.2328 50.3915 50.3225 45.1996 47.1264 45.2219Z" fill="#FF0000"/>
<path fill-rule="evenodd" clip-rule="evenodd" d="M83.1264 45.2219C82.6594 45.2244 82.1463 45.3409 81.5799 45.6013C75.3974 50.4436 83.7315 58.2562 87.2512 64.963L87.3542 64.9977C91.2215 57.6661 98.5846 49.5981 92.9574 45.6013C88.5017 43.5558 87.31 50.3617 87.2696 50.6072C87.2328 50.3915 86.3225 45.1996 83.1264 45.2219Z" fill="#FF0000"/>
<path fill-rule="evenodd" clip-rule="evenodd" d="M65.7665 60.0019C65.2994 60.0044 64.7863 60.1209 64.2199 60.3813C58.0374 65.2236 66.3715 73.0362 69.8912 79.743L69.9942 79.7777C73.8615 72.4461 81.2246 64.3781 75.5974 60.3813C71.1417 58.3358 69.9501 65.1418 69.9096 65.3872C69.8728 65.1715 68.9625 59.9796 65.7665 60.0019Z" fill="#FF0000"/>
<path fill-rule="evenodd" clip-rule="evenodd" d="M65.7665 83.2219C65.2994 83.2244 64.7863 83.3409 64.2199 83.6013C58.0374 88.4436 66.3715 96.2562 69.8912 102.963L69.9942 102.998C73.8615 95.6661 81.2246 87.5981 75.5974 83.6013C71.1417 81.5558 69.9501 88.3617 69.9096 88.6072C69.8728 88.3915 68.9625 83.1996 65.7665 83.2219Z" fill="#FF0000"/>
<path fill-rule="evenodd" clip-rule="evenodd" d="M92.2376 141.78C92.7047 141.778 93.2177 141.661 93.7841 141.401C99.9667 136.558 91.6326 128.746 88.1128 122.039L88.0098 122.004C84.1425 129.336 76.7794 137.404 82.4066 141.401C86.8623 143.446 88.054 136.64 88.0944 136.395C88.1312 136.611 89.0415 141.802 92.2376 141.78Z" fill="#FF0000"/>
<path fill-rule="evenodd" clip-rule="evenodd" d="M74.2335 127C74.7006 126.998 75.2137 126.881 75.7801 126.621C81.9626 121.778 73.6285 113.966 70.1088 107.259L70.0058 107.224C66.1385 114.556 58.7754 122.624 64.4026 126.621C68.8583 128.666 70.0499 121.86 70.0904 121.615C70.1272 121.831 71.0375 127.022 74.2335 127Z" fill="#FF0000"/>
<path fill-rule="evenodd" clip-rule="evenodd" d="M57.2335 141.78C57.7006 141.778 58.2137 141.661 58.7801 141.401C64.9626 136.558 56.6285 128.746 53.1088 122.039L53.0058 122.004C49.1385 129.336 41.7754 137.404 47.4026 141.401C51.8583 143.446 53.0499 136.64 53.0904 136.395C53.1272 136.611 54.0375 141.802 57.2335 141.78Z" fill="#FF0000"/>
</svg>
