<svg width="140" height="190" viewBox="0 0 140 190" fill="none" xmlns="http://www.w3.org/2000/svg">
<path d="M21 5H124C132.86 5 140 12.136 140 21V174C140 182.86 132.86 190 124 190H21C12.136 190 5 182.86 5 174V21C5 12.136 12.136 5 21 5Z" fill="black" fill-opacity="0.49804"/>
<path d="M17 1H120C128.86 1 136 8.136 136 17V170C136 178.86 128.86 186 120 186H17C8.136 186 1 178.86 1 170V17C1 8.136 8.136 1 17 1Z" fill="#E7E7E7"/>
<path d="M19 3H122C130.86 3 138 10.136 138 19V172C138 180.86 130.86 188 122 188H19C10.136 188 3 180.86 3 172V19C3 10.136 10.136 3 19 3Z" fill="#C7891F"/>
<path d="M18 2H121C129.86 2 137 9.136 137 18V171C137 179.86 129.86 187 121 187H18C9.136 187 2 179.86 2 171V18C2 9.136 9.136 2 18 2Z" fill="white"/>
<path fill-rule="evenodd" clip-rule="evenodd" d="M51.2732 45.0014C48.4024 49.5986 39.6002 57.4263 45.1757 59.8444C48.5626 60.9578 50.17 58.6784 50.8521 57.1706H50.9885L48.7405 64.7785L53.9483 64.7546C53.9483 64.7546 51.7062 57.443 51.7003 57.1635H51.7536C52.3053 58.3964 54.399 60.9459 56.7004 59.9758C63.4266 57.2519 53.5212 49.5031 51.2732 45.0014V45.0014Z" fill="black"/>
<path fill-rule="evenodd" clip-rule="evenodd" d="M53.0868 141.775C55.9576 137.177 64.7598 129.35 59.1843 126.932C55.7974 125.818 54.19 128.098 53.5079 129.605H53.3715L55.6195 121.998L50.4117 122.021C50.4117 122.021 52.6538 129.333 52.6597 129.613H52.6063C52.0547 128.38 49.9609 125.83 47.6596 126.8C40.9333 129.524 50.8388 137.273 53.0868 141.775V141.775Z" fill="black"/>
<path fill-rule="evenodd" clip-rule="evenodd" d="M87.2702 45.0014C84.3994 49.5986 75.5972 57.4263 81.1727 59.8444C84.5595 60.9578 86.1669 58.6784 86.849 57.1706H86.9855L84.7374 64.7785L89.9452 64.7546C89.9452 64.7546 87.7031 57.443 87.6972 57.1635H87.7506C88.3022 58.3964 90.396 60.9459 92.6974 59.9758C99.4236 57.2519 89.5182 49.5031 87.2702 45.0014V45.0014Z" fill="black"/>
<path fill-rule="evenodd" clip-rule="evenodd" d="M88.0868 141.775C90.9576 137.177 99.7598 129.35 94.1843 126.932C90.7974 125.818 89.19 128.098 88.5079 129.605H88.3715L90.6195 121.998L85.4117 122.021C85.4117 122.021 87.6538 129.333 87.6597 129.613H87.6063C87.0547 128.38 84.9609 125.83 82.6596 126.8C75.9333 129.524 85.8388 137.273 88.0868 141.775V141.775Z" fill="black"/>
<path fill-rule="evenodd" clip-rule="evenodd" d="M20.645 48.665C15.72 56.49 0.609997 69.814 10.182 73.928C15.993 75.822 18.758 71.945 19.929 69.379H20.164L16.305 82.325L25.242 82.287C25.242 82.287 21.392 69.842 21.383 69.366H21.477C22.423 71.463 26.013 75.805 29.961 74.151C41.507 69.516 24.506 56.327 20.645 48.665V48.665Z" fill="black"/>
<path d="M11.275 11.998H29.965V16.358L20.296 41.998H14.066L23.22 17.685H11.275V11.998" fill="black"/>
<path fill-rule="evenodd" clip-rule="evenodd" d="M118.13 140C123.05 132.18 138.16 118.85 128.59 114.74C122.78 112.84 120.01 116.72 118.84 119.29H118.61L122.47 106.34L113.53 106.38C113.53 106.38 117.38 118.82 117.39 119.3H117.29C116.35 117.2 112.76 112.86 108.81 114.51C97.2631 119.15 114.26 132.34 118.13 140Z" fill="black"/>
<path d="M127.5 177H108.81V172.64L118.47 147H124.7L115.55 171.31H127.5V177Z" fill="black"/>
<path fill-rule="evenodd" clip-rule="evenodd" d="M69.9111 60.0014C67.0403 64.5986 58.2381 72.4263 63.8137 74.8444C67.2005 75.9578 68.8079 73.6784 69.49 72.1706H69.6264L67.3784 79.7785L72.5862 79.7546C72.5862 79.7546 70.3441 72.443 70.3382 72.1635H70.3916C70.9432 73.3964 73.037 75.9459 75.3384 74.9758C82.0646 72.2519 72.1591 64.5031 69.9111 60.0014V60.0014Z" fill="black"/>
<path fill-rule="evenodd" clip-rule="evenodd" d="M70.0868 126.775C72.9576 122.177 81.7598 114.35 76.1843 111.932C72.7974 110.818 71.19 113.098 70.5079 114.605H70.3715L72.6195 106.998L67.4117 107.021C67.4117 107.021 69.6538 114.333 69.6597 114.613H69.6063C69.0547 113.38 66.9609 110.83 64.6596 111.8C57.9333 114.524 67.8388 122.273 70.0868 126.775V126.775Z" fill="black"/>
<path fill-rule="evenodd" clip-rule="evenodd" d="M70.2702 83.0014C67.3994 87.5986 58.5972 95.4263 64.1727 97.8444C67.5595 98.9578 69.1669 96.6784 69.849 95.1706H69.9855L67.7374 102.778L72.9452 102.755C72.9452 102.755 70.7031 95.443 70.6972 95.1635H70.7506C71.3022 96.3964 73.396 98.9459 75.6974 97.9758C82.4236 95.2519 72.5182 87.5031 70.2702 83.0014V83.0014Z" fill="black"/>
</svg>
