<svg width="140" height="190" viewBox="0 0 140 190" fill="none" xmlns="http://www.w3.org/2000/svg">
<path d="M21 5H124C132.86 5 140 12.136 140 21V174C140 182.86 132.86 190 124 190H21C12.136 190 5 182.86 5 174V21C5 12.136 12.136 5 21 5Z" fill="black" fill-opacity="0.49804"/>
<path d="M17 1H120C128.86 1 136 8.136 136 17V170C136 178.86 128.86 186 120 186H17C8.136 186 1 178.86 1 170V17C1 8.136 8.136 1 17 1Z" fill="#E7E7E7"/>
<path d="M19 3H122C130.86 3 138 10.136 138 19V172C138 180.86 130.86 188 122 188H19C10.136 188 3 180.86 3 172V19C3 10.136 10.136 3 19 3Z" fill="#C7891F"/>
<path d="M18 2H121C129.86 2 137 9.136 137 18V171C137 179.86 129.86 187 121 187H18C9.136 187 2 179.86 2 171V18C2 9.136 9.136 2 18 2Z" fill="white"/>
<path d="M20.6039 28.8123C19.4128 28.8123 18.4853 29.2082 17.8488 30.0001C17.2032 30.792 16.885 31.9137 16.885 33.3875C16.885 34.8612 17.2032 35.994 17.8488 36.7859C18.4853 37.5667 19.4128 37.9516 20.6039 37.9516C21.786 37.9516 22.6953 37.5667 23.3318 36.7859C23.9592 35.994 24.2774 34.8612 24.2774 33.3875C24.2774 31.9028 23.9592 30.77 23.3318 30.0001C22.6953 29.2082 21.786 28.8123 20.6039 28.8123ZM15.9393 26.2608C14.4299 25.7109 13.2933 24.864 12.5295 23.7312C11.7657 22.5874 11.3838 21.1687 11.3838 19.464C11.3838 16.9345 12.1658 15.0098 13.7298 13.6791C15.2846 12.3593 17.5851 11.6884 20.6039 11.6884C23.6045 11.6884 25.8868 12.3593 27.4508 13.6791C29.0148 14.9878 29.7876 16.9235 29.7876 19.464C29.7876 21.1687 29.4058 22.5874 28.6329 23.7312C27.86 24.864 26.7325 25.7109 25.2231 26.2608C26.9052 26.8217 28.1782 27.7345 29.0239 29.0103C29.8877 30.275 30.3241 31.8698 30.3241 33.7944C30.3241 36.7639 29.5058 39.0185 27.86 40.5472C26.2324 42.0649 23.8137 42.8128 20.6039 42.8128C17.3851 42.8128 14.9482 42.0649 13.2933 40.5472C11.6566 39.0185 10.8383 36.7639 10.8383 33.7944C10.8383 31.8698 11.2656 30.275 12.1112 29.0103C12.9751 27.7345 14.2571 26.8217 15.9393 26.2608V26.2608ZM17.4305 20.2559C17.4305 21.4437 17.7033 22.3565 18.2489 23.0054C18.8035 23.6433 19.5855 23.9732 20.6039 23.9732C21.6041 23.9732 22.3679 23.6433 22.9135 23.0054C23.4591 22.3565 23.7318 21.4437 23.7318 20.2559C23.7318 19.0571 23.4591 18.1442 22.9135 17.5174C22.3679 16.8795 21.6041 16.5495 20.6039 16.5495C19.5855 16.5495 18.8035 16.8795 18.2489 17.5174C17.7033 18.1662 17.4305 19.0681 17.4305 20.2559Z" fill="black"/>
<path d="M118.024 160.349C119.224 160.349 120.143 159.955 120.788 159.164C121.425 158.373 121.752 157.241 121.752 155.768C121.752 154.295 121.425 153.162 120.788 152.373C120.143 151.595 119.224 151.207 118.024 151.207C116.842 151.207 115.933 151.595 115.305 152.373C114.669 153.162 114.36 154.295 114.36 155.768C114.36 157.255 114.669 158.387 115.305 159.164C115.933 159.955 116.842 160.349 118.024 160.349ZM122.698 162.901C124.198 163.451 125.335 164.294 126.099 165.434C126.862 166.572 127.244 167.992 127.244 169.693C127.244 172.225 126.462 174.154 124.907 175.481C123.343 176.807 121.052 177.47 118.024 177.47C115.024 177.47 112.741 176.807 111.186 175.481C109.622 174.168 108.84 172.238 108.84 169.693C108.84 167.992 109.231 166.572 110.004 165.434C110.768 164.294 111.905 163.451 113.405 162.901C111.723 162.339 110.459 161.422 109.604 160.148C108.74 158.889 108.304 157.295 108.304 155.366C108.304 152.392 109.131 150.142 110.768 148.615C112.396 147.101 114.814 146.344 118.024 146.344C121.252 146.344 123.689 147.101 125.335 148.615C126.972 150.142 127.799 152.392 127.799 155.366C127.799 157.295 127.372 158.889 126.517 160.148C125.653 161.422 124.38 162.339 122.698 162.901V162.901ZM121.198 168.909C121.198 167.717 120.925 166.8 120.388 166.156C119.834 165.514 119.043 165.192 118.024 165.192C117.033 165.192 116.26 165.514 115.715 166.156C115.178 166.8 114.905 167.717 114.905 168.909C114.905 170.101 115.178 171.013 115.715 171.642C116.26 172.286 117.033 172.607 118.024 172.607C119.043 172.607 119.834 172.286 120.388 171.642C120.925 171 121.198 170.088 121.198 168.909" fill="black"/>
<path fill-rule="evenodd" clip-rule="evenodd" d="M20.5269 48.665C17.8609 48.665 15.6969 51.929 15.6969 55.951C15.6969 59.377 20.0889 65.142 19.9189 67.88C18.5089 68.663 14.1519 61.443 11.8999 61.443C9.23345 61.443 7.06995 64.706 7.06995 68.728C7.06995 72.751 9.23345 76.014 11.8999 76.014C14.2119 76.014 18.1759 68.8 19.9189 69.451L16.9899 82.325L24.0139 82.283C24.0139 82.283 20.9369 69.802 20.9329 69.507H20.9879V69.521C22.6949 68.881 26.7939 76.153 29.0899 76.153C31.7569 76.153 33.9199 72.89 33.9199 68.867C33.9199 64.845 31.7569 61.582 29.0899 61.582C26.8479 61.582 22.7819 68.682 20.9969 67.95C21.0219 65.144 25.3569 59.373 25.3569 55.951C25.3569 51.929 23.1939 48.665 20.5269 48.665V48.665Z" fill="black"/>
<path fill-rule="evenodd" clip-rule="evenodd" d="M117.42 139.96C120.08 139.96 122.25 136.7 122.25 132.68C122.25 129.25 117.86 123.49 118.03 120.75C119.44 119.96 123.79 127.18 126.05 127.18C128.71 127.18 130.88 123.92 130.88 119.9C130.88 115.88 128.71 112.61 126.05 112.61C123.73 112.61 119.77 119.83 118.03 119.18L120.96 106.3L113.93 106.34C113.93 106.34 117.01 118.83 117.01 119.12H116.96V119.11C115.25 119.75 111.15 112.47 108.86 112.47C106.19 112.47 104.03 115.74 104.03 119.76C104.03 123.78 106.19 127.05 108.86 127.05C111.1 127.05 115.16 119.95 116.95 120.68C116.92 123.48 112.59 129.25 112.59 132.68C112.59 136.7 114.75 139.96 117.42 139.96V139.96Z" fill="black"/>
<path fill-rule="evenodd" clip-rule="evenodd" d="M49.199 36C47.646 36 46.385 37.918 46.385 40.281C46.385 42.295 48.944 45.683 48.844 47.292C48.023 47.751 45.485 43.509 44.173 43.509C42.62 43.509 41.36 45.426 41.36 47.79C41.36 50.154 42.62 52.071 44.173 52.071C45.52 52.071 47.829 47.832 48.844 48.215L47.138 55.78L51.23 55.755C51.23 55.755 49.437 48.421 49.435 48.248H49.467V48.256C50.462 47.88 52.849 52.153 54.187 52.153C55.74 52.153 57 50.235 57 47.872C57 45.508 55.74 43.59 54.187 43.59C52.88 43.59 50.512 47.763 49.473 47.333C49.487 45.684 52.012 42.293 52.012 40.281C52.012 37.918 50.752 36 49.199 36V36Z" fill="black"/>
<path fill-rule="evenodd" clip-rule="evenodd" d="M90.199 36.22C88.646 36.22 87.385 38.138 87.385 40.501C87.385 42.515 89.944 45.903 89.844 47.512C89.023 47.971 86.485 43.729 85.173 43.729C83.62 43.729 82.36 45.646 82.36 48.01C82.36 50.374 83.62 52.291 85.173 52.291C86.52 52.291 88.829 48.052 89.844 48.435L88.138 56L92.23 55.975C92.23 55.975 90.437 48.641 90.435 48.468H90.467V48.476C91.462 48.1 93.849 52.373 95.187 52.373C96.74 52.373 98 50.455 98 48.092C98 45.728 96.74 43.81 95.187 43.81C93.88 43.81 91.512 47.983 90.473 47.553C90.487 45.904 93.012 42.513 93.012 40.501C93.012 38.138 91.752 36.22 90.199 36.22V36.22Z" fill="black"/>
<path fill-rule="evenodd" clip-rule="evenodd" d="M48.839 71.22C47.286 71.22 46.025 73.138 46.025 75.501C46.025 77.515 48.584 80.903 48.484 82.512C47.663 82.971 45.125 78.729 43.813 78.729C42.26 78.729 41 80.646 41 83.01C41 85.374 42.26 87.291 43.813 87.291C45.16 87.291 47.469 83.052 48.484 83.435L46.778 91L50.87 90.975C50.87 90.975 49.077 83.641 49.075 83.468H49.107V83.476C50.102 83.1 52.489 87.373 53.827 87.373C55.38 87.373 56.64 85.455 56.64 83.092C56.64 80.728 55.38 78.81 53.827 78.81C52.52 78.81 50.152 82.983 49.113 82.553C49.127 80.904 51.652 77.513 51.652 75.501C51.652 73.138 50.392 71.22 48.839 71.22V71.22Z" fill="black"/>
<path fill-rule="evenodd" clip-rule="evenodd" d="M88.199 70C86.646 70 85.385 71.918 85.385 74.281C85.385 76.295 87.944 79.683 87.844 81.292C87.023 81.751 84.485 77.509 83.173 77.509C81.62 77.509 80.36 79.426 80.36 81.79C80.36 84.154 81.62 86.071 83.173 86.071C84.52 86.071 86.829 81.832 87.844 82.215L86.138 89.78L90.23 89.755C90.23 89.755 88.437 82.421 88.435 82.248H88.467V82.256C89.462 81.88 91.849 86.153 93.187 86.153C94.74 86.153 96 84.235 96 81.872C96 79.508 94.74 77.59 93.187 77.59C91.88 77.59 89.512 81.763 88.473 81.333C88.487 79.684 91.012 76.293 91.012 74.281C91.012 71.918 89.752 70 88.199 70V70Z" fill="black"/>
<path fill-rule="evenodd" clip-rule="evenodd" d="M48.161 119C49.714 119 50.975 117.08 50.975 114.72C50.975 112.71 48.416 109.32 48.516 107.71C49.337 107.25 51.875 111.49 53.187 111.49C54.74 111.49 56 109.57 56 107.21C56 104.85 54.74 102.93 53.187 102.93C51.84 102.93 49.531 107.17 48.516 106.79L50.222 99.22L46.13 99.245C46.13 99.245 47.923 106.58 47.925 106.75H47.893V106.74C46.898 107.12 44.511 102.85 43.173 102.85C41.62 102.85 40.36 104.76 40.36 107.13C40.36 109.49 41.62 111.41 43.173 111.41C44.48 111.41 46.848 107.24 47.887 107.67C47.873 109.32 45.348 112.71 45.348 114.72C45.348 117.08 46.608 119 48.161 119V119Z" fill="black"/>
<path fill-rule="evenodd" clip-rule="evenodd" d="M89.801 119.78C91.354 119.78 92.615 117.86 92.615 115.5C92.615 113.49 90.056 110.1 90.156 108.49C90.977 108.03 93.515 112.27 94.827 112.27C96.38 112.27 97.64 110.35 97.64 107.99C97.64 105.63 96.38 103.71 94.827 103.71C93.48 103.71 91.171 107.95 90.156 107.57L91.862 100L87.77 100.02C87.77 100.02 89.563 107.36 89.565 107.53H89.533V107.52C88.538 107.9 86.151 103.63 84.813 103.63C83.26 103.63 82 105.54 82 107.91C82 110.27 83.26 112.19 84.813 112.19C86.12 112.19 88.488 108.02 89.527 108.45C89.513 110.1 86.988 113.49 86.988 115.5C86.988 117.86 88.248 119.78 89.801 119.78V119.78Z" fill="black"/>
<path fill-rule="evenodd" clip-rule="evenodd" d="M90.161 149.78C91.714 149.78 92.975 147.86 92.975 145.5C92.975 143.49 90.416 140.1 90.516 138.49C91.337 138.03 93.875 142.27 95.187 142.27C96.74 142.27 98 140.35 98 137.99C98 135.63 96.74 133.71 95.187 133.71C93.84 133.71 91.531 137.95 90.516 137.57L92.222 130L88.13 130.02C88.13 130.02 89.923 137.36 89.925 137.53H89.893V137.52C88.898 137.9 86.511 133.63 85.173 133.63C83.62 133.63 82.36 135.54 82.36 137.91C82.36 140.27 83.62 142.19 85.173 142.19C86.48 142.19 88.848 138.02 89.887 138.45C89.873 140.1 87.348 143.49 87.348 145.5C87.348 147.86 88.608 149.78 90.161 149.78V149.78Z" fill="black"/>
<path fill-rule="evenodd" clip-rule="evenodd" d="M49.161 149.78C50.714 149.78 51.975 147.86 51.975 145.5C51.975 143.49 49.416 140.1 49.516 138.49C50.337 138.03 52.875 142.27 54.187 142.27C55.74 142.27 57 140.35 57 137.99C57 135.63 55.74 133.71 54.187 133.71C52.84 133.71 50.531 137.95 49.516 137.57L51.222 130L47.13 130.02C47.13 130.02 48.923 137.36 48.925 137.53H48.893V137.52C47.898 137.9 45.511 133.63 44.173 133.63C42.62 133.63 41.36 135.54 41.36 137.91C41.36 140.27 42.62 142.19 44.173 142.19C45.48 142.19 47.848 138.02 48.887 138.45C48.873 140.1 46.348 143.49 46.348 145.5C46.348 147.86 47.608 149.78 49.161 149.78V149.78Z" fill="black"/>
</svg>
