<svg width="140" height="190" viewBox="0 0 140 190" fill="none" xmlns="http://www.w3.org/2000/svg">
<path d="M21 5H124C132.86 5 140 12.136 140 21V174C140 182.86 132.86 190 124 190H21C12.136 190 5 182.86 5 174V21C5 12.136 12.136 5 21 5Z" fill="black" fill-opacity="0.49804"/>
<path d="M17 1H120C128.86 1 136 8.136 136 17V170C136 178.86 128.86 186 120 186H17C8.136 186 1 178.86 1 170V17C1 8.136 8.136 1 17 1Z" fill="#E7E7E7"/>
<path d="M19 3H122C130.86 3 138 10.136 138 19V172C138 180.86 130.86 188 122 188H19C10.136 188 3 180.86 3 172V19C3 10.136 10.136 3 19 3Z" fill="#C7891F"/>
<path d="M18 2H121C129.86 2 137 9.136 137 18V171C137 179.86 129.86 187 121 187H18C9.136 187 2 179.86 2 171V18C2 9.136 9.136 2 18 2Z" fill="white"/>
<path d="M20.6039 28.8123C19.4128 28.8123 18.4853 29.2082 17.8488 30.0001C17.2032 30.792 16.885 31.9137 16.885 33.3875C16.885 34.8612 17.2032 35.994 17.8488 36.7859C18.4853 37.5667 19.4128 37.9516 20.6039 37.9516C21.786 37.9516 22.6953 37.5667 23.3318 36.7859C23.9592 35.994 24.2774 34.8612 24.2774 33.3875C24.2774 31.9028 23.9592 30.77 23.3318 30.0001C22.6953 29.2082 21.786 28.8123 20.6039 28.8123ZM15.9393 26.2608C14.4299 25.7109 13.2933 24.864 12.5295 23.7312C11.7657 22.5874 11.3838 21.1687 11.3838 19.464C11.3838 16.9345 12.1658 15.0098 13.7298 13.6791C15.2846 12.3593 17.5851 11.6884 20.6039 11.6884C23.6045 11.6884 25.8868 12.3593 27.4508 13.6791C29.0148 14.9878 29.7876 16.9235 29.7876 19.464C29.7876 21.1687 29.4058 22.5874 28.6329 23.7312C27.86 24.864 26.7325 25.7109 25.2231 26.2608C26.9052 26.8217 28.1782 27.7345 29.0239 29.0103C29.8877 30.275 30.3241 31.8698 30.3241 33.7944C30.3241 36.7639 29.5058 39.0185 27.86 40.5472C26.2324 42.0649 23.8137 42.8128 20.6039 42.8128C17.3851 42.8128 14.9482 42.0649 13.2933 40.5472C11.6566 39.0185 10.8383 36.7639 10.8383 33.7944C10.8383 31.8698 11.2656 30.275 12.1112 29.0103C12.9751 27.7345 14.2571 26.8217 15.9393 26.2608V26.2608ZM17.4305 20.2559C17.4305 21.4437 17.7033 22.3565 18.2489 23.0054C18.8035 23.6433 19.5855 23.9732 20.6039 23.9732C21.6041 23.9732 22.3679 23.6433 22.9135 23.0054C23.4591 22.3565 23.7318 21.4437 23.7318 20.2559C23.7318 19.0571 23.4591 18.1442 22.9135 17.5174C22.3679 16.8795 21.6041 16.5495 20.6039 16.5495C19.5855 16.5495 18.8035 16.8795 18.2489 17.5174C17.7033 18.1662 17.4305 19.0681 17.4305 20.2559Z" fill="#FF0000"/>
<path d="M118.024 160.349C119.224 160.349 120.143 159.955 120.788 159.164C121.425 158.373 121.752 157.241 121.752 155.768C121.752 154.295 121.425 153.162 120.788 152.373C120.143 151.595 119.224 151.207 118.024 151.207C116.842 151.207 115.933 151.595 115.305 152.373C114.669 153.162 114.36 154.295 114.36 155.768C114.36 157.255 114.669 158.387 115.305 159.164C115.933 159.955 116.842 160.349 118.024 160.349ZM122.698 162.901C124.198 163.451 125.335 164.294 126.099 165.434C126.862 166.572 127.244 167.992 127.244 169.693C127.244 172.225 126.462 174.154 124.907 175.481C123.343 176.807 121.052 177.47 118.024 177.47C115.024 177.47 112.741 176.807 111.186 175.481C109.622 174.168 108.84 172.238 108.84 169.693C108.84 167.992 109.231 166.572 110.004 165.434C110.768 164.294 111.905 163.451 113.405 162.901C111.723 162.339 110.459 161.422 109.604 160.148C108.74 158.889 108.304 157.295 108.304 155.366C108.304 152.392 109.131 150.142 110.768 148.615C112.396 147.101 114.814 146.344 118.024 146.344C121.252 146.344 123.689 147.101 125.335 148.615C126.972 150.142 127.799 152.392 127.799 155.366C127.799 157.295 127.372 158.889 126.517 160.148C125.653 161.422 124.38 162.339 122.698 162.901V162.901ZM121.198 168.909C121.198 167.717 120.925 166.8 120.388 166.156C119.834 165.514 119.043 165.192 118.024 165.192C117.033 165.192 116.26 165.514 115.715 166.156C115.178 166.8 114.905 167.717 114.905 168.909C114.905 170.101 115.178 171.013 115.715 171.642C116.26 172.286 117.033 172.607 118.024 172.607C119.043 172.607 119.834 172.286 120.388 171.642C120.925 171 121.198 170.088 121.198 168.909" fill="#FF0000"/>
<path fill-rule="evenodd" clip-rule="evenodd" d="M20.4099 48.665C16.2839 56.91 13.2749 61.163 7.06995 65.705C12.9419 70.192 17.0829 74.829 20.5299 82.325C23.6089 75.204 27.3769 69.895 33.9199 65.482C27.3379 62.133 23.5269 56.828 20.4099 48.665V48.665Z" fill="#FF0000"/>
<path fill-rule="evenodd" clip-rule="evenodd" d="M49.13 36.22C46.727 41.065 44.975 43.564 41.36 46.233C44.781 48.87 47.192 51.595 49.2 56C50.994 51.815 53.188 48.696 57 46.102C53.166 44.134 50.946 41.017 49.13 36.22V36.22Z" fill="#FF0000"/>
<path fill-rule="evenodd" clip-rule="evenodd" d="M90.13 36.22C87.727 41.065 85.975 43.564 82.36 46.233C85.781 48.87 88.192 51.595 90.2 56C91.994 51.815 94.188 48.696 98 46.102C94.166 44.134 91.946 41.017 90.13 36.22V36.22Z" fill="#FF0000"/>
<path fill-rule="evenodd" clip-rule="evenodd" d="M48.77 71.22C46.367 76.065 44.615 78.564 41 81.233C44.421 83.87 46.832 86.595 48.84 91C50.634 86.815 52.828 83.696 56.64 81.102C52.806 79.134 50.586 76.017 48.77 71.22Z" fill="#FF0000"/>
<path fill-rule="evenodd" clip-rule="evenodd" d="M88.13 70.22C85.727 75.065 83.975 77.564 80.36 80.233C83.781 82.87 86.192 85.595 88.2 90C89.994 85.815 92.188 82.696 96 80.102C92.166 78.134 89.946 75.017 88.13 70.22Z" fill="#FF0000"/>
<path fill-rule="evenodd" clip-rule="evenodd" d="M89.77 100C87.367 104.85 85.615 107.34 82 110.01C85.421 112.65 87.832 115.38 89.84 119.78C91.634 115.6 93.828 112.48 97.64 109.88C93.806 107.91 91.586 104.8 89.77 100Z" fill="#FF0000"/>
<path fill-rule="evenodd" clip-rule="evenodd" d="M48.13 100C45.727 104.85 43.975 107.34 40.36 110.01C43.781 112.65 46.192 115.38 48.2 119.78C49.994 115.6 52.188 112.48 56 109.88C52.166 107.91 49.946 104.8 48.13 100Z" fill="#FF0000"/>
<path fill-rule="evenodd" clip-rule="evenodd" d="M49.13 130C46.727 134.85 44.975 137.34 41.36 140.01C44.781 142.65 47.192 145.38 49.2 149.78C50.994 145.6 53.188 142.48 57 139.88C53.166 137.91 50.946 134.8 49.13 130Z" fill="#FF0000"/>
<path fill-rule="evenodd" clip-rule="evenodd" d="M90.13 130.22C87.727 135.07 85.975 137.56 82.36 140.23C85.781 142.87 88.192 145.6 90.2 150C91.994 145.82 94.188 142.7 98 140.1C94.166 138.13 91.946 135.02 90.13 130.22Z" fill="#FF0000"/>
<path fill-rule="evenodd" clip-rule="evenodd" d="M118.34 106.34C114.21 114.59 111.21 118.84 105 123.38C110.87 127.87 115.01 132.5 118.46 140C121.54 132.88 125.31 127.57 131.85 123.16C125.27 119.81 121.46 114.5 118.34 106.34V106.34Z" fill="#FF0000"/>
</svg>
