<svg width="140" height="190" viewBox="0 0 140 190" fill="none" xmlns="http://www.w3.org/2000/svg">
<path d="M21 5H124C132.86 5 140 12.136 140 21V174C140 182.86 132.86 190 124 190H21C12.136 190 5 182.86 5 174V21C5 12.136 12.136 5 21 5Z" fill="black" fill-opacity="0.49804"/>
<path d="M17 1H120C128.86 1 136 8.136 136 17V170C136 178.86 128.86 186 120 186H17C8.136 186 1 178.86 1 170V17C1 8.136 8.136 1 17 1Z" fill="#E7E7E7"/>
<path d="M19 3H122C130.86 3 138 10.136 138 19V172C138 180.86 130.86 188 122 188H19C10.136 188 3 180.86 3 172V19C3 10.136 10.136 3 19 3Z" fill="#C7891F"/>
<path d="M18 2H121C129.86 2 137 9.136 137 18V171C137 179.86 129.86 187 121 187H18C9.136 187 2 179.86 2 171V18C2 9.136 9.136 2 18 2Z" fill="white"/>
<path d="M20.844 28.575C19.648 28.575 18.728 28.97 18.086 29.761C17.444 30.551 17.122 31.683 17.122 33.157C17.122 34.63 17.444 35.762 18.086 36.552C18.728 37.329 19.648 37.718 20.844 37.718C22.029 37.718 22.937 37.329 23.568 36.552C24.2 35.762 24.515 34.63 24.515 33.157C24.515 31.67 24.2 30.538 23.568 29.761C22.937 28.97 22.029 28.575 20.844 28.575V28.575ZM16.175 26.023C14.669 25.474 13.534 24.63 12.77 23.492C12.006 22.353 11.623 20.933 11.623 19.232C11.623 16.7 12.404 14.771 13.966 13.445C15.528 12.119 17.82 11.456 20.844 11.456C23.845 11.456 26.127 12.119 27.688 13.445C29.25 14.758 30.031 16.687 30.031 19.232C30.031 20.933 29.643 22.353 28.868 23.492C28.104 24.63 26.969 25.474 25.462 26.023C27.146 26.586 28.414 27.504 29.267 28.776C30.131 30.035 30.563 31.63 30.563 33.559C30.563 36.532 29.743 38.783 28.104 40.31C26.476 41.824 24.056 42.581 20.844 42.581C17.621 42.581 15.184 41.824 13.534 40.31C11.895 38.783 11.075 36.532 11.075 33.559C11.075 31.63 11.502 30.035 12.354 28.776C13.218 27.504 14.492 26.586 16.175 26.023V26.023ZM17.671 20.015C17.671 21.208 17.942 22.125 18.485 22.768C19.038 23.411 19.825 23.733 20.844 23.733C21.841 23.733 22.61 23.411 23.153 22.768C23.696 22.125 23.967 21.208 23.967 20.015C23.967 18.823 23.696 17.912 23.153 17.283C22.61 16.64 21.841 16.318 20.844 16.318C19.825 16.318 19.038 16.64 18.485 17.283C17.942 17.926 17.671 18.837 17.671 20.015" fill="#FF0000"/>
<path fill-rule="evenodd" clip-rule="evenodd" d="M13.5543 48.8447C12.7502 48.8489 11.867 49.0461 10.8919 49.4868C0.248669 57.6839 14.5959 70.9091 20.6551 82.2625L20.8324 82.3212C27.49 69.9102 40.1657 56.2527 30.4785 49.4868C22.8078 46.0242 20.7564 57.5454 20.6868 57.9609C20.6235 57.5958 19.0564 48.8069 13.5543 48.8447Z" fill="#FF0000"/>
<path d="M118.02 160.42C119.22 160.42 120.14 160.03 120.78 159.24C121.42 158.45 121.74 157.32 121.74 155.84C121.74 154.37 121.42 153.24 120.78 152.45C120.14 151.67 119.22 151.28 118.02 151.28C116.84 151.28 115.93 151.67 115.3 152.45C114.67 153.24 114.35 154.37 114.35 155.84C114.35 157.33 114.67 158.46 115.3 159.24C115.93 160.03 116.84 160.42 118.02 160.42ZM122.69 162.98C124.2 163.53 125.33 164.37 126.1 165.51C126.86 166.65 127.24 168.07 127.24 169.77C127.24 172.3 126.46 174.23 124.9 175.56C123.34 176.88 121.05 177.54 118.02 177.54C115.02 177.54 112.74 176.88 111.18 175.56C109.62 174.24 108.83 172.31 108.83 169.77C108.83 168.07 109.22 166.65 110 165.51C110.76 164.37 111.9 163.53 113.4 162.98C111.72 162.41 110.45 161.5 109.6 160.22C108.73 158.96 108.3 157.37 108.3 155.44C108.3 152.47 109.12 150.22 110.76 148.69C112.39 147.18 114.81 146.42 118.02 146.42C121.24 146.42 123.68 147.18 125.33 148.69C126.97 150.22 127.79 152.47 127.79 155.44C127.79 157.37 127.36 158.96 126.51 160.22C125.65 161.5 124.37 162.41 122.69 162.98V162.98ZM121.19 168.98C121.19 167.79 120.92 166.87 120.38 166.23C119.83 165.59 119.04 165.27 118.02 165.27C117.02 165.27 116.26 165.59 115.71 166.23C115.17 166.87 114.9 167.79 114.9 168.98C114.9 170.18 115.17 171.09 115.71 171.72C116.26 172.36 117.02 172.68 118.02 172.68C119.04 172.68 119.83 172.36 120.38 171.72C120.92 171.07 121.19 170.16 121.19 168.98Z" fill="#FF0000"/>
<path fill-rule="evenodd" clip-rule="evenodd" d="M125.308 139.993C126.112 139.989 126.995 139.791 127.97 139.351C138.613 131.154 124.266 117.928 118.207 106.575L118.03 106.516C111.372 118.927 98.6963 132.585 108.383 139.351C116.054 142.813 118.106 131.292 118.175 130.877C118.238 131.242 119.806 140.031 125.308 139.993Z" fill="#FF0000"/>
<path fill-rule="evenodd" clip-rule="evenodd" d="M44.1264 40.2222C43.6594 40.2247 43.1463 40.3412 42.5799 40.6016C36.3974 45.4439 44.7315 53.2565 48.2512 59.9633L48.3542 59.998C52.2215 52.6664 59.5846 44.5984 53.9574 40.6016C49.5017 38.5561 48.31 45.362 48.2696 45.6075C48.2328 45.3918 47.3225 40.1999 44.1264 40.2222Z" fill="#FF0000"/>
<path fill-rule="evenodd" clip-rule="evenodd" d="M83.1264 40.0023C82.6594 40.0048 82.1463 40.1213 81.5799 40.3817C75.3974 45.224 83.7315 53.0366 87.2512 59.7434L87.3542 59.7781C91.2215 52.4465 98.5846 44.3785 92.9574 40.3817C88.5017 38.3362 87.31 45.1421 87.2696 45.3876C87.2328 45.1719 86.3225 39.98 83.1264 40.0023Z" fill="#FF0000"/>
<path fill-rule="evenodd" clip-rule="evenodd" d="M44.7665 71.2219C44.2994 71.2244 43.7863 71.3409 43.2199 71.6013C37.0374 76.4436 45.3715 84.2562 48.8912 90.963L48.9942 90.9977C52.8615 83.6661 60.2246 75.5981 54.5974 71.6013C50.1417 69.5558 48.9501 76.3617 48.9096 76.6072C48.8728 76.3915 47.9625 71.1996 44.7665 71.2219Z" fill="#FF0000"/>
<path fill-rule="evenodd" clip-rule="evenodd" d="M84.1264 70.2219C83.6594 70.2244 83.1463 70.3409 82.5799 70.6013C76.3974 75.4436 84.7315 83.2562 88.2512 89.963L88.3542 89.9977C92.2215 82.6661 99.5846 74.5981 93.9574 70.6013C89.5017 68.5558 88.31 75.3617 88.2696 75.6072C88.2328 75.3915 87.3225 70.1996 84.1264 70.2219Z" fill="#FF0000"/>
<path fill-rule="evenodd" clip-rule="evenodd" d="M53.2335 119.78C53.7006 119.778 54.2137 119.661 54.7801 119.401C60.9626 114.558 52.6285 106.746 49.1088 100.039L49.0058 100.004C45.1385 107.336 37.7754 115.404 43.4026 119.401C47.8583 121.446 49.0499 114.64 49.0904 114.395C49.1272 114.611 50.0375 119.802 53.2335 119.78Z" fill="#FF0000"/>
<path fill-rule="evenodd" clip-rule="evenodd" d="M53.8736 146.78C54.3406 146.778 54.8537 146.661 55.4201 146.401C61.6026 141.558 53.2685 133.746 49.7488 127.039L49.6458 127.004C45.7785 134.336 38.4154 142.404 44.0426 146.401C48.4983 148.446 49.69 141.64 49.7304 141.395C49.7672 141.611 50.6775 146.802 53.8736 146.78Z" fill="#FF0000"/>
<path fill-rule="evenodd" clip-rule="evenodd" d="M91.2376 146.78C91.7047 146.778 92.2177 146.661 92.7841 146.401C98.9667 141.558 90.6326 133.746 87.1128 127.039L87.0098 127.004C83.1425 134.336 75.7794 142.404 81.4066 146.401C85.8623 148.446 87.054 141.64 87.0944 141.395C87.1312 141.611 88.0415 146.802 91.2376 146.78Z" fill="#FF0000"/>
<path fill-rule="evenodd" clip-rule="evenodd" d="M92.8776 119C93.3447 118.998 93.8577 118.881 94.4241 118.621C100.607 113.778 92.2726 105.966 88.7528 99.259L88.6499 99.2243C84.7826 106.556 77.4194 114.624 83.0466 118.621C87.5024 120.666 88.694 113.86 88.7344 113.615C88.7712 113.831 89.6815 119.022 92.8776 119Z" fill="#FF0000"/>
</svg>
