<svg width="140" height="190" viewBox="0 0 140 190" fill="none" xmlns="http://www.w3.org/2000/svg">
<path d="M21 5H124C132.86 5 140 12.136 140 21V174C140 182.86 132.86 190 124 190H21C12.136 190 5 182.86 5 174V21C5 12.136 12.136 5 21 5Z" fill="black" fill-opacity="0.49804"/>
<path d="M17 1H120C128.86 1 136 8.136 136 17V170C136 178.86 128.86 186 120 186H17C8.136 186 1 178.86 1 170V17C1 8.136 8.136 1 17 1Z" fill="#E7E7E7"/>
<path d="M19 3H122C130.86 3 138 10.136 138 19V172C138 180.86 130.86 188 122 188H19C10.136 188 3 180.86 3 172V19C3 10.136 10.136 3 19 3Z" fill="#C7891F"/>
<path d="M18 2H121C129.86 2 137 9.136 137 18V171C137 179.86 129.86 187 121 187H18C9.136 187 2 179.86 2 171V18C2 9.136 9.136 2 18 2Z" fill="white"/>
<path fill-rule="evenodd" clip-rule="evenodd" d="M48.9132 36.2265C46.0424 40.8237 37.2402 48.6514 42.8157 51.0694C46.2026 52.1829 47.81 49.9034 48.4921 48.3957H48.6285L46.3805 56.0035L51.5883 55.9796C51.5883 55.9796 49.3462 48.6681 49.3403 48.3885H49.3937C49.9453 49.6214 52.0391 52.1709 54.3404 51.2008C61.0667 48.4769 51.1612 40.7281 48.9132 36.2265V36.2265Z" fill="black"/>
<path fill-rule="evenodd" clip-rule="evenodd" d="M90.0532 36.1443C87.1824 40.7415 78.3802 48.5691 83.9557 50.9872C87.3425 52.1007 88.9499 49.8212 89.632 48.3135H89.7685L87.5205 55.9213L92.7282 55.8974C92.7282 55.8974 90.4862 48.5859 90.4802 48.3063H90.5336C91.0852 49.5392 93.179 52.0887 95.4804 51.1186C102.207 48.3947 92.3012 40.6459 90.0532 36.1443V36.1443Z" fill="black"/>
<path fill-rule="evenodd" clip-rule="evenodd" d="M48.3932 71.4034C45.5224 76.0006 36.7202 83.8283 42.2957 86.2464C45.6825 87.3598 47.29 85.0804 47.9721 83.5726H48.1085L45.8605 91.1805L51.0683 91.1566C51.0683 91.1566 48.8262 83.845 48.8203 83.5655H48.8736C49.4253 84.7984 51.519 87.3479 53.8204 86.3778C60.5466 83.6539 50.6412 75.9051 48.3932 71.4034V71.4034Z" fill="black"/>
<path fill-rule="evenodd" clip-rule="evenodd" d="M88.3502 70.2284C85.4794 74.8256 76.6772 82.6533 82.2527 85.0714C85.6395 86.1848 87.2469 83.9053 87.929 82.3976H88.0655C88.0655 82.682 87.9409 88.2278 87.585 88.5575C86.7962 89.2767 85.7997 89.2218 85.7997 89.2218L85.8175 90.0055L91.0252 89.9816L91.049 89.205C91.049 89.205 90.0584 89.2552 89.2695 88.5336C88.9137 88.2063 88.7832 82.67 88.7772 82.3905H88.8306C89.3822 83.6234 91.476 86.1729 93.7774 85.2028C100.504 82.4789 90.5982 74.7301 88.3502 70.2284V70.2284Z" fill="black"/>
<path fill-rule="evenodd" clip-rule="evenodd" d="M48.2069 119.385C51.0777 114.787 59.8799 106.96 54.3044 104.542C50.9175 103.428 49.3101 105.708 48.628 107.215H48.4916L50.7396 99.6075L45.5318 99.6314C45.5318 99.6314 47.7739 106.943 47.7798 107.223H47.7265C47.1748 105.99 45.0811 103.44 42.7797 104.41C36.0535 107.134 45.9589 114.883 48.2069 119.385V119.385Z" fill="black"/>
<path fill-rule="evenodd" clip-rule="evenodd" d="M89.8768 119.465C92.7476 114.867 101.55 107.04 95.9743 104.622C92.5875 103.508 90.9801 105.788 90.2979 107.295H90.1615L92.4095 99.6875L87.2018 99.7114C87.2018 99.7114 89.4438 107.023 89.4498 107.303H89.3964C88.8448 106.07 86.751 103.52 84.4496 104.49C77.7234 107.214 87.6288 114.963 89.8768 119.465V119.465Z" fill="black"/>
<path fill-rule="evenodd" clip-rule="evenodd" d="M90.5168 150.025C93.3876 145.427 102.19 137.6 96.6143 135.182C93.2275 134.068 91.6201 136.348 90.938 137.855H90.8015L93.0495 130.248L87.8418 130.271C87.8418 130.271 90.0838 137.583 90.0898 137.863H90.0364C89.4848 136.63 87.391 134.08 85.0896 135.05C78.3634 137.774 88.2688 145.523 90.5168 150.025V150.025Z" fill="black"/>
<path fill-rule="evenodd" clip-rule="evenodd" d="M49.3868 150.025C52.2576 145.427 61.0598 137.6 55.4843 135.182C52.0975 134.068 50.4901 136.348 49.808 137.855H49.6715L51.9195 130.248L46.7118 130.271C46.7118 130.271 48.9538 137.583 48.9598 137.863H48.9064C48.3548 136.63 46.261 134.08 43.9596 135.05C37.2334 137.774 47.1388 145.523 49.3868 150.025V150.025Z" fill="black"/>
<path fill-rule="evenodd" clip-rule="evenodd" d="M20.645 48.665C15.72 56.49 0.609997 69.814 10.182 73.928C15.993 75.822 18.758 71.945 19.929 69.379H20.164L16.305 82.325L25.242 82.287C25.242 82.287 21.392 69.842 21.383 69.366H21.477C22.423 71.463 26.013 75.805 29.961 74.151C41.507 69.516 24.506 56.327 20.645 48.665V48.665Z" fill="black"/>
<path d="M20.604 28.816C19.408 28.816 18.488 29.211 17.846 30.001C17.204 30.791 16.882 31.923 16.882 33.397C16.882 34.87 17.204 36.002 17.846 36.793C18.488 37.57 19.408 37.958 20.604 37.958C21.789 37.958 22.697 37.57 23.328 36.793C23.96 36.002 24.275 34.87 24.275 33.397C24.275 31.91 23.96 30.778 23.328 30.001C22.697 29.211 21.789 28.816 20.604 28.816ZM15.935 26.264C14.429 25.714 13.294 24.871 12.53 23.732C11.765 22.593 11.383 21.173 11.383 19.472C11.383 16.94 12.164 15.011 13.726 13.685C15.287 12.359 17.58 11.696 20.604 11.696C23.605 11.696 25.887 12.359 27.448 13.685C29.01 14.998 29.791 16.927 29.791 19.472C29.791 21.173 29.403 22.593 28.628 23.732C27.864 24.871 26.728 25.714 25.222 26.264C26.906 26.826 28.174 27.744 29.027 29.016C29.89 30.276 30.322 31.87 30.322 33.799C30.322 36.773 29.503 39.023 27.864 40.55C26.236 42.064 23.816 42.821 20.604 42.821C17.381 42.821 14.944 42.064 13.294 40.55C11.655 39.023 10.835 36.773 10.835 33.799C10.835 31.87 11.262 30.276 12.114 29.016C12.978 27.744 14.252 26.826 15.935 26.264V26.264ZM17.431 20.256C17.431 21.448 17.702 22.366 18.245 23.009C18.798 23.652 19.585 23.973 20.604 23.973C21.6 23.973 22.37 23.652 22.913 23.009C23.456 22.366 23.727 21.448 23.727 20.256C23.727 19.064 23.456 18.153 22.913 17.523C22.37 16.88 21.6 16.559 20.604 16.558C19.585 16.559 18.798 16.88 18.245 17.523C17.702 18.166 17.431 19.077 17.431 20.256" fill="black"/>
<path fill-rule="evenodd" clip-rule="evenodd" d="M117.99 140C122.91 132.18 138.02 118.85 128.45 114.74C122.64 112.84 119.87 116.72 118.7 119.29H118.47L122.32 106.34L113.39 106.38C113.39 106.38 117.24 118.82 117.25 119.3H117.15C116.21 117.2 112.62 112.86 108.67 114.51C97.123 119.15 114.12 132.34 117.99 140V140Z" fill="black"/>
<path d="M118.03 160.35C119.22 160.35 120.14 159.96 120.78 159.16C121.43 158.37 121.75 157.24 121.75 155.77C121.75 154.3 121.43 153.16 120.78 152.37C120.14 151.6 119.22 151.21 118.03 151.21C116.84 151.21 115.93 151.6 115.3 152.37C114.67 153.16 114.35 154.3 114.35 155.77C114.35 157.26 114.67 158.39 115.3 159.16C115.93 159.96 116.84 160.35 118.03 160.35ZM122.69 162.9C124.2 163.45 125.34 164.3 126.1 165.43C126.86 166.57 127.25 167.99 127.25 169.69C127.25 172.23 126.47 174.15 124.9 175.48C123.34 176.81 121.05 177.47 118.03 177.47C115.02 177.47 112.74 176.81 111.18 175.48C109.62 174.17 108.84 172.24 108.84 169.69C108.84 167.99 109.23 166.57 110 165.43C110.77 164.3 111.9 163.45 113.41 162.9C111.72 162.34 110.46 161.42 109.6 160.15C108.74 158.89 108.31 157.3 108.31 155.37C108.31 152.39 109.13 150.14 110.77 148.62C112.39 147.1 114.81 146.35 118.03 146.35C121.25 146.35 123.69 147.1 125.34 148.62C126.98 150.14 127.79 152.39 127.79 155.37C127.79 157.3 127.37 158.89 126.52 160.15C125.65 161.42 124.38 162.34 122.69 162.9ZM121.2 168.91C121.2 167.72 120.93 166.8 120.39 166.16C119.83 165.51 119.05 165.19 118.03 165.19C117.03 165.19 116.26 165.51 115.72 166.16C115.17 166.8 114.9 167.72 114.9 168.91C114.9 170.1 115.17 171.01 115.72 171.64C116.26 172.29 117.03 172.61 118.03 172.61C119.05 172.61 119.83 172.29 120.39 171.64C120.93 171 121.2 170.09 121.2 168.91Z" fill="black"/>
</svg>
