<svg width="140" height="190" viewBox="0 0 140 190" fill="none" xmlns="http://www.w3.org/2000/svg">
<path d="M21 5H124C132.86 5 140 12.136 140 21V174C140 182.86 132.86 190 124 190H21C12.136 190 5 182.86 5 174V21C5 12.136 12.136 5 21 5Z" fill="black" fill-opacity="0.49804"/>
<path d="M17 1H120C128.86 1 136 8.136 136 17V170C136 178.86 128.86 186 120 186H17C8.136 186 1 178.86 1 170V17C1 8.136 8.136 1 17 1Z" fill="#E7E7E7"/>
<path d="M19 3H122C130.86 3 138 10.136 138 19V172C138 180.86 130.86 188 122 188H19C10.136 188 3 180.86 3 172V19C3 10.136 10.136 3 19 3Z" fill="#C7891F"/>
<path d="M18 2H121C129.86 2 137 9.136 137 18V171C137 179.86 129.86 187 121 187H18C9.136 187 2 179.86 2 171V18C2 9.136 9.136 2 18 2Z" fill="white"/>
<path d="M12.094 41.839V36.293C13.113 36.869 14.088 37.305 15.018 37.599C15.948 37.881 16.868 38.021 17.776 38.021C19.681 38.021 21.165 37.385 22.228 36.112C23.292 34.826 23.917 32.924 24.106 30.406C23.352 31.076 22.549 31.578 21.697 31.913C20.844 32.248 19.919 32.415 18.922 32.415C16.386 32.415 14.337 31.524 12.775 29.743C11.225 27.948 10.449 25.59 10.449 22.67C10.449 19.441 11.313 16.856 13.041 14.914C14.78 12.971 17.106 12 20.019 12C23.253 12 25.756 13.32 27.528 15.958C29.3 18.597 30.186 22.328 30.186 27.151C30.186 32.107 29.15 36.005 27.079 38.845C25.008 41.672 22.167 43.085 18.557 43.085C17.394 43.085 16.281 42.978 15.217 42.763C14.154 42.562 13.113 42.254 12.094 41.839V41.839ZM19.985 27.392C21.104 27.392 21.946 26.956 22.511 26.086C23.076 25.202 23.358 23.882 23.358 22.127C23.358 20.386 23.076 19.073 22.511 18.189C21.946 17.305 21.104 16.863 19.985 16.863C18.867 16.863 18.025 17.305 17.46 18.189C16.895 19.073 16.613 20.386 16.613 22.127C16.613 23.882 16.895 25.202 17.46 26.086C18.025 26.956 18.867 27.392 19.985 27.392Z" fill="#0C0C0C"/>
<path d="M126.52 147.59V153.14C125.5 152.56 124.52 152.13 123.59 151.83C122.66 151.55 121.74 151.41 120.83 151.41C118.93 151.41 117.45 152.05 116.38 153.32C115.32 154.6 114.69 156.51 114.5 159.02C115.26 158.35 116.06 157.85 116.91 157.52C117.77 157.18 118.69 157.01 119.69 157.01C122.22 157.01 124.27 157.91 125.83 159.69C127.39 161.48 128.16 163.84 128.16 166.76C128.16 169.99 127.3 172.57 125.57 174.52C123.83 176.46 121.5 177.43 118.59 177.43C115.36 177.43 112.85 176.11 111.08 173.47C109.31 170.83 108.42 167.1 108.42 162.28C108.42 157.32 109.46 153.42 111.53 150.59C113.6 147.76 116.44 146.35 120.05 146.35C121.22 146.35 122.33 146.45 123.39 146.67C124.46 146.87 125.5 147.18 126.52 147.59V147.59ZM118.62 162.04C117.51 162.04 116.66 162.47 116.1 163.34C115.53 164.23 115.25 165.55 115.25 167.3C115.25 169.04 115.53 170.36 116.1 171.24C116.66 172.13 117.51 172.57 118.62 172.57C119.74 172.57 120.59 172.13 121.15 171.24C121.71 170.36 122 169.04 122 167.3C122 165.55 121.71 164.23 121.15 163.34C120.59 162.47 119.74 162.04 118.62 162.04Z" fill="#0C0C0C"/>
<path fill-rule="evenodd" clip-rule="evenodd" d="M20.5269 48.665C17.8609 48.665 15.6969 51.929 15.6969 55.951C15.6969 59.377 20.0889 65.142 19.9189 67.88C18.5089 68.663 14.1519 61.443 11.8999 61.443C9.23345 61.443 7.06995 64.706 7.06995 68.728C7.06995 72.751 9.23345 76.014 11.8999 76.014C14.2119 76.014 18.1759 68.8 19.9189 69.451L16.9899 82.325L24.0139 82.283C24.0139 82.283 20.9369 69.802 20.9329 69.507H20.9879V69.521C22.6949 68.881 26.7939 76.153 29.0899 76.153C31.7569 76.153 33.9199 72.89 33.9199 68.867C33.9199 64.845 31.7569 61.582 29.0899 61.582C26.8479 61.582 22.7819 68.682 20.9969 67.95C21.0219 65.144 25.3569 59.373 25.3569 55.951C25.3569 51.929 23.1939 48.665 20.5269 48.665V48.665Z" fill="black"/>
<path fill-rule="evenodd" clip-rule="evenodd" d="M117.91 139.96C120.58 139.96 122.74 136.7 122.74 132.68C122.74 129.25 118.35 123.49 118.52 120.75C119.93 119.96 124.29 127.18 126.54 127.18C129.21 127.18 131.37 123.92 131.37 119.9C131.37 115.88 129.21 112.61 126.54 112.61C124.23 112.61 120.26 119.83 118.52 119.18L121.45 106.3L114.43 106.34C114.43 106.34 117.5 118.83 117.51 119.12H117.45V119.11C115.74 119.75 111.65 112.47 109.35 112.47C106.68 112.47 104.52 115.74 104.52 119.76C104.52 123.78 106.68 127.05 109.35 127.05C111.59 127.05 115.66 119.95 117.44 120.68C117.42 123.48 113.08 129.25 113.08 132.68C113.08 136.7 115.25 139.96 117.91 139.96V139.96Z" fill="black"/>
<path fill-rule="evenodd" clip-rule="evenodd" d="M49.199 36C47.646 36 46.385 37.918 46.385 40.281C46.385 42.295 48.944 45.683 48.844 47.292C48.023 47.751 45.485 43.509 44.173 43.509C42.62 43.509 41.36 45.426 41.36 47.79C41.36 50.154 42.62 52.071 44.173 52.071C45.52 52.071 47.829 47.832 48.844 48.215L47.138 55.78L51.23 55.755C51.23 55.755 49.437 48.421 49.435 48.248H49.467V48.256C50.462 47.88 52.849 52.153 54.187 52.153C55.74 52.153 57 50.235 57 47.872C57 45.508 55.74 43.59 54.187 43.59C52.88 43.59 50.512 47.763 49.473 47.333C49.487 45.684 52.012 42.293 52.012 40.281C52.012 37.918 50.752 36 49.199 36V36Z" fill="black"/>
<path fill-rule="evenodd" clip-rule="evenodd" d="M69.199 85C67.646 85 66.385 86.918 66.385 89.281C66.385 91.295 68.944 94.683 68.844 96.292C68.023 96.751 65.485 92.509 64.173 92.509C62.62 92.509 61.36 94.426 61.36 96.79C61.36 99.154 62.62 101.07 64.173 101.07C65.52 101.07 67.829 96.832 68.844 97.215L67.138 104.78L71.23 104.76C71.23 104.76 69.437 97.421 69.435 97.248H69.467V97.256C70.462 96.88 72.849 101.15 74.187 101.15C75.74 101.15 77 99.235 77 96.872C77 94.508 75.74 92.59 74.187 92.59C72.88 92.59 70.512 96.763 69.473 96.333C69.487 94.684 72.012 91.293 72.012 89.281C72.012 86.918 70.752 85 69.199 85V85Z" fill="black"/>
<path fill-rule="evenodd" clip-rule="evenodd" d="M90.199 36.22C88.646 36.22 87.385 38.138 87.385 40.501C87.385 42.515 89.944 45.903 89.844 47.512C89.023 47.971 86.485 43.729 85.173 43.729C83.62 43.729 82.36 45.646 82.36 48.01C82.36 50.374 83.62 52.291 85.173 52.291C86.52 52.291 88.829 48.052 89.844 48.435L88.138 56L92.23 55.975C92.23 55.975 90.437 48.641 90.435 48.468H90.467V48.476C91.462 48.1 93.849 52.373 95.187 52.373C96.74 52.373 98 50.455 98 48.092C98 45.728 96.74 43.81 95.187 43.81C93.88 43.81 91.512 47.983 90.473 47.553C90.487 45.904 93.012 42.513 93.012 40.501C93.012 38.138 91.752 36.22 90.199 36.22V36.22Z" fill="black"/>
<path fill-rule="evenodd" clip-rule="evenodd" d="M48.839 71.22C47.286 71.22 46.025 73.138 46.025 75.501C46.025 77.515 48.584 80.903 48.484 82.512C47.663 82.971 45.125 78.729 43.813 78.729C42.26 78.729 41 80.646 41 83.01C41 85.374 42.26 87.291 43.813 87.291C45.16 87.291 47.469 83.052 48.484 83.435L46.778 91L50.87 90.975C50.87 90.975 49.077 83.641 49.075 83.468H49.107V83.476C50.102 83.1 52.489 87.373 53.827 87.373C55.38 87.373 56.64 85.455 56.64 83.092C56.64 80.728 55.38 78.81 53.827 78.81C52.52 78.81 50.152 82.983 49.113 82.552C49.127 80.904 51.652 77.513 51.652 75.501C51.652 73.138 50.392 71.22 48.839 71.22V71.22Z" fill="black"/>
<path fill-rule="evenodd" clip-rule="evenodd" d="M88.199 70C86.646 70 85.385 71.918 85.385 74.281C85.385 76.295 87.944 79.683 87.844 81.292C87.023 81.751 84.485 77.509 83.173 77.509C81.62 77.509 80.36 79.426 80.36 81.79C80.36 84.154 81.62 86.071 83.173 86.071C84.52 86.071 86.829 81.832 87.844 82.215L86.138 89.78L90.23 89.755C90.23 89.755 88.437 82.421 88.435 82.248H88.467V82.256C89.462 81.88 91.849 86.153 93.187 86.153C94.74 86.153 96 84.235 96 81.872C96 79.508 94.74 77.59 93.187 77.59C91.88 77.59 89.512 81.763 88.473 81.333C88.487 79.684 91.012 76.293 91.012 74.281C91.012 71.918 89.752 70 88.199 70V70Z" fill="black"/>
<path fill-rule="evenodd" clip-rule="evenodd" d="M48.161 119C49.714 119 50.975 117.08 50.975 114.72C50.975 112.71 48.416 109.32 48.516 107.71C49.337 107.25 51.875 111.49 53.187 111.49C54.74 111.49 56 109.57 56 107.21C56 104.85 54.74 102.93 53.187 102.93C51.84 102.93 49.531 107.17 48.516 106.79L50.222 99.22L46.13 99.245C46.13 99.245 47.923 106.58 47.925 106.75H47.893V106.74C46.898 107.12 44.511 102.85 43.173 102.85C41.62 102.85 40.36 104.76 40.36 107.13C40.36 109.49 41.62 111.41 43.173 111.41C44.48 111.41 46.848 107.24 47.887 107.67C47.873 109.32 45.348 112.71 45.348 114.72C45.348 117.08 46.608 119 48.161 119V119Z" fill="black"/>
<path fill-rule="evenodd" clip-rule="evenodd" d="M89.801 119.78C91.354 119.78 92.615 117.86 92.615 115.5C92.615 113.49 90.056 110.1 90.156 108.49C90.977 108.03 93.515 112.27 94.827 112.27C96.38 112.27 97.64 110.35 97.64 107.99C97.64 105.63 96.38 103.71 94.827 103.71C93.48 103.71 91.171 107.95 90.156 107.57L91.862 100L87.77 100.02C87.77 100.02 89.563 107.36 89.565 107.53H89.533V107.52C88.538 107.9 86.151 103.63 84.813 103.63C83.26 103.63 82 105.54 82 107.91C82 110.27 83.26 112.19 84.813 112.19C86.12 112.19 88.488 108.02 89.527 108.45C89.513 110.1 86.988 113.49 86.988 115.5C86.988 117.86 88.248 119.78 89.801 119.78V119.78Z" fill="black"/>
<path fill-rule="evenodd" clip-rule="evenodd" d="M90.161 149.78C91.714 149.78 92.975 147.86 92.975 145.5C92.975 143.49 90.416 140.1 90.516 138.49C91.337 138.03 93.875 142.27 95.187 142.27C96.74 142.27 98 140.35 98 137.99C98 135.63 96.74 133.71 95.187 133.71C93.84 133.71 91.531 137.95 90.516 137.57L92.222 130L88.13 130.02C88.13 130.02 89.923 137.36 89.925 137.53H89.893V137.52C88.898 137.9 86.511 133.63 85.173 133.63C83.62 133.63 82.36 135.54 82.36 137.91C82.36 140.27 83.62 142.19 85.173 142.19C86.48 142.19 88.848 138.02 89.887 138.45C89.873 140.1 87.348 143.49 87.348 145.5C87.348 147.86 88.608 149.78 90.161 149.78V149.78Z" fill="black"/>
<path fill-rule="evenodd" clip-rule="evenodd" d="M49.161 149.78C50.714 149.78 51.975 147.86 51.975 145.5C51.975 143.49 49.416 140.1 49.516 138.49C50.337 138.03 52.875 142.27 54.187 142.27C55.74 142.27 57 140.35 57 137.99C57 135.63 55.74 133.71 54.187 133.71C52.84 133.71 50.531 137.95 49.516 137.57L51.222 130L47.13 130.02C47.13 130.02 48.923 137.36 48.925 137.53H48.893V137.52C47.898 137.9 45.511 133.63 44.173 133.63C42.62 133.63 41.36 135.54 41.36 137.91C41.36 140.27 42.62 142.19 44.173 142.19C45.48 142.19 47.848 138.02 48.887 138.45C48.873 140.1 46.348 143.49 46.348 145.5C46.348 147.86 47.608 149.78 49.161 149.78V149.78Z" fill="black"/>
</svg>
