<svg width="140" height="190" viewBox="0 0 140 190" fill="none" xmlns="http://www.w3.org/2000/svg">
<path d="M21 5H124C132.86 5 140 12.136 140 21V174C140 182.86 132.86 190 124 190H21C12.136 190 5 182.86 5 174V21C5 12.136 12.136 5 21 5Z" fill="black" fill-opacity="0.49804"/>
<path d="M17 1H120C128.86 1 136 8.136 136 17V170C136 178.86 128.86 186 120 186H17C8.136 186 1 178.86 1 170V17C1 8.136 8.136 1 17 1Z" fill="#E7E7E7"/>
<path d="M19 3H122C130.86 3 138 10.136 138 19V172C138 180.86 130.86 188 122 188H19C10.136 188 3 180.86 3 172V19C3 10.136 10.136 3 19 3Z" fill="#C7891F"/>
<path d="M18 2H121C129.86 2 137 9.136 137 18V171C137 179.86 129.86 187 121 187H18C9.136 187 2 179.86 2 171V18C2 9.136 9.136 2 18 2Z" fill="white"/>
<path d="M12.164 41.575V36.029C13.183 36.605 14.158 37.041 15.088 37.335C16.018 37.617 16.938 37.757 17.846 37.757C19.751 37.757 21.235 37.121 22.298 35.848C23.361 34.562 23.987 32.66 24.176 30.142C23.422 30.812 22.619 31.314 21.767 31.649C20.914 31.984 19.989 32.151 18.992 32.151C16.456 32.151 14.407 31.26 12.845 29.479C11.295 27.684 10.519 25.326 10.519 22.406C10.519 19.177 11.383 16.592 13.111 14.65C14.85 12.707 17.176 11.736 20.089 11.736C23.323 11.736 25.826 13.056 27.598 15.694C29.37 18.333 30.256 22.064 30.256 26.887C30.256 31.843 29.22 35.741 27.149 38.581C25.078 41.408 22.237 42.821 18.627 42.821C17.464 42.821 16.351 42.714 15.287 42.499C14.224 42.298 13.183 41.99 12.164 41.575V41.575ZM20.055 27.128C21.174 27.128 22.016 26.692 22.581 25.822C23.146 24.938 23.428 23.618 23.428 21.863C23.428 20.122 23.146 18.809 22.581 17.925C22.016 17.041 21.174 16.599 20.055 16.599C18.937 16.599 18.095 17.041 17.53 17.925C16.965 18.809 16.683 20.122 16.683 21.863C16.683 23.618 16.965 24.938 17.53 25.822C18.095 26.692 18.937 27.128 20.055 27.128Z" fill="#FF0000"/>
<path d="M126.52 147.59V153.14C125.5 152.56 124.52 152.13 123.59 151.83C122.66 151.55 121.74 151.41 120.83 151.41C118.93 151.41 117.45 152.05 116.38 153.32C115.32 154.6 114.69 156.51 114.5 159.02C115.26 158.35 116.06 157.85 116.91 157.52C117.77 157.18 118.69 157.01 119.69 157.01C122.22 157.01 124.27 157.91 125.83 159.69C127.39 161.48 128.16 163.84 128.16 166.76C128.16 169.99 127.3 172.57 125.57 174.52C123.83 176.46 121.5 177.43 118.59 177.43C115.36 177.43 112.85 176.11 111.08 173.47C109.31 170.83 108.42 167.1 108.42 162.28C108.42 157.32 109.46 153.42 111.53 150.59C113.6 147.76 116.44 146.35 120.05 146.35C121.22 146.35 122.33 146.45 123.39 146.67C124.46 146.87 125.5 147.18 126.52 147.59V147.59ZM118.62 162.04C117.51 162.04 116.66 162.47 116.1 163.34C115.53 164.23 115.25 165.55 115.25 167.3C115.25 169.04 115.53 170.36 116.1 171.24C116.66 172.13 117.51 172.57 118.62 172.57C119.74 172.57 120.59 172.13 121.15 171.24C121.71 170.36 122 169.04 122 167.3C122 165.55 121.71 164.23 121.15 163.34C120.59 162.47 119.74 162.04 118.62 162.04Z" fill="#FF0000"/>
<path fill-rule="evenodd" clip-rule="evenodd" d="M20.4099 48.665C16.2839 56.91 13.2749 61.163 7.06995 65.705C12.9419 70.192 17.0829 74.829 20.5299 82.325C23.6089 75.204 27.3769 69.895 33.9199 65.482C27.3379 62.133 23.5269 56.828 20.4099 48.665V48.665Z" fill="#FF0000"/>
<path fill-rule="evenodd" clip-rule="evenodd" d="M49.13 36.22C46.727 41.065 44.975 43.564 41.36 46.233C44.781 48.87 47.192 51.595 49.2 56C50.994 51.815 53.188 48.696 57 46.102C53.166 44.134 50.946 41.017 49.13 36.22V36.22Z" fill="#FF0000"/>
<path fill-rule="evenodd" clip-rule="evenodd" d="M90.13 36.22C87.727 41.065 85.975 43.564 82.36 46.233C85.781 48.87 88.192 51.595 90.2 56C91.994 51.815 94.188 48.696 98 46.102C94.166 44.134 91.946 41.017 90.13 36.22V36.22Z" fill="#FF0000"/>
<path fill-rule="evenodd" clip-rule="evenodd" d="M48.77 71.22C46.367 76.065 44.615 78.564 41 81.233C44.421 83.87 46.832 86.595 48.84 91C50.634 86.815 52.828 83.696 56.64 81.102C52.806 79.134 50.586 76.017 48.77 71.22Z" fill="#FF0000"/>
<path fill-rule="evenodd" clip-rule="evenodd" d="M88.13 70.22C85.727 75.065 83.975 77.564 80.36 80.233C83.781 82.87 86.192 85.595 88.2 90C89.994 85.815 92.188 82.696 96 80.102C92.166 78.134 89.946 75.017 88.13 70.22Z" fill="#FF0000"/>
<path fill-rule="evenodd" clip-rule="evenodd" d="M89.77 100C87.367 104.85 85.615 107.34 82 110.01C85.421 112.65 87.832 115.38 89.84 119.78C91.634 115.6 93.828 112.48 97.64 109.88C93.806 107.91 91.586 104.8 89.77 100Z" fill="#FF0000"/>
<path fill-rule="evenodd" clip-rule="evenodd" d="M48.13 100C45.727 104.85 43.975 107.34 40.36 110.01C43.781 112.65 46.192 115.38 48.2 119.78C49.994 115.6 52.188 112.48 56 109.88C52.166 107.91 49.946 104.8 48.13 100Z" fill="#FF0000"/>
<path fill-rule="evenodd" clip-rule="evenodd" d="M49.13 130C46.727 134.85 44.975 137.34 41.36 140.01C44.781 142.65 47.192 145.38 49.2 149.78C50.994 145.6 53.188 142.48 57 139.88C53.166 137.91 50.946 134.8 49.13 130Z" fill="#FF0000"/>
<path fill-rule="evenodd" clip-rule="evenodd" d="M69.13 85.22C66.727 90.065 64.975 92.564 61.36 95.233C64.781 97.87 67.192 100.6 69.2 105C70.994 100.82 73.188 97.696 77 95.102C73.166 93.134 70.946 90.017 69.13 85.22Z" fill="#FF0000"/>
<path fill-rule="evenodd" clip-rule="evenodd" d="M90.13 130.22C87.727 135.07 85.975 137.56 82.36 140.23C85.781 142.87 88.192 145.6 90.2 150C91.994 145.82 94.188 142.7 98 140.1C94.166 138.13 91.946 135.02 90.13 130.22Z" fill="#FF0000"/>
<path fill-rule="evenodd" clip-rule="evenodd" d="M118.34 106.34C114.21 114.59 111.21 118.84 105 123.38C110.87 127.87 115.01 132.5 118.46 140C121.54 132.88 125.31 127.57 131.85 123.16C125.27 119.81 121.46 114.5 118.34 106.34V106.34Z" fill="#FF0000"/>
</svg>
