<svg width="140" height="190" viewBox="0 0 140 190" fill="none" xmlns="http://www.w3.org/2000/svg">
<path d="M21 5H124C132.86 5 140 12.136 140 21V174C140 182.86 132.86 190 124 190H21C12.136 190 5 182.86 5 174V21C5 12.136 12.136 5 21 5Z" fill="black" fill-opacity="0.49804"/>
<path d="M17 1H120C128.86 1 136 8.136 136 17V170C136 178.86 128.86 186 120 186H17C8.136 186 1 178.86 1 170V17C1 8.136 8.136 1 17 1Z" fill="#E7E7E7"/>
<path d="M19 3H122C130.86 3 138 10.136 138 19V172C138 180.86 130.86 188 122 188H19C10.136 188 3 180.86 3 172V19C3 10.136 10.136 3 19 3Z" fill="#C7891F"/>
<path d="M18 2H121C129.86 2 137 9.136 137 18V171C137 179.86 129.86 187 121 187H18C9.136 187 2 179.86 2 171V18C2 9.136 9.136 2 18 2Z" fill="white"/>
<path d="M12.404 41.335V35.789C13.423 36.365 14.398 36.8 15.328 37.095C16.259 37.376 17.178 37.517 18.086 37.517C19.991 37.517 21.475 36.881 22.538 35.608C23.602 34.322 24.227 32.42 24.416 29.901C23.662 30.571 22.86 31.074 22.007 31.408C21.154 31.743 20.229 31.911 19.232 31.911C16.696 31.911 14.647 31.02 13.085 29.238C11.535 27.443 10.76 25.086 10.76 22.165C10.76 18.937 11.623 16.352 13.351 14.409C15.09 12.467 17.416 11.496 20.329 11.496C23.563 11.496 26.066 12.815 27.838 15.454C29.61 18.093 30.496 21.824 30.496 26.646C30.496 31.603 29.461 35.501 27.389 38.341C25.318 41.167 22.477 42.581 18.867 42.581C17.704 42.581 16.591 42.473 15.528 42.259C14.464 42.058 13.423 41.75 12.404 41.335V41.335ZM20.296 26.887C21.414 26.887 22.256 26.452 22.821 25.581C23.386 24.697 23.668 23.378 23.668 21.623C23.668 19.882 23.386 18.569 22.821 17.685C22.256 16.8 21.414 16.358 20.296 16.358C19.177 16.358 18.335 16.8 17.77 17.685C17.205 18.569 16.923 19.882 16.923 21.623C16.923 23.378 17.205 24.697 17.77 25.581C18.335 26.452 19.177 26.887 20.296 26.887" fill="#FF0000"/>
<path fill-rule="evenodd" clip-rule="evenodd" d="M13.5543 48.8447C12.7502 48.8489 11.867 49.0461 10.8919 49.4868C0.248669 57.6839 14.5959 70.9091 20.6551 82.2625L20.8324 82.3212C27.49 69.9102 40.1657 56.2527 30.4785 49.4868C22.8078 46.0242 20.7564 57.5454 20.6868 57.9609C20.6235 57.5958 19.0564 48.8069 13.5543 48.8447Z" fill="#FF0000"/>
<path d="M126.46 147.67V153.21C125.44 152.64 124.47 152.2 123.54 151.9C122.61 151.62 121.69 151.48 120.78 151.48C118.87 151.48 117.39 152.12 116.33 153.39C115.26 154.68 114.64 156.58 114.45 159.1C115.2 158.43 116.01 157.93 116.86 157.59C117.71 157.26 118.64 157.09 119.63 157.09C122.17 157.09 124.22 157.98 125.78 159.76C127.33 161.56 128.11 163.91 128.11 166.83C128.11 170.06 127.24 172.65 125.51 174.59C123.78 176.53 121.45 177.5 118.54 177.5C115.3 177.5 112.8 176.18 111.03 173.55C109.26 170.91 108.37 167.18 108.37 162.35C108.37 157.4 109.4 153.5 111.48 150.66C113.55 147.83 116.39 146.42 120 146.42C121.16 146.42 122.27 146.53 123.34 146.74C124.4 146.94 125.44 147.25 126.46 147.67ZM118.57 162.11C117.45 162.11 116.61 162.55 116.04 163.42C115.48 164.3 115.2 165.62 115.2 167.38C115.2 169.12 115.48 170.43 116.04 171.32C116.61 172.2 117.45 172.64 118.57 172.64C119.69 172.64 120.53 172.2 121.1 171.32C121.66 170.43 121.94 169.12 121.94 167.38C121.94 165.62 121.66 164.3 121.1 163.42C120.53 162.55 119.69 162.11 118.57 162.11Z" fill="#FF0000"/>
<path fill-rule="evenodd" clip-rule="evenodd" d="M125.308 139.993C126.112 139.989 126.995 139.791 127.97 139.351C138.613 131.154 124.266 117.928 118.207 106.575L118.03 106.516C111.372 118.927 98.6963 132.585 108.383 139.351C116.054 142.813 118.106 131.292 118.175 130.877C118.238 131.242 119.806 140.031 125.308 139.993Z" fill="#FF0000"/>
<path fill-rule="evenodd" clip-rule="evenodd" d="M64.1224 85.2199C63.6553 85.2224 63.1423 85.3389 62.5759 85.5993C56.3933 90.4416 64.7274 98.2542 68.2472 104.961L68.3501 104.996C72.2174 97.6641 79.5806 89.5961 73.9534 85.5993C69.4976 83.5538 68.306 90.3597 68.2656 90.6052C68.2288 90.3895 67.3185 85.1976 64.1224 85.2199Z" fill="#FF0000"/>
<path fill-rule="evenodd" clip-rule="evenodd" d="M44.1224 40.2199C43.6553 40.2224 43.1423 40.3389 42.5759 40.5993C36.3933 45.4416 44.7274 53.2542 48.2472 59.961L48.3501 59.9957C52.2174 52.6641 59.5806 44.5961 53.9534 40.5993C49.4976 38.5538 48.306 45.3597 48.2656 45.6052C48.2288 45.3895 47.3185 40.1976 44.1224 40.2199Z" fill="#FF0000"/>
<path fill-rule="evenodd" clip-rule="evenodd" d="M83.1224 39.9999C82.6553 40.0024 82.1423 40.1189 81.5759 40.3793C75.3933 45.2216 83.7274 53.0342 87.2472 59.741L87.3501 59.7757C91.2174 52.4441 98.5806 44.3761 92.9534 40.3793C88.4976 38.3338 87.306 45.1397 87.2656 45.3852C87.2288 45.1695 86.3185 39.9776 83.1224 39.9999Z" fill="#FF0000"/>
<path fill-rule="evenodd" clip-rule="evenodd" d="M44.7624 71.2199C44.2953 71.2224 43.7823 71.3389 43.2159 71.5993C37.0333 76.4416 45.3674 84.2542 48.8872 90.961L48.9902 90.9957C52.8575 83.6641 60.2206 75.5961 54.5934 71.5993C50.1377 69.5538 48.946 76.3597 48.9056 76.6052C48.8688 76.3895 47.9585 71.1976 44.7624 71.2199Z" fill="#FF0000"/>
<path fill-rule="evenodd" clip-rule="evenodd" d="M84.1224 70.2199C83.6553 70.2224 83.1423 70.3389 82.5759 70.5993C76.3933 75.4416 84.7274 83.2542 88.2472 89.961L88.3501 89.9957C92.2174 82.6641 99.5806 74.5961 93.9534 70.5993C89.4976 68.5538 88.306 75.3597 88.2656 75.6052C88.2288 75.3895 87.3185 70.1976 84.1224 70.2199Z" fill="#FF0000"/>
<path fill-rule="evenodd" clip-rule="evenodd" d="M53.2376 119.778C53.7047 119.776 54.2177 119.659 54.7841 119.399C60.9667 114.556 52.6326 106.744 49.1128 100.037L49.0098 100.002C45.1425 107.334 37.7794 115.402 43.4066 119.399C47.8623 121.444 49.054 114.638 49.0944 114.393C49.1312 114.609 50.0415 119.8 53.2376 119.778Z" fill="#FF0000"/>
<path fill-rule="evenodd" clip-rule="evenodd" d="M53.8776 146.778C54.3447 146.775 54.8577 146.659 55.4241 146.398C61.6067 141.556 53.2726 133.744 49.7528 127.037L49.6499 127.002C45.7826 134.334 38.4194 142.402 44.0466 146.398C48.5024 148.444 49.694 141.638 49.7344 141.392C49.7712 141.608 50.6815 146.8 53.8776 146.778Z" fill="#FF0000"/>
<path fill-rule="evenodd" clip-rule="evenodd" d="M91.2376 146.778C91.7047 146.775 92.2177 146.659 92.7841 146.398C98.9667 141.556 90.6326 133.744 87.1128 127.037L87.0098 127.002C83.1425 134.334 75.7794 142.402 81.4066 146.398C85.8623 148.444 87.054 141.638 87.0944 141.392C87.1312 141.608 88.0415 146.8 91.2376 146.778Z" fill="#FF0000"/>
<path fill-rule="evenodd" clip-rule="evenodd" d="M92.8776 118.998C93.3447 118.996 93.8577 118.879 94.4241 118.619C100.607 113.776 92.2726 105.964 88.7528 99.257L88.6499 99.2223C84.7826 106.554 77.4194 114.622 83.0466 118.619C87.5024 120.664 88.694 113.858 88.7344 113.613C88.7712 113.829 89.6815 119.02 92.8776 118.998Z" fill="#FF0000"/>
</svg>
