<svg width="140" height="190" viewBox="0 0 140 190" fill="none" xmlns="http://www.w3.org/2000/svg">
<path d="M21 5H124C132.86 5 140 12.136 140 21V174C140 182.86 132.86 190 124 190H21C12.136 190 5 182.86 5 174V21C5 12.136 12.136 5 21 5Z" fill="black" fill-opacity="0.49804"/>
<path d="M17 1H120C128.86 1 136 8.136 136 17V170C136 178.86 128.86 186 120 186H17C8.136 186 1 178.86 1 170V17C1 8.136 8.136 1 17 1Z" fill="#E7E7E7"/>
<path d="M19 3H122C130.86 3 138 10.136 138 19V172C138 180.86 130.86 188 122 188H19C10.136 188 3 180.86 3 172V19C3 10.136 10.136 3 19 3Z" fill="#C7891F"/>
<path d="M18 2H121C129.86 2 137 9.136 137 18V171C137 179.86 129.86 187 121 187H18C9.136 187 2 179.86 2 171V18C2 9.136 9.136 2 18 2Z" fill="white"/>
<path fill-rule="evenodd" clip-rule="evenodd" d="M68.9111 85.0014C66.0403 89.5986 57.2381 97.4263 62.8137 99.8444C66.2005 100.958 67.8079 98.6784 68.49 97.1706H68.6264L66.3784 104.778L71.5862 104.755C71.5862 104.755 69.3441 97.443 69.3382 97.1635H69.3916C69.9432 98.3964 72.037 100.946 74.3384 99.9758C81.0646 97.2519 71.1591 89.5031 68.9111 85.0014V85.0014Z" fill="black"/>
<path fill-rule="evenodd" clip-rule="evenodd" d="M48.9132 36.2265C46.0424 40.8237 37.2402 48.6514 42.8157 51.0694C46.2025 52.1829 47.8099 49.9034 48.492 48.3957H48.6285L46.3805 56.0035L51.5882 55.9796C51.5882 55.9796 49.3461 48.6681 49.3402 48.3885H49.3936C49.9452 49.6214 52.039 52.1709 54.3404 51.2008C61.0666 48.4769 51.1612 40.7281 48.9132 36.2265V36.2265Z" fill="black"/>
<path fill-rule="evenodd" clip-rule="evenodd" d="M90.0532 36.1443C87.1824 40.7415 78.3802 48.5691 83.9557 50.9872C87.3425 52.1007 88.9499 49.8212 89.632 48.3135H89.7685L87.5205 55.9213L92.7282 55.8974C92.7282 55.8974 90.4862 48.5859 90.4802 48.3063H90.5336C91.0852 49.5392 93.179 52.0887 95.4804 51.1186C102.207 48.3947 92.3012 40.6459 90.0532 36.1443V36.1443Z" fill="black"/>
<path fill-rule="evenodd" clip-rule="evenodd" d="M48.3931 71.4034C45.5223 76.0006 36.7201 83.8283 42.2957 86.2464C45.6825 87.3598 47.2899 85.0804 47.972 83.5726H48.1084L45.8604 91.1805L51.0682 91.1566C51.0682 91.1566 48.8261 83.845 48.8202 83.5655H48.8736C49.4252 84.7984 51.519 87.3479 53.8204 86.3778C60.5466 83.6539 50.6411 75.9051 48.3931 71.4034V71.4034Z" fill="black"/>
<path fill-rule="evenodd" clip-rule="evenodd" d="M88.3502 70.2284C85.4794 74.8256 76.6772 82.6533 82.2527 85.0714C85.6395 86.1848 87.2469 83.9053 87.929 82.3976H88.0655L85.8175 90.0055L91.0252 89.9816C91.0252 89.9816 88.7832 82.67 88.7772 82.3905H88.8306C89.3822 83.6234 91.476 86.1729 93.7774 85.2028C100.504 82.4789 90.5982 74.7301 88.3502 70.2284V70.2284Z" fill="black"/>
<path fill-rule="evenodd" clip-rule="evenodd" d="M48.2068 119.385C51.0776 114.787 59.8798 106.96 54.3043 104.542C50.9175 103.428 49.3101 105.708 48.628 107.215H48.4915L50.7395 99.6075L45.5318 99.6314C45.5318 99.6314 47.7738 106.943 47.7798 107.223H47.7264C47.1748 105.99 45.081 103.44 42.7796 104.41C36.0534 107.134 45.9588 114.883 48.2068 119.385V119.385Z" fill="black"/>
<path fill-rule="evenodd" clip-rule="evenodd" d="M89.8768 119.465C92.7476 114.867 101.55 107.04 95.9743 104.622C92.5875 103.508 90.9801 105.788 90.2979 107.295H90.1615L92.4095 99.6875L87.2018 99.7114C87.2018 99.7114 89.4438 107.023 89.4498 107.303H89.3964C88.8448 106.07 86.751 103.52 84.4496 104.49C77.7234 107.214 87.6288 114.963 89.8768 119.465V119.465Z" fill="black"/>
<path fill-rule="evenodd" clip-rule="evenodd" d="M90.5168 150.025C93.3876 145.427 102.19 137.6 96.6143 135.182C93.2275 134.068 91.6201 136.348 90.938 137.855H90.8015L93.0495 130.248L87.8418 130.271C87.8418 130.271 90.0838 137.583 90.0898 137.863H90.0364C89.4848 136.63 87.391 134.08 85.0896 135.05C78.3634 137.774 88.2688 145.523 90.5168 150.025V150.025Z" fill="black"/>
<path fill-rule="evenodd" clip-rule="evenodd" d="M49.3868 150.025C52.2576 145.427 61.0598 137.6 55.4843 135.182C52.0975 134.068 50.4901 136.348 49.808 137.855H49.6715L51.9195 130.248L46.7118 130.271C46.7118 130.271 48.9538 137.583 48.9598 137.863H48.9064C48.3548 136.63 46.261 134.08 43.9596 135.05C37.2334 137.774 47.1388 145.523 49.3868 150.025V150.025Z" fill="black"/>
<path fill-rule="evenodd" clip-rule="evenodd" d="M20.645 48.665C15.72 56.49 0.609997 69.814 10.182 73.928C15.993 75.822 18.758 71.945 19.929 69.379H20.164L16.305 82.325L25.242 82.287C25.242 82.287 21.392 69.842 21.383 69.366H21.477C22.423 71.463 26.013 75.805 29.961 74.151C41.507 69.516 24.506 56.327 20.645 48.665V48.665Z" fill="black"/>
<path d="M12.164 41.575V36.029C13.183 36.605 14.158 37.041 15.088 37.335C16.018 37.617 16.938 37.757 17.846 37.757C19.751 37.757 21.235 37.121 22.298 35.848C23.361 34.562 23.987 32.66 24.176 30.142C23.422 30.812 22.619 31.314 21.767 31.649C20.914 31.984 19.989 32.151 18.992 32.151C16.456 32.151 14.407 31.26 12.845 29.479C11.295 27.684 10.519 25.326 10.519 22.406C10.519 19.177 11.383 16.592 13.111 14.65C14.85 12.707 17.176 11.736 20.089 11.736C23.323 11.736 25.826 13.056 27.598 15.694C29.37 18.333 30.256 22.064 30.256 26.887C30.256 31.843 29.22 35.741 27.149 38.581C25.078 41.408 22.237 42.821 18.627 42.821C17.464 42.821 16.351 42.714 15.287 42.499C14.224 42.298 13.183 41.99 12.164 41.575V41.575ZM20.055 27.128C21.174 27.128 22.016 26.692 22.581 25.822C23.146 24.938 23.428 23.618 23.428 21.863C23.428 20.122 23.146 18.809 22.581 17.925C22.016 17.041 21.174 16.599 20.055 16.599C18.937 16.599 18.095 17.041 17.53 17.925C16.965 18.809 16.683 20.122 16.683 21.863C16.683 23.618 16.965 24.938 17.53 25.822C18.095 26.692 18.937 27.128 20.055 27.128Z" fill="#0C0C0C"/>
<path fill-rule="evenodd" clip-rule="evenodd" d="M118.04 140C122.96 132.18 138.07 118.85 128.5 114.74C122.69 112.84 119.92 116.72 118.75 119.29H118.52L122.38 106.34L113.44 106.38C113.44 106.38 117.29 118.82 117.3 119.3H117.2C116.26 117.2 112.67 112.86 108.72 114.51C97.173 119.15 114.17 132.34 118.04 140V140Z" fill="black"/>
<path d="M126.52 147.59V153.14C125.5 152.56 124.52 152.13 123.59 151.83C122.66 151.55 121.74 151.41 120.83 151.41C118.93 151.41 117.45 152.05 116.38 153.32C115.32 154.6 114.69 156.51 114.5 159.02C115.26 158.35 116.06 157.85 116.91 157.52C117.77 157.18 118.69 157.01 119.69 157.01C122.22 157.01 124.27 157.91 125.83 159.69C127.39 161.48 128.16 163.84 128.16 166.76C128.16 169.99 127.3 172.57 125.57 174.52C123.83 176.46 121.5 177.43 118.59 177.43C115.36 177.43 112.85 176.11 111.08 173.47C109.31 170.83 108.42 167.1 108.42 162.28C108.42 157.32 109.46 153.42 111.53 150.59C113.6 147.76 116.44 146.35 120.05 146.35C121.22 146.35 122.33 146.45 123.39 146.67C124.46 146.87 125.5 147.18 126.52 147.59V147.59ZM118.62 162.04C117.51 162.04 116.66 162.47 116.1 163.34C115.53 164.23 115.25 165.55 115.25 167.3C115.25 169.04 115.53 170.36 116.1 171.24C116.66 172.13 117.51 172.57 118.62 172.57C119.74 172.57 120.59 172.13 121.15 171.24C121.71 170.36 122 169.04 122 167.3C122 165.55 121.71 164.23 121.15 163.34C120.59 162.47 119.74 162.04 118.62 162.04Z" fill="#0C0C0C"/>
</svg>
