<svg width="140" height="190" viewBox="0 0 140 190" fill="none" xmlns="http://www.w3.org/2000/svg">
<path d="M21 5H124C132.86 5 140 12.136 140 21V174C140 182.86 132.86 190 124 190H21C12.136 190 5 182.86 5 174V21C5 12.136 12.136 5 21 5Z" fill="black" fill-opacity="0.49804"/>
<path d="M17 1H120C128.86 1 136 8.136 136 17V170C136 178.86 128.86 186 120 186H17C8.136 186 1 178.86 1 170V17C1 8.136 8.136 1 17 1Z" fill="#E7E7E7"/>
<path d="M19 3H122C130.86 3 138 10.136 138 19V172C138 180.86 130.86 188 122 188H19C10.136 188 3 180.86 3 172V19C3 10.136 10.136 3 19 3Z" fill="#C7891F"/>
<path d="M18 2H121C129.86 2 137 9.136 137 18V171C137 179.86 129.86 187 121 187H18C9.136 187 2 179.86 2 171V18C2 9.136 9.136 2 18 2Z" fill="white"/>
<path d="M25.079 36.775H15.078L13.499 42.24H7.07001L16.257 12.24H23.883L33.07 42.24H26.641L25.079 36.775V36.775ZM16.673 31.209H23.467L20.078 19.273L16.673 31.209Z" fill="black"/>
<path d="M113.61 152.1H123.61L125.19 146.63H131.62L122.43 176.63H114.81L105.62 146.63H112.05L113.61 152.1V152.1ZM122.02 157.66H115.22L118.61 169.6L122.02 157.66Z" fill="black"/>
<path fill-rule="evenodd" clip-rule="evenodd" d="M20.527 48.665C17.861 48.665 15.697 51.929 15.697 55.951C15.697 59.377 20.089 65.142 19.919 67.88C18.509 68.663 14.152 61.443 11.9 61.443C9.23351 61.443 7.07001 64.706 7.07001 68.728C7.07001 72.751 9.23351 76.014 11.9 76.014C14.212 76.014 18.176 68.8 19.919 69.451L16.99 82.325L24.014 82.283C24.014 82.283 20.937 69.802 20.933 69.507H20.988V69.521C22.695 68.881 26.794 76.153 29.09 76.153C31.757 76.153 33.92 72.89 33.92 68.867C33.92 64.845 31.757 61.582 29.09 61.582C26.848 61.582 22.782 68.682 20.997 67.95C21.022 65.144 25.357 59.373 25.357 55.951C25.357 51.929 23.194 48.665 20.527 48.665V48.665Z" fill="black"/>
<path fill-rule="evenodd" clip-rule="evenodd" d="M117.42 139.96C120.08 139.96 122.25 136.7 122.25 132.68C122.25 129.25 117.86 123.49 118.03 120.75C119.44 119.96 123.79 127.18 126.05 127.18C128.71 127.18 130.88 123.92 130.88 119.9C130.88 115.88 128.71 112.61 126.05 112.61C123.73 112.61 119.77 119.83 118.03 119.18L120.96 106.3L113.93 106.34C113.93 106.34 117.01 118.83 117.01 119.12H116.96V119.11C115.25 119.75 111.15 112.47 108.86 112.47C106.19 112.47 104.03 115.74 104.03 119.76C104.03 123.78 106.19 127.05 108.86 127.05C111.1 127.05 115.16 119.95 116.95 120.68C116.92 123.48 112.59 129.25 112.59 132.68C112.59 136.7 114.75 139.96 117.42 139.96V139.96Z" fill="black"/>
<path fill-rule="evenodd" clip-rule="evenodd" d="M69.529 59.05C63.803 59.05 59.157 66.063 59.157 74.706C59.157 82.069 68.589 94.457 68.223 100.34C65.194 102.02 55.838 86.507 51.002 86.507C45.276 86.507 40.63 93.52 40.63 102.16C40.63 110.81 45.276 117.82 51.002 117.82C55.968 117.82 64.479 102.32 68.223 103.72L61.933 131.38L77.016 131.29C77.016 131.29 70.408 104.47 70.4 103.84H70.519V103.87C74.185 102.49 82.987 118.12 87.918 118.12C93.644 118.12 98.29 111.1 98.29 102.46C98.29 93.819 93.644 86.806 87.918 86.806C83.102 86.806 74.372 102.06 70.539 100.49C70.593 94.461 79.901 82.061 79.901 74.706C79.901 66.063 75.255 59.05 69.529 59.05V59.05Z" fill="black"/>
</svg>
