<svg width="140" height="190" viewBox="0 0 140 190" fill="none" xmlns="http://www.w3.org/2000/svg">
<path d="M21 5H124C132.86 5 140 12.136 140 21V174C140 182.86 132.86 190 124 190H21C12.136 190 5 182.86 5 174V21C5 12.136 12.136 5 21 5Z" fill="black" fill-opacity="0.49804"/>
<path d="M17 1H120C128.86 1 136 8.136 136 17V170C136 178.86 128.86 186 120 186H17C8.136 186 1 178.86 1 170V17C1 8.136 8.136 1 17 1Z" fill="#E7E7E7"/>
<path d="M19 3H122C130.86 3 138 10.136 138 19V172C138 180.86 130.86 188 122 188H19C10.136 188 3 180.86 3 172V19C3 10.136 10.136 3 19 3Z" fill="#C7891F"/>
<path d="M18 2H121C129.86 2 137 9.136 137 18V171C137 179.86 129.86 187 121 187H18C9.136 187 2 179.86 2 171V18C2 9.136 9.136 2 18 2Z" fill="white"/>
<path d="M25.079 36.775H15.078L13.499 42.24H7.07001L16.257 12.24H23.883L33.07 42.24H26.641L25.079 36.775V36.775ZM16.673 31.209H23.467L20.078 19.273L16.673 31.209Z" fill="#FF0000"/>
<path d="M113.61 152.1H123.61L125.19 146.63H131.62L122.43 176.63H114.81L105.62 146.63H112.05L113.61 152.1V152.1ZM122.02 157.66H115.22L118.61 169.6L122.02 157.66Z" fill="#FF0000"/>
<path fill-rule="evenodd" clip-rule="evenodd" d="M20.41 48.665C16.284 56.91 13.275 61.163 7.07001 65.705C12.942 70.192 17.083 74.829 20.53 82.325C23.609 75.204 27.377 69.895 33.92 65.482C27.338 62.133 23.527 56.828 20.41 48.665V48.665Z" fill="#FF0000"/>
<path fill-rule="evenodd" clip-rule="evenodd" d="M118.34 106.34C114.21 114.59 111.21 118.84 105 123.38C110.87 127.87 115.01 132.5 118.46 140C121.54 132.88 125.31 127.57 131.85 123.16C125.27 119.81 121.46 114.5 118.34 106.34V106.34Z" fill="#FF0000"/>
<path fill-rule="evenodd" clip-rule="evenodd" d="M69.276 59.05C60.416 76.768 53.956 85.906 40.63 95.665C53.241 105.31 62.132 115.27 69.536 131.38C76.148 116.08 84.238 104.67 98.29 95.187C84.155 87.991 75.972 76.592 69.276 59.05V59.05Z" fill="#FF0000"/>
</svg>
