<svg width="140" height="190" viewBox="0 0 140 190" fill="none" xmlns="http://www.w3.org/2000/svg">
<path d="M21 5H124C132.86 5 140 12.136 140 21V174C140 182.86 132.86 190 124 190H21C12.136 190 5 182.86 5 174V21C5 12.136 12.136 5 21 5Z" fill="black" fill-opacity="0.49804"/>
<path d="M17 1H120C128.86 1 136 8.136 136 17V170C136 178.86 128.86 186 120 186H17C8.136 186 1 178.86 1 170V17C1 8.136 8.136 1 17 1Z" fill="#E7E7E7"/>
<path d="M19 3H122C130.86 3 138 10.136 138 19V172C138 180.86 130.86 188 122 188H19C10.136 188 3 180.86 3 172V19C3 10.136 10.136 3 19 3Z" fill="#C7891F"/>
<path d="M18 2H121C129.86 2 137 9.136 137 18V171C137 179.86 129.86 187 121 187H18C9.136 187 2 179.86 2 171V18C2 9.136 9.136 2 18 2Z" fill="white"/>
<path d="M25.449 36.534H15.448L13.869 42H7.43994L16.627 12H24.253L33.44 42H27.01L25.449 36.534V36.534ZM17.042 30.968H23.837L20.448 19.033L17.042 30.968" fill="#FF0000"/>
<path fill-rule="evenodd" clip-rule="evenodd" d="M14.1284 48.8447C13.3243 48.8489 12.4411 49.0461 11.466 49.4868C0.822766 57.6839 15.17 70.9091 21.2292 82.2625L21.4065 82.3212C28.0641 69.9102 40.7398 56.2527 31.0526 49.4868C23.3819 46.0242 21.3305 57.5454 21.2609 57.9609C21.1976 57.5958 19.6305 48.8069 14.1284 48.8447Z" fill="#FF0000"/>
<path d="M113.57 152.47H123.57L125.15 147H131.58L122.39 177H114.77L105.58 147H112.01L113.57 152.47ZM121.98 158.03H115.18L118.57 169.97L121.98 158.03Z" fill="#FF0000"/>
<path fill-rule="evenodd" clip-rule="evenodd" d="M124.892 139.993C125.696 139.989 126.579 139.791 127.554 139.351C138.199 131.154 123.85 117.928 117.79 106.575L117.612 106.516C110.954 118.927 98.2765 132.585 107.965 139.351C115.637 142.813 117.688 131.292 117.758 130.877C117.821 131.242 119.389 140.031 124.892 139.993Z" fill="#FF0000"/>
<path fill-rule="evenodd" clip-rule="evenodd" d="M54.5126 59.0584C52.7907 59.0675 50.8992 59.4936 48.8112 60.4456C26.0188 78.1524 56.7431 106.721 69.7189 131.246L70.0985 131.373C84.3556 104.563 111.5 75.0607 90.7554 60.4456C74.3289 52.9657 69.9358 77.8532 69.7867 78.7508C69.6511 77.962 66.2953 58.9768 54.5126 59.0584Z" fill="#FF0000"/>
</svg>
