<svg width="140" height="190" viewBox="0 0 140 190" fill="none" xmlns="http://www.w3.org/2000/svg">
<path d="M21 5H124C132.86 5 140 12.136 140 21V174C140 182.86 132.86 190 124 190H21C12.136 190 5 182.86 5 174V21C5 12.136 12.136 5 21 5Z" fill="black" fill-opacity="0.49804"/>
<path d="M17 1H120C128.86 1 136 8.136 136 17V170C136 178.86 128.86 186 120 186H17C8.136 186 1 178.86 1 170V17C1 8.136 8.136 1 17 1Z" fill="#E7E7E7"/>
<path d="M19 3H122C130.86 3 138 10.136 138 19V172C138 180.86 130.86 188 122 188H19C10.136 188 3 180.86 3 172V19C3 10.136 10.136 3 19 3Z" fill="#C7891F"/>
<path d="M18 2H121C129.86 2 137 9.136 137 18V171C137 179.86 129.86 187 121 187H18C9.136 187 2 179.86 2 171V18C2 9.136 9.136 2 18 2Z" fill="white"/>
<path fill-rule="evenodd" clip-rule="evenodd" d="M21.09 48.6652C16.16 56.489 1.05003 69.8119 10.63 73.9282C16.44 75.8201 19.2 71.9442 20.37 69.3791H20.61L16.75 82.3252L25.69 82.2851C25.69 82.2851 21.84 69.84 21.83 69.367H21.92C22.87 71.4633 26.46 75.804 30.41 74.1527C41.95 69.5153 24.95 56.3287 21.09 48.6652V48.6652Z" fill="black"/>
<path d="M25.0789 36.775H15.0779L13.4989 42.24H7.06995L16.2569 12.24H23.8829L33.0699 42.24H26.6409L25.0789 36.775V36.775ZM16.6729 31.209H23.4669L20.0779 19.273L16.6729 31.209Z" fill="black"/>
<path fill-rule="evenodd" clip-rule="evenodd" d="M117.6 140.004C122.53 132.18 137.64 118.857 128.06 114.741C122.25 112.849 119.49 116.725 118.32 119.29H118.08L121.94 106.344L113 106.384C113 106.384 116.85 118.829 116.86 119.302H116.77C115.82 117.206 112.23 112.865 108.28 114.516C96.74 119.154 113.74 132.34 117.6 140.004V140.004Z" fill="black"/>
<path d="M113.61 152.1H123.61L125.19 146.63H131.62L122.43 176.63H114.81L105.62 146.63H112.05L113.61 152.1V152.1ZM122.02 157.66H115.22L118.61 169.6L122.02 157.66Z" fill="black"/>
<path fill-rule="evenodd" clip-rule="evenodd" d="M69.7809 59.062C59.2059 75.876 26.756 104.5 47.312 113.34C59.791 117.41 65.735 109.08 68.25 103.56H68.75L60.469 131.38L79.6559 131.31C79.6559 131.31 71.394 104.55 71.375 103.53H71.5619C73.5939 108.04 81.3019 117.37 89.7809 113.81C114.58 103.85 78.0729 75.527 69.7809 59.062V59.062ZM59.625 74.469H65.594L73.1559 88.719V74.469H78.25V95.25H72.25L64.688 81V95.25H59.625V74.469V74.469ZM66.188 98.125H66.7809V102.69H66.188V98.125ZM68.094 98.125H68.719V98.812H68.094V98.125ZM45.062 98.25C45.766 98.25 46.329 98.432 46.75 98.844C47.171 99.254 47.375 99.809 47.375 100.5C47.375 101.19 47.171 101.74 46.75 102.16C46.329 102.57 45.766 102.78 45.062 102.78C44.357 102.78 43.767 102.57 43.344 102.16C42.922 101.75 42.719 101.19 42.719 100.5C42.719 99.809 42.922 99.254 43.344 98.844C43.767 98.432 44.357 98.25 45.062 98.25ZM63.562 98.25C63.863 98.25 64.1419 98.273 64.4059 98.344C64.6729 98.412 64.9229 98.518 65.1559 98.656V99.281C64.9279 99.096 64.6659 98.967 64.4059 98.875C64.1489 98.783 63.885 98.719 63.594 98.719C63.02 98.719 62.5859 98.881 62.2809 99.188C61.9759 99.492 61.812 99.922 61.812 100.5C61.812 101.08 61.9759 101.54 62.2809 101.84C62.5859 102.15 63.02 102.28 63.594 102.28C63.885 102.28 64.1489 102.25 64.4059 102.16C64.6659 102.06 64.9279 101.94 65.1559 101.75V102.34C64.9189 102.48 64.6729 102.59 64.4059 102.66C64.1419 102.73 63.858 102.78 63.562 102.78C62.803 102.78 62.187 102.56 61.75 102.16C61.313 101.75 61.094 101.2 61.094 100.5C61.094 99.797 61.313 99.248 61.75 98.844C62.187 98.438 62.803 98.25 63.562 98.25V98.25ZM81.4059 98.469H82.0309V99.406H83.3119V99.844H82.0309V101.62C82.0309 101.89 82.0729 102.05 82.1559 102.12C82.2409 102.2 82.43 102.25 82.688 102.25H83.3119V102.69H82.688C82.21 102.69 81.869 102.62 81.688 102.47C81.506 102.31 81.4059 102.04 81.4059 101.62V99.844H80.969V99.406H81.4059V98.469ZM45.062 98.719C44.57 98.719 44.166 98.867 43.875 99.188C43.586 99.508 43.437 99.947 43.438 100.5C43.437 101.05 43.586 101.49 43.875 101.81C44.166 102.13 44.57 102.28 45.062 102.28C45.555 102.28 45.932 102.13 46.219 101.81C46.508 101.49 46.6559 101.05 46.6559 100.5C46.6559 99.947 46.508 99.508 46.219 99.188C45.932 98.867 45.555 98.719 45.062 98.719V98.719ZM50.219 99.344C50.676 99.344 51.028 99.496 51.312 99.812C51.599 100.13 51.75 100.55 51.75 101.06C51.75 101.58 51.599 102 51.312 102.31C51.028 102.63 50.676 102.78 50.219 102.78C49.943 102.78 49.699 102.72 49.5 102.62C49.303 102.53 49.13 102.38 49 102.19V103.94H48.375V99.406H49V99.906C49.13 99.711 49.303 99.563 49.5 99.469C49.699 99.373 49.943 99.344 50.219 99.344ZM54.344 99.344C54.85 99.344 55.269 99.465 55.562 99.75C55.858 100.03 56 100.42 56 100.91V101.19H53.1559C53.1829 101.56 53.3029 101.84 53.5309 102.03C53.7619 102.22 54.09 102.31 54.5 102.31C54.738 102.31 54.966 102.3 55.188 102.25C55.412 102.2 55.624 102.1 55.844 102V102.53C55.622 102.61 55.3889 102.68 55.1559 102.72C54.9229 102.76 54.709 102.78 54.469 102.78C53.868 102.78 53.3829 102.62 53.0309 102.31C52.6819 102.01 52.5 101.61 52.5 101.09C52.5 100.56 52.668 100.13 53 99.812C53.334 99.496 53.779 99.344 54.344 99.344V99.344ZM58.812 99.344C59.245 99.344 59.5589 99.453 59.7809 99.688C60.0029 99.92 60.125 100.27 60.125 100.72V102.69H59.5V100.72C59.5 100.41 59.451 100.19 59.312 100.03C59.174 99.877 58.965 99.813 58.688 99.812C58.354 99.813 58.068 99.908 57.875 100.09C57.682 100.28 57.594 100.52 57.594 100.84V102.69H56.969V99.406H57.594V99.906C57.742 99.709 57.926 99.566 58.125 99.469C58.327 99.371 58.55 99.344 58.812 99.344V99.344ZM71.8119 99.344C72.2699 99.344 72.6219 99.496 72.9059 99.812C73.1929 100.13 73.344 100.55 73.344 101.06C73.344 101.58 73.1929 102 72.9059 102.31C72.6219 102.63 72.2699 102.78 71.8119 102.78C71.5369 102.78 71.293 102.72 71.094 102.62C70.897 102.53 70.724 102.38 70.594 102.19V103.94H69.969V99.406H70.594V99.906C70.724 99.711 70.897 99.563 71.094 99.469C71.293 99.373 71.5369 99.344 71.8119 99.344ZM75.688 99.344C76.232 99.344 76.6369 99.441 76.9059 99.688C77.1749 99.934 77.3119 100.31 77.3119 100.81V102.69H76.688V102.19C76.546 102.39 76.3669 102.53 76.1559 102.62C75.9459 102.72 75.7109 102.78 75.4059 102.78C75.0209 102.78 74.697 102.69 74.469 102.5C74.242 102.31 74.125 102.07 74.125 101.75C74.125 101.38 74.2799 101.09 74.5619 100.91C74.8469 100.72 75.2499 100.62 75.8119 100.62H76.688V100.56C76.687 100.31 76.5939 100.13 76.4059 100C76.2199 99.863 75.963 99.781 75.625 99.781C75.41 99.781 75.204 99.799 75 99.844C74.796 99.889 74.5939 99.973 74.4059 100.06V99.562C74.6329 99.486 74.8499 99.412 75.0619 99.375C75.2749 99.336 75.486 99.344 75.688 99.344V99.344ZM80.469 99.344C80.511 99.344 80.542 99.338 80.594 99.344C80.645 99.348 80.7189 99.365 80.7809 99.375V99.906C80.7119 99.871 80.6449 99.859 80.5619 99.844C80.4819 99.826 80.3799 99.813 80.2809 99.812C79.9319 99.813 79.657 99.926 79.469 100.12C79.283 100.32 79.187 100.6 79.188 100.97V102.69H78.5619V99.406H79.188V99.906C79.317 99.707 79.51 99.564 79.719 99.469C79.927 99.371 80.171 99.344 80.469 99.344V99.344ZM87.7809 99.344C88.3189 99.344 88.7239 99.477 89.0309 99.781C89.3379 100.09 89.5 100.52 89.5 101.06C89.5 101.6 89.3379 102.01 89.0309 102.31C88.7239 102.62 88.3189 102.78 87.7809 102.78C87.2409 102.78 86.807 102.62 86.5 102.31C86.195 102.01 86.0619 101.6 86.0619 101.06C86.0629 100.52 86.195 100.09 86.5 99.781C86.807 99.477 87.2409 99.344 87.7809 99.344ZM92.4059 99.344C92.4489 99.344 92.4799 99.338 92.5309 99.344C92.5829 99.348 92.656 99.365 92.719 99.375V99.906C92.649 99.871 92.552 99.859 92.469 99.844C92.388 99.826 92.317 99.813 92.219 99.812C91.869 99.813 91.5939 99.926 91.4059 100.12C91.2199 100.32 91.125 100.6 91.125 100.97V102.69H90.5V99.406H91.125V99.906C91.255 99.707 91.417 99.564 91.625 99.469C91.833 99.371 92.1079 99.344 92.4059 99.344V99.344ZM94.5 99.344C94.778 99.344 95.019 99.373 95.219 99.469C95.418 99.564 95.591 99.713 95.719 99.906V99.406H96.3119V102.28C96.3119 102.84 96.1909 103.26 95.9059 103.53C95.6219 103.8 95.181 103.94 94.594 103.94C94.376 103.94 94.161 103.94 93.969 103.91C93.776 103.88 93.5879 103.84 93.4059 103.78V103.25C93.5879 103.34 93.76 103.4 93.938 103.44C94.115 103.48 94.316 103.5 94.5 103.5C94.906 103.5 95.2049 103.4 95.4059 103.22C95.6079 103.04 95.719 102.75 95.719 102.38V102.12C95.591 102.32 95.418 102.47 95.219 102.56C95.019 102.66 94.778 102.69 94.5 102.69C94.038 102.69 93.657 102.53 93.375 102.22C93.093 101.91 92.969 101.51 92.969 101C92.969 100.49 93.093 100.09 93.375 99.781C93.657 99.475 94.038 99.344 94.5 99.344V99.344ZM68.094 99.406H68.719V102.69H68.094V99.406ZM50.062 99.781C49.735 99.781 49.4689 99.898 49.2809 100.12C49.0949 100.35 49 100.67 49 101.06C49 101.46 49.0949 101.77 49.2809 102C49.4689 102.22 49.735 102.31 50.062 102.31C50.39 102.31 50.627 102.22 50.812 102C51.001 101.77 51.094 101.46 51.094 101.06C51.094 100.67 51.001 100.35 50.812 100.12C50.627 99.898 50.39 99.781 50.062 99.781ZM54.344 99.781C53.999 99.781 53.7399 99.861 53.5309 100.03C53.3249 100.2 53.1879 100.44 53.1559 100.75H55.375C55.371 100.46 55.28 100.24 55.094 100.06C54.91 99.887 54.649 99.781 54.344 99.781ZM71.6559 99.781C71.3289 99.781 71.063 99.898 70.875 100.12C70.689 100.35 70.594 100.67 70.594 101.06C70.594 101.46 70.689 101.77 70.875 102C71.063 102.22 71.3289 102.31 71.6559 102.31C71.9829 102.31 72.2199 102.22 72.4059 102C72.5939 101.77 72.687 101.46 72.688 101.06C72.687 100.67 72.5939 100.35 72.4059 100.12C72.2199 99.898 71.9829 99.781 71.6559 99.781ZM87.7809 99.781C87.4499 99.781 87.193 99.898 87 100.12C86.807 100.35 86.687 100.67 86.688 101.06C86.688 101.46 86.81 101.74 87 101.97C87.193 102.19 87.4469 102.31 87.7809 102.31C88.1109 102.31 88.3699 102.2 88.5619 101.97C88.7549 101.74 88.844 101.45 88.844 101.06C88.844 100.67 88.7549 100.35 88.5619 100.12C88.3699 99.896 88.1109 99.781 87.7809 99.781ZM94.6559 99.781C94.3249 99.781 94.061 99.879 93.875 100.09C93.691 100.31 93.594 100.61 93.594 101C93.594 101.39 93.691 101.69 93.875 101.91C94.061 102.12 94.3249 102.25 94.6559 102.25C94.9899 102.25 95.254 102.12 95.438 101.91C95.623 101.69 95.719 101.39 95.719 101C95.719 100.61 95.623 100.31 95.438 100.09C95.254 99.879 94.9899 99.781 94.6559 99.781ZM76.0619 101.03C75.5629 101.03 75.2239 101.09 75.0309 101.19C74.8389 101.29 74.75 101.45 74.75 101.69C74.75 101.88 74.825 102.04 74.969 102.16C75.114 102.27 75.3139 102.31 75.5619 102.31C75.9049 102.31 76.169 102.21 76.375 102C76.583 101.79 76.687 101.51 76.688 101.16V101.03H76.0619V101.03ZM84.219 101.94H84.938V102.69H84.219V101.94Z" fill="black"/>
</svg>
