<svg width="560" height="250" viewBox="0 0 560 250" fill="none" xmlns="http://www.w3.org/2000/svg">
<path d="M112.74 13.6301L483.545 26.5863C523.35 26.5863 555.281 42.2479 555.281 61.7726L532.448 172.29C532.448 191.815 506.985 205.99 467.182 205.99L386.151 206.684L405.216 247.651L285.522 207.476L161.991 209.161C122.186 209.161 70.5599 191.798 70.5599 172.274L34.4116 55.3304C34.4116 35.8055 72.9385 13.6297 112.741 13.6297L112.74 13.6301Z" fill="#CCCCCC" stroke="#CCCCCC" stroke-width="2" stroke-linecap="round" stroke-linejoin="round"/>
<path d="M83.072 2.32992L453.877 15.2862C493.681 15.2862 525.613 30.9479 525.613 50.4726L502.78 160.99C502.78 180.515 477.317 194.69 437.513 194.69L356.483 195.384L375.548 236.351L255.853 196.176L132.323 197.861C92.5179 197.861 40.8913 180.498 40.8913 160.974L4.74304 44.0304C4.74304 24.5054 43.27 2.3295 83.0728 2.3295L83.072 2.32992Z" fill="white" stroke="black" stroke-width="2" stroke-linecap="round" stroke-linejoin="round"/>
</svg>
