<svg width="288" height="105" viewBox="0 0 288 105" fill="none" xmlns="http://www.w3.org/2000/svg">
<g clip-path="url(#clip0)">
<path d="M57.9809 5.72465L248.68 11.1662C269.151 11.1662 285.573 17.7441 285.573 25.9445L273.83 72.3618C273.83 80.5623 260.735 86.5157 240.265 86.5157L198.592 86.8072L208.397 104.013L146.84 87.1399L83.3098 87.8476C62.8388 87.8476 36.288 80.5552 36.288 72.3549L17.6974 23.2388C17.6974 15.0383 37.5113 5.72447 57.9813 5.72447L57.9809 5.72465Z" fill="#CCCCCC" stroke="#CCCCCC" stroke-width="2" stroke-linecap="round" stroke-linejoin="round"/>
<path d="M42.7227 0.978573L233.422 6.42023C253.893 6.42023 270.315 12.9981 270.315 21.1985L258.572 67.6157C258.572 75.8162 245.477 81.7697 225.007 81.7697L183.334 82.0611L193.139 99.2672L131.582 82.3939L68.0517 83.1015C47.5806 83.1015 21.0298 75.8092 21.0298 67.6089L2.4393 18.4928C2.4393 10.2923 22.2531 0.978394 42.7232 0.978394L42.7227 0.978573Z" fill="white" stroke="black" stroke-width="2" stroke-linecap="round" stroke-linejoin="round"/>
</g>
<defs>
<clipPath id="clip0">
<rect width="288" height="105" fill="white"/>
</clipPath>
</defs>
</svg>
