<svg width="140" height="190" viewBox="0 0 140 190" fill="none" xmlns="http://www.w3.org/2000/svg">
<path d="M21 5H124C132.86 5 140 12.136 140 21V174C140 182.86 132.86 190 124 190H21C12.136 190 5 182.86 5 174V21C5 12.136 12.136 5 21 5Z" fill="black" fill-opacity="0.49804"/>
<path d="M17 1H120C128.86 1 136 8.136 136 17V170C136 178.86 128.86 186 120 186H17C8.136 186 1 178.86 1 170V17C1 8.136 8.136 1 17 1Z" fill="#E7E7E7"/>
<path d="M19 3H122C130.86 3 138 10.136 138 19V172C138 180.86 130.86 188 122 188H19C10.136 188 3 180.86 3 172V19C3 10.136 10.136 3 19 3Z" fill="#C7891F"/>
<path d="M18 2H121C129.86 2 137 9.136 137 18V171C137 179.86 129.86 187 121 187H18C9.136 187 2 179.86 2 171V18C2 9.136 9.136 2 18 2Z" fill="white"/>
<path d="M18.683 12.234H25.079V33.593C25.079 36.54 24.238 38.742 22.554 40.2C20.882 41.658 18.346 42.386 14.946 42.386H13.65V37.776H14.646C15.976 37.776 16.978 37.422 17.653 36.714C18.34 36.006 18.683 34.966 18.683 33.593V12.234" fill="black"/>
<path d="M120 177H113.6V155.64C113.6 152.69 114.44 150.49 116.13 149.03C117.8 147.58 120.33 146.85 123.73 146.85H125.03V151.46H124.03C122.7 151.46 121.7 151.81 121.03 152.52C120.34 153.23 120 154.27 120 155.64V177" fill="black"/>
<path fill-rule="evenodd" clip-rule="evenodd" d="M20.527 48.665C17.861 48.665 15.697 51.929 15.697 55.951C15.697 59.377 20.089 65.142 19.919 67.88C18.509 68.663 14.152 61.443 11.9 61.443C9.23351 61.443 7.07001 64.706 7.07001 68.728C7.07001 72.751 9.23351 76.014 11.9 76.014C14.212 76.014 18.176 68.8 19.919 69.451L16.99 82.325L24.014 82.283C24.014 82.283 20.937 69.802 20.933 69.507H20.988V69.521C22.695 68.881 26.794 76.153 29.09 76.153C31.757 76.153 33.92 72.89 33.92 68.867C33.92 64.845 31.757 61.582 29.09 61.582C26.848 61.582 22.782 68.682 20.997 67.95C21.022 65.144 25.357 59.373 25.357 55.951C25.357 51.929 23.194 48.665 20.527 48.665V48.665Z" fill="black"/>
<path fill-rule="evenodd" clip-rule="evenodd" d="M117.42 139.96C120.08 139.96 122.25 136.7 122.25 132.68C122.25 129.25 117.86 123.49 118.03 120.75C119.44 119.96 123.79 127.18 126.05 127.18C128.71 127.18 130.88 123.92 130.88 119.9C130.88 115.88 128.71 112.61 126.05 112.61C123.73 112.61 119.77 119.83 118.03 119.18L120.96 106.3L113.93 106.34C113.93 106.34 117.01 118.83 117.01 119.12H116.96V119.11C115.25 119.75 111.15 112.47 108.86 112.47C106.19 112.47 104.03 115.74 104.03 119.76C104.03 123.78 106.19 127.05 108.86 127.05C111.1 127.05 115.16 119.95 116.95 120.68C116.92 123.48 112.59 129.25 112.59 132.68C112.59 136.7 114.75 139.96 117.42 139.96V139.96Z" fill="black"/>
<path d="M67.892 54.313C61.92 58.087 54.422 51.148 50.439 59.193C46.944 63.975 57.969 65.366 51.009 69.617C46.252 74.741 46.532 76.997 50.639 77.624C49.457 83.288 50.319 92.795 52.914 97.98C49.702 101.88 52.109 100.54 56.466 101.36C55.112 103.51 55.89 111.41 51.259 113.84C48.928 120.87 50.676 128.49 50.134 135.75C61.409 140.5 74.759 141.04 85.537 138.51C90.275 137.52 95.682 137.14 94.728 130.38C95.011 121.95 96.01 110.86 86.818 106.55C81.445 105.79 79.653 102.16 83.777 96.996C86.84 88.638 90.217 92.135 94.921 90.021C99.822 88.71 87.919 85.482 89.491 80.044C87.969 75.79 86.108 70.786 83.061 67.333C90.74 66.643 91.563 58.635 85.322 57.001C79.135 52.879 75.484 59.915 70.777 54.626C69.997 54.613 68.674 54.122 67.892 54.313V54.313Z" fill="black"/>
<path d="M85.235 85.573C85.235 96.986 77.672 106.25 68.352 106.25C59.032 106.25 51.468 96.986 51.468 85.573C51.468 74.159 59.032 64.896 68.352 64.896C77.672 64.896 85.235 74.159 85.235 85.573V85.573Z" fill="url(#paint0_linear)"/>
<path d="M64.845 106.73C57.796 106.73 52.12 112.4 52.12 119.45V134.38C61.5 139.03 81.646 139.27 92.739 134.38V119.45C92.739 112.4 87.063 106.73 80.014 106.73H64.845V106.73Z" fill="url(#paint1_linear)"/>
<path fill-rule="evenodd" clip-rule="evenodd" d="M49.638 75.941C52.165 71.413 54.692 62.761 68.765 62.851C90.605 63.49 85.395 86.232 93.216 88.686C88.363 90.264 85.917 91.615 78.675 89.116C79.467 83.418 78.176 79.238 74.75 76.301C70.481 78.54 54.011 77.476 49.638 75.941V75.941Z" fill="#6D2B00"/>
<path d="M67.8141 85.771C67.8141 86.9331 66.451 87.8759 64.7721 87.8759C63.0931 87.8759 61.73 86.9331 61.73 85.771C61.73 84.6089 63.0931 83.6661 64.7721 83.6661C66.451 83.6661 67.8141 84.6089 67.8141 85.771Z" fill="white"/>
<path d="M65.2073 85.82C65.2073 86.7929 64.4284 87.5823 63.469 87.5823C62.5096 87.5823 61.7307 86.7929 61.7307 85.82C61.7307 84.8471 62.5096 84.0578 63.469 84.0578C64.4284 84.0578 65.2073 84.8471 65.2073 85.82Z" fill="#B67870"/>
<path d="M63.903 85.9669C63.903 86.7507 63.4161 87.3865 62.8165 87.3865C62.2169 87.3865 61.7301 86.7507 61.7301 85.9669C61.7301 85.1832 62.2169 84.5473 62.8165 84.5473C63.4161 84.5473 63.903 85.1832 63.903 85.9669Z" fill="black"/>
<path d="M57.7255 85.431C57.7255 86.5931 56.3624 87.5359 54.6835 87.5359C53.0046 87.5359 51.6414 86.5931 51.6414 85.431C51.6414 84.2689 53.0046 83.3261 54.6835 83.3261C56.3624 83.3261 57.7255 84.2689 57.7255 85.431Z" fill="white"/>
<path d="M55.1187 85.48C55.1187 86.4529 54.3398 87.2423 53.3804 87.2423C52.421 87.2423 51.6421 86.4529 51.6421 85.48C51.6421 84.5071 52.421 83.7178 53.3804 83.7178C54.3398 83.7178 55.1187 84.5071 55.1187 85.48Z" fill="#B67870"/>
<path d="M53.8144 85.6269C53.8144 86.4107 53.3276 87.0465 52.728 87.0465C52.1283 87.0465 51.6415 86.4107 51.6415 85.6269C51.6415 84.8432 52.1283 84.2073 52.728 84.2073C53.3276 84.2073 53.8144 84.8432 53.8144 85.6269Z" fill="black"/>
<path fill-rule="evenodd" clip-rule="evenodd" d="M56.801 98.955C58.65 102.58 63.702 100.9 68.529 98.955C63.205 99.514 59.536 99.924 56.801 98.955V98.955Z" fill="url(#paint2_linear)"/>
<path d="M78.943 122.61L80.206 122.73L81.578 137.24L78.112 137.71L78.943 122.61V122.61Z" fill="#B30D95"/>
<path fill-rule="evenodd" clip-rule="evenodd" d="M58.999 86.897C58.207 88.184 57.054 90.299 57.218 91.272C57.382 92.244 58.87 92.034 59.66 92.595L59.991 92.117C59.297 91.624 58.208 92.109 58.073 91.309C57.938 90.51 58.754 88.394 59.495 87.191L58.999 86.897Z" fill="black"/>
<path fill-rule="evenodd" clip-rule="evenodd" d="M60.293 94.55C56.489 94.928 54.16 97.851 52.232 99.97C52.232 99.97 58.469 96.514 60.433 96.584C60.293 96.093 60.503 95.462 60.293 94.55Z" fill="#6D2B00"/>
<path fill-rule="evenodd" clip-rule="evenodd" d="M61.161 94.405C64.543 94.751 71.007 97.375 71.307 99.865C71.307 99.865 63.422 95.647 61.568 96.302C61.555 95.791 61.233 95.338 61.161 94.405V94.405Z" fill="#6D2B00"/>
<path fill-rule="evenodd" clip-rule="evenodd" d="M58.633 108.4C62.266 119.62 67.337 129.35 73.095 137.94L76.781 137.83C71.043 128.62 65.056 118.23 61.63 107.02C61.63 107.02 59.594 107.64 58.633 108.4V108.4Z" fill="url(#paint3_linear)"/>
<path fill-rule="evenodd" clip-rule="evenodd" d="M56.051 104.88L55.801 115.13L65.114 109.44V110.88L68.801 111.19L68.739 109.26L80.864 114.69L79.614 102.63L68.926 108.07L68.676 106.26L64.926 106.01V107.94L56.051 104.88Z" fill="url(#paint4_linear)"/>
<path fill-rule="evenodd" clip-rule="evenodd" d="M55.857 64.782L55.319 67.382C62.986 69.611 73.227 69.259 82.081 68.301C82.063 67.942 81.732 65.782 81.732 65.782C73.211 66.657 62.315 66.595 55.857 64.782V64.782Z" fill="url(#paint5_linear)"/>
<path fill-rule="evenodd" clip-rule="evenodd" d="M68.107 66.345C96.627 70.178 91.586 52.949 69.669 58.72C48.523 51.261 43.44 68.553 68.107 66.345Z" fill="url(#paint6_linear)"/>
<path d="M72.479 57.9381C72.5017 58.1617 72.4224 58.385 72.246 58.5945C72.0695 58.8041 71.7996 58.9955 71.4524 59.1573C71.1051 59.3191 70.6879 59.4478 70.2259 59.5358C69.7638 59.6238 69.2665 59.6692 68.764 59.6692C68.2615 59.6692 67.7642 59.6238 67.3021 59.5358C66.8401 59.4478 66.4229 59.3191 66.0756 59.1573C65.7284 58.9955 65.4585 58.8041 65.282 58.5945C65.1056 58.385 65.0263 58.1617 65.049 57.9381C65.0263 57.7145 65.1056 57.4912 65.282 57.2817C65.4585 57.0721 65.7284 56.8807 66.0756 56.7189C66.4229 56.5571 66.8401 56.4284 67.3021 56.3404C67.7642 56.2524 68.2615 56.207 68.764 56.207C69.2665 56.207 69.7638 56.2524 70.2259 56.3404C70.6879 56.4284 71.1051 56.5571 71.4524 56.7189C71.7996 56.8807 72.0695 57.0721 72.246 57.2817C72.4224 57.4912 72.5017 57.7145 72.479 57.9381V57.9381Z" fill="url(#paint7_linear)"/>
<path d="M68.768 56.294C66.957 56.294 65.63 56.905 65.298 57.669C52.417 54.947 47.716 62.153 55.766 65.231L55.36 67.294C52.361 70.083 50.967 73.572 49.64 75.95C50.391 76.214 51.861 76.447 53.203 76.669C52.136 79.38 51.484 82.365 51.484 85.575C51.484 90.046 52.668 94.16 54.641 97.544C53.791 98.36 52.929 99.217 52.234 99.981C52.234 99.981 53.692 99.203 55.235 98.45C58.262 103.07 62.832 106.1 68.018 106.23L64.923 106.01V106.73H64.861C63.945 106.73 63.033 106.83 62.173 107.01L56.047 104.89L55.922 110.42C53.593 112.72 52.14 115.9 52.14 119.45V134.39C57.098 136.84 65.034 138 73.081 137.89C73.094 137.91 73.099 137.93 73.112 137.95L76.8 137.86C76.75 137.78 76.694 137.69 76.644 137.61C77.139 137.57 77.622 137.52 78.113 137.48V137.73L81.582 137.26V137.23C85.717 136.65 89.604 135.77 92.74 134.39V119.45C92.74 112.41 87.086 106.75 80.051 106.73L79.613 102.64L71.581 106.73H68.736L68.674 106.26H68.455C76.382 106.21 82.973 99.446 84.739 90.388C87.841 90.55 90.083 89.726 93.24 88.7C87.756 86.979 88.506 75.382 82.02 68.325C82.04 68.323 82.062 68.327 82.082 68.325C82.067 68.028 81.88 66.751 81.801 66.231C92.792 63.846 87.339 55.39 72.112 58.325C72.198 58.185 72.487 58.102 72.487 57.95C72.487 57.036 70.821 56.294 68.768 56.294Z" fill="url(#paint8_linear)"/>
<defs>
<linearGradient id="paint0_linear" x1="61.2535" y1="101.601" x2="77.8856" y2="71.3017" gradientUnits="userSpaceOnUse">
<stop stop-color="#FFD8C1"/>
<stop offset="1" stop-color="#FFEDED"/>
</linearGradient>
<linearGradient id="paint1_linear" x1="59.132" y1="135.523" x2="77.6635" y2="108.661" gradientUnits="userSpaceOnUse">
<stop stop-color="#FF44AB"/>
<stop offset="1" stop-color="#FF66CC"/>
</linearGradient>
<linearGradient id="paint2_linear" x1="60.0811" y1="101.727" x2="62.6654" y2="98.2232" gradientUnits="userSpaceOnUse">
<stop stop-color="#C10000"/>
<stop offset="1" stop-color="#FF433E"/>
</linearGradient>
<linearGradient id="paint3_linear" x1="65.399" y1="126.63" x2="69.559" y2="123.44" gradientUnits="userSpaceOnUse">
<stop stop-color="#F0EB00"/>
<stop offset="1" stop-color="#FFFF00"/>
</linearGradient>
<linearGradient id="paint4_linear" x1="58.682" y1="112.266" x2="72.754" y2="106.836" gradientUnits="userSpaceOnUse">
<stop stop-color="#0083CC"/>
<stop offset="1" stop-color="#24A4CC"/>
</linearGradient>
<linearGradient id="paint5_linear" x1="64.042" y1="67.7036" x2="72.362" y2="65.2656" gradientUnits="userSpaceOnUse">
<stop stop-color="#F0EB00"/>
<stop offset="1" stop-color="#FFFF00"/>
</linearGradient>
<linearGradient id="paint6_linear" x1="57.509" y1="65.4076" x2="81.149" y2="60.1716" gradientUnits="userSpaceOnUse">
<stop stop-color="#FF44AB"/>
<stop offset="1" stop-color="#FF66CC"/>
</linearGradient>
<linearGradient id="paint7_linear" x1="66.419" y1="59.0011" x2="71.169" y2="57.3131" gradientUnits="userSpaceOnUse">
<stop stop-color="#F0EB00"/>
<stop offset="1" stop-color="#FFFF00"/>
</linearGradient>
<linearGradient id="paint8_linear" x1="116.544" y1="49.4484" x2="83.507" y2="96.5868" gradientUnits="userSpaceOnUse">
<stop stop-color="white"/>
<stop offset="1" stop-color="white" stop-opacity="0"/>
</linearGradient>
</defs>
</svg>
