<svg width="140" height="190" viewBox="0 0 140 190" fill="none" xmlns="http://www.w3.org/2000/svg">
<path d="M21 5H124C132.86 5 140 12.136 140 21V174C140 182.86 132.86 190 124 190H21C12.136 190 5 182.86 5 174V21C5 12.136 12.136 5 21 5Z" fill="black" fill-opacity="0.49804"/>
<path d="M17 1H120C128.86 1 136 8.136 136 17V170C136 178.86 128.86 186 120 186H17C8.136 186 1 178.86 1 170V17C1 8.136 8.136 1 17 1Z" fill="#E7E7E7"/>
<path d="M19 3H122C130.86 3 138 10.136 138 19V172C138 180.86 130.86 188 122 188H19C10.136 188 3 180.86 3 172V19C3 10.136 10.136 3 19 3Z" fill="#C7891F"/>
<path d="M18 2H121C129.86 2 137 9.136 137 18V171C137 179.86 129.86 187 121 187H18C9.136 187 2 179.86 2 171V18C2 9.136 9.136 2 18 2Z" fill="white"/>
<path d="M18.683 12.234H25.079V33.593C25.079 36.54 24.238 38.742 22.554 40.2C20.882 41.658 18.346 42.386 14.946 42.386H13.65V37.776H14.646C15.976 37.776 16.978 37.422 17.653 36.714C18.34 36.006 18.683 34.966 18.683 33.593V12.234" fill="#FF0000"/>
<path d="M120 177H113.6V155.64C113.6 152.69 114.44 150.49 116.13 149.03C117.8 147.58 120.33 146.85 123.73 146.85H125.03V151.46H124.03C122.7 151.46 121.7 151.81 121.03 152.52C120.34 153.23 120 154.27 120 155.64V177" fill="#FF0000"/>
<path fill-rule="evenodd" clip-rule="evenodd" d="M20.4099 48.665C16.2839 56.91 13.2749 61.163 7.06995 65.705C12.9419 70.192 17.0829 74.829 20.5299 82.325C23.6089 75.204 27.3769 69.895 33.9199 65.482C27.3379 62.133 23.5269 56.828 20.4099 48.665V48.665Z" fill="#FF0000"/>
<path fill-rule="evenodd" clip-rule="evenodd" d="M118.34 106.34C114.21 114.59 111.21 118.84 105 123.38C110.87 127.87 115.01 132.5 118.46 140C121.54 132.88 125.31 127.57 131.85 123.16C125.27 119.81 121.46 114.5 118.34 106.34V106.34Z" fill="#FF0000"/>
<path d="M67.893 54.31C61.923 58.09 54.4231 51.15 50.4431 59.19C46.9431 63.97 57.973 65.37 51.013 69.62C46.253 74.74 46.533 77 50.643 77.62C49.453 83.29 50.3231 92.8 52.9131 97.98C49.7031 101.88 52.1131 100.54 56.4631 101.36C55.1131 103.51 55.893 111.41 51.263 113.84C48.933 120.87 50.6731 128.49 50.1331 135.75C61.4131 140.5 74.763 141.04 85.533 138.51C90.273 137.52 95.683 137.14 94.733 130.38C95.013 121.95 96.0131 110.86 86.8231 106.55C81.4431 105.79 79.6531 102.16 83.7731 97C86.8431 88.64 90.213 92.13 94.923 90.02C99.823 88.71 87.9231 85.48 89.4931 80.04C87.9731 75.79 86.113 70.79 83.063 67.33C90.743 66.64 91.5631 58.64 85.3231 57C79.1331 52.88 75.4831 59.91 70.7731 54.63C69.9931 54.61 68.673 54.12 67.893 54.31Z" fill="black"/>
<path d="M85.233 85.57C85.233 96.99 77.673 106.25 68.353 106.25C59.033 106.25 51.473 96.99 51.473 85.57C51.473 74.16 59.033 64.9 68.353 64.9C77.673 64.9 85.233 74.16 85.233 85.57Z" fill="url(#paint0_linear)"/>
<path d="M64.843 106.73C57.793 106.73 52.123 112.4 52.123 119.45V134.38C61.503 139.03 81.6431 139.27 92.7431 134.38V119.45C92.7431 112.4 87.063 106.73 80.013 106.73H64.843V106.73Z" fill="url(#paint1_linear)"/>
<path fill-rule="evenodd" clip-rule="evenodd" d="M49.6431 75.94C52.1631 71.41 54.6931 62.76 68.7631 62.85C90.6031 63.49 85.3931 86.23 93.2131 88.69C88.3631 90.26 85.9131 91.61 78.6731 89.12C79.4631 83.42 78.1731 79.24 74.7531 76.3C70.4831 78.54 54.0131 77.48 49.6431 75.94V75.94Z" fill="url(#paint2_linear)"/>
<path d="M67.8142 85.773C67.8142 86.9351 66.4511 87.8779 64.7722 87.8779C63.0932 87.8779 61.7301 86.9351 61.7301 85.773C61.7301 84.6109 63.0932 83.6681 64.7722 83.6681C66.4511 83.6681 67.8142 84.6109 67.8142 85.773Z" fill="white"/>
<path d="M65.2075 85.822C65.2075 86.7949 64.4285 87.5843 63.4692 87.5843C62.5098 87.5843 61.7308 86.7949 61.7308 85.822C61.7308 84.8491 62.5098 84.0597 63.4692 84.0597C64.4285 84.0597 65.2075 84.8491 65.2075 85.822Z" fill="#0F90CC"/>
<path d="M63.9031 85.9689C63.9031 86.7526 63.4163 87.3885 62.8167 87.3885C62.2171 87.3885 61.7302 86.7526 61.7302 85.9689C61.7302 85.1851 62.2171 84.5493 62.8167 84.5493C63.4163 84.5493 63.9031 85.1851 63.9031 85.9689Z" fill="black"/>
<path d="M57.7262 85.433C57.7262 86.5951 56.3631 87.5379 54.6841 87.5379C53.0052 87.5379 51.6421 86.5951 51.6421 85.433C51.6421 84.2709 53.0052 83.3281 54.6841 83.3281C56.3631 83.3281 57.7262 84.2709 57.7262 85.433Z" fill="white"/>
<path d="M55.1195 85.482C55.1195 86.4549 54.3405 87.2443 53.3811 87.2443C52.4218 87.2443 51.6428 86.4549 51.6428 85.482C51.6428 84.5091 52.4218 83.7197 53.3811 83.7197C54.3405 83.7197 55.1195 84.5091 55.1195 85.482Z" fill="#0F90CC"/>
<path d="M53.8151 85.6289C53.8151 86.4127 53.3283 87.0485 52.7287 87.0485C52.129 87.0485 51.6422 86.4127 51.6422 85.6289C51.6422 84.8452 52.129 84.2093 52.7287 84.2093C53.3283 84.2093 53.8151 84.8452 53.8151 85.6289Z" fill="black"/>
<path fill-rule="evenodd" clip-rule="evenodd" d="M56.8031 98.95C58.6531 102.58 63.7031 100.9 68.5331 98.95C63.2031 99.51 59.5331 99.92 56.8031 98.95Z" fill="url(#paint3_linear)"/>
<path d="M78.943 122.61L80.203 122.73L81.573 137.24L78.113 137.71L78.943 122.61Z" fill="#004CB0"/>
<path fill-rule="evenodd" clip-rule="evenodd" d="M59.0031 86.9C58.2031 88.18 57.0531 90.3 57.2231 91.27C57.3831 92.24 58.8731 92.03 59.6631 92.59L59.9931 92.12C59.2931 91.62 58.2131 92.11 58.0731 91.31C57.9431 90.51 58.7531 88.39 59.4931 87.19L59.0031 86.9Z" fill="black"/>
<path fill-rule="evenodd" clip-rule="evenodd" d="M60.293 94.55C56.493 94.93 54.163 97.85 52.233 99.97C52.233 99.97 58.473 96.51 60.433 96.58C60.293 96.09 60.503 95.46 60.293 94.55Z" fill="url(#paint4_linear)"/>
<path fill-rule="evenodd" clip-rule="evenodd" d="M61.1631 94.41C64.5431 94.75 71.0031 97.38 71.3031 99.86C71.3031 99.86 63.4231 95.65 61.5731 96.3C61.5531 95.79 61.2331 95.34 61.1631 94.41Z" fill="url(#paint5_linear)"/>
<path fill-rule="evenodd" clip-rule="evenodd" d="M58.6331 108.4C62.2631 119.62 67.333 129.35 73.093 137.94L76.7831 137.83C71.0431 128.62 65.0531 118.23 61.6331 107.02C61.6331 107.02 59.5931 107.64 58.6331 108.4V108.4Z" fill="url(#paint6_linear)"/>
<path fill-rule="evenodd" clip-rule="evenodd" d="M56.0531 104.88L55.8031 115.13L65.1131 109.44V110.88L68.8031 111.19L68.7431 109.26L80.8631 114.69L79.6131 102.63L68.9231 108.07L68.6731 106.26L64.9231 106.01V107.94L56.0531 104.88Z" fill="url(#paint7_linear)"/>
<path fill-rule="evenodd" clip-rule="evenodd" d="M55.853 64.78L55.323 67.38C62.983 69.61 73.223 69.26 82.083 68.3C82.063 67.94 81.733 65.78 81.733 65.78C73.213 66.66 62.313 66.59 55.853 64.78V64.78Z" fill="url(#paint8_linear)"/>
<path fill-rule="evenodd" clip-rule="evenodd" d="M68.103 66.34C96.623 70.18 91.583 52.95 69.673 58.72C48.523 51.26 43.443 68.55 68.103 66.34Z" fill="url(#paint9_linear)"/>
<path d="M72.4791 57.938C72.5018 58.1616 72.4225 58.3849 72.2461 58.5944C72.0696 58.804 71.7997 58.9954 71.4524 59.1572C71.1052 59.319 70.688 59.4477 70.226 59.5357C69.7639 59.6237 69.2666 59.6691 68.7641 59.6691C68.2616 59.6691 67.7643 59.6237 67.3022 59.5357C66.8402 59.4477 66.4229 59.319 66.0757 59.1572C65.7285 58.9954 65.4586 58.804 65.2821 58.5944C65.1056 58.3849 65.0264 58.1616 65.0491 57.938C65.0264 57.7144 65.1056 57.4911 65.2821 57.2816C65.4586 57.072 65.7285 56.8806 66.0757 56.7188C66.4229 56.557 66.8402 56.4283 67.3022 56.3403C67.7643 56.2523 68.2616 56.2069 68.7641 56.2069C69.2666 56.2069 69.7639 56.2523 70.226 56.3403C70.688 56.4283 71.1052 56.557 71.4524 56.7188C71.7997 56.8806 72.0696 57.072 72.2461 57.2816C72.4225 57.4911 72.5018 57.7144 72.4791 57.938V57.938Z" fill="url(#paint10_linear)"/>
<path d="M68.7631 56.29C66.9531 56.29 65.6231 56.91 65.2931 57.67C52.4131 54.95 47.7131 62.15 55.7631 65.23L55.3531 67.29C52.3631 70.08 50.9631 73.57 49.6431 75.95C50.3931 76.21 51.8631 76.45 53.2031 76.67C52.1331 79.38 51.4831 82.37 51.4831 85.57C51.4831 90.05 52.6631 94.16 54.6431 97.54C53.7931 98.36 52.9231 99.22 52.2331 99.98C52.2331 99.98 53.6931 99.2 55.2331 98.45C58.2631 103.07 62.8331 106.1 68.0131 106.23L64.9231 106.01V106.73H64.8631C63.9431 106.73 63.0331 106.83 62.1731 107.01L56.0431 104.89L55.9231 110.42C53.5931 112.72 52.1431 115.9 52.1431 119.45V134.39C57.0931 136.84 65.0331 138 73.0831 137.89C73.0931 137.91 73.0931 137.93 73.1131 137.95L76.8031 137.86C76.7531 137.78 76.6931 137.69 76.6431 137.61C77.1331 137.57 77.6231 137.52 78.1131 137.48V137.73L81.5831 137.26V137.23C85.7131 136.65 89.6031 135.77 92.7331 134.39V119.45C92.7331 112.41 87.0831 106.75 80.0531 106.73L79.6131 102.64L71.5831 106.73H68.7331L68.6731 106.26H68.4531C76.3831 106.21 82.9731 99.45 84.7331 90.39C87.8431 90.55 90.0831 89.73 93.2431 88.7C87.7531 86.98 88.5031 75.38 82.0131 68.33C82.0331 68.32 82.0631 68.33 82.0831 68.33C82.0631 68.03 81.8731 66.75 81.8031 66.23C92.7931 63.85 87.3331 55.39 72.1131 58.33C72.1931 58.18 72.4831 58.1 72.4831 57.95C72.4831 57.04 70.8231 56.29 68.7631 56.29V56.29Z" fill="url(#paint11_linear)"/>
<defs>
<linearGradient id="paint0_linear" x1="61.2541" y1="101.606" x2="77.8862" y2="71.3067" gradientUnits="userSpaceOnUse">
<stop stop-color="#FFD8C1"/>
<stop offset="1" stop-color="#FFEDED"/>
</linearGradient>
<linearGradient id="paint1_linear" x1="62.8897" y1="128.513" x2="84.6666" y2="110.405" gradientUnits="userSpaceOnUse">
<stop stop-color="#0083CC"/>
<stop offset="1" stop-color="#24A4CC"/>
</linearGradient>
<linearGradient id="paint2_linear" x1="60.2021" y1="86.8293" x2="79.7637" y2="60.6732" gradientUnits="userSpaceOnUse">
<stop stop-color="#F0A700"/>
<stop offset="1" stop-color="#FFED00"/>
</linearGradient>
<linearGradient id="paint3_linear" x1="60.0822" y1="101.729" x2="62.6665" y2="98.2252" gradientUnits="userSpaceOnUse">
<stop stop-color="#C10000"/>
<stop offset="1" stop-color="#FF433E"/>
</linearGradient>
<linearGradient id="paint4_linear" x1="54.4316" y1="99.0001" x2="57.0382" y2="94.3438" gradientUnits="userSpaceOnUse">
<stop stop-color="#F0A700"/>
<stop offset="1" stop-color="#FFED00"/>
</linearGradient>
<linearGradient id="paint5_linear" x1="65.4212" y1="98.7575" x2="66.9682" y2="95.1161" gradientUnits="userSpaceOnUse">
<stop stop-color="#F0A700"/>
<stop offset="1" stop-color="#FFED00"/>
</linearGradient>
<linearGradient id="paint6_linear" x1="65.3991" y1="126.63" x2="69.5591" y2="123.44" gradientUnits="userSpaceOnUse">
<stop stop-color="#F0EB00"/>
<stop offset="1" stop-color="#FFFF00"/>
</linearGradient>
<linearGradient id="paint7_linear" x1="58.6821" y1="112.266" x2="72.7541" y2="106.836" gradientUnits="userSpaceOnUse">
<stop stop-color="#008200"/>
<stop offset="1" stop-color="#00D000"/>
</linearGradient>
<linearGradient id="paint8_linear" x1="64.042" y1="67.704" x2="72.362" y2="65.266" gradientUnits="userSpaceOnUse">
<stop stop-color="#F0EB00"/>
<stop offset="1" stop-color="#FFFF00"/>
</linearGradient>
<linearGradient id="paint9_linear" x1="57.509" y1="65.408" x2="81.149" y2="60.172" gradientUnits="userSpaceOnUse">
<stop stop-color="#0083CC"/>
<stop offset="1" stop-color="#24A4CC"/>
</linearGradient>
<linearGradient id="paint10_linear" x1="66.4191" y1="59.001" x2="71.1691" y2="57.313" gradientUnits="userSpaceOnUse">
<stop stop-color="#F0EB00"/>
<stop offset="1" stop-color="#FFFF00"/>
</linearGradient>
<linearGradient id="paint11_linear" x1="116.541" y1="49.4514" x2="83.5046" y2="96.5898" gradientUnits="userSpaceOnUse">
<stop stop-color="white"/>
<stop offset="1" stop-color="white" stop-opacity="0"/>
</linearGradient>
</defs>
</svg>
