<svg width="140" height="190" viewBox="0 0 140 190" fill="none" xmlns="http://www.w3.org/2000/svg">
<path d="M21 5H124C132.86 5 140 12.136 140 21V174C140 182.86 132.86 190 124 190H21C12.136 190 5 182.86 5 174V21C5 12.136 12.136 5 21 5Z" fill="black" fill-opacity="0.49804"/>
<path d="M17 1H120C128.86 1 136 8.136 136 17V170C136 178.86 128.86 186 120 186H17C8.136 186 1 178.86 1 170V17C1 8.136 8.136 1 17 1Z" fill="#E7E7E7"/>
<path d="M19 3H122C130.86 3 138 10.136 138 19V172C138 180.86 130.86 188 122 188H19C10.136 188 3 180.86 3 172V19C3 10.136 10.136 3 19 3Z" fill="#C7891F"/>
<path d="M18 2H121C129.86 2 137 9.136 137 18V171C137 179.86 129.86 187 121 187H18C9.136 187 2 179.86 2 171V18C2 9.136 9.136 2 18 2Z" fill="white"/>
<path d="M18.924 11.994H25.32V33.352C25.32 36.299 24.478 38.502 22.795 39.96C21.122 41.417 18.586 42.146 15.186 42.146H13.89V37.535H14.887C16.216 37.535 17.218 37.181 17.894 36.474C18.58 35.766 18.924 34.726 18.924 33.352V11.994" fill="#FF0000"/>
<path fill-rule="evenodd" clip-rule="evenodd" d="M13.5543 48.8447C12.7502 48.8489 11.867 49.0461 10.8919 49.4868C0.248669 57.6839 14.5959 70.9091 20.6551 82.2625L20.8324 82.3212C27.49 69.9102 40.1657 56.2527 30.4785 49.4868C22.8078 46.0242 20.7564 57.5454 20.6868 57.9609C20.6235 57.5958 19.0564 48.8069 13.5543 48.8447Z" fill="#FF0000"/>
<path d="M119.94 177.01H113.55V155.65C113.55 152.7 114.39 150.5 116.07 149.04C117.74 147.58 120.28 146.85 123.68 146.85H124.98V151.46H123.98C122.65 151.46 121.65 151.82 120.97 152.53C120.29 153.23 119.94 154.27 119.94 155.65V177.01" fill="#FF0000"/>
<path fill-rule="evenodd" clip-rule="evenodd" d="M125.312 139.993C126.116 139.989 126.999 139.791 127.974 139.351C138.619 131.154 124.27 117.928 118.21 106.575L118.032 106.516C111.374 118.927 98.6965 132.585 108.385 139.351C116.057 142.813 118.108 131.292 118.178 130.877C118.241 131.242 119.809 140.031 125.312 139.993Z" fill="#FF0000"/>
<path d="M67.892 54.313C61.92 58.087 54.422 51.148 50.439 59.193C46.944 63.975 57.969 65.366 51.009 69.617C46.252 74.741 46.532 76.997 50.639 77.624C49.457 83.288 50.319 92.795 52.914 97.98C49.702 101.88 52.109 100.54 56.466 101.36C55.112 103.51 55.89 111.41 51.259 113.84C48.928 120.87 50.676 128.49 50.134 135.75C61.409 140.5 74.759 141.04 85.537 138.51C90.275 137.52 95.682 137.14 94.728 130.38C95.011 121.95 96.01 110.86 86.818 106.55C81.444 105.79 79.653 102.16 83.777 96.996C86.84 88.638 90.217 92.135 94.921 90.021C99.822 88.71 87.919 85.482 89.491 80.044C87.969 75.79 86.108 70.786 83.061 67.333C90.74 66.643 91.563 58.635 85.321 57.001C79.135 52.879 75.484 59.915 70.777 54.626C69.997 54.613 68.674 54.122 67.892 54.313V54.313Z" fill="black"/>
<path d="M85.235 85.573C85.235 96.986 77.671 106.25 68.352 106.25C59.032 106.25 51.468 96.986 51.468 85.573C51.468 74.159 59.032 64.896 68.352 64.896C77.671 64.896 85.235 74.159 85.235 85.573V85.573Z" fill="url(#paint0_linear)"/>
<path d="M64.845 106.73C57.796 106.73 52.12 112.4 52.12 119.45V134.38C61.5 139.03 81.646 139.27 92.739 134.38V119.45C92.739 112.4 87.063 106.73 80.014 106.73H64.845V106.73Z" fill="url(#paint1_linear)"/>
<path fill-rule="evenodd" clip-rule="evenodd" d="M49.6379 75.941C52.1649 71.413 54.6919 62.761 68.7649 62.851C90.6049 63.49 85.3949 86.232 93.2159 88.686C88.3629 90.264 85.9169 91.615 78.6749 89.116C79.4669 83.418 78.1749 79.238 74.7499 76.301C70.4809 78.54 54.0109 77.476 49.6379 75.941V75.941Z" fill="#8D0000"/>
<path d="M67.8141 85.771C67.8141 86.9331 66.451 87.8759 64.772 87.8759C63.0931 87.8759 61.73 86.9331 61.73 85.771C61.73 84.6089 63.0931 83.6661 64.772 83.6661C66.451 83.6661 67.8141 84.6089 67.8141 85.771Z" fill="white"/>
<path d="M65.2074 85.82C65.2074 86.7929 64.4284 87.5823 63.469 87.5823C62.5096 87.5823 61.7307 86.7929 61.7307 85.82C61.7307 84.8471 62.5096 84.0578 63.469 84.0578C64.4284 84.0578 65.2074 84.8471 65.2074 85.82Z" fill="#04CD04"/>
<path d="M63.903 85.9669C63.903 86.7507 63.4162 87.3865 62.8165 87.3865C62.2169 87.3865 61.7301 86.7507 61.7301 85.9669C61.7301 85.1832 62.2169 84.5473 62.8165 84.5473C63.4162 84.5473 63.903 85.1832 63.903 85.9669Z" fill="black"/>
<path d="M57.7255 85.431C57.7255 86.5931 56.3623 87.5359 54.6834 87.5359C53.0045 87.5359 51.6414 86.5931 51.6414 85.431C51.6414 84.2689 53.0045 83.3261 54.6834 83.3261C56.3623 83.3261 57.7255 84.2689 57.7255 85.431Z" fill="white"/>
<path d="M55.1187 85.48C55.1187 86.4529 54.3398 87.2423 53.3804 87.2423C52.421 87.2423 51.6421 86.4529 51.6421 85.48C51.6421 84.5071 52.421 83.7178 53.3804 83.7178C54.3398 83.7178 55.1187 84.5071 55.1187 85.48Z" fill="#0ECF0E"/>
<path d="M53.8144 85.6269C53.8144 86.4107 53.3275 87.0465 52.7279 87.0465C52.1283 87.0465 51.6415 86.4107 51.6415 85.6269C51.6415 84.8432 52.1283 84.2073 52.7279 84.2073C53.3275 84.2073 53.8144 84.8432 53.8144 85.6269Z" fill="black"/>
<path fill-rule="evenodd" clip-rule="evenodd" d="M56.801 98.955C58.65 102.58 63.702 100.9 68.529 98.955C63.205 99.514 59.536 99.924 56.801 98.955V98.955Z" fill="url(#paint2_linear)"/>
<path d="M78.9419 122.61L80.2059 122.73L81.5769 137.24L78.1119 137.71L78.9419 122.61V122.61Z" fill="#005A00"/>
<path fill-rule="evenodd" clip-rule="evenodd" d="M58.999 86.897C58.207 88.184 57.054 90.299 57.218 91.272C57.382 92.244 58.87 92.034 59.66 92.595L59.991 92.117C59.296 91.624 58.208 92.109 58.073 91.309C57.938 90.51 58.754 88.394 59.495 87.191L58.999 86.897Z" fill="black"/>
<path fill-rule="evenodd" clip-rule="evenodd" d="M60.2929 94.55C56.4889 94.928 54.1589 97.851 52.2319 99.97C52.2319 99.97 58.4689 96.514 60.4329 96.584C60.2929 96.093 60.5029 95.462 60.2929 94.55Z" fill="#8D0000"/>
<path fill-rule="evenodd" clip-rule="evenodd" d="M61.161 94.405C64.543 94.751 71.007 97.375 71.307 99.865C71.307 99.865 63.422 95.647 61.568 96.302C61.555 95.791 61.233 95.338 61.161 94.405V94.405Z" fill="#8D0000"/>
<path fill-rule="evenodd" clip-rule="evenodd" d="M58.6329 108.4C62.2659 119.62 67.3369 129.35 73.0949 137.94L76.7809 137.83C71.0429 128.62 65.0559 118.23 61.6299 107.02C61.6299 107.02 59.5939 107.64 58.6329 108.4V108.4Z" fill="url(#paint3_linear)"/>
<path fill-rule="evenodd" clip-rule="evenodd" d="M56.051 104.88L55.801 115.13L65.114 109.44V110.88L68.801 111.19L68.739 109.26L80.863 114.69L79.613 102.63L68.926 108.07L68.676 106.26L64.926 106.01V107.94L56.051 104.88Z" fill="url(#paint4_linear)"/>
<path fill-rule="evenodd" clip-rule="evenodd" d="M55.856 64.782L55.319 67.382C62.986 69.611 73.227 69.259 82.081 68.301C82.063 67.942 81.731 65.782 81.731 65.782C73.211 66.657 62.315 66.595 55.856 64.782V64.782Z" fill="url(#paint5_linear)"/>
<path fill-rule="evenodd" clip-rule="evenodd" d="M68.1059 66.345C96.6269 70.178 91.5859 52.949 69.6689 58.72C48.5229 51.261 43.4399 68.553 68.1059 66.345Z" fill="url(#paint6_linear)"/>
<path d="M72.479 57.9381C72.5017 58.1617 72.4224 58.385 72.246 58.5945C72.0695 58.8041 71.7995 58.9955 71.4523 59.1573C71.1051 59.3191 70.6879 59.4478 70.2258 59.5358C69.7638 59.6238 69.2665 59.6692 68.764 59.6692C68.2615 59.6692 67.7642 59.6238 67.3021 59.5358C66.84 59.4478 66.4228 59.3191 66.0756 59.1573C65.7284 58.9955 65.4584 58.8041 65.282 58.5945C65.1055 58.385 65.0263 58.1617 65.049 57.9381C65.0263 57.7145 65.1055 57.4912 65.282 57.2817C65.4584 57.0721 65.7284 56.8807 66.0756 56.7189C66.4228 56.5571 66.84 56.4284 67.3021 56.3404C67.7642 56.2524 68.2615 56.207 68.764 56.207C69.2665 56.207 69.7638 56.2524 70.2258 56.3404C70.6879 56.4284 71.1051 56.5571 71.4523 56.7189C71.7995 56.8807 72.0695 57.0721 72.246 57.2817C72.4224 57.4912 72.5017 57.7145 72.479 57.9381V57.9381Z" fill="url(#paint7_linear)"/>
<path d="M68.768 56.294C66.957 56.294 65.63 56.905 65.298 57.669C52.417 54.947 47.716 62.153 55.766 65.231L55.36 67.294C52.361 70.083 50.967 73.572 49.64 75.95C50.391 76.214 51.861 76.447 53.203 76.669C52.136 79.38 51.484 82.365 51.484 85.575C51.484 90.046 52.668 94.16 54.641 97.544C53.791 98.36 52.929 99.217 52.234 99.981C52.234 99.981 53.692 99.203 55.235 98.45C58.262 103.07 62.832 106.1 68.018 106.23L64.923 106.01V106.73H64.861C63.945 106.73 63.033 106.83 62.173 107.01L56.047 104.89L55.922 110.42C53.593 112.72 52.14 115.9 52.14 119.45V134.39C57.098 136.84 65.034 138 73.081 137.89C73.094 137.91 73.099 137.93 73.112 137.95L76.8 137.86C76.75 137.78 76.694 137.69 76.644 137.61C77.139 137.57 77.621 137.52 78.113 137.48V137.73L81.582 137.26V137.23C85.717 136.65 89.604 135.77 92.74 134.39V119.45C92.74 112.41 87.086 106.75 80.051 106.73L79.613 102.64L71.581 106.73H68.736L68.674 106.26H68.455C76.381 106.21 82.973 99.446 84.739 90.388C87.841 90.55 90.083 89.726 93.24 88.7C87.756 86.979 88.506 75.382 82.02 68.325C82.04 68.323 82.062 68.327 82.082 68.325C82.067 68.028 81.88 66.751 81.801 66.231C92.792 63.846 87.339 55.39 72.112 58.325C72.198 58.185 72.487 58.102 72.487 57.95C72.487 57.036 70.821 56.294 68.768 56.294Z" fill="url(#paint8_linear)"/>
<defs>
<linearGradient id="paint0_linear" x1="61.2536" y1="101.601" x2="77.8857" y2="71.3017" gradientUnits="userSpaceOnUse">
<stop stop-color="#FFD8C1"/>
<stop offset="1" stop-color="#FFEDED"/>
</linearGradient>
<linearGradient id="paint1_linear" x1="62.8887" y1="128.508" x2="84.6655" y2="110.4" gradientUnits="userSpaceOnUse">
<stop stop-color="#008200"/>
<stop offset="1" stop-color="#00D000"/>
</linearGradient>
<linearGradient id="paint2_linear" x1="60.0811" y1="101.727" x2="62.6654" y2="98.2232" gradientUnits="userSpaceOnUse">
<stop stop-color="#C10000"/>
<stop offset="1" stop-color="#FF433E"/>
</linearGradient>
<linearGradient id="paint3_linear" x1="65.3989" y1="126.63" x2="69.5589" y2="123.44" gradientUnits="userSpaceOnUse">
<stop stop-color="#F0EB00"/>
<stop offset="1" stop-color="#FFFF00"/>
</linearGradient>
<linearGradient id="paint4_linear" x1="61.243" y1="112.59" x2="67.553" y2="108.98" gradientUnits="userSpaceOnUse">
<stop stop-color="#0083CC"/>
<stop offset="1" stop-color="#24A4CC"/>
</linearGradient>
<linearGradient id="paint5_linear" x1="64.042" y1="67.7036" x2="72.362" y2="65.2656" gradientUnits="userSpaceOnUse">
<stop stop-color="#F0EB00"/>
<stop offset="1" stop-color="#FFFF00"/>
</linearGradient>
<linearGradient id="paint6_linear" x1="57.5089" y1="65.4076" x2="81.1489" y2="60.1716" gradientUnits="userSpaceOnUse">
<stop stop-color="#008200"/>
<stop offset="1" stop-color="#00D000"/>
</linearGradient>
<linearGradient id="paint7_linear" x1="66.419" y1="59.0011" x2="71.169" y2="57.3131" gradientUnits="userSpaceOnUse">
<stop stop-color="#F0EB00"/>
<stop offset="1" stop-color="#FFFF00"/>
</linearGradient>
<linearGradient id="paint8_linear" x1="116.544" y1="49.4484" x2="83.5071" y2="96.5868" gradientUnits="userSpaceOnUse">
<stop stop-color="white"/>
<stop offset="1" stop-color="white" stop-opacity="0"/>
</linearGradient>
</defs>
</svg>
