<svg width="140" height="190" viewBox="0 0 140 190" fill="none" xmlns="http://www.w3.org/2000/svg">
<path d="M21 5H124C132.86 5 140 12.136 140 21V174C140 182.86 132.86 190 124 190H21C12.136 190 5 182.86 5 174V21C5 12.136 12.136 5 21 5Z" fill="black" fill-opacity="0.49804"/>
<path d="M17 1H120C128.86 1 136 8.136 136 17V170C136 178.86 128.86 186 120 186H17C8.136 186 1 178.86 1 170V17C1 8.136 8.136 1 17 1Z" fill="#E7E7E7"/>
<path d="M19 3H122C130.86 3 138 10.136 138 19V172C138 180.86 130.86 188 122 188H19C10.136 188 3 180.86 3 172V19C3 10.136 10.136 3 19 3Z" fill="#C7891F"/>
<path d="M18 2H121C129.86 2 137 9.136 137 18V171C137 179.86 129.86 187 121 187H18C9.136 187 2 179.86 2 171V18C2 9.136 9.136 2 18 2Z" fill="white"/>
<path fill-rule="evenodd" clip-rule="evenodd" d="M20.645 48.665C15.72 56.49 0.609997 69.814 10.182 73.928C15.993 75.822 18.758 71.945 19.929 69.379H20.164L16.305 82.325L25.242 82.287C25.242 82.287 21.392 69.842 21.383 69.366H21.477C22.423 71.463 26.013 75.805 29.961 74.151C41.507 69.516 24.506 56.327 20.645 48.665V48.665Z" fill="black"/>
<path d="M18.683 12.234H25.079V33.593C25.079 36.54 24.238 38.742 22.554 40.2C20.882 41.658 18.346 42.386 14.946 42.386H13.65V37.776H14.646C15.976 37.776 16.978 37.422 17.653 36.714C18.34 36.006 18.683 34.966 18.683 33.593V12.234" fill="black"/>
<path fill-rule="evenodd" clip-rule="evenodd" d="M118.04 140C122.96 132.18 138.07 118.85 128.5 114.74C122.69 112.84 119.92 116.72 118.75 119.29H118.52L122.38 106.34L113.44 106.38C113.44 106.38 117.29 118.82 117.3 119.3H117.2C116.26 117.2 112.67 112.86 108.72 114.51C97.173 119.15 114.17 132.34 118.04 140V140Z" fill="black"/>
<path d="M120 177H113.6V155.64C113.6 152.69 114.44 150.49 116.13 149.03C117.8 147.58 120.33 146.85 123.73 146.85H125.03V151.46H124.03C122.7 151.46 121.7 151.81 121.03 152.52C120.34 153.23 120 154.27 120 155.64V177" fill="black"/>
<path d="M67.893 54.313C61.923 58.087 54.423 51.148 50.443 59.193C46.943 63.975 57.973 65.366 51.013 69.617C46.253 74.741 46.533 76.997 50.643 77.624C49.453 83.288 50.323 92.795 52.913 97.98C49.703 101.883 52.113 100.542 56.463 101.356C55.113 103.51 55.893 111.405 51.263 113.845C48.933 120.866 50.673 128.487 50.133 135.751C61.413 140.5 74.763 141.04 85.533 138.51C90.273 137.52 95.683 137.14 94.733 130.376C95.013 121.95 96.013 110.858 86.823 106.546C81.443 105.793 79.653 102.158 83.773 96.996C86.843 88.638 90.213 92.135 94.923 90.021C99.823 88.71 87.923 85.482 89.493 80.044C87.973 75.79 86.113 70.786 83.063 67.333C90.743 66.643 91.563 58.635 85.323 57.001C79.133 52.879 75.483 59.915 70.773 54.626C69.993 54.613 68.673 54.122 67.893 54.313V54.313Z" fill="black"/>
<path d="M85.233 85.573C85.233 96.986 77.673 106.249 68.353 106.249C59.033 106.249 51.473 96.986 51.473 85.573C51.473 74.159 59.033 64.896 68.353 64.896C77.673 64.896 85.233 74.159 85.233 85.573V85.573Z" fill="url(#paint0_linear)"/>
<path d="M64.843 106.727C57.793 106.727 52.123 112.402 52.123 119.452V134.381C61.503 139.03 81.643 139.27 92.743 134.381V119.452C92.743 112.402 87.063 106.727 80.013 106.727H64.843V106.727Z" fill="url(#paint1_linear)"/>
<path fill-rule="evenodd" clip-rule="evenodd" d="M49.643 75.941C52.163 71.413 54.693 62.761 68.763 62.851C90.603 63.49 85.393 86.232 93.213 88.686C88.363 90.264 85.913 91.615 78.673 89.116C79.463 83.417 78.173 79.238 74.753 76.301C70.483 78.54 54.013 77.476 49.643 75.941V75.941Z" fill="black"/>
<path d="M67.8141 85.772C67.8141 86.9341 66.451 87.8769 64.772 87.8769C63.0931 87.8769 61.73 86.9341 61.73 85.772C61.73 84.6099 63.0931 83.6671 64.772 83.6671C66.451 83.6671 67.8141 84.6099 67.8141 85.772Z" fill="white"/>
<path d="M65.2073 85.821C65.2073 86.7939 64.4284 87.5833 63.469 87.5833C62.5096 87.5833 61.7307 86.7939 61.7307 85.821C61.7307 84.8481 62.5096 84.0587 63.469 84.0587C64.4284 84.0587 65.2073 84.8481 65.2073 85.821Z" fill="#1E2ECF"/>
<path d="M63.9029 85.9679C63.9029 86.7516 63.4161 87.3875 62.8165 87.3875C62.2169 87.3875 61.73 86.7516 61.73 85.9679C61.73 85.1841 62.2169 84.5483 62.8165 84.5483C63.4161 84.5483 63.9029 85.1841 63.9029 85.9679Z" fill="black"/>
<path d="M57.7261 85.431C57.7261 86.5931 56.363 87.5359 54.6841 87.5359C53.0052 87.5359 51.642 86.5931 51.642 85.431C51.642 84.2689 53.0052 83.3261 54.6841 83.3261C56.363 83.3261 57.7261 84.2689 57.7261 85.431Z" fill="white"/>
<path d="M55.1193 85.48C55.1193 86.4529 54.3404 87.2423 53.381 87.2423C52.4216 87.2423 51.6427 86.4529 51.6427 85.48C51.6427 84.5071 52.4216 83.7177 53.381 83.7177C54.3404 83.7177 55.1193 84.5071 55.1193 85.48Z" fill="#1828CE"/>
<path d="M53.815 85.6269C53.815 86.4106 53.3281 87.0465 52.7285 87.0465C52.1289 87.0465 51.6421 86.4106 51.6421 85.6269C51.6421 84.8431 52.1289 84.2073 52.7285 84.2073C53.3281 84.2073 53.815 84.8431 53.815 85.6269Z" fill="black"/>
<path fill-rule="evenodd" clip-rule="evenodd" d="M56.803 98.955C58.653 102.577 63.703 100.898 68.533 98.955C63.203 99.514 59.533 99.924 56.803 98.955Z" fill="url(#paint2_linear)"/>
<path d="M78.943 122.606L80.203 122.729L81.573 137.24L78.113 137.71L78.943 122.606Z" fill="#700000"/>
<path fill-rule="evenodd" clip-rule="evenodd" d="M59.003 86.897C58.203 88.184 57.053 90.299 57.223 91.272C57.383 92.244 58.873 92.034 59.663 92.595L59.993 92.117C59.293 91.624 58.213 92.109 58.073 91.309C57.943 90.51 58.753 88.394 59.493 87.191L59.003 86.897Z" fill="black"/>
<path fill-rule="evenodd" clip-rule="evenodd" d="M60.293 94.55C56.493 94.928 54.163 97.851 52.233 99.97C52.233 99.97 58.473 96.514 60.433 96.584C60.293 96.093 60.503 95.462 60.293 94.55Z" fill="black"/>
<path fill-rule="evenodd" clip-rule="evenodd" d="M61.163 94.405C64.543 94.751 71.003 97.375 71.303 99.865C71.303 99.865 63.423 95.647 61.573 96.301C61.553 95.791 61.233 95.338 61.163 94.405Z" fill="black"/>
<path fill-rule="evenodd" clip-rule="evenodd" d="M58.633 108.399C62.263 119.622 67.333 129.345 73.093 137.94L76.783 137.83C71.043 128.623 65.053 118.228 61.633 107.02C61.633 107.02 59.593 107.644 58.633 108.399Z" fill="url(#paint3_linear)"/>
<path fill-rule="evenodd" clip-rule="evenodd" d="M56.053 104.881L55.803 115.131L65.113 109.443V110.881L68.803 111.193L68.743 109.256L80.863 114.693L79.613 102.631L68.923 108.068L68.673 106.256L64.923 106.006V107.943L56.053 104.881Z" fill="url(#paint4_linear)"/>
<path fill-rule="evenodd" clip-rule="evenodd" d="M55.853 64.782L55.323 67.382C62.983 69.611 73.223 69.259 82.083 68.301C82.063 67.942 81.733 65.782 81.733 65.782C73.213 66.657 62.313 66.595 55.853 64.782V64.782Z" fill="url(#paint5_linear)"/>
<path fill-rule="evenodd" clip-rule="evenodd" d="M68.103 66.345C96.623 70.178 91.583 52.949 69.673 58.72C48.523 51.261 43.443 68.553 68.103 66.345Z" fill="url(#paint6_linear)"/>
<path d="M72.479 57.938C72.5017 58.1616 72.4224 58.3849 72.246 58.5944C72.0695 58.804 71.7995 58.9954 71.4523 59.1572C71.1051 59.319 70.6879 59.4477 70.2258 59.5357C69.7638 59.6237 69.2665 59.669 68.764 59.669C68.2615 59.669 67.7642 59.6237 67.3021 59.5357C66.84 59.4477 66.4228 59.319 66.0756 59.1572C65.7284 58.9954 65.4584 58.804 65.282 58.5944C65.1055 58.3849 65.0263 58.1616 65.049 57.938C65.0263 57.7144 65.1055 57.4911 65.282 57.2816C65.4584 57.072 65.7284 56.8806 66.0756 56.7188C66.4228 56.557 66.84 56.4282 67.3021 56.3403C67.7642 56.2523 68.2615 56.2069 68.764 56.2069C69.2665 56.2069 69.7638 56.2523 70.2258 56.3403C70.6879 56.4282 71.1051 56.557 71.4523 56.7188C71.7995 56.8806 72.0695 57.072 72.246 57.2816C72.4224 57.4911 72.5017 57.7144 72.479 57.938V57.938Z" fill="url(#paint7_linear)"/>
<path d="M68.763 56.294C66.953 56.294 65.623 56.905 65.293 57.669C52.413 54.947 47.713 62.153 55.763 65.231L55.353 67.294C52.363 70.083 50.963 73.572 49.643 75.95C50.393 76.214 51.863 76.447 53.203 76.669C52.133 79.38 51.483 82.365 51.483 85.575C51.483 90.046 52.663 94.16 54.643 97.544C53.793 98.36 52.923 99.217 52.233 99.981C52.233 99.981 53.693 99.203 55.233 98.45C58.263 103.071 62.833 106.102 68.013 106.231L64.923 106.012V106.731H64.863C63.943 106.731 63.033 106.83 62.173 107.012L56.043 104.888L55.923 110.419C53.593 112.723 52.143 115.9 52.143 119.45V134.388C57.093 136.84 65.033 138 73.083 137.89C73.093 137.91 73.093 137.93 73.113 137.95L76.803 137.86C76.753 137.78 76.693 137.69 76.643 137.61C77.133 137.57 77.623 137.52 78.113 137.48V137.73L81.583 137.26V137.23C85.713 136.652 89.603 135.771 92.733 134.388V119.45C92.733 112.412 87.083 106.748 80.053 106.731L79.613 102.638L71.583 106.731H68.733L68.673 106.262H68.453C76.383 106.209 82.973 99.446 84.733 90.388C87.843 90.55 90.083 89.726 93.243 88.7C87.753 86.979 88.503 75.382 82.013 68.325C82.033 68.323 82.063 68.327 82.083 68.325C82.063 68.028 81.873 66.751 81.803 66.231C92.793 63.846 87.333 55.39 72.113 58.325C72.193 58.185 72.483 58.102 72.483 57.95C72.483 57.036 70.823 56.294 68.763 56.294V56.294Z" fill="url(#paint8_linear)"/>
<defs>
<linearGradient id="paint0_linear" x1="61.2541" y1="101.601" x2="77.8862" y2="71.3018" gradientUnits="userSpaceOnUse">
<stop stop-color="#FFD8C1"/>
<stop offset="1" stop-color="#FFEDED"/>
</linearGradient>
<linearGradient id="paint1_linear" x1="62.8847" y1="128.508" x2="84.6615" y2="110.4" gradientUnits="userSpaceOnUse">
<stop stop-color="#C10000"/>
<stop offset="1" stop-color="#FF433E"/>
</linearGradient>
<linearGradient id="paint2_linear" x1="60.078" y1="101.727" x2="62.6623" y2="98.2232" gradientUnits="userSpaceOnUse">
<stop stop-color="#C10000"/>
<stop offset="1" stop-color="#FF433E"/>
</linearGradient>
<linearGradient id="paint3_linear" x1="65.399" y1="126.63" x2="69.559" y2="123.44" gradientUnits="userSpaceOnUse">
<stop stop-color="#F0EB00"/>
<stop offset="1" stop-color="#FFFF00"/>
</linearGradient>
<linearGradient id="paint4_linear" x1="58.682" y1="112.266" x2="72.754" y2="106.836" gradientUnits="userSpaceOnUse">
<stop stop-color="#008200"/>
<stop offset="1" stop-color="#00D000"/>
</linearGradient>
<linearGradient id="paint5_linear" x1="64.042" y1="67.704" x2="72.362" y2="65.266" gradientUnits="userSpaceOnUse">
<stop stop-color="#F0EB00"/>
<stop offset="1" stop-color="#FFFF00"/>
</linearGradient>
<linearGradient id="paint6_linear" x1="57.509" y1="65.408" x2="81.149" y2="60.172" gradientUnits="userSpaceOnUse">
<stop stop-color="#C10000"/>
<stop offset="1" stop-color="#FF433E"/>
</linearGradient>
<linearGradient id="paint7_linear" x1="66.419" y1="59.001" x2="71.169" y2="57.313" gradientUnits="userSpaceOnUse">
<stop stop-color="#F0EB00"/>
<stop offset="1" stop-color="#FFFF00"/>
</linearGradient>
<linearGradient id="paint8_linear" x1="116.541" y1="49.4481" x2="83.5045" y2="96.5865" gradientUnits="userSpaceOnUse">
<stop stop-color="white"/>
<stop offset="1" stop-color="white" stop-opacity="0"/>
</linearGradient>
</defs>
</svg>
