<svg width="140" height="190" viewBox="0 0 140 190" fill="none" xmlns="http://www.w3.org/2000/svg">
<path d="M21 5H124C132.86 5 140 12.136 140 21V174C140 182.86 132.86 190 124 190H21C12.136 190 5 182.86 5 174V21C5 12.136 12.136 5 21 5Z" fill="black" fill-opacity="0.49804"/>
<path d="M17 1H120C128.86 1 136 8.136 136 17V170C136 178.86 128.86 186 120 186H17C8.136 186 1 178.86 1 170V17C1 8.136 8.136 1 17 1Z" fill="#E7E7E7"/>
<path d="M19 3H122C130.86 3 138 10.136 138 19V172C138 180.86 130.86 188 122 188H19C10.136 188 3 180.86 3 172V19C3 10.136 10.136 3 19 3Z" fill="#C7891F"/>
<path d="M18 2H121C129.86 2 137 9.136 137 18V171C137 179.86 129.86 187 121 187H18C9.136 187 2 179.86 2 171V18C2 9.136 9.136 2 18 2Z" fill="white"/>
<path d="M10.027 12.24H16.423V23.191L25.644 12.24H33.07L21.125 26.446L34.299 42.24H26.292L16.423 30.425V42.24H10.027V12.24" fill="black"/>
<path d="M128.66 176.63H122.27V165.68L113.05 176.63H105.62L117.57 162.42L104.39 146.63H112.4L122.27 158.45V146.63H128.66V176.63" fill="black"/>
<path fill-rule="evenodd" clip-rule="evenodd" d="M20.527 48.665C17.861 48.665 15.697 51.929 15.697 55.951C15.697 59.377 20.089 65.142 19.919 67.88C18.509 68.663 14.152 61.443 11.9 61.443C9.23351 61.443 7.07001 64.706 7.07001 68.728C7.07001 72.751 9.23351 76.014 11.9 76.014C14.212 76.014 18.176 68.8 19.919 69.451L16.99 82.325L24.014 82.283C24.014 82.283 20.937 69.802 20.933 69.507H20.988V69.521C22.695 68.881 26.794 76.153 29.09 76.153C31.757 76.153 33.92 72.89 33.92 68.867C33.92 64.845 31.757 61.582 29.09 61.582C26.848 61.582 22.782 68.682 20.997 67.95C21.022 65.144 25.357 59.373 25.357 55.951C25.357 51.929 23.194 48.665 20.527 48.665V48.665Z" fill="black"/>
<path fill-rule="evenodd" clip-rule="evenodd" d="M117.42 139.96C120.08 139.96 122.25 136.7 122.25 132.68C122.25 129.25 117.86 123.49 118.03 120.75C119.44 119.96 123.79 127.18 126.05 127.18C128.71 127.18 130.88 123.92 130.88 119.9C130.88 115.88 128.71 112.61 126.05 112.61C123.73 112.61 119.77 119.83 118.03 119.18L120.96 106.3L113.93 106.34C113.93 106.34 117.01 118.83 117.01 119.12H116.96V119.11C115.25 119.75 111.15 112.47 108.86 112.47C106.19 112.47 104.03 115.74 104.03 119.76C104.03 123.78 106.19 127.05 108.86 127.05C111.1 127.05 115.16 119.95 116.95 120.68C116.92 123.48 112.59 129.25 112.59 132.68C112.59 136.7 114.75 139.96 117.42 139.96V139.96Z" fill="black"/>
<path d="M68.1213 53.34C66.1371 51.72 64.7029 50.71 62.3427 48.22C60.5765 55.41 58.3393 54.37 55.314 51.83C52.295 48.8 52.5325 62.93 46.7103 50C45.0322 50.23 48.4482 60.87 48.9119 65.01C52.3813 69.91 46.9002 76.11 48.636 79.61C54.3735 79.24 49.2765 85.84 50.9945 89.37C51.3679 94.05 53.016 97.83 53.6554 102.11C63.3518 106.54 45.235 109.57 49.4339 113.12C50.2285 116.39 47.875 122.29 48.8736 126.7C48.1612 132.7 48.2466 138.11 55.624 138.39C68.4063 140.87 81.4436 140.78 93.5028 136.04C93.6378 129.06 93.4078 121.14 93.2848 114.7C96.4491 110.84 85.388 108.2 82.9038 104.72C86.4311 100.4 85.214 91.99 92.3687 91.39C93.1288 85.13 90.9556 77.43 87.6272 71.54C88.6983 63.88 89.9705 56.25 90.6905 48.54C83.5198 63.34 86.4061 45.53 83.2388 52.56C81.1876 54.86 79.9405 51.83 78.6343 51.95C77.3382 46.13 74.986 59.19 73.2508 48.29C71.0066 57.43 70.3845 41.99 68.7973 51.37L68.1213 53.34V53.34Z" fill="black"/>
<path d="M86.5061 87.15C86.5061 98.56 78.9413 107.82 69.6214 107.82C60.3005 107.82 52.7357 98.56 52.7357 87.15C52.7357 75.73 60.3005 66.47 69.6214 66.47C78.9413 66.47 86.5061 75.73 86.5061 87.15Z" fill="url(#paint0_linear)"/>
<path fill-rule="evenodd" clip-rule="evenodd" d="M53.1241 113.29L51.0784 111.87L57.8592 106.34L59.3744 109.54C59.3744 109.54 53.4552 113.56 53.1241 113.29V113.29Z" fill="url(#paint1_linear)"/>
<path d="M63.5949 106.96C56.5451 106.96 50.8696 112.64 50.8696 119.69L50.8691 134.62C60.2495 139.26 80.398 139.51 91.4911 134.62L91.4921 119.69C91.4921 112.64 85.8166 106.96 78.7669 106.96H63.5954H63.5949Z" fill="url(#paint2_linear)"/>
<path fill-rule="evenodd" clip-rule="evenodd" d="M50.0804 77.85C50.0804 77.85 51.7786 63.47 70.6944 63.44C90.6724 64.25 90.6934 89.93 90.6934 89.93C85.84 91.51 87.1881 93.19 79.9454 90.69C80.7364 84.99 79.4453 80.81 76.02 77.88C71.7506 80.11 54.4538 79.38 50.0804 77.85V77.85Z" fill="#6D2B00"/>
<path d="M69.0835 87.343C69.0835 88.5051 67.7202 89.4479 66.0411 89.4479C64.362 89.4479 62.9988 88.5051 62.9988 87.343C62.9988 86.1809 64.362 85.2381 66.0411 85.2381C67.7202 85.2381 69.0835 86.1809 69.0835 87.343Z" fill="white"/>
<path d="M66.4764 87.392C66.4764 88.3649 65.6974 89.1543 64.7379 89.1543C63.7785 89.1543 62.9995 88.3649 62.9995 87.392C62.9995 86.4191 63.7785 85.6298 64.7379 85.6298C65.6974 85.6298 66.4764 86.4191 66.4764 87.392Z" fill="#B67870"/>
<path d="M65.1719 87.5389C65.1719 88.3227 64.6851 88.9585 64.0854 88.9585C63.4857 88.9585 62.9988 88.3227 62.9988 87.5389C62.9988 86.7552 63.4857 86.1193 64.0854 86.1193C64.6851 86.1193 65.1719 86.7552 65.1719 87.5389Z" fill="black"/>
<path d="M58.9935 87.003C58.9935 88.1651 57.6302 89.1079 55.9511 89.1079C54.272 89.1079 52.9088 88.1651 52.9088 87.003C52.9088 85.8409 54.272 84.8981 55.9511 84.8981C57.6302 84.8981 58.9935 85.8409 58.9935 87.003Z" fill="white"/>
<path d="M56.3864 87.052C56.3864 88.0249 55.6074 88.8143 54.6479 88.8143C53.6884 88.8143 52.9094 88.0249 52.9094 87.052C52.9094 86.0791 53.6884 85.2898 54.6479 85.2898C55.6074 85.2898 56.3864 86.0791 56.3864 87.052Z" fill="#B67870"/>
<path d="M55.0819 87.1989C55.0819 87.9827 54.595 88.6185 53.9954 88.6185C53.3957 88.6185 52.9088 87.9827 52.9088 87.1989C52.9088 86.4152 53.3957 85.7793 53.9954 85.7793C54.595 85.7793 55.0819 86.4152 55.0819 87.1989Z" fill="black"/>
<path fill-rule="evenodd" clip-rule="evenodd" d="M58.0693 100.53C60.9896 100.67 65.372 100.86 69.7984 100.53C65.144 98.81 61.8767 98.28 58.0693 100.53Z" fill="url(#paint3_linear)"/>
<path d="M77.6942 122.84L78.9573 122.96L80.3295 137.48L76.8641 137.73L77.6942 122.84Z" fill="#B30D95"/>
<path fill-rule="evenodd" clip-rule="evenodd" d="M59.7314 88.74C58.9394 90.03 57.7862 92.14 57.9503 93.11C58.1143 94.09 59.6024 93.88 60.3925 94.44L60.7235 93.96C60.0285 93.47 58.9404 93.95 58.8053 93.15C58.6703 92.35 59.4864 90.24 60.2275 89.03L59.7314 88.74V88.74Z" fill="black"/>
<path fill-rule="evenodd" clip-rule="evenodd" d="M61.4666 101.32C62.5707 103.66 60.7986 103.68 60.0085 104.05C59.3944 103.59 58.0793 102.22 57.6712 101.27C57.5422 106.58 59.3954 109.47 60.7395 110.94C62.0827 112.4 70.0225 113.5 74.2979 110.94C78.5733 108.37 87.5382 99.6 82.6607 92.42C81.9927 92.88 80.7766 92.78 79.9165 92.62C80.0385 94.2 77.8973 98.81 73.9889 100.52C70.0805 102.23 67.2652 102.64 66.2361 104.17C64.2249 104.23 63.1018 103.42 64.0139 101.34C63.5228 101.5 62.0077 101.32 61.4666 101.32V101.32Z" fill="#6D2B00"/>
<path fill-rule="evenodd" clip-rule="evenodd" d="M62.3857 95.96C62.3857 95.96 55.3 97.78 54.8795 99.05C54.4585 100.31 55.9321 101.78 55.9321 101.78C55.9321 101.78 60.5625 97.92 62.5267 97.99C62.3857 97.5 62.5967 96.87 62.3857 95.96V95.96Z" fill="#6D2B00"/>
<path fill-rule="evenodd" clip-rule="evenodd" d="M62.9247 95.98C62.9247 95.98 70.3335 96.1 71.1136 97.17C71.8926 98.25 70.9275 100.1 70.9275 100.1C70.9275 100.1 65.185 97.22 63.3318 97.88C63.3188 97.37 62.9968 96.91 62.9247 95.98Z" fill="#6D2B00"/>
<path fill-rule="evenodd" clip-rule="evenodd" d="M51.6972 60.43L54.2859 53.82L59.3744 60.79L62.9488 52.06L67.4062 60.6C67.4062 60.6 70.5375 51.76 70.5375 52.44C70.5375 53.12 73.8328 61.67 73.8328 61.67L77.5832 53.47L80.0745 61.58L84.3769 54.54L85.627 60.79V65.79C85.627 65.79 58.1243 67.04 55.624 65.79C53.1241 64.54 51.6101 60.57 51.6972 60.43V60.43Z" fill="url(#paint4_linear)"/>
<path fill-rule="evenodd" clip-rule="evenodd" d="M52.4057 71.97C62.4827 74.36 75.035 74.45 85.555 71.97L87.9413 55.45L83.3448 61.99L80.5165 54.56L76.9802 61.81L73.3558 53.5L70.0855 61.72L66.3721 53.68L63.1018 62.43L58.2403 54.83L54.6156 62.69L49.0467 55.8C49.0467 55.8 52.1405 71.62 52.4057 71.97V71.97Z" fill="url(#paint5_linear)"/>
<path fill-rule="evenodd" clip-rule="evenodd" d="M82.9028 106.53C82.2307 107.04 79.9855 108.92 79.9855 108.92L89.3774 115.79L91.8777 113.29L82.9028 106.53Z" fill="url(#paint6_linear)"/>
<path fill-rule="evenodd" clip-rule="evenodd" d="M68.7853 123.6L61.8427 115.65H79.2494L68.7853 123.6Z" fill="#FF8900"/>
<path fill-rule="evenodd" clip-rule="evenodd" d="M66.5101 117.76L63.7558 121.16L67.6952 123.91L63.4168 126.98L66.2691 129.81L69.1624 124.88L72.1527 129.71L75.196 126.41L70.1955 123.91L74.919 120.69L71.7996 117.94L69.2504 122.93L66.5101 117.76V117.76Z" fill="url(#paint7_linear)"/>
<path d="M62.6377 52.67L60.1055 58.86L57.9492 55.45L56.6991 58.17L53.9802 54.45L51.7612 60.14L48.7609 56.42C48.7609 56.42 51.8398 72.25 52.1051 72.61C52.1147 72.61 52.1267 72.6 52.1363 72.61C50.1906 75.7 49.7923 78.48 49.7923 78.48C50.6597 78.78 52.2986 79.04 53.9802 79.26C53.014 81.87 52.4488 84.72 52.4488 87.76C52.4488 91.98 53.4889 95.9 55.262 99.17C55.0218 99.34 54.6274 99.51 54.574 99.67C54.1531 100.93 55.637 102.42 55.637 102.42C55.637 102.42 56.4241 101.86 56.8241 101.54C57.0232 101.81 57.1772 102.13 57.3872 102.39C57.3902 105.04 57.9042 106.99 58.5743 108.51C58.4953 108.54 58.4023 108.54 58.3243 108.57L57.5742 106.95L50.7924 112.48L52.6363 113.79C51.4515 115.73 50.5736 117.88 50.5736 120.32V135.23C56.5861 138.21 66.9352 139.16 76.5762 138.32V138.36L80.0146 138.11V138.07C84.149 137.5 88.0674 136.61 91.2027 135.23V120.32C91.2027 118.55 90.8246 116.86 90.1716 115.32L91.5777 113.92L82.6078 107.17C82.3708 107.35 82.0378 107.63 81.5767 108.01C80.6376 107.78 79.6495 107.62 78.6394 107.61C81.0777 105.07 83.3489 101.86 83.7019 98.48C84.624 96.63 85.3221 94.62 85.7331 92.45C86.9882 92.18 87.8613 91.36 90.3906 90.54C90.3906 90.54 90.3496 80.27 85.2651 72.51C85.2911 72.33 87.6403 56.07 87.6403 56.07L85.0151 59.82L84.077 55.17L81.7017 59.07L80.2016 55.2L78.6074 58.45L77.2953 54.11L75.1071 58.89L73.0449 54.14L71.7637 57.36C71.0026 55.29 70.2316 53.39 70.2316 53.07C70.2316 52.61 69.0004 56.1 68.0754 58.67L66.0752 54.29L64.981 57.17L62.6378 52.67H62.6377Z" fill="url(#paint8_linear)"/>
<defs>
<linearGradient id="paint0_linear" x1="62.5218" y1="103.176" x2="79.153" y2="72.8753" gradientUnits="userSpaceOnUse">
<stop stop-color="#FFD8C1"/>
<stop offset="1" stop-color="#FFEDED"/>
</linearGradient>
<linearGradient id="paint1_linear" x1="51.3736" y1="110.17" x2="57.8412" y2="109.02" gradientUnits="userSpaceOnUse">
<stop stop-color="#F0EB00"/>
<stop offset="1" stop-color="#FFFF00"/>
</linearGradient>
<linearGradient id="paint2_linear" x1="61.6383" y1="128.743" x2="83.4156" y2="110.633" gradientUnits="userSpaceOnUse">
<stop stop-color="#FF44AB"/>
<stop offset="1" stop-color="#FF66CC"/>
</linearGradient>
<linearGradient id="paint3_linear" x1="61.3497" y1="103.299" x2="63.9339" y2="99.7949" gradientUnits="userSpaceOnUse">
<stop stop-color="#C10000"/>
<stop offset="1" stop-color="#FF433E"/>
</linearGradient>
<linearGradient id="paint4_linear" x1="58.0883" y1="65.38" x2="85.6267" y2="58.2197" gradientUnits="userSpaceOnUse">
<stop stop-color="#F0A700"/>
<stop offset="1" stop-color="#FFED00"/>
</linearGradient>
<linearGradient id="paint5_linear" x1="58.5933" y1="70.982" x2="86.3498" y2="63.6436" gradientUnits="userSpaceOnUse">
<stop stop-color="#F0EB00"/>
<stop offset="1" stop-color="#FFFF00"/>
</linearGradient>
<linearGradient id="paint6_linear" x1="83.8749" y1="111.96" x2="86.662" y2="110.19" gradientUnits="userSpaceOnUse">
<stop stop-color="#F0EB00"/>
<stop offset="1" stop-color="#FFFF00"/>
</linearGradient>
<linearGradient id="paint7_linear" x1="65.258" y1="126.92" x2="72.5431" y2="121.089" gradientUnits="userSpaceOnUse">
<stop stop-color="#F0EB00"/>
<stop offset="1" stop-color="#FFFF00"/>
</linearGradient>
<linearGradient id="paint8_linear" x1="124.226" y1="35.7946" x2="79.9883" y2="101.896" gradientUnits="userSpaceOnUse">
<stop stop-color="white"/>
<stop offset="1" stop-color="white" stop-opacity="0"/>
</linearGradient>
</defs>
</svg>
