<svg width="140" height="190" viewBox="0 0 140 190" fill="none" xmlns="http://www.w3.org/2000/svg">
<path d="M21 5H124C132.86 5 140 12.136 140 21V174C140 182.86 132.86 190 124 190H21C12.136 190 5 182.86 5 174V21C5 12.136 12.136 5 21 5Z" fill="black" fill-opacity="0.49804"/>
<path d="M17 1H120C128.86 1 136 8.136 136 17V170C136 178.86 128.86 186 120 186H17C8.136 186 1 178.86 1 170V17C1 8.136 8.136 1 17 1Z" fill="#E7E7E7"/>
<path d="M19 3H122C130.86 3 138 10.136 138 19V172C138 180.86 130.86 188 122 188H19C10.136 188 3 180.86 3 172V19C3 10.136 10.136 3 19 3Z" fill="#C7891F"/>
<path d="M18 2H121C129.86 2 137 9.136 137 18V171C137 179.86 129.86 187 121 187H18C9.136 187 2 179.86 2 171V18C2 9.136 9.136 2 18 2Z" fill="white"/>
<path d="M10.027 12.24H16.423V23.191L25.644 12.24H33.07L21.125 26.446L34.299 42.24H26.292L16.423 30.425V42.24H10.027V12.24" fill="#FF0000"/>
<path d="M128.66 176.63H122.27V165.68L113.05 176.63H105.62L117.57 162.42L104.39 146.63H112.4L122.27 158.45V146.63H128.66V176.63" fill="#FF0000"/>
<path fill-rule="evenodd" clip-rule="evenodd" d="M20.4099 48.665C16.2839 56.91 13.2749 61.163 7.06995 65.705C12.9419 70.192 17.0829 74.829 20.5299 82.325C23.6089 75.204 27.3769 69.895 33.9199 65.482C27.3379 62.133 23.5269 56.828 20.4099 48.665V48.665Z" fill="#FF0000"/>
<path fill-rule="evenodd" clip-rule="evenodd" d="M118.34 106.34C114.21 114.59 111.21 118.84 105 123.38C110.87 127.87 115.01 132.5 118.46 140C121.54 132.88 125.31 127.57 131.85 123.16C125.27 119.81 121.46 114.5 118.34 106.34V106.34Z" fill="#FF0000"/>
<path d="M68.1209 53.34C66.1367 51.72 64.7026 50.71 62.3423 48.22C60.5762 55.4 58.3389 54.37 55.3136 51.83C52.2943 48.8 52.5323 62.93 46.71 50C45.0318 50.23 48.4478 60.87 48.9115 65.01C52.3813 69.91 46.8998 76.11 48.6357 79.61C54.3735 79.24 49.276 85.84 50.9942 89.37C51.3672 94.05 53.0154 97.83 53.6555 102.11C63.3514 106.54 45.2346 109.57 49.433 113.12C50.2281 116.39 47.8747 122.29 48.8733 126.7C48.1608 132.7 48.2462 138.11 55.6237 138.39C68.4059 140.87 81.4432 140.78 93.5024 136.04C93.6375 129.06 93.4074 121.14 93.2844 114.7C96.4487 110.84 85.3876 108.2 82.9034 104.72C86.4307 100.4 85.2136 91.99 92.3683 91.39C93.1284 85.13 90.9552 77.43 87.6269 71.54C88.698 63.88 89.9701 56.25 90.6902 48.54C83.5194 63.34 86.4057 45.53 83.2384 52.56C81.1872 54.86 79.9401 51.83 78.634 51.95C77.3378 46.13 74.9856 59.19 73.2504 48.29C71.0062 57.43 70.3841 41.99 68.797 51.37L68.1209 53.34V53.34Z" fill="black"/>
<path d="M86.5057 87.15C86.5057 98.56 78.941 107.82 69.621 107.82C60.3001 107.82 52.7354 98.56 52.7354 87.15C52.7354 75.73 60.3001 66.47 69.621 66.47C78.941 66.47 86.5057 75.73 86.5057 87.15V87.15Z" fill="url(#paint0_linear)"/>
<path fill-rule="evenodd" clip-rule="evenodd" d="M53.1234 113.29L51.0782 111.87L57.8589 106.34L59.374 109.54C59.374 109.54 53.4544 113.56 53.1234 113.29V113.29Z" fill="url(#paint1_linear)"/>
<path d="M63.5944 106.96C56.5447 106.96 50.8682 112.64 50.8682 119.69V134.62C60.2491 139.26 80.3981 139.51 91.4912 134.62V119.69C91.4912 112.64 85.8157 106.96 78.766 106.96H63.5944V106.96Z" fill="url(#paint2_linear)"/>
<path fill-rule="evenodd" clip-rule="evenodd" d="M50.0801 77.85C50.0801 77.85 51.7782 63.47 70.6941 63.44C90.6721 64.25 90.6931 89.93 90.6931 89.93C85.8397 91.51 87.1878 93.19 79.9451 90.69C80.7361 84.99 79.445 80.81 76.0197 77.88C71.7502 80.11 54.4535 79.38 50.0801 77.85V77.85Z" fill="url(#paint3_linear)"/>
<path d="M69.0831 87.343C69.0831 88.5051 67.7199 89.4479 66.0408 89.4479C64.3617 89.4479 62.9984 88.5051 62.9984 87.343C62.9984 86.1809 64.3617 85.2381 66.0408 85.2381C67.7199 85.2381 69.0831 86.1809 69.0831 87.343Z" fill="white"/>
<path d="M66.4761 87.392C66.4761 88.3649 65.6971 89.1543 64.7376 89.1543C63.7781 89.1543 62.9991 88.3649 62.9991 87.392C62.9991 86.4191 63.7781 85.6298 64.7376 85.6298C65.6971 85.6298 66.4761 86.4191 66.4761 87.392Z" fill="#0F90CC"/>
<path d="M65.1716 87.5389C65.1716 88.3227 64.6847 88.9585 64.085 88.9585C63.4854 88.9585 62.9985 88.3227 62.9985 87.5389C62.9985 86.7552 63.4854 86.1193 64.085 86.1193C64.6847 86.1193 65.1716 86.7552 65.1716 87.5389Z" fill="black"/>
<path d="M58.9931 87.003C58.9931 88.1651 57.6298 89.1079 55.9508 89.1079C54.2717 89.1079 52.9084 88.1651 52.9084 87.003C52.9084 85.8409 54.2717 84.8981 55.9508 84.8981C57.6298 84.8981 58.9931 85.8409 58.9931 87.003Z" fill="white"/>
<path d="M56.3861 87.052C56.3861 88.0249 55.607 88.8143 54.6476 88.8143C53.6881 88.8143 52.9091 88.0249 52.9091 87.052C52.9091 86.0791 53.6881 85.2898 54.6476 85.2898C55.607 85.2898 56.3861 86.0791 56.3861 87.052Z" fill="#0F90CC"/>
<path d="M55.0815 87.1989C55.0815 87.9827 54.5947 88.6185 53.995 88.6185C53.3953 88.6185 52.9084 87.9827 52.9084 87.1989C52.9084 86.4152 53.3953 85.7793 53.995 85.7793C54.5947 85.7793 55.0815 86.4152 55.0815 87.1989Z" fill="black"/>
<path fill-rule="evenodd" clip-rule="evenodd" d="M58.0689 100.53C60.9892 100.67 65.3716 100.86 69.7981 100.53C65.1436 98.81 61.8763 98.28 58.0689 100.53V100.53Z" fill="url(#paint4_linear)"/>
<path d="M77.6939 122.84L78.957 122.96L80.3291 137.48L76.8638 137.73L77.6939 122.84V122.84Z" fill="#004CB0"/>
<path fill-rule="evenodd" clip-rule="evenodd" d="M59.7311 88.74C58.939 90.03 57.7859 92.14 57.9499 93.11C58.1139 94.09 59.6021 93.88 60.3921 94.44L60.7232 93.96C60.0281 93.47 58.94 93.95 58.805 93.15C58.67 92.35 59.486 90.24 60.2271 89.03L59.7311 88.74V88.74Z" fill="black"/>
<path fill-rule="evenodd" clip-rule="evenodd" d="M61.4663 101.32C62.5704 103.66 60.7982 103.68 60.0081 104.05C59.394 103.59 58.0789 102.22 57.6709 101.27C57.5419 106.58 59.395 109.47 60.7392 110.94C62.0823 112.4 70.0221 113.5 74.2975 110.94C78.573 108.37 87.5379 99.6 82.6604 92.42C81.9923 92.88 80.7762 92.78 79.9161 92.62C80.0381 94.2 77.8969 98.81 73.9885 100.52C70.0801 102.23 67.2648 102.64 66.2357 104.17C64.2245 104.23 63.1014 103.42 64.0135 101.34C63.5225 101.5 62.0073 101.32 61.4663 101.32V101.32Z" fill="url(#paint5_linear)"/>
<path fill-rule="evenodd" clip-rule="evenodd" d="M62.3853 95.96C62.3853 95.96 55.2996 97.78 54.8796 99.05C54.4585 100.31 55.9317 101.78 55.9317 101.78C55.9317 101.78 60.5621 97.92 62.5263 97.99C62.3853 97.5 62.5963 96.87 62.3853 95.96V95.96Z" fill="url(#paint6_linear)"/>
<path fill-rule="evenodd" clip-rule="evenodd" d="M62.9244 95.98C62.9244 95.98 70.3331 96.1 71.1132 97.17C71.8923 98.25 70.9272 100.1 70.9272 100.1C70.9272 100.1 65.1846 97.22 63.3314 97.88C63.3184 97.37 62.9964 96.91 62.9244 95.98Z" fill="url(#paint7_linear)"/>
<path fill-rule="evenodd" clip-rule="evenodd" d="M51.6973 60.43L54.2855 53.82L59.3741 60.79L62.9484 52.06L67.4059 60.6C67.4059 60.6 70.5372 51.76 70.5372 52.44C70.5372 53.12 73.8325 61.67 73.8325 61.67L77.5829 53.47L80.0741 61.58L84.3766 54.54L85.6267 60.79V65.79C85.6267 65.79 58.1239 67.04 55.6237 65.79C53.1234 64.54 51.6103 60.57 51.6973 60.43V60.43Z" fill="url(#paint8_linear)"/>
<path fill-rule="evenodd" clip-rule="evenodd" d="M52.4054 71.97C62.4824 74.36 75.0346 74.45 85.5547 71.97L87.9409 55.45L83.3445 61.99L80.5162 54.56L76.9798 61.81L73.3555 53.5L70.0851 61.72L66.3718 53.68L63.1014 62.43L58.2399 54.83L54.6156 62.69L49.0463 55.8C49.0463 55.8 52.1403 71.62 52.4054 71.97V71.97Z" fill="url(#paint9_linear)"/>
<path fill-rule="evenodd" clip-rule="evenodd" d="M82.9024 106.53C82.2303 107.04 79.9851 108.92 79.9851 108.92L89.377 115.79L91.8773 113.29L82.9024 106.53Z" fill="url(#paint10_linear)"/>
<path fill-rule="evenodd" clip-rule="evenodd" d="M68.785 123.6L61.8423 115.65H79.249L68.785 123.6Z" fill="#FF8900"/>
<path fill-rule="evenodd" clip-rule="evenodd" d="M66.5098 117.76L63.7555 121.16L67.6949 123.91L63.4164 126.98L66.2687 129.81L69.162 124.88L72.1523 129.71L75.1956 126.41L70.1951 123.91L74.9186 120.69L71.7993 117.94L69.25 122.93L66.5098 117.76V117.76Z" fill="url(#paint11_linear)"/>
<path d="M62.9394 52.04L60.4071 58.23L58.2509 54.82L57.0008 57.54L54.2815 53.82L52.0623 59.51L49.0625 55.79C49.0625 55.79 52.1413 71.63 52.4063 71.98H52.4383C50.4921 75.08 50.0941 77.85 50.0941 77.85C50.9612 78.16 52.6004 78.41 54.2815 78.64C53.3154 81.24 52.7504 84.09 52.7504 87.14C52.7504 91.35 53.7905 95.27 55.5627 98.54C55.3236 98.72 54.9286 98.88 54.8756 99.04C54.4545 100.3 55.9387 101.79 55.9387 101.79C55.9387 101.79 56.7258 101.23 57.1258 100.92C57.3248 101.19 57.4788 101.5 57.6889 101.76C57.6919 104.41 58.2059 106.37 58.876 107.89C58.797 107.92 58.704 107.92 58.626 107.95L57.8759 106.32L51.0942 111.85L52.9384 113.17C51.7533 115.1 50.8752 117.26 50.8752 119.7V134.6C56.8878 137.58 67.2368 138.53 76.8778 137.7V137.73L80.3151 137.48V137.45C84.4505 136.87 88.3689 135.99 91.5042 134.6V119.7C91.5042 117.92 91.1262 116.23 90.4731 114.7L91.8793 113.29L82.9094 106.54C82.6724 106.72 82.3393 107.01 81.8783 107.39C80.9392 107.15 79.9511 106.99 78.941 106.98C81.3792 104.45 83.6505 101.23 84.0035 97.85C84.9256 96 85.6237 94 86.0347 91.82C87.2898 91.55 88.1629 90.74 90.6922 89.92C90.6922 89.92 90.6512 79.65 85.5657 71.89C85.5927 71.7 87.9419 55.45 87.9419 55.45L85.3156 59.2L84.3785 54.54L82.0033 58.45L80.5031 54.57L78.909 57.82L77.5969 53.48L75.4086 58.26L73.3464 53.51L72.0643 56.73C71.3042 54.67 70.5331 52.76 70.5331 52.45C70.5331 51.98 69.302 55.48 68.3769 58.04L66.3767 53.67L65.2826 56.54L62.9394 52.04V52.04Z" fill="url(#paint12_linear)"/>
<defs>
<linearGradient id="paint0_linear" x1="62.5215" y1="103.176" x2="79.1526" y2="72.8753" gradientUnits="userSpaceOnUse">
<stop stop-color="#FFD8C1"/>
<stop offset="1" stop-color="#FFEDED"/>
</linearGradient>
<linearGradient id="paint1_linear" x1="51.3732" y1="110.174" x2="57.8408" y2="109.024" gradientUnits="userSpaceOnUse">
<stop stop-color="#F0EB00"/>
<stop offset="1" stop-color="#FFFF00"/>
</linearGradient>
<linearGradient id="paint2_linear" x1="61.6379" y1="128.743" x2="83.4151" y2="110.633" gradientUnits="userSpaceOnUse">
<stop stop-color="#0083CC"/>
<stop offset="1" stop-color="#24A4CC"/>
</linearGradient>
<linearGradient id="paint3_linear" x1="57.8059" y1="88.8405" x2="77.9781" y2="57.0869" gradientUnits="userSpaceOnUse">
<stop stop-color="#F0A700"/>
<stop offset="1" stop-color="#FFED00"/>
</linearGradient>
<linearGradient id="paint4_linear" x1="61.3493" y1="103.299" x2="63.9335" y2="99.7949" gradientUnits="userSpaceOnUse">
<stop stop-color="#C10000"/>
<stop offset="1" stop-color="#FF433E"/>
</linearGradient>
<linearGradient id="paint5_linear" x1="65.122" y1="110.909" x2="79.1377" y2="91.4948" gradientUnits="userSpaceOnUse">
<stop stop-color="#F0A700"/>
<stop offset="1" stop-color="#FFED00"/>
</linearGradient>
<linearGradient id="paint6_linear" x1="56.6203" y1="101.055" x2="61.0289" y2="95.797" gradientUnits="userSpaceOnUse">
<stop stop-color="#F0A700"/>
<stop offset="1" stop-color="#FFED00"/>
</linearGradient>
<linearGradient id="paint7_linear" x1="65.8509" y1="98.6845" x2="67.5455" y2="94.8136" gradientUnits="userSpaceOnUse">
<stop stop-color="#F0A700"/>
<stop offset="1" stop-color="#FFED00"/>
</linearGradient>
<linearGradient id="paint8_linear" x1="58.0879" y1="65.384" x2="85.6263" y2="58.2236" gradientUnits="userSpaceOnUse">
<stop stop-color="#F0A700"/>
<stop offset="1" stop-color="#FFED00"/>
</linearGradient>
<linearGradient id="paint9_linear" x1="58.593" y1="70.986" x2="86.3494" y2="63.6476" gradientUnits="userSpaceOnUse">
<stop stop-color="#F0EB00"/>
<stop offset="1" stop-color="#FFFF00"/>
</linearGradient>
<linearGradient id="paint10_linear" x1="83.8745" y1="111.964" x2="86.6616" y2="110.194" gradientUnits="userSpaceOnUse">
<stop stop-color="#F0EB00"/>
<stop offset="1" stop-color="#FFFF00"/>
</linearGradient>
<linearGradient id="paint11_linear" x1="65.2576" y1="126.923" x2="72.5428" y2="121.092" gradientUnits="userSpaceOnUse">
<stop stop-color="#F0EB00"/>
<stop offset="1" stop-color="#FFFF00"/>
</linearGradient>
<linearGradient id="paint12_linear" x1="124.528" y1="35.1746" x2="80.2899" y2="101.276" gradientUnits="userSpaceOnUse">
<stop stop-color="white"/>
<stop offset="1" stop-color="white" stop-opacity="0"/>
</linearGradient>
</defs>
</svg>
