<svg width="140" height="190" viewBox="0 0 140 190" fill="none" xmlns="http://www.w3.org/2000/svg">
<path d="M21 5H124C132.86 5 140 12.136 140 21V174C140 182.86 132.86 190 124 190H21C12.136 190 5 182.86 5 174V21C5 12.136 12.136 5 21 5Z" fill="black" fill-opacity="0.49804"/>
<path d="M17 1H120C128.86 1 136 8.136 136 17V170C136 178.86 128.86 186 120 186H17C8.136 186 1 178.86 1 170V17C1 8.136 8.136 1 17 1Z" fill="#E7E7E7"/>
<path d="M19 3H122C130.86 3 138 10.136 138 19V172C138 180.86 130.86 188 122 188H19C10.136 188 3 180.86 3 172V19C3 10.136 10.136 3 19 3Z" fill="#C7891F"/>
<path d="M18 2H121C129.86 2 137 9.136 137 18V171C137 179.86 129.86 187 121 187H18C9.136 187 2 179.86 2 171V18C2 9.136 9.136 2 18 2Z" fill="white"/>
<path d="M10.027 12.24H16.423V23.191L25.644 12.24H33.07L21.125 26.446L34.299 42.24H26.292L16.423 30.425V42.24H10.027V12.24" fill="#FF0000"/>
<path d="M128.66 176.63H122.27V165.68L113.05 176.63H105.62L117.57 162.42L104.39 146.63H112.4L122.27 158.45V146.63H128.66V176.63" fill="#FF0000"/>
<path fill-rule="evenodd" clip-rule="evenodd" d="M13.5543 48.8447C12.7502 48.8489 11.867 49.0461 10.8919 49.4868C0.248669 57.6839 14.5959 70.9091 20.6551 82.2625L20.8324 82.3212C27.49 69.9102 40.1657 56.2527 30.4785 49.4868C22.8078 46.0242 20.7564 57.5454 20.6868 57.9609C20.6235 57.5958 19.0564 48.8069 13.5543 48.8447Z" fill="#FF0000"/>
<path fill-rule="evenodd" clip-rule="evenodd" d="M125.312 139.993C126.116 139.989 126.999 139.791 127.974 139.351C138.619 131.154 124.27 117.928 118.21 106.575L118.032 106.516C111.374 118.927 98.6965 132.585 108.385 139.351C116.057 142.813 118.108 131.292 118.178 130.877C118.241 131.242 119.809 140.031 125.312 139.993Z" fill="#FF0000"/>
<path d="M68.1216 53.34C66.1374 51.72 64.7032 50.71 62.343 48.22C60.5768 55.41 58.3396 54.37 55.3143 51.83C52.295 48.8 52.533 62.93 46.7106 50C45.0325 50.23 48.4485 60.87 48.9122 65.01C52.382 69.91 46.9005 76.11 48.6363 79.61C54.3742 79.24 49.2768 85.84 50.9948 89.37C51.3682 94.05 53.0161 97.83 53.6561 102.11C63.3521 106.54 45.2353 109.57 49.4342 113.12C50.2288 116.39 47.8754 122.29 48.874 126.7C48.1615 132.7 48.2469 138.11 55.6243 138.39C68.4066 140.87 81.4439 140.78 93.5031 136.04C93.6381 129.06 93.4081 121.14 93.2851 114.7C96.4494 110.84 85.3883 108.2 82.9041 104.72C86.4314 100.4 85.2143 91.99 92.369 91.39C93.1291 85.13 90.9559 77.43 87.6275 71.54C88.6986 63.88 89.9708 56.25 90.6908 48.54C83.5201 63.34 86.4064 45.53 83.2391 52.56C81.1879 54.86 79.9408 51.83 78.6346 51.95C77.3385 46.13 74.9863 59.19 73.2511 48.29C71.0069 57.43 70.3848 41.99 68.7976 51.37L68.1216 53.34V53.34Z" fill="black"/>
<path d="M86.5065 87.15C86.5065 98.56 78.9417 107.82 69.6218 107.82C60.3008 107.82 52.7361 98.56 52.7361 87.15C52.7361 75.73 60.3008 66.47 69.6218 66.47C78.9417 66.47 86.5065 75.73 86.5065 87.15Z" fill="url(#paint0_linear)"/>
<path fill-rule="evenodd" clip-rule="evenodd" d="M53.1241 113.29L51.0787 111.87L57.8596 106.34L59.3748 109.54C59.3748 109.54 53.4552 113.56 53.1241 113.29V113.29Z" fill="url(#paint1_linear)"/>
<path d="M63.5952 106.96C56.5455 106.96 50.8699 112.64 50.8699 119.69L50.8694 134.62C60.2498 139.26 80.3983 139.51 91.4914 134.62L91.4924 119.69C91.4924 112.64 85.8169 106.96 78.7672 106.96H63.5957H63.5952Z" fill="url(#paint2_linear)"/>
<path fill-rule="evenodd" clip-rule="evenodd" d="M50.0807 77.85C50.0807 77.85 51.7789 63.47 70.6947 63.44C90.6727 64.25 90.6938 89.93 90.6938 89.93C85.8403 91.51 87.1884 93.19 79.9457 90.69C80.7368 84.99 79.4456 80.81 76.0203 77.88C71.7509 80.11 54.4541 79.38 50.0807 77.85V77.85Z" fill="#8D0000"/>
<path d="M69.0839 87.343C69.0839 88.5051 67.7206 89.4479 66.0415 89.4479C64.3624 89.4479 62.9991 88.5051 62.9991 87.343C62.9991 86.1809 64.3624 85.2381 66.0415 85.2381C67.7206 85.2381 69.0839 86.1809 69.0839 87.343Z" fill="white"/>
<path d="M66.4769 87.392C66.4769 88.3649 65.6979 89.1543 64.7384 89.1543C63.7789 89.1543 62.9999 88.3649 62.9999 87.392C62.9999 86.4191 63.7789 85.6298 64.7384 85.6298C65.6979 85.6298 66.4769 86.4191 66.4769 87.392Z" fill="#04CD04"/>
<path d="M65.1724 87.5389C65.1724 88.3227 64.6855 88.9585 64.0858 88.9585C63.4861 88.9585 62.9993 88.3227 62.9993 87.5389C62.9993 86.7552 63.4861 86.1193 64.0858 86.1193C64.6855 86.1193 65.1724 86.7552 65.1724 87.5389Z" fill="black"/>
<path d="M58.9938 87.003C58.9938 88.1651 57.6305 89.1079 55.9514 89.1079C54.2723 89.1079 52.9091 88.1651 52.9091 87.003C52.9091 85.8409 54.2723 84.8981 55.9514 84.8981C57.6305 84.8981 58.9938 85.8409 58.9938 87.003Z" fill="white"/>
<path d="M56.3868 87.052C56.3868 88.0249 55.6078 88.8143 54.6483 88.8143C53.6888 88.8143 52.9098 88.0249 52.9098 87.052C52.9098 86.0791 53.6888 85.2898 54.6483 85.2898C55.6078 85.2898 56.3868 86.0791 56.3868 87.052Z" fill="#04CD04"/>
<path d="M55.0823 87.1989C55.0823 87.9827 54.5954 88.6185 53.9957 88.6185C53.3961 88.6185 52.9092 87.9827 52.9092 87.1989C52.9092 86.4152 53.3961 85.7793 53.9957 85.7793C54.5954 85.7793 55.0823 86.4152 55.0823 87.1989Z" fill="black"/>
<path fill-rule="evenodd" clip-rule="evenodd" d="M58.0696 100.53C60.9899 100.67 65.3723 100.86 69.7988 100.53C65.1443 98.81 61.877 98.28 58.0696 100.53Z" fill="url(#paint3_linear)"/>
<path d="M77.6945 122.84L78.9576 122.96L80.3298 137.48L76.8644 137.73L77.6945 122.84Z" fill="#005A00"/>
<path fill-rule="evenodd" clip-rule="evenodd" d="M59.7317 88.74C58.9397 90.03 57.7865 92.14 57.9506 93.11C58.1146 94.09 59.6027 93.88 60.3928 94.44L60.7238 93.96C60.0288 93.47 58.9407 93.95 58.8056 93.15C58.6706 92.35 59.4867 90.24 60.2278 89.03L59.7317 88.74V88.74Z" fill="black"/>
<path fill-rule="evenodd" clip-rule="evenodd" d="M61.4669 101.32C62.571 103.66 60.7989 103.68 60.0088 104.05C59.3947 103.59 58.0796 102.22 57.6715 101.27C57.5425 106.58 59.3957 109.47 60.7399 110.94C62.083 112.4 70.0228 113.5 74.2982 110.94C78.5736 108.37 87.5385 99.6 82.661 92.42C81.993 92.88 80.7769 92.78 79.9168 92.62C80.0388 94.2 77.8976 98.81 73.9892 100.52C70.0808 102.23 67.2655 102.64 66.2364 104.17C64.2252 104.23 63.1021 103.42 64.0142 101.34C63.5231 101.5 62.008 101.32 61.4669 101.32V101.32Z" fill="#8D0000"/>
<path fill-rule="evenodd" clip-rule="evenodd" d="M62.386 95.96C62.386 95.96 55.3003 97.78 54.8802 99.05C54.4592 100.31 55.9323 101.78 55.9323 101.78C55.9323 101.78 60.5628 97.92 62.527 97.99C62.386 97.5 62.597 96.87 62.386 95.96V95.96Z" fill="#8D0000"/>
<path fill-rule="evenodd" clip-rule="evenodd" d="M62.925 95.98C62.925 95.98 70.3338 96.1 71.1139 97.17C71.8929 98.25 70.9278 100.1 70.9278 100.1C70.9278 100.1 65.1853 97.22 63.3321 97.88C63.3191 97.37 62.9971 96.91 62.925 95.98Z" fill="#8D0000"/>
<path fill-rule="evenodd" clip-rule="evenodd" d="M51.6975 60.43L54.2862 53.82L59.3747 60.79L62.9491 52.06L67.4065 60.6C67.4065 60.6 70.5378 51.76 70.5378 52.44C70.5378 53.12 73.8332 61.67 73.8332 61.67L77.5835 53.47L80.0748 61.58L84.3772 54.54L85.6273 60.79V65.79C85.6273 65.79 58.1246 67.04 55.6243 65.79C53.1241 64.54 51.6104 60.57 51.6975 60.43V60.43Z" fill="url(#paint4_linear)"/>
<path fill-rule="evenodd" clip-rule="evenodd" d="M52.406 71.97C62.483 74.36 75.0353 74.45 85.5553 71.97L87.9416 55.45L83.3451 61.99L80.5168 54.56L76.9805 61.81L73.3561 53.5L70.0858 61.72L66.3724 53.68L63.1021 62.43L58.2406 54.83L54.6163 62.69L49.047 55.8C49.047 55.8 52.1408 71.62 52.406 71.97V71.97Z" fill="url(#paint5_linear)"/>
<path fill-rule="evenodd" clip-rule="evenodd" d="M82.9031 106.53C82.231 107.04 79.9858 108.92 79.9858 108.92L89.3777 115.79L91.878 113.29L82.9031 106.53Z" fill="url(#paint6_linear)"/>
<path fill-rule="evenodd" clip-rule="evenodd" d="M68.7856 123.6L61.8429 115.65H79.2496L68.7856 123.6Z" fill="#FF8900"/>
<path fill-rule="evenodd" clip-rule="evenodd" d="M66.5104 117.76L63.7561 121.16L67.6955 123.91L63.4171 126.98L66.2694 129.81L69.1627 124.88L72.153 129.71L75.1963 126.41L70.1958 123.91L74.9193 120.69L71.8 117.94L69.2507 122.93L66.5104 117.76V117.76Z" fill="url(#paint7_linear)"/>
<path d="M62.9401 52.04L60.4079 58.23L58.2517 54.82L57.0015 57.54L54.2823 53.82L52.0635 59.51L49.0632 55.79C49.0632 55.79 52.1421 71.63 52.4071 71.98H52.4391C50.4929 75.08 50.0946 77.85 50.0946 77.85C50.962 78.16 52.6011 78.41 54.2823 78.64C53.3162 81.24 52.7511 84.09 52.7511 87.14C52.7511 91.35 53.7912 95.27 55.5634 98.54C55.3244 98.72 54.9293 98.88 54.8763 99.04C54.4553 100.3 55.9394 101.79 55.9394 101.79C55.9394 101.79 56.7265 101.23 57.1265 100.92C57.3256 101.19 57.4796 101.5 57.6896 101.76C57.6926 104.41 58.2066 106.37 58.8767 107.89C58.7977 107.92 58.7047 107.92 58.6267 107.95L57.8766 106.32L51.0947 111.85L52.9391 113.17C51.7538 115.1 50.8759 117.26 50.8759 119.7V134.6C56.8885 137.58 67.2375 138.53 76.8785 137.7V137.73L80.3159 137.48V137.45C84.4513 136.87 88.3697 135.99 91.505 134.6V119.7C91.505 117.92 91.1269 116.23 90.4739 114.7L91.88 113.29L82.9101 106.54C82.6731 106.72 82.3401 107.01 81.879 107.39C80.9399 107.15 79.9518 106.99 78.9417 106.98C81.38 104.45 83.6512 101.23 84.0042 97.85C84.9263 96 85.6244 94 86.0354 91.82C87.2906 91.55 88.1636 90.74 90.6929 89.92C90.6929 89.92 90.6519 79.65 85.5664 71.89C85.5934 71.7 87.9426 55.45 87.9426 55.45L85.3164 59.2L84.3793 54.54L82.004 58.45L80.5039 54.57L78.9097 57.82L77.5976 53.48L75.4094 58.26L73.3472 53.51L72.065 56.73C71.305 54.67 70.5339 52.76 70.5339 52.45C70.5339 51.98 69.3028 55.48 68.3777 58.04L66.3775 53.67L65.2834 56.54L62.9401 52.04V52.04Z" fill="url(#paint8_linear)"/>
<defs>
<linearGradient id="paint0_linear" x1="62.5222" y1="103.176" x2="79.1533" y2="72.8753" gradientUnits="userSpaceOnUse">
<stop stop-color="#FFD8C1"/>
<stop offset="1" stop-color="#FFEDED"/>
</linearGradient>
<linearGradient id="paint1_linear" x1="51.374" y1="110.17" x2="57.8416" y2="109.02" gradientUnits="userSpaceOnUse">
<stop stop-color="#F0EB00"/>
<stop offset="1" stop-color="#FFFF00"/>
</linearGradient>
<linearGradient id="paint2_linear" x1="61.6387" y1="128.743" x2="83.4159" y2="110.633" gradientUnits="userSpaceOnUse">
<stop stop-color="#008200"/>
<stop offset="1" stop-color="#00D000"/>
</linearGradient>
<linearGradient id="paint3_linear" x1="61.35" y1="103.299" x2="63.9342" y2="99.7949" gradientUnits="userSpaceOnUse">
<stop stop-color="#C10000"/>
<stop offset="1" stop-color="#FF433E"/>
</linearGradient>
<linearGradient id="paint4_linear" x1="58.0886" y1="65.38" x2="85.627" y2="58.2196" gradientUnits="userSpaceOnUse">
<stop stop-color="#F0A700"/>
<stop offset="1" stop-color="#FFED00"/>
</linearGradient>
<linearGradient id="paint5_linear" x1="58.5937" y1="70.982" x2="86.3501" y2="63.6436" gradientUnits="userSpaceOnUse">
<stop stop-color="#F0EB00"/>
<stop offset="1" stop-color="#FFFF00"/>
</linearGradient>
<linearGradient id="paint6_linear" x1="83.8752" y1="111.96" x2="86.6623" y2="110.19" gradientUnits="userSpaceOnUse">
<stop stop-color="#F0EB00"/>
<stop offset="1" stop-color="#FFFF00"/>
</linearGradient>
<linearGradient id="paint7_linear" x1="65.2583" y1="126.92" x2="72.5435" y2="121.089" gradientUnits="userSpaceOnUse">
<stop stop-color="#F0EB00"/>
<stop offset="1" stop-color="#FFFF00"/>
</linearGradient>
<linearGradient id="paint8_linear" x1="124.528" y1="35.1746" x2="80.2907" y2="101.276" gradientUnits="userSpaceOnUse">
<stop stop-color="white"/>
<stop offset="1" stop-color="white" stop-opacity="0"/>
</linearGradient>
</defs>
</svg>
