<svg width="140" height="190" viewBox="0 0 140 190" fill="none" xmlns="http://www.w3.org/2000/svg">
<path d="M21 5H124C132.86 5 140 12.136 140 21V174C140 182.86 132.86 190 124 190H21C12.136 190 5 182.86 5 174V21C5 12.136 12.136 5 21 5Z" fill="black" fill-opacity="0.49804"/>
<path d="M17 1H120C128.86 1 136 8.136 136 17V170C136 178.86 128.86 186 120 186H17C8.136 186 1 178.86 1 170V17C1 8.136 8.136 1 17 1Z" fill="white"/>
<path d="M19 3H122C130.86 3 138 10.136 138 19V172C138 180.86 130.86 188 122 188H19C10.136 188 3 180.86 3 172V19C3 10.136 10.136 3 19 3Z" fill="#C7891F"/>
<path d="M18 2H121C129.86 2 137 9.136 137 18V171C137 179.86 129.86 187 121 187H18C9.136 187 2 179.86 2 171V18C2 9.136 9.136 2 18 2Z" fill="url(#paint0_linear)"/>
<path d="M22.167 9.99999H116.58C124.71 9.99999 131.25 16.541 131.25 24.667V164.917C131.25 173.037 124.71 179.577 116.58 179.577H22.167C14.041 179.577 7.5 173.037 7.5 164.917V24.667C7.5 16.538 14.041 9.99699 22.167 9.99699V9.99999Z" fill="url(#paint1_linear)"/>
<path d="M22.156 9.375C13.695 9.375 6.875 16.195 6.875 24.656V164.906C6.875 173.366 13.695 180.216 22.156 180.216H116.59C125.05 180.216 131.88 173.366 131.88 164.906V24.656C131.88 16.191 125.05 9.371 116.59 9.371H22.156V9.375ZM22.156 10.625H116.59C124.38 10.625 130.62 16.866 130.62 24.656V164.906C130.62 172.696 124.38 178.966 116.59 178.966H22.156C14.366 178.966 8.125 172.696 8.125 164.906V24.656C8.125 16.862 14.366 10.621 22.156 10.621V10.625Z" fill="url(#paint2_linear)"/>
<path d="M78.815 48.952L66.033 50.421L58.721 49.577C56.547 49.32 54.583 50.203 53.19 51.671L51.846 52.077L36.252 53.89C33.63 54.194 31.599 56.001 30.783 58.327L15.783 62.796C12.248 63.847 10.264 67.542 11.315 71.077L29.44 132.11C29.992 133.97 31.301 135.35 32.908 136.14C33.09 136.25 33.279 136.33 33.471 136.42C33.722 136.57 33.983 136.68 34.252 136.8C35.837 137.85 37.808 138.29 39.783 137.7L66.69 129.7L71.94 130.33L92.596 139.55C95.964 141.05 99.875 139.54 101.38 136.17L127.31 78.015C128.16 76.122 127.98 74.104 127.13 72.39C127.05 72.133 127.01 71.885 126.91 71.64C126.84 71.412 126.75 71.201 126.66 70.983C126.08 69.292 124.86 67.834 123.1 67.046L107.88 60.233C107.58 59.612 107.22 59.046 106.75 58.546C106.58 58.284 106.43 58.031 106.22 57.796C106.1 57.635 105.98 57.508 105.85 57.358C104.79 55.892 103.22 54.806 101.28 54.577L92.94 53.577L83.971 49.577C82.897 49.098 81.78 49.013 80.69 49.108C80.08 49.005 79.461 48.877 78.815 48.952V48.952Z" fill="url(#paint3_linear)"/>
<path d="M78.7499 48.344L66.0939 49.812H65.9689L58.7809 48.969C56.5119 48.701 54.4959 49.606 52.9999 51.062L51.6559 51.469L36.1879 53.281C33.4559 53.598 31.3099 55.416 30.3439 57.781L15.5939 62.188C11.7359 63.334 9.57305 67.395 10.7189 71.25L28.8439 132.28C29.4449 134.3 30.866 135.8 32.594 136.66V136.69C32.601 136.69 32.6179 136.68 32.6249 136.69C32.8349 136.81 32.9949 136.89 33.1559 136.97H33.1879C33.4439 137.12 33.6769 137.21 33.9059 137.31C33.9379 137.33 33.9689 137.36 33.9999 137.38V137.34C35.7039 138.45 37.838 138.95 39.969 138.31L66.8119 130.34L71.688 130.91H71.7189L92.3439 140.12C96.0189 141.76 100.3 140.11 101.94 136.44L127.88 78.281C128.79 76.24 128.6 74.059 127.72 72.219C127.71 72.194 127.69 72.152 127.69 72.125C127.64 71.931 127.58 71.714 127.47 71.438V71.406C127.4 71.194 127.34 70.984 127.25 70.781C127.24 70.759 127.23 70.741 127.22 70.719C126.58 68.904 125.25 67.32 123.34 66.469L108.28 59.719C108 59.185 107.7 58.678 107.28 58.219C107.26 58.191 107.24 58.153 107.22 58.125C107.08 57.911 106.92 57.672 106.72 57.438C106.7 57.415 106.7 57.396 106.69 57.375C106.57 57.219 106.44 57.103 106.34 57C106.33 56.986 106.32 56.951 106.31 56.938H106.28C105.14 55.386 103.44 54.217 101.34 53.969L93.188 53H93.1559L84.2189 49C83.0749 48.49 81.8949 48.42 80.7809 48.5C80.7359 48.492 80.6709 48.508 80.6249 48.5C80.0639 48.402 79.4639 48.261 78.7499 48.344V48.344ZM78.8749 49.562C79.3949 49.502 79.9689 49.613 80.5939 49.719L80.6559 49.75L80.7499 49.719C81.7709 49.63 82.7669 49.732 83.7189 50.156L92.688 54.156L92.7809 54.188H92.8749L101.22 55.188C102.97 55.394 104.38 56.374 105.34 57.719V57.75L105.38 57.781C105.52 57.953 105.64 58.047 105.72 58.156V58.188L105.75 58.219C105.91 58.405 106.04 58.605 106.22 58.875L106.25 58.938L106.28 58.969C106.7 59.412 107.04 59.922 107.31 60.5L107.41 60.719L107.62 60.812L122.84 67.625C124.45 68.34 125.54 69.647 126.06 71.188V71.219L126.09 71.25C126.18 71.45 126.25 71.638 126.31 71.844L126.34 71.875C126.41 72.036 126.45 72.263 126.53 72.562V72.625L126.56 72.656C127.34 74.227 127.51 76.039 126.75 77.75L100.81 135.91C99.4459 138.97 95.9059 140.33 92.8439 138.97L72.188 129.75L72.0939 129.72H71.9999L66.7499 129.09L66.6249 129.06L66.4999 129.09L39.594 137.09C37.809 137.62 36.047 137.25 34.594 136.28L34.5619 136.25L34.4999 136.22C34.2249 136.1 33.9819 136 33.7809 135.88L33.7499 135.84C33.5399 135.74 33.351 135.67 33.219 135.59H33.1879C31.7189 134.87 30.5309 133.62 30.0309 131.94L11.9059 70.906C10.9509 67.691 12.7559 64.361 15.9689 63.406L30.9689 58.938L31.2809 58.844L31.3749 58.531C32.1169 56.415 33.9349 54.776 36.3119 54.5L51.9059 52.688H52.0309L53.3749 52.281L53.5309 52.219L53.6559 52.094C54.9339 50.748 56.6919 49.956 58.6559 50.188L65.9689 51.031L66.0309 51.062L66.0939 51.031L78.8749 49.562V49.562Z" fill="url(#paint4_linear)"/>
<defs>
<linearGradient id="paint0_linear" x1="2" y1="62.1" x2="109" y2="127.7" gradientUnits="userSpaceOnUse">
<stop stop-color="#EBF0D0"/>
<stop offset="1" stop-color="#FFFFEB"/>
</linearGradient>
<linearGradient id="paint1_linear" x1="118.082" y1="171.633" x2="-3.66683" y2="59.9176" gradientUnits="userSpaceOnUse">
<stop stop-color="#000086"/>
<stop offset="1" stop-color="#005AFF"/>
</linearGradient>
<linearGradient id="paint2_linear" x1="18.8429" y1="20.0536" x2="157.062" y2="120.308" gradientUnits="userSpaceOnUse">
<stop stop-color="#000086"/>
<stop offset="1" stop-color="#005AFF"/>
</linearGradient>
<linearGradient id="paint3_linear" x1="35.9652" y1="61.7545" x2="89.9145" y2="139.985" gradientUnits="userSpaceOnUse">
<stop stop-color="#000086"/>
<stop offset="1" stop-color="#005AFF"/>
</linearGradient>
<linearGradient id="paint4_linear" x1="109.035" y1="128.48" x2="45.86" y2="39.9964" gradientUnits="userSpaceOnUse">
<stop stop-color="#000086"/>
<stop offset="1" stop-color="#005AFF"/>
</linearGradient>
</defs>
</svg>
