<svg width="140" height="190" viewBox="0 0 140 190" fill="none" xmlns="http://www.w3.org/2000/svg">
<path d="M21 5H124C132.86 5 140 12.136 140 21V174C140 182.86 132.86 190 124 190H21C12.136 190 5 182.86 5 174V21C5 12.136 12.136 5 21 5Z" fill="black" fill-opacity="0.49804"/>
<path d="M17 1H120C128.86 1 136 8.136 136 17V170C136 178.86 128.86 186 120 186H17C8.136 186 1 178.86 1 170V17C1 8.136 8.136 1 17 1Z" fill="#E7E7E7"/>
<path d="M19 3H122C130.86 3 138 10.136 138 19V172C138 180.86 130.86 188 122 188H19C10.136 188 3 180.86 3 172V19C3 10.136 10.136 3 19 3Z" fill="#C7891F"/>
<path d="M18 2H121C129.86 2 137 9.136 137 18V171C137 179.86 129.86 187 121 187H18C9.136 187 2 179.86 2 171V18C2 9.136 9.136 2 18 2Z" fill="white"/>
<path d="M22.289 42.783H21.79C17.703 42.783 14.525 41.416 12.254 38.683C9.98369 35.951 8.84839 32.146 8.84839 27.27C8.84839 22.408 9.97809 18.596 12.238 15.837C14.508 13.077 17.631 11.698 21.607 11.698C25.628 11.698 28.757 13.064 30.994 15.797C33.242 18.53 34.367 22.354 34.367 27.27C34.367 30.646 33.768 33.553 32.572 35.991C31.387 38.429 29.676 40.264 27.439 41.497L32.439 48.248H26.342L22.289 42.783V42.783ZM21.607 17.304C19.658 17.304 18.146 18.175 17.072 19.916C15.998 21.657 15.461 24.109 15.461 27.27C15.461 30.485 15.987 32.95 17.039 34.665C18.091 36.366 19.614 37.217 21.607 37.217C23.568 37.217 25.085 36.346 26.16 34.604C27.234 32.863 27.771 30.418 27.771 27.27C27.771 24.109 27.234 21.657 26.16 19.916C25.085 18.175 23.568 17.304 21.607 17.304" fill="#FF0000"/>
<path d="M116.9 146.09H117.4C121.49 146.09 124.67 147.45 126.94 150.19C129.21 152.92 130.34 156.72 130.34 161.6C130.34 166.46 129.21 170.27 126.95 173.03C124.68 175.79 121.56 177.17 117.58 177.17C113.56 177.17 110.43 175.81 108.2 173.07C105.95 170.34 104.82 166.52 104.82 161.6C104.82 158.22 105.42 155.32 106.62 152.88C107.8 150.44 109.51 148.61 111.75 147.37L106.75 140.62H112.85L116.9 146.09V146.09ZM117.58 171.57C119.53 171.57 121.04 170.7 122.12 168.95C123.19 167.21 123.73 164.76 123.73 161.6C123.73 158.38 123.2 155.92 122.15 154.21C121.1 152.5 119.58 151.65 117.58 151.65C115.62 151.65 114.1 152.52 113.03 154.27C111.96 156.01 111.42 158.45 111.42 161.6C111.42 164.76 111.96 167.21 113.03 168.95C114.1 170.7 115.62 171.57 117.58 171.57" fill="#FF0000"/>
<path fill-rule="evenodd" clip-rule="evenodd" d="M20.6599 48.665C16.5339 56.91 13.5249 61.163 7.31995 65.705C13.1919 70.192 17.3329 74.829 20.7799 82.325C23.8589 75.204 27.6269 69.895 34.1699 65.482C27.5879 62.133 23.7769 56.828 20.6599 48.665V48.665Z" fill="#FF0000"/>
<path fill-rule="evenodd" clip-rule="evenodd" d="M118.59 106.34C114.46 114.59 111.46 118.84 105.25 123.38C111.12 127.87 115.26 132.5 118.71 140C121.79 132.88 125.56 127.57 132.1 123.16C125.52 119.81 121.71 114.5 118.59 106.34V106.34Z" fill="#FF0000"/>
<path d="M55.838 46.053C56.086 54.443 47.063 34.213 50.888 47.073C50.71 52.023 56.633 59.723 52.531 62.733C47.042 65.933 43.116 71.413 41.25 77.453C47.974 76.493 44.033 82.253 44.739 86.353C44.944 94.103 50.54 102.483 57.514 106.253C49.048 107.883 45.974 115.133 46.845 122.143C41.151 125.963 46.836 131.123 45.994 134.663C47.614 138.653 54.934 138.433 59.062 139.603C69.584 140.473 80.5 140.153 90.41 136.103C89.58 126.683 94.64 113.843 82.12 107.463C88.34 107.343 96.22 105.893 102.25 104.573C95.39 101.863 83.32 98.993 85.49 89.263C87.03 77.803 83.22 62.443 70.062 60.293C71.091 53.973 72.611 47.703 72.562 41.263C66.885 55.773 68.016 32.443 65.344 42.483C63.29 50.283 61.821 32.103 60.162 45.453C58.189 43.273 56.461 31.423 56.31 43.183L55.838 46.053V46.053Z" fill="black"/>
<path d="M80.41 85.183C80.41 96.593 72.8469 105.863 63.5269 105.863C54.2069 105.863 46.6429 96.593 46.6429 85.183C46.6429 73.773 54.2069 64.503 63.5269 64.503C72.8469 64.503 80.41 73.773 80.41 85.183Z" fill="url(#paint0_linear)"/>
<path d="M60.487 107.013C53.438 107.013 47.768 112.683 47.768 119.733V122.923C46.591 124.753 45.435 126.473 45.674 127.883C45.851 128.933 46.767 129.783 47.768 130.513V134.633C57.148 139.283 77.3 139.533 88.39 134.633V119.733C88.39 112.683 82.72 107.013 75.674 107.013H60.487V107.013Z" fill="url(#paint1_linear)"/>
<path fill-rule="evenodd" clip-rule="evenodd" d="M43.988 75.883C43.988 75.883 47.885 61.753 64.6 61.473C81.03 61.193 85.42 75.353 83.57 91.303C81.85 99.803 95.47 104.093 95.47 104.093C90.61 105.663 79.02 107.103 71.774 104.603C78.06 99.883 72.82 77.263 69.395 74.323C65.126 77.713 48.361 77.413 43.988 75.883V75.883Z" fill="url(#paint2_linear)"/>
<path d="M63.1881 84.5691C63.1881 86.2886 61.825 87.6836 60.1461 87.6836C58.4671 87.6836 57.104 86.2886 57.104 84.5691C57.104 82.8496 58.4671 81.4546 60.1461 81.4546C61.825 81.4546 63.1881 82.8496 63.1881 84.5691Z" fill="white"/>
<path d="M60.5814 84.6416C60.5814 86.0812 59.8024 87.2491 58.8431 87.2491C57.8837 87.2491 57.1047 86.0812 57.1047 84.6416C57.1047 83.202 57.8837 82.0341 58.8431 82.0341C59.8024 82.0341 60.5814 83.202 60.5814 84.6416Z" fill="#0F90CC"/>
<path d="M59.277 84.859C59.277 86.0186 58.7902 86.9594 58.1906 86.9594C57.591 86.9594 57.1041 86.0186 57.1041 84.859C57.1041 83.6993 57.591 82.7585 58.1906 82.7585C58.7902 82.7585 59.277 83.6993 59.277 84.859Z" fill="black"/>
<path fill-rule="evenodd" clip-rule="evenodd" d="M56.3833 51.8264L57.5813 43.5769L62.1337 54.738C62.1337 54.738 66.2069 42.8005 66.2069 43.1887C66.2069 43.5771 68.9623 52.0205 68.9623 52.0205L66.8059 58.8142H57.5813L56.3833 51.8266V51.8264Z" fill="url(#paint3_linear)"/>
<path fill-rule="evenodd" clip-rule="evenodd" d="M52.9091 47.1678L57.2219 64.5403C60.4565 65.5759 64.4099 65.4468 67.2851 64.6374L70.2801 47.3619L65.0089 55.9997L62.2535 44.4504L59.4981 55.9026L52.9091 47.168V47.1678Z" fill="url(#paint4_linear)"/>
<path d="M53.0991 84.0691C53.0991 85.7886 51.736 87.1836 50.0571 87.1836C48.3781 87.1836 47.015 85.7886 47.015 84.0691C47.015 82.3496 48.3781 80.9546 50.0571 80.9546C51.736 80.9546 53.0991 82.3496 53.0991 84.0691Z" fill="white"/>
<path d="M50.4924 84.1416C50.4924 85.5812 49.7135 86.7491 48.7541 86.7491C47.7947 86.7491 47.0157 85.5812 47.0157 84.1416C47.0157 82.702 47.7947 81.5341 48.7541 81.5341C49.7135 81.5341 50.4924 82.702 50.4924 84.1416Z" fill="#0F90CC"/>
<path d="M49.188 84.359C49.188 85.5186 48.7012 86.4594 48.1016 86.4594C47.502 86.4594 47.0151 85.5186 47.0151 84.359C47.0151 83.1993 47.502 82.2585 48.1016 82.2585C48.7012 82.2585 49.188 83.1993 49.188 84.359Z" fill="black"/>
<path fill-rule="evenodd" clip-rule="evenodd" d="M51.9771 97.223C55.5071 101.633 58.9121 100.123 63.7041 97.223C59.4171 96.973 56.5161 95.713 51.9771 97.223Z" fill="url(#paint5_linear)"/>
<path d="M74.599 122.873L75.863 123.003L77.234 137.513L73.769 137.763L74.599 122.873V122.873Z" fill="#004CB0"/>
<path fill-rule="evenodd" clip-rule="evenodd" d="M57.969 128.323L57.156 128.883C59.2 131.843 60.898 134.563 63.043 134.943C65.189 135.323 67.716 133.393 69.75 132.483L69.344 131.573C67.388 132.453 65.5 132.993 63.656 132.663C61.812 132.343 59.915 131.143 57.969 128.323V128.323Z" fill="#004CB0"/>
<path fill-rule="evenodd" clip-rule="evenodd" d="M53.638 86.773C52.846 88.063 51.904 89.263 52.068 90.243C52.232 91.213 53.51 91.913 54.3 92.473L54.631 91.993C53.936 91.503 53.479 90.863 53.344 90.063C53.209 89.263 53.394 88.273 54.134 87.073L53.638 86.773V86.773Z" fill="black"/>
<path fill-rule="evenodd" clip-rule="evenodd" d="M58.474 107.553C58.474 107.553 52.156 119.323 53.592 127.933C59.048 118.173 66.227 108.693 70.248 106.973C68.812 106.403 59.91 106.683 58.474 107.553V107.553Z" fill="url(#paint6_linear)"/>
<path fill-rule="evenodd" clip-rule="evenodd" d="M45.586 127.813C45.865 129.463 48.037 130.653 49.38 131.613L49.707 131.343C48.526 130.503 47.943 130.383 47.713 129.023C47.484 127.663 45.306 126.153 45.586 127.813Z" fill="#004CB0"/>
<path d="M66.219 43.203C66.219 42.963 64.849 46.933 63.656 50.393L62.25 44.453L60.656 51.103L57.594 43.573L56.375 51.763L52.906 47.173L56.812 62.953C46.717 66.543 44 75.893 44 75.893C44.889 76.203 46.514 76.423 48.219 76.603C47.236 79.233 46.656 82.133 46.656 85.203C46.656 96.613 54.211 105.853 63.531 105.853C67.395 105.853 70.904 104.193 73.75 101.513C73.283 102.823 72.684 103.933 71.781 104.603C79.02 107.103 90.62 105.683 95.47 104.103C95.47 104.103 81.85 99.793 83.56 91.293C85.28 76.473 81.49 63.373 67.781 61.793L70.281 47.353L68.438 50.353C67.754 48.253 66.219 43.513 66.219 43.203V43.203ZM60.5 107.013C53.451 107.013 47.781 112.683 47.781 119.733V122.923C46.604 124.753 45.448 126.473 45.688 127.893C45.864 128.933 46.78 129.783 47.781 130.513V134.673C53.793 137.653 64.142 138.593 73.781 137.763C74.93 137.663 76.102 137.673 77.219 137.513C81.35 136.933 85.27 136.053 88.41 134.673V119.733C88.41 112.683 82.71 107.013 75.656 107.013H60.5Z" fill="url(#paint7_linear)"/>
<defs>
<linearGradient id="paint0_linear" x1="56.4291" y1="101.209" x2="73.0611" y2="70.9097" gradientUnits="userSpaceOnUse">
<stop stop-color="#FFD8C1"/>
<stop offset="1" stop-color="#FFEDED"/>
</linearGradient>
<linearGradient id="paint1_linear" x1="58.5457" y1="128.776" x2="80.3225" y2="110.668" gradientUnits="userSpaceOnUse">
<stop stop-color="#0083CC"/>
<stop offset="1" stop-color="#24A4CC"/>
</linearGradient>
<linearGradient id="paint2_linear" x1="57.3744" y1="98.6555" x2="96.6141" y2="57.1314" gradientUnits="userSpaceOnUse">
<stop stop-color="#F0A700"/>
<stop offset="1" stop-color="#FFED00"/>
</linearGradient>
<linearGradient id="paint3_linear" x1="58.0605" y1="56.3877" x2="64.4305" y2="49.1206" gradientUnits="userSpaceOnUse">
<stop stop-color="#F0A700"/>
<stop offset="1" stop-color="#FFED00"/>
</linearGradient>
<linearGradient id="paint4_linear" x1="60.5763" y1="62.5991" x2="65.903" y2="56.6216" gradientUnits="userSpaceOnUse">
<stop stop-color="#F0EB00"/>
<stop offset="1" stop-color="#FFFF00"/>
</linearGradient>
<linearGradient id="paint5_linear" x1="55.2571" y1="99.9924" x2="57.8414" y2="96.4882" gradientUnits="userSpaceOnUse">
<stop stop-color="#C10000"/>
<stop offset="1" stop-color="#FF433E"/>
</linearGradient>
<linearGradient id="paint6_linear" x1="55.315" y1="116.991" x2="67.988" y2="107.801" gradientUnits="userSpaceOnUse">
<stop stop-color="#FFD8C1"/>
<stop offset="1" stop-color="#FFEDED"/>
</linearGradient>
<linearGradient id="paint7_linear" x1="137.426" y1="31.805" x2="57.28" y2="83.623" gradientUnits="userSpaceOnUse">
<stop stop-color="white"/>
<stop offset="1" stop-color="white" stop-opacity="0"/>
</linearGradient>
</defs>
</svg>
