<svg width="140" height="190" viewBox="0 0 140 190" fill="none" xmlns="http://www.w3.org/2000/svg">
<path d="M21 5H124C132.86 5 140 12.136 140 21V174C140 182.86 132.86 190 124 190H21C12.136 190 5 182.86 5 174V21C5 12.136 12.136 5 21 5Z" fill="black" fill-opacity="0.49804"/>
<path d="M17 1H120C128.86 1 136 8.136 136 17V170C136 178.86 128.86 186 120 186H17C8.136 186 1 178.86 1 170V17C1 8.136 8.136 1 17 1Z" fill="#E7E7E7"/>
<path d="M19 3H122C130.86 3 138 10.136 138 19V172C138 180.86 130.86 188 122 188H19C10.136 188 3 180.86 3 172V19C3 10.136 10.136 3 19 3Z" fill="#C7891F"/>
<path d="M18 2H121C129.86 2 137 9.136 137 18V171C137 179.86 129.86 187 121 187H18C9.136 187 2 179.86 2 171V18C2 9.136 9.136 2 18 2Z" fill="white"/>
<path d="M22.039 42.783H21.54C17.453 42.783 14.275 41.416 12.004 38.683C9.73369 35.951 8.59839 32.146 8.59839 27.27C8.59839 22.408 9.72809 18.596 11.988 15.837C14.258 13.077 17.381 11.698 21.358 11.698C25.378 11.698 28.507 13.064 30.744 15.797C32.992 18.529 34.117 22.354 34.117 27.27C34.117 30.646 33.518 33.553 32.322 35.991C31.137 38.429 29.426 40.264 27.189 41.497L32.189 48.248H26.092L22.039 42.783V42.783ZM21.358 17.304C19.408 17.304 17.896 18.174 16.822 19.916C15.748 21.657 15.211 24.109 15.211 27.27C15.211 30.485 15.737 32.95 16.789 34.665C17.841 36.366 19.364 37.217 21.358 37.217C23.318 37.217 24.835 36.346 25.91 34.604C26.984 32.863 27.521 30.418 27.521 27.27C27.521 24.109 26.984 21.657 25.91 19.916C24.835 18.174 23.318 17.304 21.358 17.304" fill="#FF0000"/>
<path d="M116.65 146.09H117.15C121.24 146.09 124.42 147.45 126.69 150.19C128.96 152.92 130.09 156.72 130.09 161.6C130.09 166.46 128.96 170.27 126.7 173.03C124.43 175.79 121.31 177.17 117.33 177.17C113.31 177.17 110.18 175.81 107.95 173.07C105.7 170.34 104.57 166.52 104.57 161.6C104.57 158.22 105.17 155.32 106.37 152.88C107.55 150.44 109.26 148.61 111.5 147.37L106.5 140.62H112.6L116.65 146.09V146.09ZM117.33 171.57C119.28 171.57 120.79 170.7 121.87 168.95C122.94 167.21 123.48 164.76 123.48 161.6C123.48 158.38 122.95 155.92 121.9 154.21C120.85 152.5 119.33 151.65 117.33 151.65C115.37 151.65 113.85 152.52 112.78 154.27C111.71 156.01 111.17 158.45 111.17 161.6C111.17 164.76 111.71 167.21 112.78 168.95C113.85 170.7 115.37 171.57 117.33 171.57" fill="#FF0000"/>
<path fill-rule="evenodd" clip-rule="evenodd" d="M13.5544 48.8447C12.7503 48.8489 11.8671 49.0461 10.892 49.4868C0.24873 57.6839 14.5959 70.9091 20.6552 82.2625L20.8325 82.3212C27.4901 69.9102 40.1657 56.2527 30.4785 49.4868C22.8079 46.0242 20.7565 57.5454 20.6868 57.9609C20.6235 57.5958 19.0565 48.8069 13.5544 48.8447Z" fill="#FF0000"/>
<path fill-rule="evenodd" clip-rule="evenodd" d="M125.308 139.993C126.112 139.989 126.995 139.791 127.97 139.351C138.613 131.154 124.266 117.928 118.207 106.575L118.03 106.516C111.372 118.927 98.6963 132.585 108.383 139.351C116.054 142.813 118.106 131.292 118.175 130.877C118.238 131.242 119.806 140.031 125.308 139.993Z" fill="#FF0000"/>
<path d="M55.838 46.05C56.086 54.44 47.063 34.21 50.888 47.07C50.71 52.02 56.633 59.72 52.531 62.73C47.042 65.93 43.116 71.41 41.25 77.45C47.974 76.49 44.033 82.25 44.739 86.35C44.944 94.1 50.54 102.48 57.514 106.25C49.048 107.88 45.974 115.13 46.845 122.14C41.151 125.96 46.836 131.12 45.994 134.66C47.614 138.65 54.934 138.43 59.062 139.6C69.584 140.47 80.503 140.15 90.41 136.1C89.58 126.68 94.64 113.84 82.12 107.46C88.34 107.34 96.22 105.89 102.25 104.57C95.39 101.86 83.32 98.99 85.49 89.26C87.03 77.8 83.22 62.44 70.062 60.29C71.091 53.97 72.611 47.7 72.562 41.26C66.885 55.77 68.016 32.44 65.344 42.48C63.29 50.28 61.821 32.1 60.162 45.45C58.189 43.27 56.461 31.42 56.31 43.18L55.838 46.05V46.05Z" fill="black"/>
<path d="M80.411 85.18C80.411 96.59 72.847 105.86 63.527 105.86C54.207 105.86 46.643 96.59 46.643 85.18C46.643 73.77 54.207 64.5 63.527 64.5C72.847 64.5 80.411 73.77 80.411 85.18Z" fill="url(#paint0_linear)"/>
<path d="M60.487 107.01C53.438 107.01 47.768 112.68 47.768 119.73V122.92C46.591 124.75 45.435 126.47 45.674 127.88C45.851 128.93 46.767 129.78 47.768 130.51V134.63C57.148 139.28 77.3 139.53 88.39 134.63V119.73C88.39 112.68 82.72 107.01 75.674 107.01H60.487V107.01Z" fill="url(#paint1_linear)"/>
<path fill-rule="evenodd" clip-rule="evenodd" d="M43.988 75.88C43.988 75.88 47.885 61.75 64.6 61.47C81.03 61.19 85.42 75.35 83.57 91.3C81.85 99.8 95.47 104.09 95.47 104.09C90.61 105.66 79.016 107.1 71.774 104.6C78.062 99.88 72.82 77.25 69.395 74.32C65.126 77.71 48.361 77.41 43.988 75.88Z" fill="#8D0000"/>
<path d="M63.1881 84.5661C63.1881 86.2856 61.825 87.6806 60.1461 87.6806C58.4671 87.6806 57.104 86.2856 57.104 84.5661C57.104 82.8466 58.4671 81.4516 60.1461 81.4516C61.825 81.4516 63.1881 82.8466 63.1881 84.5661Z" fill="white"/>
<path d="M60.5813 84.6386C60.5813 86.0782 59.8024 87.2461 58.843 87.2461C57.8836 87.2461 57.1047 86.0782 57.1047 84.6386C57.1047 83.199 57.8836 82.0311 58.843 82.0311C59.8024 82.0311 60.5813 83.199 60.5813 84.6386Z" fill="#00CC00"/>
<path d="M59.2769 84.856C59.2769 86.0156 58.7901 86.9564 58.1905 86.9564C57.5909 86.9564 57.1041 86.0156 57.1041 84.856C57.1041 83.6963 57.5909 82.7555 58.1905 82.7555C58.7901 82.7555 59.2769 83.6963 59.2769 84.856Z" fill="black"/>
<path fill-rule="evenodd" clip-rule="evenodd" d="M56.3833 51.8234L57.5813 43.5739L62.1337 54.735C62.1337 54.735 66.2069 42.7974 66.2069 43.1857C66.2069 43.5741 68.9623 52.0175 68.9623 52.0175L66.8059 58.8112H57.5813L56.3833 51.8236V51.8234Z" fill="url(#paint2_linear)"/>
<path fill-rule="evenodd" clip-rule="evenodd" d="M52.9091 47.1648L57.2219 64.5373C60.4565 65.5729 64.4099 65.4438 67.2851 64.6344L70.2801 47.3589L65.0089 55.9967L62.2535 44.4473L59.4981 55.8996L52.9091 47.165V47.1648Z" fill="url(#paint3_linear)"/>
<path d="M53.0991 84.0661C53.0991 85.7856 51.736 87.1806 50.0571 87.1806C48.3781 87.1806 47.015 85.7856 47.015 84.0661C47.015 82.3466 48.3781 80.9516 50.0571 80.9516C51.736 80.9516 53.0991 82.3466 53.0991 84.0661Z" fill="white"/>
<path d="M50.4923 84.1386C50.4923 85.5782 49.7134 86.7461 48.754 86.7461C47.7946 86.7461 47.0157 85.5782 47.0157 84.1386C47.0157 82.699 47.7946 81.5311 48.754 81.5311C49.7134 81.5311 50.4923 82.699 50.4923 84.1386Z" fill="#00CC00"/>
<path d="M49.188 84.356C49.188 85.5156 48.7011 86.4564 48.1015 86.4564C47.5019 86.4564 47.0151 85.5156 47.0151 84.356C47.0151 83.1963 47.5019 82.2555 48.1015 82.2555C48.7011 82.2555 49.188 83.1963 49.188 84.356Z" fill="black"/>
<path fill-rule="evenodd" clip-rule="evenodd" d="M51.977 97.22C55.507 101.63 58.912 100.12 63.704 97.22C59.417 96.97 56.516 95.71 51.977 97.22Z" fill="url(#paint4_linear)"/>
<path d="M74.599 122.87L75.863 123L77.234 137.51L73.769 137.76L74.599 122.87V122.87Z" fill="#005A00"/>
<path fill-rule="evenodd" clip-rule="evenodd" d="M57.969 128.32L57.156 128.88C59.2 131.84 60.898 134.56 63.043 134.94C65.189 135.32 67.716 133.39 69.75 132.48L69.344 131.57C67.388 132.45 65.5 132.99 63.656 132.66C61.812 132.34 59.915 131.14 57.969 128.32V128.32Z" fill="#005A00"/>
<path fill-rule="evenodd" clip-rule="evenodd" d="M53.638 86.77C52.846 88.06 51.904 89.26 52.068 90.24C52.232 91.21 53.51 91.91 54.3 92.47L54.631 91.99C53.936 91.5 53.479 90.86 53.344 90.06C53.209 89.26 53.394 88.27 54.134 87.07L53.638 86.77V86.77Z" fill="black"/>
<path fill-rule="evenodd" clip-rule="evenodd" d="M58.474 107.55C58.474 107.55 52.156 119.32 53.592 127.93C59.048 118.17 66.227 108.69 70.248 106.97C68.812 106.4 59.91 106.68 58.474 107.55V107.55Z" fill="url(#paint5_linear)"/>
<path fill-rule="evenodd" clip-rule="evenodd" d="M45.586 127.81C45.865 129.46 48.037 130.65 49.38 131.61L49.707 131.34C48.526 130.5 47.943 130.38 47.713 129.02C47.484 127.66 45.306 126.15 45.586 127.81V127.81Z" fill="#005A00"/>
<path d="M66.219 43.2C66.219 42.96 64.849 46.93 63.656 50.39L62.25 44.45L60.656 51.1L57.594 43.57L56.375 51.76L52.906 47.17L56.812 62.95C46.717 66.54 44 75.89 44 75.89C44.889 76.2 46.514 76.42 48.219 76.6C47.236 79.23 46.656 82.13 46.656 85.2C46.656 96.61 54.211 105.85 63.531 105.85C67.395 105.85 70.904 104.19 73.75 101.51C73.283 102.82 72.684 103.93 71.781 104.6C79.023 107.1 90.62 105.68 95.47 104.1C95.47 104.1 81.85 99.79 83.56 91.29C85.28 76.47 81.49 63.37 67.781 61.79L70.281 47.35L68.438 50.35C67.754 48.25 66.219 43.51 66.219 43.2V43.2ZM60.5 107.01C53.451 107.01 47.781 112.68 47.781 119.73V122.92C46.604 124.75 45.448 126.47 45.688 127.89C45.864 128.93 46.78 129.78 47.781 130.51V134.67C53.793 137.65 64.142 138.59 73.781 137.76C74.93 137.66 76.102 137.67 77.219 137.51C81.35 136.93 85.27 136.05 88.41 134.67V119.73C88.41 112.68 82.71 107.01 75.656 107.01H60.5V107.01Z" fill="url(#paint6_linear)"/>
<defs>
<linearGradient id="paint0_linear" x1="56.4287" y1="101.206" x2="73.0608" y2="70.9067" gradientUnits="userSpaceOnUse">
<stop stop-color="#FFD8C1"/>
<stop offset="1" stop-color="#FFEDED"/>
</linearGradient>
<linearGradient id="paint1_linear" x1="58.5457" y1="128.773" x2="80.3225" y2="110.665" gradientUnits="userSpaceOnUse">
<stop stop-color="#008200"/>
<stop offset="1" stop-color="#00D000"/>
</linearGradient>
<linearGradient id="paint2_linear" x1="58.0605" y1="56.3847" x2="64.4305" y2="49.1176" gradientUnits="userSpaceOnUse">
<stop stop-color="#F0A700"/>
<stop offset="1" stop-color="#FFED00"/>
</linearGradient>
<linearGradient id="paint3_linear" x1="60.5763" y1="62.5961" x2="65.9031" y2="56.6186" gradientUnits="userSpaceOnUse">
<stop stop-color="#F0EB00"/>
<stop offset="1" stop-color="#FFFF00"/>
</linearGradient>
<linearGradient id="paint4_linear" x1="55.257" y1="99.9894" x2="57.8413" y2="96.4852" gradientUnits="userSpaceOnUse">
<stop stop-color="#C10000"/>
<stop offset="1" stop-color="#FF433E"/>
</linearGradient>
<linearGradient id="paint5_linear" x1="55.315" y1="116.99" x2="67.988" y2="107.8" gradientUnits="userSpaceOnUse">
<stop stop-color="#FFD8C1"/>
<stop offset="1" stop-color="#FFEDED"/>
</linearGradient>
<linearGradient id="paint6_linear" x1="137.426" y1="31.801" x2="57.28" y2="83.619" gradientUnits="userSpaceOnUse">
<stop stop-color="white"/>
<stop offset="1" stop-color="white" stop-opacity="0"/>
</linearGradient>
</defs>
</svg>
