<svg width="140" height="190" viewBox="0 0 140 190" fill="none" xmlns="http://www.w3.org/2000/svg">
<path d="M21 5H124C132.86 5 140 12.136 140 21V174C140 182.86 132.86 190 124 190H21C12.136 190 5 182.86 5 174V21C5 12.136 12.136 5 21 5Z" fill="black" fill-opacity="0.49804"/>
<path d="M17 1H120C128.86 1 136 8.136 136 17V170C136 178.86 128.86 186 120 186H17C8.136 186 1 178.86 1 170V17C1 8.136 8.136 1 17 1Z" fill="#E7E7E7"/>
<path d="M19 3H122C130.86 3 138 10.136 138 19V172C138 180.86 130.86 188 122 188H19C10.136 188 3 180.86 3 172V19C3 10.136 10.136 3 19 3Z" fill="#C7891F"/>
<path d="M18 2H121C129.86 2 137 9.136 137 18V171C137 179.86 129.86 187 121 187H18C9.136 187 2 179.86 2 171V18C2 9.136 9.136 2 18 2Z" fill="white"/>
<path d="M22.039 42.783H21.54C17.453 42.783 14.275 41.416 12.004 38.683C9.73369 35.951 8.59839 32.146 8.59839 27.27C8.59839 22.408 9.72809 18.596 11.988 15.837C14.258 13.077 17.381 11.698 21.358 11.698C25.378 11.698 28.507 13.064 30.744 15.797C32.992 18.529 34.117 22.354 34.117 27.27C34.117 30.646 33.518 33.553 32.322 35.991C31.137 38.429 29.426 40.264 27.189 41.497L32.189 48.248H26.092L22.039 42.783V42.783ZM21.358 17.304C19.408 17.304 17.896 18.174 16.822 19.916C15.748 21.657 15.211 24.109 15.211 27.27C15.211 30.485 15.737 32.95 16.789 34.665C17.841 36.366 19.364 37.217 21.358 37.217C23.318 37.217 24.835 36.346 25.91 34.604C26.984 32.863 27.521 30.418 27.521 27.27C27.521 24.109 26.984 21.657 25.91 19.916C24.835 18.174 23.318 17.304 21.358 17.304" fill="black"/>
<path d="M116.65 146.09H117.15C121.24 146.09 124.42 147.45 126.69 150.19C128.96 152.92 130.09 156.72 130.09 161.6C130.09 166.46 128.96 170.27 126.7 173.03C124.43 175.79 121.31 177.17 117.33 177.17C113.31 177.17 110.18 175.81 107.95 173.07C105.7 170.34 104.57 166.52 104.57 161.6C104.57 158.22 105.17 155.32 106.37 152.88C107.55 150.44 109.26 148.61 111.5 147.37L106.5 140.62H112.6L116.65 146.09V146.09ZM117.33 171.57C119.28 171.57 120.79 170.7 121.87 168.95C122.94 167.21 123.48 164.76 123.48 161.6C123.48 158.38 122.95 155.92 121.9 154.21C120.85 152.5 119.33 151.65 117.33 151.65C115.37 151.65 113.85 152.52 112.78 154.27C111.71 156.01 111.17 158.45 111.17 161.6C111.17 164.76 111.71 167.21 112.78 168.95C113.85 170.7 115.37 171.57 117.33 171.57" fill="black"/>
<path fill-rule="evenodd" clip-rule="evenodd" d="M20.645 48.665C15.72 56.49 0.609997 69.814 10.182 73.928C15.993 75.822 18.758 71.945 19.929 69.379H20.164L16.305 82.325L25.242 82.287C25.242 82.287 21.392 69.842 21.383 69.366H21.477C22.423 71.463 26.013 75.805 29.961 74.151C41.507 69.516 24.506 56.327 20.645 48.665V48.665Z" fill="black"/>
<path fill-rule="evenodd" clip-rule="evenodd" d="M118.04 140C122.96 132.18 138.07 118.85 128.5 114.74C122.69 112.84 119.92 116.72 118.75 119.29H118.52L122.38 106.34L113.44 106.38C113.44 106.38 117.29 118.82 117.3 119.3H117.2C116.26 117.2 112.67 112.86 108.72 114.51C97.173 119.15 114.17 132.34 118.04 140V140Z" fill="black"/>
<path d="M55.838 46.057C56.086 54.446 47.063 34.215 50.888 47.075C50.71 52.02 56.633 59.721 52.531 62.73C47.042 65.931 43.116 71.412 41.25 77.449C47.974 76.494 44.033 82.256 44.739 86.352C44.944 94.101 50.54 102.48 57.514 106.25C49.048 107.88 45.974 115.13 46.845 122.14C41.151 125.97 46.836 131.13 45.994 134.67C47.614 138.66 54.934 138.43 59.062 139.61C69.584 140.48 80.503 140.15 90.406 136.11C89.582 126.68 94.643 113.84 82.117 107.46C88.341 107.35 96.216 105.89 102.25 104.57C95.386 101.87 83.325 98.996 85.491 89.266C87.025 77.801 83.218 62.443 70.062 60.293C71.091 53.97 72.611 47.703 72.562 41.261C66.885 55.773 68.016 32.441 65.344 42.479C63.29 50.282 61.821 32.103 60.162 45.457C58.189 43.273 56.461 31.418 56.31 43.181L55.838 46.057V46.057Z" fill="black"/>
<path d="M80.4109 85.184C80.4109 96.598 72.8469 105.86 63.5269 105.86C54.2069 105.86 46.6429 96.598 46.6429 85.184C46.6429 73.771 54.2069 64.508 63.5269 64.508C72.8469 64.508 80.4109 73.771 80.4109 85.184Z" fill="url(#paint0_linear)"/>
<path d="M60.487 107.01C53.438 107.01 47.768 112.68 47.768 119.73V122.92C46.591 124.75 45.435 126.47 45.674 127.89C45.851 128.93 46.767 129.78 47.768 130.51V134.64C57.148 139.29 77.3 139.53 88.393 134.64V119.73C88.393 112.68 82.724 107.01 75.674 107.01H60.487V107.01Z" fill="url(#paint1_linear)"/>
<path fill-rule="evenodd" clip-rule="evenodd" d="M43.988 75.883C43.988 75.883 47.885 61.752 64.6 61.472C81.034 61.193 85.42 75.355 83.567 91.305C81.854 99.806 95.468 104.09 95.468 104.09C90.615 105.67 79.016 107.1 71.774 104.61C78.062 99.884 72.82 77.258 69.395 74.322C65.126 77.71 48.361 77.417 43.988 75.883V75.883Z" fill="black"/>
<path d="M63.1881 84.5721C63.1881 86.2916 61.825 87.6866 60.1461 87.6866C58.4671 87.6866 57.104 86.2916 57.104 84.5721C57.104 82.8526 58.4671 81.4576 60.1461 81.4576C61.825 81.4576 63.1881 82.8526 63.1881 84.5721Z" fill="white"/>
<path d="M60.5814 84.6446C60.5814 86.0842 59.8024 87.2521 58.8431 87.2521C57.8837 87.2521 57.1047 86.0842 57.1047 84.6446C57.1047 83.205 57.8837 82.0371 58.8431 82.0371C59.8024 82.0371 60.5814 83.205 60.5814 84.6446Z" fill="#1828CE"/>
<path d="M59.277 84.8619C59.277 86.0216 58.7902 86.9624 58.1906 86.9624C57.591 86.9624 57.1041 86.0216 57.1041 84.8619C57.1041 83.7023 57.591 82.7615 58.1906 82.7615C58.7902 82.7615 59.277 83.7023 59.277 84.8619Z" fill="black"/>
<path fill-rule="evenodd" clip-rule="evenodd" d="M56.3834 51.8214L57.5814 43.5719L62.1338 54.733C62.1338 54.733 66.207 42.7954 66.207 43.1837C66.207 43.5721 68.9624 52.0155 68.9624 52.0155L66.806 58.8092H57.5814L56.3834 51.8216V51.8214Z" fill="url(#paint2_linear)"/>
<path fill-rule="evenodd" clip-rule="evenodd" d="M52.9092 47.1628L57.222 64.5353C60.4566 65.5709 64.41 65.4418 67.2852 64.6324L70.2802 47.3569L65.009 55.9946L62.2536 44.4453L59.4982 55.8976L52.9092 47.163V47.1628Z" fill="url(#paint3_linear)"/>
<path d="M53.0991 84.0681C53.0991 85.7876 51.736 87.1826 50.0571 87.1826C48.3781 87.1826 47.015 85.7876 47.015 84.0681C47.015 82.3486 48.3781 80.9536 50.0571 80.9536C51.736 80.9536 53.0991 82.3486 53.0991 84.0681Z" fill="white"/>
<path d="M50.4924 84.1406C50.4924 85.5802 49.7135 86.7481 48.7541 86.7481C47.7947 86.7481 47.0157 85.5802 47.0157 84.1406C47.0157 82.701 47.7947 81.5331 48.7541 81.5331C49.7135 81.5331 50.4924 82.701 50.4924 84.1406Z" fill="#1828CE"/>
<path d="M49.188 84.358C49.188 85.5176 48.7012 86.4584 48.1016 86.4584C47.502 86.4584 47.0151 85.5176 47.0151 84.358C47.0151 83.1983 47.502 82.2575 48.1016 82.2575C48.7012 82.2575 49.188 83.1983 49.188 84.358Z" fill="black"/>
<path fill-rule="evenodd" clip-rule="evenodd" d="M51.9771 97.223C55.5071 101.64 58.912 100.12 63.704 97.223C59.417 96.971 56.5161 95.71 51.9771 97.223V97.223Z" fill="url(#paint4_linear)"/>
<path d="M74.599 122.88L75.863 123L77.234 137.51L73.769 137.76L74.599 122.88V122.88Z" fill="#700000"/>
<path fill-rule="evenodd" clip-rule="evenodd" d="M57.969 128.32L57.156 128.89C59.2 131.85 60.898 134.56 63.043 134.94C65.189 135.33 67.716 133.39 69.75 132.48L69.344 131.57C67.388 132.45 65.5 133 63.656 132.67C61.812 132.34 59.915 131.14 57.969 128.32V128.32Z" fill="#700000"/>
<path fill-rule="evenodd" clip-rule="evenodd" d="M53.638 86.776C52.846 88.063 51.904 89.267 52.068 90.239C52.232 91.212 53.51 91.914 54.3 92.474L54.631 91.996C53.936 91.503 53.479 90.866 53.344 90.066C53.209 89.267 53.394 88.274 54.134 87.07L53.638 86.776Z" fill="black"/>
<path fill-rule="evenodd" clip-rule="evenodd" d="M58.474 107.55C58.474 107.55 52.156 119.32 53.592 127.94C59.048 118.17 66.227 108.7 70.248 106.97C68.812 106.4 59.91 106.69 58.474 107.55V107.55Z" fill="url(#paint5_linear)"/>
<path fill-rule="evenodd" clip-rule="evenodd" d="M45.586 127.81C45.865 129.46 48.037 130.66 49.38 131.61L49.707 131.34C48.526 130.5 47.943 130.39 47.713 129.03C47.484 127.67 45.306 126.16 45.586 127.81V127.81Z" fill="#700000"/>
<path d="M66.219 43.199C66.219 42.956 64.849 46.926 63.656 50.386L62.25 44.449L60.656 51.105L57.594 43.574L56.375 51.761L52.906 47.167L56.812 62.949C46.717 66.544 44 75.886 44 75.886C44.889 76.198 46.514 76.416 48.219 76.605C47.236 79.226 46.656 82.127 46.656 85.199C46.656 96.612 54.211 105.85 63.531 105.85C67.395 105.85 70.904 104.19 73.75 101.51C73.283 102.82 72.684 103.93 71.781 104.6C79.023 107.1 90.616 105.68 95.469 104.1C95.469 104.1 81.85 99.794 83.562 91.292C85.285 76.473 81.492 63.375 67.781 61.792L70.281 47.355L68.438 50.355C67.754 48.248 66.219 43.514 66.219 43.199V43.199ZM60.5 107.01C53.451 107.01 47.781 112.68 47.781 119.73V122.92C46.604 124.75 45.448 126.47 45.688 127.89C45.864 128.93 46.78 129.78 47.781 130.51V134.67C53.793 137.65 64.142 138.59 73.781 137.76C74.93 137.66 76.102 137.67 77.219 137.51C81.353 136.93 85.271 136.05 88.406 134.67V119.73C88.406 112.68 82.705 107.01 75.656 107.01H60.5Z" fill="url(#paint6_linear)"/>
<defs>
<linearGradient id="paint0_linear" x1="56.4291" y1="101.213" x2="73.0611" y2="70.9137" gradientUnits="userSpaceOnUse">
<stop stop-color="#FFD8C1"/>
<stop offset="1" stop-color="#FFEDED"/>
</linearGradient>
<linearGradient id="paint1_linear" x1="58.5457" y1="128.78" x2="80.3225" y2="110.672" gradientUnits="userSpaceOnUse">
<stop stop-color="#C10000"/>
<stop offset="1" stop-color="#FF433E"/>
</linearGradient>
<linearGradient id="paint2_linear" x1="58.0606" y1="56.3827" x2="64.4307" y2="49.1156" gradientUnits="userSpaceOnUse">
<stop stop-color="#F0A700"/>
<stop offset="1" stop-color="#FFED00"/>
</linearGradient>
<linearGradient id="paint3_linear" x1="60.5764" y1="62.5941" x2="65.9031" y2="56.6166" gradientUnits="userSpaceOnUse">
<stop stop-color="#F0EB00"/>
<stop offset="1" stop-color="#FFFF00"/>
</linearGradient>
<linearGradient id="paint4_linear" x1="55.2571" y1="99.9954" x2="57.8414" y2="96.4912" gradientUnits="userSpaceOnUse">
<stop stop-color="#C10000"/>
<stop offset="1" stop-color="#FF433E"/>
</linearGradient>
<linearGradient id="paint5_linear" x1="55.3145" y1="116.991" x2="67.9875" y2="107.801" gradientUnits="userSpaceOnUse">
<stop stop-color="#FFD8C1"/>
<stop offset="1" stop-color="#FFEDED"/>
</linearGradient>
<linearGradient id="paint6_linear" x1="137.426" y1="31.802" x2="57.28" y2="83.62" gradientUnits="userSpaceOnUse">
<stop stop-color="white"/>
<stop offset="1" stop-color="white" stop-opacity="0"/>
</linearGradient>
</defs>
</svg>
