<svg width="140" height="190" viewBox="0 0 140 190" fill="none" xmlns="http://www.w3.org/2000/svg">
<path d="M21 5H124C132.86 5 140 12.136 140 21V174C140 182.86 132.86 190 124 190H21C12.136 190 5 182.86 5 174V21C5 12.136 12.136 5 21 5Z" fill="black" fill-opacity="0.49804"/>
<path d="M17 1H120C128.86 1 136 8.136 136 17V170C136 178.86 128.86 186 120 186H17C8.136 186 1 178.86 1 170V17C1 8.136 8.136 1 17 1Z" fill="#E7E7E7"/>
<path d="M19 3H122C130.86 3 138 10.136 138 19V172C138 180.86 130.86 188 122 188H19C10.136 188 3 180.86 3 172V19C3 10.136 10.136 3 19 3Z" fill="#C7891F"/>
<path d="M18 2H121C129.86 2 137 9.136 137 18V171C137 179.86 129.86 187 121 187H18C9.136 187 2 179.86 2 171V18C2 9.136 9.136 2 18 2Z" fill="white"/>
<path fill-rule="evenodd" clip-rule="evenodd" d="M20.5269 48.67C17.8609 48.67 15.6969 51.934 15.6969 55.956C15.6969 59.382 20.0889 65.147 19.9189 67.885C18.5089 68.668 14.1519 61.448 11.8999 61.448C9.23345 61.448 7.06995 64.711 7.06995 68.733C7.06995 72.756 9.23345 76.019 11.8999 76.019C14.2119 76.019 18.1759 68.805 19.9189 69.456L16.9899 82.33L24.0139 82.288C24.0139 82.288 20.9369 69.807 20.9329 69.512H20.9879V69.526C22.6949 68.886 26.7939 76.158 29.0899 76.158C31.7569 76.158 33.9199 72.895 33.9199 68.872C33.9199 64.85 31.7569 61.587 29.0899 61.587C26.8479 61.587 22.7819 68.687 20.9969 67.955C21.0219 65.149 25.3569 59.378 25.3569 55.956C25.3569 51.934 23.1939 48.67 20.5269 48.67V48.67Z" fill="black"/>
<path d="M11.6769 42.368V18.778L6.43994 18.709L6.69254 15.087L11.6469 11.998H17.1389V42.368H11.6769ZM30.5729 27.146C30.5729 23.396 30.3079 20.757 29.7769 19.23C29.2569 17.689 28.3769 16.919 27.1359 16.919C25.8959 16.919 25.0109 17.689 24.4799 19.23C23.9499 20.757 23.6849 23.396 23.6849 27.146C23.6849 30.937 23.9499 33.61 24.4799 35.164C25.0109 36.718 25.8959 37.495 27.1359 37.495C28.3669 37.495 29.2469 36.718 29.7769 35.164C30.3079 33.61 30.5729 30.937 30.5729 27.146ZM36.3499 27.207C36.3499 32.177 35.5499 36.014 33.9489 38.72C32.3479 41.413 30.0769 42.759 27.1359 42.759C24.1849 42.759 21.9089 41.413 20.3089 38.72C18.7079 36.014 17.9079 32.177 17.9079 27.207C17.9079 22.224 18.7079 18.386 20.3089 15.693C21.9089 12.987 24.1849 11.634 27.1359 11.634C30.0769 11.634 32.3479 12.987 33.9489 15.693C35.5499 18.386 36.3499 22.224 36.3499 27.207" fill="black"/>
<path fill-rule="evenodd" clip-rule="evenodd" d="M117.42 139.96C120.08 139.96 122.25 136.7 122.25 132.67C122.25 129.25 117.86 123.48 118.03 120.74C119.44 119.96 123.79 127.18 126.05 127.18C128.71 127.18 130.88 123.92 130.88 119.9C130.88 115.87 128.71 112.61 126.05 112.61C123.73 112.61 119.77 119.82 118.03 119.17L120.96 106.3L113.93 106.34C113.93 106.34 117.01 118.82 117.01 119.12H116.96V119.1C115.25 119.74 111.15 112.47 108.86 112.47C106.19 112.47 104.03 115.74 104.03 119.76C104.03 123.78 106.19 127.04 108.86 127.04C111.1 127.04 115.16 119.94 116.95 120.68C116.92 123.48 112.59 129.25 112.59 132.67C112.59 136.7 114.75 139.96 117.42 139.96V139.96Z" fill="black"/>
<path d="M126.27 146.27V169.86L131.51 169.92L131.25 173.55L126.3 176.64H120.81V146.27H126.27ZM107.37 161.49C107.37 165.24 107.64 167.88 108.17 169.4C108.69 170.95 109.57 171.72 110.81 171.72C112.05 171.72 112.93 170.95 113.47 169.4C114 167.88 114.26 165.24 114.26 161.49C114.26 157.7 114 155.02 113.47 153.47C112.93 151.92 112.05 151.14 110.81 151.14C109.58 151.14 108.7 151.92 108.17 153.47C107.64 155.02 107.37 157.7 107.37 161.49ZM101.6 161.43C101.6 156.46 102.4 152.62 104 149.91C105.6 147.22 107.87 145.88 110.81 145.88C113.76 145.88 116.04 147.22 117.64 149.91C119.24 152.62 120.04 156.46 120.04 161.43C120.04 166.41 119.24 170.25 117.64 172.94C116.04 175.65 113.76 177 110.81 177C107.87 177 105.6 175.65 104 172.94C102.4 170.25 101.6 166.41 101.6 161.43Z" fill="black"/>
<path fill-rule="evenodd" clip-rule="evenodd" d="M49.199 36C47.646 36 46.385 37.918 46.385 40.281C46.385 42.295 48.944 45.683 48.844 47.292C48.023 47.751 45.485 43.509 44.173 43.509C42.62 43.509 41.36 45.426 41.36 47.79C41.36 50.154 42.62 52.071 44.173 52.071C45.52 52.071 47.829 47.832 48.844 48.215L47.138 55.78L51.23 55.755C51.23 55.755 49.437 48.421 49.435 48.248H49.467V48.256C50.462 47.88 52.849 52.153 54.187 52.153C55.74 52.153 57 50.235 57 47.872C57 45.508 55.74 43.59 54.187 43.59C52.88 43.59 50.512 47.763 49.473 47.333C49.487 45.684 52.012 42.293 52.012 40.281C52.012 37.918 50.752 36 49.199 36V36Z" fill="black"/>
<path fill-rule="evenodd" clip-rule="evenodd" d="M68.839 50.22C67.286 50.22 66.025 52.138 66.025 54.501C66.025 56.515 68.584 59.903 68.484 61.512C67.663 61.971 65.125 57.729 63.813 57.729C62.26 57.729 61 59.646 61 62.01C61 64.374 62.26 66.291 63.813 66.291C65.16 66.291 67.469 62.052 68.484 62.435L66.778 70L70.87 69.975C70.87 69.975 69.077 62.641 69.075 62.468H69.107V62.476C70.102 62.1 72.489 66.373 73.827 66.373C75.38 66.373 76.64 64.455 76.64 62.092C76.64 59.728 75.38 57.81 73.827 57.81C72.52 57.81 70.152 61.983 69.113 61.553C69.127 59.904 71.652 56.513 71.652 54.501C71.652 52.138 70.392 50.22 68.839 50.22V50.22Z" fill="black"/>
<path fill-rule="evenodd" clip-rule="evenodd" d="M90.199 36.22C88.646 36.22 87.385 38.138 87.385 40.501C87.385 42.515 89.944 45.903 89.844 47.512C89.023 47.971 86.485 43.729 85.173 43.729C83.62 43.729 82.36 45.646 82.36 48.01C82.36 50.374 83.62 52.291 85.173 52.291C86.52 52.291 88.829 48.052 89.844 48.435L88.138 56L92.23 55.975C92.23 55.975 90.437 48.641 90.435 48.468H90.467V48.476C91.462 48.1 93.849 52.373 95.187 52.373C96.74 52.373 98 50.455 98 48.092C98 45.728 96.74 43.81 95.187 43.81C93.88 43.81 91.512 47.983 90.473 47.553C90.487 45.904 93.012 42.513 93.012 40.501C93.012 38.138 91.752 36.22 90.199 36.22V36.22Z" fill="black"/>
<path fill-rule="evenodd" clip-rule="evenodd" d="M48.839 71.22C47.286 71.22 46.025 73.138 46.025 75.501C46.025 77.515 48.584 80.903 48.484 82.512C47.663 82.971 45.125 78.729 43.813 78.729C42.26 78.729 41 80.646 41 83.01C41 85.374 42.26 87.291 43.813 87.291C45.16 87.291 47.469 83.052 48.484 83.435L46.778 91L50.87 90.975C50.87 90.975 49.077 83.641 49.075 83.468H49.107V83.476C50.102 83.1 52.489 87.373 53.827 87.373C55.38 87.373 56.64 85.455 56.64 83.092C56.64 80.728 55.38 78.81 53.827 78.81C52.52 78.81 50.152 82.983 49.113 82.553C49.127 80.904 51.652 77.513 51.652 75.501C51.652 73.138 50.392 71.22 48.839 71.22V71.22Z" fill="black"/>
<path fill-rule="evenodd" clip-rule="evenodd" d="M88.199 70C86.646 70 85.385 71.918 85.385 74.281C85.385 76.295 87.944 79.683 87.844 81.292C87.023 81.751 84.485 77.509 83.173 77.509C81.62 77.509 80.36 79.426 80.36 81.79C80.36 84.154 81.62 86.071 83.173 86.071C84.52 86.071 86.829 81.832 87.844 82.215L86.138 89.78L90.23 89.755C90.23 89.755 88.437 82.421 88.435 82.248H88.467V82.256C89.462 81.88 91.849 86.153 93.187 86.153C94.74 86.153 96 84.235 96 81.872C96 79.508 94.74 77.59 93.187 77.59C91.88 77.59 89.512 81.763 88.473 81.333C88.487 79.684 91.012 76.293 91.012 74.281C91.012 71.918 89.752 70 88.199 70V70Z" fill="black"/>
<path fill-rule="evenodd" clip-rule="evenodd" d="M48.161 119C49.714 119 50.975 117.08 50.975 114.72C50.975 112.71 48.416 109.32 48.516 107.71C49.337 107.25 51.875 111.49 53.187 111.49C54.74 111.49 56 109.57 56 107.21C56 104.85 54.74 102.93 53.187 102.93C51.84 102.93 49.531 107.17 48.516 106.79L50.222 99.22L46.13 99.245C46.13 99.245 47.923 106.58 47.925 106.75H47.893V106.74C46.898 107.12 44.511 102.85 43.173 102.85C41.62 102.85 40.36 104.76 40.36 107.13C40.36 109.49 41.62 111.41 43.173 111.41C44.48 111.41 46.848 107.24 47.887 107.67C47.873 109.32 45.348 112.71 45.348 114.72C45.348 117.08 46.608 119 48.161 119V119Z" fill="black"/>
<path fill-rule="evenodd" clip-rule="evenodd" d="M89.801 119.78C91.354 119.78 92.615 117.86 92.615 115.5C92.615 113.49 90.056 110.1 90.156 108.49C90.977 108.03 93.515 112.27 94.827 112.27C96.38 112.27 97.64 110.35 97.64 107.99C97.64 105.63 96.38 103.71 94.827 103.71C93.48 103.71 91.171 107.95 90.156 107.57L91.862 100L87.77 100.02C87.77 100.02 89.563 107.36 89.565 107.53H89.533V107.52C88.538 107.9 86.151 103.63 84.813 103.63C83.26 103.63 82 105.54 82 107.91C82 110.27 83.26 112.19 84.813 112.19C86.12 112.19 88.488 108.02 89.527 108.45C89.513 110.1 86.988 113.49 86.988 115.5C86.988 117.86 88.248 119.78 89.801 119.78V119.78Z" fill="black"/>
<path fill-rule="evenodd" clip-rule="evenodd" d="M68.801 137C70.354 137 71.615 135.08 71.615 132.72C71.615 130.71 69.056 127.32 69.156 125.71C69.977 125.25 72.515 129.49 73.827 129.49C75.38 129.49 76.64 127.57 76.64 125.21C76.64 122.85 75.38 120.93 73.827 120.93C72.48 120.93 70.171 125.17 69.156 124.79L70.862 117.22L66.77 117.24C66.77 117.24 68.563 124.58 68.565 124.75H68.533V124.74C67.538 125.12 65.151 120.85 63.813 120.85C62.26 120.85 61 122.76 61 125.13C61 127.49 62.26 129.41 63.813 129.41C65.12 129.41 67.488 125.24 68.527 125.67C68.513 127.32 65.988 130.71 65.988 132.72C65.988 135.08 67.248 137 68.801 137V137Z" fill="black"/>
<path fill-rule="evenodd" clip-rule="evenodd" d="M90.161 149.78C91.714 149.78 92.975 147.86 92.975 145.5C92.975 143.49 90.416 140.1 90.516 138.49C91.337 138.03 93.875 142.27 95.187 142.27C96.74 142.27 98 140.35 98 137.99C98 135.63 96.74 133.71 95.187 133.71C93.84 133.71 91.531 137.95 90.516 137.57L92.222 130L88.13 130.02C88.13 130.02 89.923 137.36 89.925 137.53H89.893V137.52C88.898 137.9 86.511 133.63 85.173 133.63C83.62 133.63 82.36 135.54 82.36 137.91C82.36 140.27 83.62 142.19 85.173 142.19C86.48 142.19 88.848 138.02 89.887 138.45C89.873 140.1 87.348 143.49 87.348 145.5C87.348 147.86 88.608 149.78 90.161 149.78V149.78Z" fill="black"/>
<path fill-rule="evenodd" clip-rule="evenodd" d="M49.161 149.78C50.714 149.78 51.975 147.86 51.975 145.5C51.975 143.49 49.416 140.1 49.516 138.49C50.337 138.03 52.875 142.27 54.187 142.27C55.74 142.27 57 140.35 57 137.99C57 135.63 55.74 133.71 54.187 133.71C52.84 133.71 50.531 137.95 49.516 137.57L51.222 130L47.13 130.02C47.13 130.02 48.923 137.36 48.925 137.53H48.893V137.52C47.898 137.9 45.511 133.63 44.173 133.63C42.62 133.63 41.36 135.54 41.36 137.91C41.36 140.27 42.62 142.19 44.173 142.19C45.48 142.19 47.848 138.02 48.887 138.45C48.873 140.1 46.348 143.49 46.348 145.5C46.348 147.86 47.608 149.78 49.161 149.78V149.78Z" fill="black"/>
</svg>
