<svg width="140" height="190" viewBox="0 0 140 190" fill="none" xmlns="http://www.w3.org/2000/svg">
<path d="M21 5H124C132.86 5 140 12.136 140 21V174C140 182.86 132.86 190 124 190H21C12.136 190 5 182.86 5 174V21C5 12.136 12.136 5 21 5Z" fill="black" fill-opacity="0.49804"/>
<path d="M17 1H120C128.86 1 136 8.136 136 17V170C136 178.86 128.86 186 120 186H17C8.136 186 1 178.86 1 170V17C1 8.136 8.136 1 17 1Z" fill="#E7E7E7"/>
<path d="M19 3H122C130.86 3 138 10.136 138 19V172C138 180.86 130.86 188 122 188H19C10.136 188 3 180.86 3 172V19C3 10.136 10.136 3 19 3Z" fill="#C7891F"/>
<path d="M18 2H121C129.86 2 137 9.136 137 18V171C137 179.86 129.86 187 121 187H18C9.136 187 2 179.86 2 171V18C2 9.136 9.136 2 18 2Z" fill="white"/>
<path d="M11.6769 42.368V18.778L6.43994 18.709L6.69254 15.087L11.6469 11.998H17.1389V42.368H11.6769ZM30.5729 27.146C30.5729 23.396 30.3079 20.757 29.7769 19.23C29.2569 17.689 28.3769 16.919 27.1359 16.919C25.8959 16.919 25.0109 17.689 24.4799 19.23C23.9499 20.757 23.6849 23.396 23.6849 27.146C23.6849 30.937 23.9499 33.61 24.4799 35.164C25.0109 36.718 25.8959 37.495 27.1359 37.495C28.3669 37.495 29.2469 36.718 29.7769 35.164C30.3079 33.61 30.5729 30.937 30.5729 27.146ZM36.3499 27.207C36.3499 32.177 35.5499 36.014 33.9489 38.72C32.3479 41.413 30.0769 42.759 27.1359 42.759C24.1849 42.759 21.9089 41.413 20.3089 38.72C18.7079 36.014 17.9079 32.177 17.9079 27.207C17.9079 22.224 18.7079 18.386 20.3089 15.693C21.9089 12.987 24.1849 11.634 27.1359 11.634C30.0769 11.634 32.3479 12.987 33.9489 15.693C35.5499 18.386 36.3499 22.224 36.3499 27.207" fill="#FF0000"/>
<path d="M127.2 146.47V170.06L132.44 170.12L132.19 173.75L127.23 176.84H121.74V146.47H127.2ZM108.31 161.69C108.31 165.44 108.57 168.08 109.1 169.6C109.62 171.14 110.5 171.91 111.74 171.91C112.98 171.91 113.87 171.14 114.4 169.6C114.93 168.08 115.19 165.44 115.19 161.69C115.19 157.9 114.93 155.22 114.4 153.67C113.87 152.12 112.98 151.34 111.74 151.34C110.51 151.34 109.63 152.12 109.1 153.67C108.57 155.22 108.31 157.9 108.31 161.69ZM102.53 161.63C102.53 156.66 103.33 152.82 104.93 150.11C106.53 147.42 108.8 146.07 111.74 146.07C114.69 146.07 116.97 147.42 118.57 150.11C120.17 152.82 120.97 156.66 120.97 161.63C120.97 166.61 120.17 170.45 118.57 173.14C116.97 175.85 114.69 177.2 111.74 177.2C108.8 177.2 106.53 175.85 104.93 173.14C103.33 170.45 102.53 166.61 102.53 161.63Z" fill="#FF0000"/>
<path fill-rule="evenodd" clip-rule="evenodd" d="M20.4099 48.665C16.2839 56.91 13.2749 61.163 7.06995 65.705C12.9419 70.192 17.0829 74.829 20.5299 82.325C23.6089 75.204 27.3769 69.895 33.9199 65.482C27.3379 62.133 23.5269 56.828 20.4099 48.665V48.665Z" fill="#FF0000"/>
<path fill-rule="evenodd" clip-rule="evenodd" d="M49.13 36.22C46.727 41.065 44.975 43.564 41.36 46.233C44.781 48.87 47.192 51.595 49.2 56C50.994 51.815 53.188 48.696 57 46.102C53.166 44.134 50.946 41.017 49.13 36.22V36.22Z" fill="#FF0000"/>
<path fill-rule="evenodd" clip-rule="evenodd" d="M90.13 36.22C87.727 41.065 85.975 43.564 82.36 46.233C85.781 48.87 88.192 51.595 90.2 56C91.994 51.815 94.188 48.696 98 46.102C94.166 44.134 91.946 41.017 90.13 36.22V36.22Z" fill="#FF0000"/>
<path fill-rule="evenodd" clip-rule="evenodd" d="M68.77 50.22C66.367 55.065 64.615 57.564 61 60.233C64.421 62.87 66.832 65.595 68.84 70C70.634 65.815 72.828 62.696 76.64 60.102C72.806 58.134 70.586 55.017 68.77 50.22V50.22Z" fill="#FF0000"/>
<path fill-rule="evenodd" clip-rule="evenodd" d="M48.77 71.22C46.367 76.065 44.615 78.564 41 81.233C44.421 83.87 46.832 86.595 48.84 91C50.634 86.815 52.828 83.696 56.64 81.102C52.806 79.134 50.586 76.017 48.77 71.22Z" fill="#FF0000"/>
<path fill-rule="evenodd" clip-rule="evenodd" d="M88.13 70.22C85.727 75.065 83.975 77.564 80.36 80.233C83.781 82.87 86.192 85.595 88.2 90C89.994 85.815 92.188 82.696 96 80.102C92.166 78.134 89.946 75.017 88.13 70.22Z" fill="#FF0000"/>
<path fill-rule="evenodd" clip-rule="evenodd" d="M89.77 100C87.367 104.85 85.615 107.34 82 110.01C85.421 112.65 87.832 115.38 89.84 119.78C91.634 115.6 93.828 112.48 97.64 109.88C93.806 107.91 91.586 104.8 89.77 100Z" fill="#FF0000"/>
<path fill-rule="evenodd" clip-rule="evenodd" d="M48.13 100C45.727 104.85 43.975 107.34 40.36 110.01C43.781 112.65 46.192 115.38 48.2 119.78C49.994 115.6 52.188 112.48 56 109.88C52.166 107.91 49.946 104.8 48.13 100Z" fill="#FF0000"/>
<path fill-rule="evenodd" clip-rule="evenodd" d="M49.13 130C46.727 134.85 44.975 137.34 41.36 140.01C44.781 142.65 47.192 145.38 49.2 149.78C50.994 145.6 53.188 142.48 57 139.88C53.166 137.91 50.946 134.8 49.13 130Z" fill="#FF0000"/>
<path fill-rule="evenodd" clip-rule="evenodd" d="M68.13 117C65.727 121.85 63.975 124.34 60.36 127.01C63.781 129.65 66.192 132.38 68.2 136.78C69.994 132.6 72.188 129.48 76 126.88C72.166 124.91 69.946 121.8 68.13 117Z" fill="#FF0000"/>
<path fill-rule="evenodd" clip-rule="evenodd" d="M90.13 130.22C87.727 135.07 85.975 137.56 82.36 140.23C85.781 142.87 88.192 145.6 90.2 150C91.994 145.82 94.188 142.7 98 140.1C94.166 138.13 91.946 135.02 90.13 130.22Z" fill="#FF0000"/>
<path fill-rule="evenodd" clip-rule="evenodd" d="M118.34 106.3C114.21 114.55 111.21 118.8 105 123.34C110.87 127.83 115.01 132.47 118.46 139.96C121.54 132.84 125.31 127.53 131.85 123.12C125.27 119.77 121.46 114.47 118.34 106.3V106.3Z" fill="#FF0000"/>
</svg>
