<svg width="140" height="190" viewBox="0 0 140 190" fill="none" xmlns="http://www.w3.org/2000/svg">
<path d="M21 5H124C132.86 5 140 12.136 140 21V174C140 182.86 132.86 190 124 190H21C12.136 190 5 182.86 5 174V21C5 12.136 12.136 5 21 5Z" fill="black" fill-opacity="0.49804"/>
<path d="M17 1H120C128.86 1 136 8.136 136 17V170C136 178.86 128.86 186 120 186H17C8.136 186 1 178.86 1 170V17C1 8.136 8.136 1 17 1Z" fill="#E7E7E7"/>
<path d="M19 3H122C130.86 3 138 10.136 138 19V172C138 180.86 130.86 188 122 188H19C10.136 188 3 180.86 3 172V19C3 10.136 10.136 3 19 3Z" fill="#C7891F"/>
<path d="M18 2H121C129.86 2 137 9.136 137 18V171C137 179.86 129.86 187 121 187H18C9.136 187 2 179.86 2 171V18C2 9.136 9.136 2 18 2Z" fill="white"/>
<path d="M11.6769 42.368V18.778L6.43994 18.709L6.69254 15.087L11.6469 11.998H17.1389V42.368H11.6769ZM30.5729 27.146C30.5729 23.396 30.3079 20.757 29.7769 19.23C29.2569 17.689 28.3769 16.919 27.1359 16.919C25.8959 16.919 25.0109 17.689 24.4799 19.23C23.9499 20.757 23.6849 23.396 23.6849 27.146C23.6849 30.937 23.9499 33.61 24.4799 35.164C25.0109 36.718 25.8959 37.495 27.1359 37.495C28.3669 37.495 29.2469 36.718 29.7769 35.164C30.3079 33.61 30.5729 30.937 30.5729 27.146ZM36.3499 27.207C36.3499 32.177 35.5499 36.014 33.9489 38.72C32.3479 41.413 30.0769 42.759 27.1359 42.759C24.1849 42.759 21.9089 41.413 20.3089 38.72C18.7079 36.014 17.9079 32.177 17.9079 27.207C17.9079 22.224 18.7079 18.386 20.3089 15.693C21.9089 12.987 24.1849 11.634 27.1359 11.634C30.0769 11.634 32.3479 12.987 33.9489 15.693C35.5499 18.386 36.3499 22.224 36.3499 27.207" fill="#FF0000"/>
<path fill-rule="evenodd" clip-rule="evenodd" d="M13.5543 48.8447C12.7502 48.8489 11.867 49.0461 10.8919 49.4868C0.248669 57.6839 14.5959 70.9091 20.6551 82.2625L20.8324 82.3212C27.49 69.9102 40.1657 56.2527 30.4785 49.4868C22.8078 46.0242 20.7564 57.5454 20.6868 57.9609C20.6235 57.5958 19.0564 48.8069 13.5543 48.8447Z" fill="#FF0000"/>
<path d="M127.19 146.63V170.22L132.43 170.29L132.17 173.91L127.22 177H121.73V146.63H127.19ZM108.29 161.85C108.29 165.6 108.56 168.24 109.09 169.77C109.61 171.31 110.49 172.08 111.73 172.08C112.97 172.08 113.85 171.31 114.39 169.77C114.92 168.24 115.18 165.6 115.18 161.85C115.18 158.06 114.92 155.39 114.39 153.84C113.85 152.28 112.97 151.51 111.73 151.51C110.5 151.51 109.62 152.28 109.09 153.84C108.56 155.39 108.29 158.06 108.29 161.85ZM102.52 161.79C102.52 156.82 103.32 152.99 104.92 150.28C106.52 147.59 108.79 146.24 111.73 146.24C114.68 146.24 116.96 147.59 118.56 150.28C120.16 152.99 120.96 156.82 120.96 161.79C120.96 166.78 120.16 170.61 118.56 173.31C116.96 176.01 114.68 177.37 111.73 177.37C108.79 177.37 106.52 176.01 104.92 173.31C103.32 170.61 102.52 166.78 102.52 161.79Z" fill="#FF0000"/>
<path fill-rule="evenodd" clip-rule="evenodd" d="M125.31 140C126.11 139.99 127 139.79 127.97 139.35C138.62 131.15 124.27 117.93 118.21 106.57L118.03 106.52C111.37 118.93 98.699 132.58 108.38 139.35C116.06 142.81 118.11 131.29 118.18 130.88C118.24 131.24 119.81 140.03 125.31 140V140Z" fill="#FF0000"/>
<path fill-rule="evenodd" clip-rule="evenodd" d="M65.1264 51.0019C64.6594 51.0044 64.1463 51.1209 63.5799 51.3813C57.3974 56.2236 65.7315 64.0362 69.2512 70.743L69.3542 70.7777C73.2215 63.4461 80.5846 55.3781 74.9574 51.3813C70.5017 49.3358 69.31 56.1417 69.2696 56.3872C69.2328 56.1715 68.3225 50.9796 65.1264 51.0019Z" fill="#FF0000"/>
<path fill-rule="evenodd" clip-rule="evenodd" d="M72.8736 136C73.3406 135.998 73.8537 135.881 74.4201 135.621C80.6026 130.778 72.2685 122.966 68.7488 116.259L68.6458 116.224C64.7785 123.556 57.4154 131.624 63.0426 135.621C67.4983 137.666 68.69 130.86 68.7304 130.615C68.7672 130.831 69.6775 136.022 72.8736 136Z" fill="#FF0000"/>
<path fill-rule="evenodd" clip-rule="evenodd" d="M44.1264 40.2222C43.6594 40.2247 43.1463 40.3412 42.5799 40.6016C36.3974 45.4439 44.7315 53.2565 48.2512 59.9633L48.3542 59.998C52.2215 52.6664 59.5846 44.5984 53.9574 40.6016C49.5017 38.5561 48.31 45.362 48.2696 45.6075C48.2328 45.3918 47.3225 40.1999 44.1264 40.2222Z" fill="#FF0000"/>
<path fill-rule="evenodd" clip-rule="evenodd" d="M83.1264 40.0023C82.6594 40.0048 82.1463 40.1213 81.5799 40.3817C75.3974 45.224 83.7315 53.0366 87.2512 59.7434L87.3542 59.7781C91.2215 52.4465 98.5846 44.3785 92.9574 40.3817C88.5017 38.3362 87.31 45.1421 87.2696 45.3876C87.2328 45.1719 86.3225 39.98 83.1264 40.0023Z" fill="#FF0000"/>
<path fill-rule="evenodd" clip-rule="evenodd" d="M44.7665 71.2219C44.2994 71.2244 43.7863 71.3409 43.2199 71.6013C37.0374 76.4436 45.3715 84.2562 48.8912 90.963L48.9942 90.9977C52.8615 83.6661 60.2246 75.5981 54.5974 71.6013C50.1417 69.5558 48.9501 76.3617 48.9096 76.6072C48.8728 76.3915 47.9625 71.1996 44.7665 71.2219Z" fill="#FF0000"/>
<path fill-rule="evenodd" clip-rule="evenodd" d="M84.1264 70.2219C83.6594 70.2244 83.1463 70.3409 82.5799 70.6013C76.3974 75.4436 84.7315 83.2562 88.2512 89.963L88.3542 89.9977C92.2215 82.6661 99.5846 74.5981 93.9574 70.6013C89.5017 68.5558 88.31 75.3617 88.2696 75.6072C88.2328 75.3915 87.3225 70.1996 84.1264 70.2219Z" fill="#FF0000"/>
<path fill-rule="evenodd" clip-rule="evenodd" d="M53.2335 119.78C53.7006 119.778 54.2137 119.661 54.7801 119.401C60.9626 114.558 52.6285 106.746 49.1088 100.039L49.0058 100.004C45.1385 107.336 37.7754 115.404 43.4026 119.401C47.8583 121.446 49.0499 114.64 49.0904 114.395C49.1272 114.611 50.0375 119.802 53.2335 119.78Z" fill="#FF0000"/>
<path fill-rule="evenodd" clip-rule="evenodd" d="M53.8736 146.78C54.3406 146.778 54.8537 146.661 55.4201 146.401C61.6026 141.558 53.2685 133.746 49.7488 127.039L49.6458 127.004C45.7785 134.336 38.4154 142.404 44.0426 146.401C48.4983 148.446 49.69 141.64 49.7304 141.395C49.7672 141.611 50.6775 146.802 53.8736 146.78Z" fill="#FF0000"/>
<path fill-rule="evenodd" clip-rule="evenodd" d="M91.2376 146.78C91.7047 146.778 92.2177 146.661 92.7841 146.401C98.9667 141.558 90.6326 133.746 87.1128 127.039L87.0098 127.004C83.1425 134.336 75.7794 142.404 81.4066 146.401C85.8623 148.446 87.054 141.64 87.0944 141.395C87.1312 141.611 88.0415 146.802 91.2376 146.78Z" fill="#FF0000"/>
<path fill-rule="evenodd" clip-rule="evenodd" d="M92.8776 119C93.3447 118.998 93.8577 118.881 94.4241 118.621C100.607 113.778 92.2726 105.966 88.7528 99.259L88.6499 99.2243C84.7826 106.556 77.4194 114.624 83.0466 118.621C87.5024 120.666 88.694 113.86 88.7344 113.615C88.7712 113.831 89.6815 119.022 92.8776 119Z" fill="#FF0000"/>
</svg>
