<svg width="140" height="190" viewBox="0 0 140 190" fill="none" xmlns="http://www.w3.org/2000/svg">
<path d="M21 5H124C132.86 5 140 12.136 140 21V174C140 182.86 132.86 190 124 190H21C12.136 190 5 182.86 5 174V21C5 12.136 12.136 5 21 5Z" fill="black" fill-opacity="0.49804"/>
<path d="M17 1H120C128.86 1 136 8.136 136 17V170C136 178.86 128.86 186 120 186H17C8.136 186 1 178.86 1 170V17C1 8.136 8.136 1 17 1Z" fill="#E7E7E7"/>
<path d="M19 3H122C130.86 3 138 10.136 138 19V172C138 180.86 130.86 188 122 188H19C10.136 188 3 180.86 3 172V19C3 10.136 10.136 3 19 3Z" fill="#C7891F"/>
<path d="M18 2H121C129.86 2 137 9.136 137 18V171C137 179.86 129.86 187 121 187H18C9.136 187 2 179.86 2 171V18C2 9.136 9.136 2 18 2Z" fill="white"/>
<path fill-rule="evenodd" clip-rule="evenodd" d="M20.64 48.9092C15.8 56.6208 0.959958 69.7513 10.36 73.8075C16.07 75.6753 18.78 71.8515 19.93 69.3224H20.16L16.37 82.0842L25.15 82.0441C25.15 82.0441 21.37 69.7794 21.36 69.3104H21.45C22.38 71.3786 25.9099 75.6552 29.7899 74.0279C41.1299 69.4587 24.43 56.4604 20.64 48.9092V48.9092Z" fill="black" stroke="black" stroke-width="0.480456" stroke-linejoin="round"/>
<path d="M11.6769 42.368V18.778L6.43994 18.709L6.69254 15.087L11.6469 11.998H17.1389V42.368H11.6769ZM30.5729 27.146C30.5729 23.396 30.3079 20.757 29.7769 19.23C29.2569 17.689 28.3769 16.919 27.1359 16.919C25.8959 16.919 25.0109 17.689 24.4799 19.23C23.9499 20.757 23.6849 23.396 23.6849 27.146C23.6849 30.937 23.9499 33.61 24.4799 35.164C25.0109 36.718 25.8959 37.495 27.1359 37.495C28.3669 37.495 29.2469 36.718 29.7769 35.164C30.3079 33.61 30.5729 30.937 30.5729 27.146ZM36.3499 27.207C36.3499 32.177 35.5499 36.014 33.9489 38.72C32.3479 41.413 30.0769 42.759 27.1359 42.759C24.1849 42.759 21.9089 41.413 20.3089 38.72C18.7079 36.014 17.9079 32.177 17.9079 27.207C17.9079 22.224 18.7079 18.386 20.3089 15.693C21.9089 12.987 24.1849 11.634 27.1359 11.634C30.0769 11.634 32.3479 12.987 33.9489 15.693C35.5499 18.386 36.3499 22.224 36.3499 27.207" fill="black"/>
<path fill-rule="evenodd" clip-rule="evenodd" d="M118.24 139.759C123.08 132.047 137.92 118.917 128.52 114.861C122.81 112.993 120.1 116.816 118.95 119.346H118.72L122.51 106.584L113.73 106.624C113.73 106.624 117.51 118.889 117.52 119.358H117.43C116.5 117.289 112.97 113.013 109.09 114.64C97.75 119.209 114.45 132.208 118.24 139.759V139.759Z" fill="black" stroke="black" stroke-width="0.480456" stroke-linejoin="round"/>
<path d="M127.2 146.47V170.06L132.44 170.12L132.19 173.75L127.23 176.84H121.74V146.47H127.2ZM108.31 161.69C108.31 165.44 108.57 168.08 109.1 169.6C109.62 171.14 110.5 171.91 111.74 171.91C112.98 171.91 113.87 171.14 114.4 169.6C114.93 168.08 115.19 165.44 115.19 161.69C115.19 157.9 114.93 155.22 114.4 153.67C113.87 152.12 112.98 151.34 111.74 151.34C110.51 151.34 109.63 152.12 109.1 153.67C108.57 155.22 108.31 157.9 108.31 161.69ZM102.53 161.63C102.53 156.66 103.33 152.82 104.93 150.11C106.53 147.42 108.8 146.07 111.74 146.07C114.69 146.07 116.97 147.42 118.57 150.11C120.17 152.82 120.97 156.66 120.97 161.63C120.97 166.61 120.17 170.45 118.57 173.14C116.97 175.85 114.69 177.2 111.74 177.2C108.8 177.2 106.53 175.85 104.93 173.14C103.33 170.45 102.53 166.61 102.53 161.63Z" fill="black"/>
<path fill-rule="evenodd" clip-rule="evenodd" d="M48.9132 36.2265C46.0424 40.8237 37.2402 48.6513 42.8157 51.0694C46.2026 52.1829 47.81 49.9034 48.4921 48.3957H48.6285L46.3805 56.0035L51.5883 55.9796C51.5883 55.9796 49.3462 48.6681 49.3403 48.3885H49.3937C49.9453 49.6214 52.0391 52.1709 54.3404 51.2008C61.0667 48.4769 51.1612 40.7281 48.9132 36.2265V36.2265Z" fill="black"/>
<path fill-rule="evenodd" clip-rule="evenodd" d="M68.8982 50.3304C66.0274 54.9276 57.2252 62.7553 62.8007 65.1734C66.1876 66.2868 67.795 64.0074 68.4771 62.4996H68.6135L66.3655 70.1075L71.5733 70.0836C71.5733 70.0836 69.3312 62.772 69.3253 62.4925H69.3786C69.9303 63.7254 72.024 66.2749 74.3254 65.3048C81.0516 62.5809 71.1462 54.8321 68.8982 50.3304V50.3304Z" fill="black"/>
<path fill-rule="evenodd" clip-rule="evenodd" d="M90.0531 36.1443C87.1823 40.7415 78.3801 48.5692 83.9556 50.9872C87.3425 52.1007 88.9499 49.8212 89.632 48.3135H89.7684L87.5204 55.9213L92.7282 55.8974C92.7282 55.8974 90.4861 48.5859 90.4802 48.3063H90.5336C91.0852 49.5392 93.179 52.0887 95.4803 51.1186C102.207 48.3947 92.3011 40.6459 90.0531 36.1443V36.1443Z" fill="black"/>
<path fill-rule="evenodd" clip-rule="evenodd" d="M48.3932 71.4034C45.5224 76.0006 36.7202 83.8283 42.2957 86.2464C45.6825 87.3599 47.29 85.0804 47.9721 83.5727H48.1085L45.8605 91.1805L51.0683 91.1566C51.0683 91.1566 48.8262 83.845 48.8203 83.5655H48.8736C49.4253 84.7984 51.519 87.3479 53.8204 86.3778C60.5466 83.6539 50.6412 75.9051 48.3932 71.4034V71.4034Z" fill="black"/>
<path fill-rule="evenodd" clip-rule="evenodd" d="M88.3501 70.2284C85.4793 74.8256 76.6771 82.6533 82.2526 85.0714C85.6395 86.1848 87.2469 83.9053 87.929 82.3976H88.0654L85.8174 90.0055L91.0252 89.9816C91.0252 89.9816 88.7831 82.67 88.7772 82.3905H88.8305C89.3822 83.6234 91.476 86.1729 93.7773 85.2028C100.504 82.4789 90.5981 74.7301 88.3501 70.2284V70.2284Z" fill="black"/>
<path fill-rule="evenodd" clip-rule="evenodd" d="M48.2069 119.385C51.0777 114.787 59.8799 106.96 54.3044 104.542C50.9175 103.428 49.3101 105.708 48.628 107.215H48.4916L50.7396 99.6075L45.5318 99.6314C45.5318 99.6314 47.7739 106.943 47.7798 107.223H47.7265C47.1748 105.99 45.0811 103.44 42.7797 104.41C36.0535 107.134 45.9589 114.883 48.2069 119.385V119.385Z" fill="black"/>
<path fill-rule="evenodd" clip-rule="evenodd" d="M89.8768 119.465C92.7476 114.867 101.55 107.04 95.9743 104.622C92.5875 103.508 90.9801 105.788 90.2979 107.295H90.1615L92.4095 99.6875L87.2018 99.7114C87.2018 99.7114 89.4438 107.023 89.4498 107.303H89.3964C88.8448 106.07 86.751 103.52 84.4496 104.49C77.7234 107.214 87.6288 114.963 89.8768 119.465V119.465Z" fill="black"/>
<path fill-rule="evenodd" clip-rule="evenodd" d="M68.7168 137.015C71.5876 132.417 80.3898 124.59 74.8143 122.172C71.4274 121.058 69.82 123.338 69.1379 124.845H69.0015L71.2495 117.238L66.0417 117.261C66.0417 117.261 68.2838 124.573 68.2897 124.853H68.2363C67.6847 123.62 65.5909 121.07 63.2896 122.04C56.5634 124.764 66.4688 132.513 68.7168 137.015V137.015Z" fill="black"/>
<path fill-rule="evenodd" clip-rule="evenodd" d="M90.5168 150.025C93.3876 145.427 102.19 137.6 96.6143 135.182C93.2275 134.068 91.6201 136.348 90.938 137.855H90.8015L93.0495 130.248L87.8418 130.271C87.8418 130.271 90.0838 137.583 90.0898 137.863H90.0364C89.4848 136.63 87.391 134.08 85.0896 135.05C78.3634 137.774 88.2688 145.523 90.5168 150.025V150.025Z" fill="black"/>
<path fill-rule="evenodd" clip-rule="evenodd" d="M49.3868 150.025C52.2576 145.427 61.0598 137.6 55.4843 135.182C52.0975 134.068 50.4901 136.348 49.808 137.855H49.6715L51.9195 130.248L46.7118 130.271C46.7118 130.271 48.9538 137.583 48.9598 137.863H48.9064C48.3548 136.63 46.261 134.08 43.9596 135.05C37.2334 137.774 47.1388 145.523 49.3868 150.025V150.025Z" fill="black"/>
</svg>
